<svg xmlns="http://www.w3.org/2000/svg" viewBox="0 0 2646.64 1796.86"><defs><style>.cls-1{fill:#daebe8;}.cls-2{fill:#b8d5dc;}.cls-3{opacity:0.6;}.cls-4{fill:#acc9c5;}.cls-5{fill:#ccd39c;}.cls-6{fill:#c2c68e;}.cls-7{opacity:0.5;}.cls-8{fill:#68a1bf;}.cls-9{fill:#92bcb5;}.cls-10{fill:#ffb27d;}.cls-11{fill:#e9845c;}.cls-12{fill:#764678;}.cls-13{fill:#331832;}.cls-14{fill:#ef8062;}.cls-15{fill:#366f90;}.cls-16{fill:#020202;}.cls-17{fill:#080435;}.cls-18{fill:#e9633e;}.cls-19{fill:#fff;}.cls-20{fill:#5c305d;}.cls-21{fill:#ec865c;}.cls-22{opacity:0.3;}.cls-23{fill:#73b3ce;}.cls-24{fill:#92a5e6;}</style></defs><title>claims</title><g id="Capa_2" data-name="Capa 2"><g id="_Layer_" data-name="&lt;Layer&gt;"><path class="cls-1" d="M2646.64,336.93V1455.75c0,76.12-28.14,141.74-74.93,193.92-63.53,70.8-161.43,116.86-270.13,130.92-122,15.8-240.32,18-364.56,15.27-142.19-3.15-314.81-13.57-546.53-28.48-260.9-16.74-783.66,11-1045.46,13.21C154.48,1782.2,0,1635.15,0,1455.75V336.93C0,157.53,154.8,1.55,345,12.09c2.13.12,48.87,2.29,198.66,15.83,169.75,14.31,335.76,24.18,508.72,9,319.22-28,931.75-52.41,1249.17-24.84C2392.94,20,2476.29,54,2538.17,107.18,2605.76,165.13,2646.64,245,2646.64,336.93Z"/><ellipse class="cls-2" cx="1344.57" cy="1530" rx="1162.03" ry="119.42"/><g class="cls-3"><path class="cls-4" d="M1508.57,1064.47s431.18-947.95,684-821.28-429.68,571.19-546.46,851.12Z"/></g><path class="cls-5" d="M1668.94,1078.05s495.93-619.58,695.41-470.83-444.23,337.24-581.65,522.44Z"/><path class="cls-6" d="M1732.33,1107.48c92.57-129.63,236.94-237.55,341.75-305.26,113.63-73.4,206.48-116.63,207.4-117.06l-2.67-5.78c-.93.43-94.18,43.85-208.18,117.5-105.27,68-250.32,176.46-343.48,306.9Z"/><path class="cls-4" d="M2221.33,1227.76c-86.66,19.77-70.76,151.11-170,127.81-84-19.74-91.08-27.39-119.8-3a137.26,137.26,0,0,0-25.41,29c-8.52,12.93-25,32-50.42,36.78-155,29-370-198.37-209.34-326.78,11.6-9.27,28.6-13,47.42-16.14,102.13-17.1,134.53,29.5,213.78-91.95s190.58,50.18,259.12,43.33,128.77-28.09,183,44S2308,1208.06,2221.33,1227.76Z"/><g class="cls-7"><path class="cls-8" d="M1697.68,1258.25l-3.32-4.82c2.12-1.46,217.5-146.51,667.87-162l.21,5.84C1913.75,1112.71,1699.79,1256.79,1697.68,1258.25Z"/><path class="cls-8" d="M1976.05,1081.19c-60-52.83-70.94-95.17-71.37-96.94l5.67-1.4c.11.42,11.08,42.48,69.56,93.95Z"/><path class="cls-8" d="M1987,1144.14c-17-29.24-15.9-71.66,3.22-122.66a390.58,390.58,0,0,1,34.1-68.55l4.88,3.2c-.76,1.17-76.27,117.84-37.14,185.07Z"/><path class="cls-8" d="M2105.49,1132.66c-7.14-5.84-11-9.64-11.18-9.82l4.13-4.13c.81.81,82.29,80.84,201.18,76l.24,5.83C2204.06,1204.44,2132.07,1154.42,2105.49,1132.66Z"/><path class="cls-8" d="M2165.4,1267.2c-27.48-30-35.56-60.16-37.5-80.19-2.11-21.81,2.3-36.37,2.48-37l5.59,1.73c-.17.56-16.57,56.59,33.74,111.49Z"/></g><path class="cls-4" d="M1913,234.78c15.43-21.36,26.81-22.82,35.18-16.77s10.58,17.31-4.85,38.67c-28.11,38.93-56.86,46.79-56.86,46.79S1884.49,274.28,1913,234.78Z"/><g class="cls-3"><path class="cls-4" d="M2358.38,903.78c28-.53,36.52,8.21,36.73,19.19s-8,20-36,20.58c-51,1-76.08-18.44-76.08-18.44S2306.6,904.77,2358.38,903.78Z"/></g><g class="cls-3"><path class="cls-4" d="M2283.24,848.65c18-19.27,29.45-19.29,37-12.25s8.33,18.5-9.65,37.77c-32.76,35.1-62.27,39.31-62.27,39.31S2250,884.26,2283.24,848.65Z"/></g><path class="cls-4" d="M712.3,304.24c-14.3,21-25.23,22.72-33.47,17.12s-10.66-16.4,3.64-37.42C708.53,245.66,736,237.31,736,237.31S738.73,265.4,712.3,304.24Z"/><path class="cls-4" d="M781.82,453.57c-6.73,24.51-16.53,29.66-26.13,27S740.3,468.52,747,444c12.26-44.65,35.58-61.45,35.58-61.45S794.26,408.27,781.82,453.57Z"/><path class="cls-4" d="M956.17,845.31,951.66,847c-.26-.69-26.65-70.53-95.91-158.34-63.91-81-178.44-194.34-361.13-274.11l1.92-4.41c183.7,80.21,298.86,194.21,363.12,275.71C929.33,774.2,955.91,844.61,956.17,845.31Z"/><path class="cls-4" d="M694.31,526.42l-4.77-.61C711.71,352.51,583.92,215.37,582.63,214l3.49-3.31C587.43,212.08,716.78,350.82,694.31,526.42Z"/><path class="cls-4" d="M595.42,486.89c-44.16,20.92-88,14.62-88.51,14.54l.72-4.75c.56.08,56.72,8.09,104.89-25.17l2.73,4A141,141,0,0,1,595.42,486.89Z"/><path class="cls-4" d="M480.23,391.66c32.83,9.86,40.28,20.52,37.41,30.07s-14.95,14.34-47.78,4.49c-59.81-18-83.53-43.9-83.53-43.9S419.55,373.45,480.23,391.66Z"/><path class="cls-4" d="M511.91,481.85c34.27-.5,44.59,7.42,44.73,17.39s-9.93,18.18-44.2,18.69c-62.44.92-92.88-16.68-92.88-16.68S448.56,482.78,511.91,481.85Z"/><path class="cls-4" d="M607.08,396.57c15.84,19.88,14.23,30.83,6.43,37s-18.82,5.32-34.65-14.57c-28.84-36.22-28.67-65-28.67-65S577.82,359.82,607.08,396.57Z"/><path class="cls-4" d="M586.94,188.74c21.49,26.71,21.59,39.72,13.83,46s-20.45,3.37-41.94-23.34c-39.14-48.65-44-83.47-44-83.47S547.23,139.39,586.94,188.74Z"/><path class="cls-4" d="M1128.47,1166s-330.44-670.6-509-574.1,321,400.3,411,598.57Z"/><path class="cls-9" d="M958.66,1063.57S496.09,477.77,307.55,616.42s415.71,319.94,543.8,495Z"/><path class="cls-8" d="M898.87,1090.86C812.61,968.36,677.49,866,579.34,801.63,472.93,731.89,385.88,690.65,385,690.24l2.55-5.41c.87.41,88.3,41.83,195.06,111.8C681.21,861.24,817,964.14,903.76,1087.41Z"/><path class="cls-5" d="M1007,1397.22c-75.21-1.44-163.05-.1-253,2.35a125.66,125.66,0,0,1-15.09-27.12c-56.35-58.12-46.55-49.46-173.22-27-90.87,16.08-101.52-63.94-140.09-121.88q-1-1.58-2.13-3.15c-14.89-21.45-34-39.47-63-47.81a371.22,371.22,0,0,1-89.88-39.23c-2.29-1.39-4.55-2.81-6.79-4.28-54.66-35.36-91.5-84-71.65-134.4.46-1.19,1-2.39,1.5-3.57a106.36,106.36,0,0,1,16.06-25.06c73.39-87,147.78-56.08,233.64-42.67,47.47,7.4,115.19-53,181.73-81.72.95-.42,1.91-.82,2.86-1.22,52.82-22.07,104.69-23.24,144.83,46.39v0c.81,1.41,1.63,2.82,2.43,4.19,89.71,153.33,134.12,98.14,260.43,126.54,23.5,5.29,44.65,11.15,58.62,23.65C1224.39,1157.74,1137,1318.85,1007,1397.22Z"/><path class="cls-6" d="M1017.84,1247.54l4.51-5.83c-2.57-2-263.75-199.71-830-250.64l-.66,7.35C755.81,1049.16,1015.28,1245.57,1017.84,1247.54Z"/><path class="cls-6" d="M679.54,1005.1c79.27-62.35,96-114.92,96.66-117.13l-7.06-2.16c-.16.52-16.92,52.73-94.17,113.49Z"/><path class="cls-6" d="M661.31,1083.64c23.47-35.65,25-89.16,4.5-154.74a493,493,0,0,0-38.18-88.73l-6.38,3.7c.89,1.53,87.87,153.75,33.89,235.71Z"/><path class="cls-6" d="M512.9,1060.92c9.4-6.86,14.53-11.38,14.76-11.59l-4.92-5.49c-1.07,1-109.28,96.09-258.71,81.64l-.71,7.34C383.73,1144.47,477.89,1086.48,512.9,1060.92Z"/><path class="cls-6" d="M428.05,1226.21c36.7-35.85,49-73.3,52.82-98.4,4.18-27.32-.35-46-.54-46.75l-7.16,1.79c.17.71,16.92,72.45-50.28,138.09Z"/><path class="cls-4" d="M248.63,832.3c-23.45-9.83-27.3-20.2-23.45-29.39s13.94-13.71,37.39-3.89c42.7,17.89,56.37,43.18,56.37,43.18S292,850.45,248.63,832.3Z"/><path class="cls-10" d="M705.67,1038.84a49.21,49.21,0,0,1-19.89-7.06c-20.2-12.41-33.74-38.63-43.92-85-4.69-21.37-18.38-47.11-18.52-47.37L668.86,875c.7,1.31,17.2,32.24,23.45,60.72,3.54,16.11,5.41-85.61,14.12-95.23,5.34-5.89,26.86,3.81,26.86,3.81,3.45,13.06,12,40,17.06,80.7,3.06,24.62,4.34,44.83,3.79,60-.39,10.74-1.67,19.37-3.92,26.4-6,18.54-18.4,24.29-25.28,26.07A51.51,51.51,0,0,1,705.67,1038.84Z"/><path class="cls-11" d="M712.49,1033.8c-5.62,0-10-2.17-10-4.94,0-1.42,1.11-2.72,3.13-3.65a17.07,17.07,0,0,1,6.92-1.34h.05c5.61,0,10,2.17,10,4.94,0,1.43-1.11,2.72-3.13,3.65a17.06,17.06,0,0,1-6.91,1.34Zm.08-8.58h-.05a15.53,15.53,0,0,0-6.35,1.21c-1.5.69-2.36,1.57-2.35,2.43,0,1.7,3.56,3.59,8.67,3.59h0a15.56,15.56,0,0,0,6.35-1.21c1.49-.68,2.35-1.57,2.35-2.43C721.23,1027.11,717.68,1025.22,712.57,1025.22Z"/><path class="cls-11" d="M687.1,987.86a.67.67,0,0,1-.66-.59c0-.28-3.5-28.69,7-51a.68.68,0,0,1,.89-.32.67.67,0,0,1,.32.9c-10.38,21.91-7,49.93-6.93,50.21a.67.67,0,0,1-.58.75Z"/><path class="cls-12" d="M557.89,823.36s2.84-10.38-9.34-13.89-3.83,24.43-34.12,21.42-20.08,9.76-29.83,19.05-52.46-12.07-67.78,24.6,11.61,63.6,64.53,65.46,32,31.07,76.83,14.84,25-87.61,12.37-98.81S557.89,823.36,557.89,823.36Z"/><path class="cls-13" d="M599.36,1504.57s.41,16.3,11.43,20.9,43,8.74,31,19.22c-6.85,6-39.13,2.13-48.25,2.13s-17.67,4-24.45-2.13c-7.45-6.72,0-40.12,0-40.12s7.86,4.1,14.94,3.91C594.27,1508.22,599.36,1504.57,599.36,1504.57Z"/><path class="cls-13" d="M472.72,1504.57s.41,16.3,11.43,20.89,43,8.75,31,19.23c-6.85,6-39.13,2.12-48.25,2.12s-17.67,4-24.44-2.13c-7.46-6.71,0-40.11,0-40.11s7.86,4.09,14.94,3.91C467.63,1508.22,472.72,1504.57,472.72,1504.57Z"/><path class="cls-14" d="M681.32,1057.82s-.79,75.11-6.83,207.63c-4.74,103.9-3.76,200.19-12.87,245.83-3.25,16.32-123.72,8-122.44-10l28.52-321,5.45-101.63Z"/><path class="cls-13" d="M482.15,1117.85c1,8.3,48,7.29,105.43,0s102.22-19.73,101.22-28-47.37-9.31-104.85-2S481.15,1109.55,482.15,1117.85Z"/><path class="cls-14" d="M615.33,1106.54l-107,404.65c-5.14,16.5-106.63,14.29-103.46-3.23l83-382.72a12.19,12.19,0,0,1,8.48-9.13C519.38,1109.47,617.59,1090.24,615.33,1106.54Z"/><path class="cls-15" d="M504.19,883.82s10.91-36.71,69.08-34.62c31.91,1.15,65.49-7.84,80.44,42.18,14.48,48.42,30.18,124.31,35.09,198.46,0,0-95.24-20.89-206.82,27.84C482,1117.68,478.64,950.78,504.19,883.82Z"/><path class="cls-15" d="M462.75,878.42l36.47,30s137.5,35,157.56,14.67c13.78-14,21.14-33.89,16.45-44.21,0,0-37.74-34.59-97.39-31.79a197.71,197.71,0,0,1-23,.18C504.19,844.48,462.75,878.42,462.75,878.42Z"/><path class="cls-16" d="M554.23,1341.66l-2-.47L584.89,1202a78.13,78.13,0,0,1,35.32-43.63l1,1.79a76.1,76.1,0,0,0-34.37,42.4Z"/><path class="cls-10" d="M550,847.39a17.78,17.78,0,0,0,14.48-10.6l8-18.5,2.31-5.36,13.59-31.57L586,814.07l-1.42,19.64-.4,5.59a8.93,8.93,0,0,0,7.37,9.42h.07c2.42,3.94,5.76,11.93-4.22,15.1-11.72,3.74-30.69-5.49-37.5-16.43Z"/><path class="cls-13" d="M574.1,817c.78,10.55,10.39,16.8,10.39,16.8l.07,0L586,814.07C582.53,812.81,574.09,816.78,574.1,817Z"/><ellipse class="cls-10" cx="585.89" cy="784.76" rx="30.73" ry="37.92" transform="translate(-227.92 239.93) rotate(-19.45)"/><path class="cls-17" d="M588.81,784.11a.69.69,0,0,0-.36-1.27,7.56,7.56,0,0,0-7.86,4.91.71.71,0,0,0,.35.93.75.75,0,0,0,.92-.36,12,12,0,0,1,6.53-4.09A.67.67,0,0,0,588.81,784.11Z"/><path class="cls-17" d="M586.16,793.2c.5,1.59,1.85,2.58,3,2.21s1.68-1.95,1.17-3.54-1.85-2.58-3-2.22S585.65,791.61,586.16,793.2Z"/><path class="cls-17" d="M613.55,779.24a.72.72,0,0,0,.49-.39.7.7,0,0,0-.34-.93,7.56,7.56,0,0,0-9.14,1.55.72.72,0,0,0,0,1,.78.78,0,0,0,1,0,11.9,11.9,0,0,1,7.59-1.3A.76.76,0,0,0,613.55,779.24Z"/><path class="cls-17" d="M607.64,786.63c-.14,1.66.72,3.09,1.93,3.19s2.3-1.17,2.44-2.83-.73-3.09-1.94-3.19S607.78,785,607.64,786.63Z"/><path class="cls-14" d="M528.37,1108.85s114.72-21.91,151.91-11.58l-17.83,26.44-66.31,3.75Z"/><path class="cls-12" d="M566.16,766.05c3.33,6.11,18.88,5.78,29.65,2.6,13.44-4,18.35,13.16,20.91,5.22S618.34,743.45,603,735s-50.81,1.06-53,13.17C546.67,766,563.32,760.83,566.16,766.05Z"/><path class="cls-12" d="M551.77,755.14s9.54-.92,10.53,3.14,9.79,9.28,4.85,13.8-5.79,6.5-4.23,10.83c1.08,3-1.85,11.56-1.6,18.29.11,2.93,3.66,8,3.66,8s-24.78.34-29.75-26.32C532,765.49,545.44,754.86,551.77,755.14Z"/><ellipse class="cls-10" cx="561.92" cy="793.71" rx="6.94" ry="8.73" transform="translate(-404.49 902.28) rotate(-61.11)"/><path class="cls-17" d="M524.54,917.54c-2.81,4.44-18.93-.71-36-11.51s-28.61-23.17-25.8-27.61,18.93.71,36,11.51S527.35,913.09,524.54,917.54Z"/><path class="cls-10" d="M476.31,1044.9s19.26-17.64,34.47-16.08,33.45,15,23.82,16.08-22.3-1-22.3-1,26.86,5.7,22.81,11.41-27.38.52-27.38.52,31.43,9.33,25.85,13.48-29.39-3.11-29.39-3.11,28.89,9.85,22.3,14.52-23.83-8.3-27.88-2.59-11.66,28-28.89,18.67Z"/><path class="cls-11" d="M512.3,1044.42a.64.64,0,0,1-.2,0c-.07,0-7.17-2.63-10.78-.07a.56.56,0,0,1-.78-.13.57.57,0,0,1,.13-.79c4.1-2.91,11.51-.19,11.82-.07a.57.57,0,0,1,.34.73A.58.58,0,0,1,512.3,1044.42Z"/><path class="cls-11" d="M494.24,1056.35a.55.55,0,0,1-.51-.33.57.57,0,0,1,.28-.75c6.5-2.89,13.63-.13,13.93,0a.57.57,0,0,1,.32.73.56.56,0,0,1-.73.32c-.07,0-7-2.7-13.06,0A.46.46,0,0,1,494.24,1056.35Z"/><path class="cls-11" d="M504.19,1066.72a.64.64,0,0,1-.2,0c-.09,0-8.51-3.14-12.11-.1a.57.57,0,0,1-.8-.07.56.56,0,0,1,.07-.79c4.11-3.47,12.86-.24,13.23-.1a.56.56,0,0,1-.19,1.09Z"/><path class="cls-10" d="M738.15,877.55s27.66,2.35,38.49-8.44,16.5-32.76,8.37-27.5-16.67,14.86-16.67,14.86,17.27-21.36,10.52-23.23-21.58,16.84-21.58,16.84S775.8,823,768.86,823.32,748,844.27,748,844.27s16.23-25.86,8.17-25.33-13.27,21.45-20,19.58-32.94-8.31-32.94,10.6Z"/><path class="cls-11" d="M759.57,864.16a.57.57,0,0,1,0-1.13c4.42-.29,8.29-6.78,8.33-6.85a.57.57,0,1,1,1,.58c-.17.28-4.21,7.07-9.22,7.4Z"/><path class="cls-11" d="M746.81,859.15a.56.56,0,0,1-.15-1.11c6.4-1.72,10.1-8.17,10.13-8.23a.57.57,0,0,1,1,.55c-.16.28-4,6.92-10.82,8.77Z"/><path class="cls-11" d="M738.25,852.82h-.11a.57.57,0,0,1-.55-.58.59.59,0,0,1,.57-.55c4.76.09,9.3-7.63,9.35-7.71a.56.56,0,0,1,1,.57C748.28,844.89,743.58,852.82,738.25,852.82Z"/><path class="cls-10" d="M469.72,1096.76c-26.26-10.06-65.09-35-72.48-73.87-5.7-29.88,5.09-63.92,32.05-101.2a182.9,182.9,0,0,1,39.76-40s7.9-1.85,25.16,8.58c20.8,12.58,23.95,24.32,23.95,24.32C498.22,933,450.37,971,452.08,1000.15c1,17.06,12.26,32.93,31.39,40.25Z"/><path class="cls-18" d="M608.6,802a62.15,62.15,0,0,1-19.48,3.3s2.35,9.35,12.55,6.53C607.6,810.21,608.6,802,608.6,802Z"/><path class="cls-19" d="M608.6,802s-1.6,2.61-6.81,4.38-12.67-1.08-12.67-1.08S601.28,804.56,608.6,802Z"/><path class="cls-12" d="M1700.18,1514.81,898.75,1528.9a62.48,62.48,0,0,1-63.57-61.19l-22-1067.49a62.5,62.5,0,0,1,60.08-63.73l860.27-33a62.49,62.49,0,0,1,64.85,64.57l-36.88,1086.36A62.48,62.48,0,0,1,1700.18,1514.81Z"/><path class="cls-1" d="M1652.07,1441.78l-703.65,12.37a54.85,54.85,0,0,1-55.82-53.73L885.68,432.3A24.27,24.27,0,0,1,909,407.87l782-30a45.93,45.93,0,0,1,47.67,47.45L1706,1388.79A54.87,54.87,0,0,1,1652.07,1441.78Z"/><path class="cls-14" d="M1106.58,412.42l371.9-11.85a30.29,30.29,0,0,0,29.16-33.42l-2.94-28.21a59.62,59.62,0,0,0-60.82-53.4l-296.77,7.54a62.91,62.91,0,0,0-60.89,55.64l-4.28,36.9A24,24,0,0,0,1106.58,412.42Z"/><path class="cls-14" d="M1014.52,529.31a7,7,0,0,1,7-7h22.34c17.15,0,27.53,10.17,27.53,25.06,0,16.64-12.94,25.27-29.07,25.27h-5a7,7,0,0,0-7,7v7.49a7,7,0,0,1-7,7h-1.75a7,7,0,0,1-7-7Zm28.35,29.22c7.9,0,12.53-4.73,12.53-11.09,0-7.09-4.93-10.89-12.84-10.89h-5.19a7,7,0,0,0-7,7v7.91a7,7,0,0,0,7,7Z"/><path class="cls-14" d="M1083.13,529.31a7,7,0,0,1,7-7H1116c9.14,0,16.23,2.57,21,7.29,4,4,6.16,9.66,6.16,16.64,0,8.71-3.52,15-9.14,19a7,7,0,0,0-1.86,9.72l5.63,8.23a7,7,0,0,1-5.81,11h-1.42a7,7,0,0,1-5.82-3.09l-11.43-16.83a7,7,0,0,0-5.82-3.09H1106a7,7,0,0,0-7,7v8.93a7,7,0,0,1-7,7h-1.74a7,7,0,0,1-7-7ZM1115,557.19c7.7,0,12.12-4.1,12.12-10.37,0-6.78-4.72-10.27-12.43-10.27H1106a7,7,0,0,0-7,7v6.58a7,7,0,0,0,7,7Z"/><path class="cls-14" d="M1165.15,522.27h1.74a7,7,0,0,1,7,7v57.82a7,7,0,0,1-7,7h-1.74a7,7,0,0,1-7-7V529.31A7,7,0,0,1,1165.15,522.27Z"/><path class="cls-14" d="M1188.72,558.22c0-20.44,16.13-37.18,38.31-37.18s38.11,16.54,38.11,37.18c0,20.44-16.13,37.18-38.31,37.18S1188.72,578.86,1188.72,558.22Zm59.88,0c0-12.32-9-22.6-21.77-22.6s-21.57,10.07-21.57,22.6c0,12.33,9,22.6,21.77,22.6S1248.6,570.75,1248.6,558.22Z"/><path class="cls-14" d="M1279.21,529.31a7,7,0,0,1,7-7h25.83c9.14,0,16.23,2.57,21,7.29,4,4,6.16,9.66,6.16,16.64,0,8.71-3.52,15-9.14,19a7.05,7.05,0,0,0-1.86,9.72l5.63,8.23a7,7,0,0,1-5.81,11h-1.42a7,7,0,0,1-5.82-3.09l-11.43-16.83a7,7,0,0,0-5.82-3.09h-1.46a7,7,0,0,0-7,7v8.93a7,7,0,0,1-7,7h-1.74a7,7,0,0,1-7-7Zm31.84,27.88c7.7,0,12.12-4.1,12.12-10.37,0-6.78-4.72-10.27-12.43-10.27h-8.68a7,7,0,0,0-7,7v6.58a7,7,0,0,0,7,7Z"/><path class="cls-14" d="M1361.23,522.27H1363a7,7,0,0,1,7,7v57.82a7,7,0,0,1-7,7h-1.75a7,7,0,0,1-7-7V529.31A7,7,0,0,1,1361.23,522.27Z"/><path class="cls-14" d="M1397.69,536.86h-7.8a7,7,0,0,1-7-7v-.51a7,7,0,0,1,7-7h45.5a7,7,0,0,1,7,7v.51a7,7,0,0,1-7,7h-7.81a7,7,0,0,0-7,7v43.24a7,7,0,0,1-7,7h-1.75a7,7,0,0,1-7-7V543.89A7,7,0,0,0,1397.69,536.86Z"/><path class="cls-14" d="M1462.3,522.27h1.75a7,7,0,0,1,7,7v57.82a7,7,0,0,1-7,7h-1.75a7,7,0,0,1-7-7V529.31A7,7,0,0,1,1462.3,522.27Z"/><path class="cls-14" d="M1496.09,522.27h40.16a7,7,0,0,1,7,7h0a7,7,0,0,1-7,7h-24.44a7,7,0,0,0-7,7v.51a7,7,0,0,0,7,7h19.82a7,7,0,0,1,7,7h0a7,7,0,0,1-7,7h-19.82a7,7,0,0,0-7,7v1a7,7,0,0,0,7,7h25a7,7,0,0,1,7,7h0a7,7,0,0,1-7,7h-40.68a7,7,0,0,1-7-7V529.31A7,7,0,0,1,1496.09,522.27Z"/><path class="cls-14" d="M1557.71,578l.36-.44a7,7,0,0,1,9.19-1.41,30,30,0,0,0,16.5,5.09c6.47,0,10.37-2.57,10.37-7,0-4-2.46-6.06-14.48-9.14-14.48-3.7-23.83-7.7-23.83-22.18,0-13,10.48-21.67,25.17-21.67a42.47,42.47,0,0,1,20.14,4.81,7,7,0,0,1,2.49,10.22l-.36.53a7.08,7.08,0,0,1-9.19,2.17,28.49,28.49,0,0,0-13.29-3.77c-6.06,0-9.24,2.78-9.24,6.47,0,4.73,3.08,6.27,15.51,9.45,14.58,3.8,22.8,9,22.8,21.78,0,14.27-10.89,22.29-26.4,22.29a46.23,46.23,0,0,1-24-6.65A7.06,7.06,0,0,1,1557.71,578Z"/><path class="cls-2" d="M1086.12,818.3c-.78,0-1.56,0-2.34-.08h0l-86.21-5.94a32.12,32.12,0,0,1-29.82-31.95V709.6a30,30,0,0,1,29.13-30.08l94.91-3a29.07,29.07,0,0,1,30,30l-2.52,79.67a33.23,33.23,0,0,1-33.14,32.17Zm-.77-23a10.25,10.25,0,0,0,11-9.9l2.52-79.67a6.1,6.1,0,0,0-6.3-6.29l-94.91,3a7.12,7.12,0,0,0-6.91,7.13v70.73a9.1,9.1,0,0,0,8.44,9Z"/><path class="cls-2" d="M1086.12,1023.2c-.78,0-1.56,0-2.34-.08h0l-86.21-5.94a32.12,32.12,0,0,1-29.82-31.95V914.5a30,30,0,0,1,29.13-30.08l94.91-3a29.07,29.07,0,0,1,30,30L1119.26,991a33.23,33.23,0,0,1-33.14,32.17Zm-.77-23a10.26,10.26,0,0,0,11-9.91l2.52-79.67a6.1,6.1,0,0,0-6.3-6.29l-94.91,3a7.11,7.11,0,0,0-6.91,7.13v70.73a9.1,9.1,0,0,0,8.44,9Z"/><path class="cls-2" d="M1086.12,1222.23c-.78,0-1.56,0-2.34-.08l-86.21-5.94a32.11,32.11,0,0,1-29.82-31.94v-70.74a30,30,0,0,1,29.13-30.08l94.91-3a29.07,29.07,0,0,1,30,30l-2.52,79.67a33.22,33.22,0,0,1-33.14,32.17Zm6.61-118.86h-.2l-94.91,3a7.12,7.12,0,0,0-6.91,7.13v70.74a9.09,9.09,0,0,0,8.44,9l86.2,5.94a10.28,10.28,0,0,0,11-9.91l2.52-79.66a6.1,6.1,0,0,0-6.1-6.3Z"/><path class="cls-14" d="M1009.1,714.72a4,4,0,0,0-6.08,4.92l32.25,55.16c6,12.15,18.43,7.42,25.77-3.95l60.12-93.17a3.19,3.19,0,0,0-4.58-4.4l-54.41,57.39c-25.37,24.48-27.67,11.49-42.12-3.83C1016.13,722.68,1009.1,714.72,1009.1,714.72Z"/><path class="cls-14" d="M1009.1,1116.6a4,4,0,0,0-6.08,4.93l32.25,55.16c6,12.15,18.43,7.42,25.77-4l60.12-93.17a3.19,3.19,0,0,0-4.58-4.4l-54.41,57.39c-25.37,24.48-27.67,11.49-42.12-3.83C1016.13,1124.57,1009.1,1116.6,1009.1,1116.6Z"/><path class="cls-2" d="M1441.81,738l-246.09-6a10.58,10.58,0,0,1-10.32-10.58h0A10.58,10.58,0,0,1,1196,710.89h245.34a10.57,10.57,0,0,1,10.49,9.26l.75,6A10.59,10.59,0,0,1,1441.81,738Z"/><path class="cls-2" d="M1441.81,783.87l-246.09-6a10.57,10.57,0,0,1-10.32-10.57h0A10.58,10.58,0,0,1,1196,756.76h245.34a10.57,10.57,0,0,1,10.49,9.26l.75,6A10.57,10.57,0,0,1,1441.81,783.87Z"/><path class="cls-2" d="M1441.81,942.9l-246.09-6a10.57,10.57,0,0,1-10.32-10.57h0A10.58,10.58,0,0,1,1196,915.79h245.34a10.57,10.57,0,0,1,10.49,9.26l.75,6A10.58,10.58,0,0,1,1441.81,942.9Z"/><path class="cls-2" d="M1441.81,988.77l-246.09-6a10.57,10.57,0,0,1-10.32-10.57h0A10.58,10.58,0,0,1,1196,961.66h245.34a10.57,10.57,0,0,1,10.49,9.26l.75,6A10.57,10.57,0,0,1,1441.81,988.77Z"/><path class="cls-2" d="M1441.81,1138l-246.09-6a10.57,10.57,0,0,1-10.32-10.57h0a10.58,10.58,0,0,1,10.58-10.58h245.34a10.57,10.57,0,0,1,10.49,9.26l.75,6A10.57,10.57,0,0,1,1441.81,1138Z"/><path class="cls-2" d="M1441.81,1183.83l-246.09-6a10.58,10.58,0,0,1-10.32-10.58h0a10.58,10.58,0,0,1,10.58-10.58h245.34a10.57,10.57,0,0,1,10.49,9.26l.75,6A10.59,10.59,0,0,1,1441.81,1183.83Z"/><path class="cls-10" d="M1717.29,920.67C1710.05,913.15,1737,880,1737,880c2.9-1.91,49,44.25,103.79,28.51,19.49-5.6,47.12-38.71,49.19-43.69.27-.66,42.4,15.87,42.4,15.87-3.74,9-2.9,41.06-24.21,59.64C1864.09,978.82,1789,981,1717.29,920.67Z"/><path class="cls-13" d="M1959.32,1467.37s-.77,14.67-10.82,18.55-39,6.84-28.44,16.57c6,5.58,35.22,2.87,43.43,3.09s15.84,4,22.09-1.32c6.88-5.87,1-36.16,1-36.16s-7.19,3.5-13.56,3.16C1963.81,1470.78,1959.32,1467.37,1959.32,1467.37Z"/><path class="cls-12" d="M1885.52,1021.81s-3.77,66.23,14,194c12.79,92.21,28.33,185.2,36,229.79a34.6,34.6,0,0,0,31.56,29l8.48.57c17.08,1.15,31.35-13.16,30.58-30.65l-13.37-300.61-2.63-98.89Z"/><path class="cls-13" d="M2053.44,1469.9s-.76,14.68-10.81,18.56-39,6.83-28.45,16.57c6,5.58,35.22,2.87,43.44,3.09s15.83,4,22.08-1.33c6.88-5.86,1-36.15,1-36.15s-7.19,3.5-13.56,3.16C2057.94,1473.32,2053.44,1469.9,2053.44,1469.9Z"/><path class="cls-12" d="M1979.65,1024.34s-3.77,66.23,13.95,194c12.8,92.21,28.33,185.2,36,229.78a34.62,34.62,0,0,0,31.56,29l8.49.57c17.08,1.15,31.35-13.16,30.57-30.66l-13.36-300.6-2.63-98.89Z"/><path class="cls-13" d="M2093.19,1100.1c-.42,8-48.86,9.87-108.62,6.39s-107.33-13-106.91-21,48.67-11.39,108.43-7.91S2093.61,1092.11,2093.19,1100.1Z"/><path class="cls-14" d="M2084.65,873.3s-9.44-42.2-87.46-44.73c-112.51-3.65-104.88,100-119.53,256.89,0,0,111.26-12.69,215.64,12.68C2093.3,1098.14,2107.36,938,2084.65,873.3Z"/><path class="cls-14" d="M2113.62,868.07l-51.73,26.82S1950,902,1920.54,896.34s-37-27.65-37-27.65,32.44-31.8,86.3-39.07q7.59-1,15.73-1.36a154.53,154.53,0,0,1,27.09,1.27C2080.39,839,2113.62,868.07,2113.62,868.07Z"/><path class="cls-10" d="M2008.18,819.27l-5.38-19.17-1.57-5.58L1992,761.7l-2.2,32.34-1.32,19.4-.41,6.15c-.29,4.17-2.86,5-6,8.52-1.3,1.44-9.57,10.13-.56,14.41,11.22,5.32,32.64-1.71,41-11.44C2022.41,831.07,2009.91,825.46,2008.18,819.27Z"/><path class="cls-12" d="M1886.9,1092.18s65.32-17.32,198.83,12.47l.51,19.34-196.93,1.64Z"/><ellipse class="cls-13" cx="2092.18" cy="884.58" rx="27.19" ry="13.56" transform="matrix(0.82, -0.57, 0.57, 0.82, -133.4, 1339.02)"/><path class="cls-10" d="M2122,1114.69c-3.3-51.78-12.07-125.92-35.13-185.07-5.35-13.7-7.59-18.85-11.84-26.37-3.42-6,3.35-19,13.64-24.93,9.65-5.6,24.41-4.25,26.67-1.28,3.85,5,7.84,14.59,14,29.77,21.55,52.73,33.49,120.42,36.72,207.36Z"/><path class="cls-20" d="M1973,743.48a42.69,42.69,0,0,0-3.57,17.39c0,10.09,14.75-11.67,14.75-11.67Z"/><path class="cls-10" d="M1967.69,763.42c6.3-18.2,23.65-28.73,38.75-23.5s22.23,24.22,15.93,42.43-23.65,28.72-38.75,23.5S1961.39,781.63,1967.69,763.42Z"/><path class="cls-13" d="M2025.09,772.71l-13.43-4.24a10.21,10.21,0,0,1-6.48-6c-1.91-5-4.83-7.93-17.72-10.08-16.33-2.72-25-14.58-25-23.42,0-9,9.49-13.18,16.78-7.38s5.87-5,13.92-4.5c15,1,15.46,12.83,27.51,14.92,15.79,2.75,41.46,20.45,22.45,45.35Z"/><path class="cls-17" d="M1993.83,771.15a.64.64,0,0,1-.17-.5.58.58,0,0,1,.65-.51,6.35,6.35,0,0,1,5.85,5.13.61.61,0,0,1-.42.72.65.65,0,0,1-.72-.42,10,10,0,0,0-4.85-4.26A.67.67,0,0,1,1993.83,771.15Z"/><path class="cls-17" d="M1994.81,779c-.63,1.25-1.88,1.88-2.78,1.43s-1.13-1.85-.5-3.1,1.88-1.88,2.79-1.42S1995.44,777.78,1994.81,779Z"/><path class="cls-17" d="M1972.93,765.07a.44.44,0,0,1-.25-.35.73.73,0,0,1,.38-.73,4.12,4.12,0,0,1,5.72,1.87.7.7,0,0,1-.15.81.43.43,0,0,1-.65,0,6.16,6.16,0,0,0-4.75-1.56A.35.35,0,0,1,1972.93,765.07Z"/><path class="cls-17" d="M1977,772c-.11,1.39-1,2.46-2,2.38s-1.74-1.27-1.63-2.67,1-2.46,2-2.38S1977.07,770.64,1977,772Z"/><path class="cls-20" d="M2043.07,777.35s-13.67,18.49-27.41,17.23c0,0,14.06-13.34-6.88-27.54C2008.78,767,2030.48,768.05,2043.07,777.35Z"/><path class="cls-10" d="M2021.81,784.74c-3.24,1.24-6.77-.11-7.88-3s.63-6.26,3.88-7.49,6.78.11,7.88,3S2025.06,783.5,2021.81,784.74Z"/><path class="cls-20" d="M2008.78,767s-1.69,17.53-5.85,20.06-27.5-.82-37.41-7.19h0a22.88,22.88,0,0,0,13.82,26.36,33.48,33.48,0,0,0,11,2.23h0c7.81.23,15.77-1.38,20.31-7.73,1.38-1.93,1.32-15.58,1.32-15.58s.54-7.89,5.83-11C2017.81,774.23,2013.61,768.53,2008.78,767Z"/><path class="cls-13" d="M1982.48,720.72a6.58,6.58,0,0,1-1.51-.18l.18-.77c3.71.88,4.66-2,4.7-2.16l.75.23A4.31,4.31,0,0,1,1982.48,720.72Z"/><path class="cls-19" d="M1983.8,746.89c-.68-.35-16.59-8.86-15.45-18.15.33-2.69,1.16-4.37,2.53-5.13,2.19-1.21,5.24.19,7.94,1.44l1.17.53-.16.36-1.17-.54c-2.61-1.2-5.58-2.56-7.59-1.45-1.25.7-2,2.28-2.33,4.83-.57,4.7,3.58,9.27,7.18,12.28a52.52,52.52,0,0,0,8.07,5.49Z"/><path class="cls-19" d="M2026.7,736.58c-17.52-1.2-23.78-12.51-23.84-12.63l.34-.18c.06.11,6.23,11.23,23.52,12.41Z"/><path class="cls-19" d="M1971.27,787.78a54.19,54.19,0,0,0,16.6,3.11s-2.06,7.79-10.74,5.25C1972.08,794.66,1971.27,787.78,1971.27,787.78Z"/><path class="cls-21" d="M2137.48,998.7a6.71,6.71,0,0,1-4.93-2.45,13.58,13.58,0,0,1-1.94-14.15,6.44,6.44,0,0,1,4.81-3.84c4-.55,7.87,3.58,8.64,9.2h0c.77,5.62-1.85,10.64-5.84,11.19A6.27,6.27,0,0,1,2137.48,998.7Zm-1.34-18.56a3.44,3.44,0,0,0-.46,0,4.62,4.62,0,0,0-3.34,2.79,11.67,11.67,0,0,0,1.65,12,4.57,4.57,0,0,0,4,1.79c2.89-.4,4.82-4.53,4.2-9C2141.56,983.47,2138.87,980.14,2136.14,980.14Z"/><path class="cls-10" d="M2139.3,1103.14h0a7.24,7.24,0,0,1-1,10.15l-26,21c-3.07,2.51-16.73,9.7-19.24,6.63h0c-2.51-3.07,5.92-13.46,8.62-16.36,6.24-6.7,15.88-22.5,22.25-29.07C2126.72,1092.62,2136.79,1100.06,2139.3,1103.14Z"/><path class="cls-10" d="M2164.69,1102.83s4.43,16.12,3.42,40.13c-.31,7.31-48.75,8-50.7.07s6.31-33.67,6.31-33.67Z"/><path class="cls-10" d="M2128.7,1120.28s-12.09-7.9-16.33,6.78c-6.89,23.85-.77,80.64,12.57,19.24.27-1.22-5.55,37.45,3.09,35.22s12.24-36.76,12.24-36.76-2.74,36.89,4.73,32.15,12.09-28.72,12.09-28.72-5.22,30.76,4.07,26.35c6.34-3,6.7-28.62,7.25-37.51.52-8.41-4.73-11.47-12.88-11.39,0,0-8.15-4.64-13.46-3.24-2,.53-3.9-1.48-5.36-1.75A52.49,52.49,0,0,0,2128.7,1120.28Z"/><path class="cls-13" d="M1903,892.05l-1.23-.37c3.61-11.8,15-26.35,15.13-26.5l1,.8C1917.76,866.12,1906.5,880.49,1903,892.05Z"/><path class="cls-13" d="M1996.47,1244.29c-.07-.54-7.31-54.74-12.76-74.14-5.39-19.22-30.4-35.93-30.65-36.1l.71-1.07c.25.17,25.66,17.14,31.18,36.82,5.47,19.49,12.72,73.78,12.8,74.32Z"/><path class="cls-10" d="M1744.54,907.76h0a7.24,7.24,0,0,1-8-6.39l-3.44-33.19c-.43-3.95,1-19.32,4.94-19.75h0c4-.43,8.06,12.3,9,16.15,2.21,8.88,10.19,25.58,12.23,34.5C1760.22,903,1748.48,907.33,1744.54,907.76Z"/><path class="cls-10" d="M1730.94,929.21s-15.92-5.07-35.5-19c-6-4.24,19.86-45.24,27.59-42.54s24.79,23.65,24.79,23.65Z"/><path class="cls-10" d="M1736,889.52s13.21-5.83,3.22-17.39c-16.24-18.78-67.18-44.61-23,.06.87.88-28.37-25.08-31.21-16.63s24.14,30.31,24.14,30.31-29.43-22.42-29.53-13.56,17.48,25.79,17.48,25.79-22.94-21.15-24.31-11c-.94,7,20.33,21.23,27.49,26.54,6.77,5,12.2,2.29,16.57-4.59,0,0,8.34-4.31,10.06-9.52.66-2,3.37-2.46,4.39-3.53A53.07,53.07,0,0,0,1736,889.52Z"/><path class="cls-13" d="M1528.1,1574.08s-.41,16.3-11.44,20.9-43,8.75-31,19.23c6.85,6,39.14,2.12,48.25,2.12s17.68,4,24.45-2.13c7.45-6.71,0-40.12,0-40.12s-7.87,4.1-14.94,3.92C1533.18,1577.73,1528.1,1574.08,1528.1,1574.08Z"/><path class="cls-13" d="M1654.74,1574.08s-.4,16.3-11.43,20.9-43,8.74-31,19.22c6.85,6,39.14,2.13,48.25,2.13s17.68,4,24.45-2.13c7.45-6.71,0-40.12,0-40.12s-7.87,4.1-14.94,3.92C1659.83,1577.73,1654.74,1574.08,1654.74,1574.08Z"/><path class="cls-15" d="M1446.13,1127.3s-2,68.22,19.74,199.09c15.72,94.48,34.27,189.69,43.38,235.33a35.61,35.61,0,0,0,33.26,28.92l8.74.35c17.6.7,31.88-14.41,30.6-32.38l-22.1-308.8-5.44-101.63Z"/><path class="cls-13" d="M1645.31,1187.33c-1,8.31-48,7.3-105.44,0s-102.23-19.73-101.22-28,47.37-9.31,104.86-2S1646.31,1179,1645.31,1187.33Z"/><path class="cls-15" d="M1512.13,1176l122.72,394.23a39.57,39.57,0,0,0,36.92,28.1l7.38.13c17.41.3,30.73-15.81,27.55-33.33l-67.13-370.44a12.22,12.22,0,0,0-8.47-9.13C1608.08,1179,1509.87,1159.72,1512.13,1176Z"/><path class="cls-14" d="M1626.12,960.36s-16.33-46-74.5-43.86-102.09,78.53-113,242.82c0,0,95.25-20.89,206.83,27.84C1645.48,1187.16,1651.67,1027.32,1626.12,960.36Z"/><path class="cls-14" d="M1663.61,962.86,1625.76,984s-113.86,25.65-142,20.55-5-76,45.87-85.09c4.78-.87,16.82-2.55,22-2.92a143.36,143.36,0,0,1,25.73.56C1649.12,924.86,1663.61,962.86,1663.61,962.86Z"/><path class="cls-16" d="M1567,1352.23l-26.4-80.23a76.06,76.06,0,0,0-34.37-42.4l1-1.79a78.14,78.14,0,0,1,35.31,43.54l26.39,80.24Z"/><path class="cls-14" d="M1511.73,906.27c-.32-.07-7.82-1.9-10-7.28-1.18-2.83-.65-6.11,1.58-9.73,1-1.62,1.91-3.08,2.75-4.41,5.83-9.29,7.79-12.42,6.27-19.69l.66-.14c1.58,7.53-.58,11-6.35,20.18-.84,1.34-1.76,2.8-2.75,4.41-2.11,3.43-2.63,6.5-1.54,9.12,2.1,5.06,9.51,6.87,9.58,6.88Z"/><path class="cls-14" d="M1512.61,865.09a34.36,34.36,0,0,1-5.16,23.88c-7.72,12.21.69,21.13,11.16,16.43s14.46,8.66,27.85,1.28S1512.61,865.09,1512.61,865.09Z"/><path class="cls-10" d="M1574.47,916.67a16.1,16.1,0,0,1-13.11-9.59l-7.21-16.74-2.09-4.86-12.3-28.57,2.13,29.61,1.29,17.77.36,5.07a8.08,8.08,0,0,1-6.67,8.52h-.07c-2.19,3.56-5.21,10.8,3.82,13.67,10.61,3.38,27.78-5,33.94-14.88Z"/><path class="cls-13" d="M1554.18,889.85a4,4,0,0,1,0,.49c-.7,9.54-10.91,14-10.91,14l-.06-.05-1.29-17.77c3.12-1.14,7.57-2.32,10.17-1C1553.42,886.15,1554.28,887.49,1554.18,889.85Z"/><ellipse class="cls-10" cx="1538.42" cy="861.65" rx="27.82" ry="34.32"/><path class="cls-10" d="M1562.51,866.82c-3.15,3-7.55,3.32-9.84.69s-1.58-7.2,1.57-10.21,7.56-3.31,9.84-.69S1565.67,863.81,1562.51,866.82Z"/><path class="cls-18" d="M1523.44,883.85a60.46,60.46,0,0,0,19-3.11s.79,9.36-9.5,10C1527,891.09,1523.44,883.85,1523.44,883.85Z"/><path class="cls-19" d="M1523.44,883.85s2.29,1.91,7.66,1.89,11.34-5,11.34-5S1531,883.88,1523.44,883.85Z"/><path class="cls-17" d="M1535.73,862a.65.65,0,0,1-.43-.38.63.63,0,0,1,.35-.82,6.85,6.85,0,0,1,8.2,1.83.63.63,0,0,1,0,.89.7.7,0,0,1-.89,0,10.83,10.83,0,0,0-6.8-1.53A.62.62,0,0,1,1535.73,862Z"/><path class="cls-17" d="M1540.73,868.93c0,1.51-.8,2.76-1.89,2.8s-2-1.16-2.07-2.67.8-2.76,1.89-2.8S1540.68,867.42,1540.73,868.93Z"/><path class="cls-17" d="M1513.14,865.28a.64.64,0,0,1-.52-1.09,6.85,6.85,0,0,1,8.27-1.43.65.65,0,0,1,.32.84.7.7,0,0,1-.84.32,10.82,10.82,0,0,0-6.87,1.18A.65.65,0,0,1,1513.14,865.28Z"/><path class="cls-17" d="M1520.42,869.8c.62,1.37.31,2.86-.69,3.3s-2.31-.3-2.93-1.68-.31-2.85.69-3.3S1519.8,868.42,1520.42,869.8Z"/><path class="cls-14" d="M1526.6,833.55s.6,11.9,15.47,13.93,25.13,8.33,23.13,19-26,32.94-8.35,41.54,13.87-7.44,33-3.72,22.54-21.78,9.39-36.58-7.82-54-57.14-52.23-31.24,41.08-31.24,41.08S1526.63,846.7,1526.6,833.55Z"/><path class="cls-19" d="M1561.93,910.27c-3.71-1.5-6-3.73-6.78-6.63-2.17-8,7.14-20,15.35-30.7,2.16-2.8,4.2-5.44,6-8,5-7,5.45-15,1.15-21.48-4.71-7.06-13.68-10-23.43-7.78s-16.37.21-20.26-1.89a18.33,18.33,0,0,1-6.21-5.17l.34-.23c.07.12,7.74,11.14,26,6.89,9.91-2.29,19,.76,23.86,8,4.33,6.49,3.88,14.89-1.17,21.93-1.81,2.54-3.85,5.18-6,8-8.16,10.57-17.4,22.55-15.29,30.34.77,2.82,2.91,4.9,6.55,6.37Z"/><path class="cls-12" d="M1512.11,887.23c-4.18-1.54-7.86-6.15-9.83-12.34-3.21-10.09-1-21.31,5-25a7.94,7.94,0,0,1,7.23-.72c4.18,1.54,7.85,6.15,9.82,12.33h0c3.21,10.07,1,21.3-5,25a7.93,7.93,0,0,1-4.26,1.25A8.63,8.63,0,0,1,1512.11,887.23Zm11.07-25.35c-1.85-5.83-5.24-10.14-9.07-11.56a6.9,6.9,0,0,0-6.15.59c-5.53,3.44-7.55,14-4.5,23.6,1.86,5.82,5.25,10.14,9.07,11.56a6.94,6.94,0,0,0,6.14-.59c5.54-3.46,7.56-14.05,4.51-23.6Z"/><g class="cls-22"><ellipse class="cls-19" cx="1544.53" cy="860.69" rx="12.67" ry="18.66" transform="translate(-11.66 21.27) rotate(-0.79)"/></g><g class="cls-22"><path class="cls-19" d="M1524.63,862.31c2.23,9.84-.75,20.52-6.66,23.84s-12.52-2-14.76-11.8.74-20.52,6.66-23.85S1522.39,852.46,1524.63,862.31Z"/></g><path class="cls-12" d="M1539.32,878.57c-4.28-2.07-7.54-6.76-9-12.86-2.43-10.47,1.53-21.77,8.84-25.21a10.22,10.22,0,0,1,9,.07c4.26,2.08,7.52,6.76,8.92,12.85h0c2.44,10.48-1.52,21.79-8.84,25.21a10.21,10.21,0,0,1-4.43,1A10.53,10.53,0,0,1,1539.32,878.57Zm.4-37c-6.8,3.2-10.46,13.88-8.16,23.81,1.32,5.66,4.42,10.16,8.3,12a9.23,9.23,0,0,0,8,.06c6.8-3.21,10.46-13.89,8.15-23.82h0c-1.3-5.63-4.4-10.12-8.27-12a9,9,0,0,0-8-.07Z"/><path class="cls-12" d="M1523.31,866a1.17,1.17,0,0,0,.74-.27h0c.12-.11,3.12-2.45,8.29-1.47a1.19,1.19,0,0,0,1.36-.91,1.13,1.13,0,0,0-.91-1.34,12.44,12.44,0,0,0-10.22,1.93,1.17,1.17,0,0,0-.14,1.63A1.12,1.12,0,0,0,1523.31,866Z"/><path class="cls-15" d="M1599.09,1178.33s-114.73-21.91-151.92-11.57l17.83,26.43,66.31,3.75Z"/><path class="cls-23" d="M1529.65,919.43s-62.94,36.25-61,236.2l4.17,110.11s-21,1.72-36.08,0c0,0-15.79-208.87,19.75-288.79Z"/><path class="cls-23" d="M1581.93,917.61s-26.4,87.43-27.4,186.74,6.45,168.28,6.45,168.28,76.43,18.64,127.69,0l-25.06-309.77Z"/><path class="cls-23" d="M1581.93,917.61s66.17,6.46,81.68,45.25L1646.14,977l-33.43-7Z"/><path class="cls-23" d="M1529.65,919.43s-17.13.78-36,12.9-77,101.52-156.27,118l75.53,37.08s58.29-13.26,60.58-27.33C1489.45,962,1529.65,919.43,1529.65,919.43Z"/><path class="cls-13" d="M1841.82,1288.68l38.36,22c3.19,1.83,3.94,7.08,1.71,12l-1.86,4.12c-2.34,5.15-7.07,8-10.58,6.44l-39.69-18Z"/><path class="cls-13" d="M1154.32,954s-13-3.51-13.71-.76c-1.16,4.44,9.6,9.81,9.6,9.81Z"/><path class="cls-13" d="M1830,1271.87a6.93,6.93,0,0,1-1.27-.13,6.3,6.3,0,0,1-4.91-7.44l5.23-25.56a5.44,5.44,0,0,0-3.36-5.46L1620,1149.53a6.3,6.3,0,0,1,4.75-11.68l205.66,83.75a18.08,18.08,0,0,1,11.1,18.86,4.54,4.54,0,0,1-.09.51l-5.29,25.86A6.31,6.31,0,0,1,1830,1271.87Z"/><path class="cls-14" d="M1203.85,1025.05,1820,1333.36c6.16,2.71,25.52-10.07,33.11-33l6.85-15.08a12.27,12.27,0,0,0-5.88-16.14L1236.89,964.9Z"/><path class="cls-13" d="M1765.13,1225.28s-4.45,40.28-36.26,62.48L1684,1265.3s31-24.81,34.38-63.06Z"/><path class="cls-24" d="M1154.29,954.05l-3.75,8.28a6.42,6.42,0,0,0,1.13,7l44.66,49.77a21.64,21.64,0,0,0,25.83,5c6.26-3.25,12.7-9.27,16.68-20.3,5.1-14.11,5.34-23.63,3.79-30a17.17,17.17,0,0,0-14.47-12.69l-69.72-9.32A4,4,0,0,0,1154.29,954.05Z"/><path class="cls-13" d="M1824.4,1317.25a1,1,0,0,1-.44-.11l-68.89-35.36a1,1,0,1,1,.88-1.73l68.9,35.36a1,1,0,0,1,.42,1.31A1,1,0,0,1,1824.4,1317.25Z"/><path class="cls-13" d="M1685.27,1246.82a1,1,0,0,1-.43-.1l-432.29-214.8a1,1,0,1,1,.86-1.73L1685.71,1245a1,1,0,0,1-.44,1.84Z"/><polygon class="cls-10" points="1477.01 1077.88 1501.8 1079 1515.32 1114.65 1509.49 1117.68 1477.01 1077.88"/><path class="cls-10" d="M1477,1077.88s-25.48-3.42-36.89,6.38-18.59,31-10.22,26.39,17.44-13.38,17.44-13.38-18.5,19.72-12,22,22.42-15,22.42-15-20.16,25.21-13.32,25.43,22-19,22-19-17.82,24.21-9.87,24.28,14.59-20.11,21.08-17.77,33,9.39,41.71-7.84Z"/><path class="cls-11" d="M1447.8,1097.59l-.91-.63c.18-.27,4.61-6.59,9.54-6.59h0v1.11h0C1452.08,1091.48,1447.84,1097.53,1447.8,1097.59Z"/><path class="cls-11" d="M1458.2,1104.66l-.93-.62c.18-.26,4.39-6.5,11.27-7.82l.21,1.09C1462.34,1098.54,1458.24,1104.6,1458.2,1104.66Z"/><path class="cls-11" d="M1466.89,1111.05l-.91-.63c.22-.32,5.47-7.85,10.75-7.36l-.1,1.11C1472,1103.72,1466.94,1111,1466.89,1111.05Z"/><path class="cls-10" d="M1297.84,1074.34s-11.48-2.75-6.27-13.67c6.64-13.91,26.79-29.5,27.5-19.76.15,2.21-6.72,13.89-6.72,13.89s16.14-19,20.35-12.85-10.43,23.13-10.43,23.13,16.75-15.93,18.81-9-8.1,18.09-8.1,18.09,14.71-14.84,16.9-6.77-11.3,17.7-16,23.07c-4.41,5.07-8.75,2.86-13.86-1.79a9.72,9.72,0,0,1-9.52-5.83c-.73-1.6-4.79-.88-5.86-1.56A23.67,23.67,0,0,1,1297.84,1074.34Z"/><path class="cls-23" d="M1656.05,1067c33.31-48.44,8.35-101.89,7.56-104.14,0,0-2.77-4.15-29.2,5.94s-24.94,16.39-24.94,16.39a69.56,69.56,0,0,1-9.84,51.78c-16.24,24.73-49.78,35.31-104.35,40.33l16.31,53.66C1526.45,1129.6,1616.79,1124.09,1656.05,1067Z"/><path class="cls-13" d="M1554.19,1125.73a.71.71,0,0,1-.69-.61.7.7,0,0,1,.59-.79c46.28-6.4,74.9-29.08,90.76-47,17.2-19.41,23.53-37.54,23.59-37.72a.7.7,0,0,1,1.33.46c-.07.18-6.47,18.53-23.83,38.14-16,18.09-44.93,41-91.65,47.49Z"/><path class="cls-13" d="M1556.09,1067.19a.68.68,0,0,1-.68-.54.71.71,0,0,1,.52-.84c29.12-6.77,44.31-54.1,44.46-54.57a.7.7,0,0,1,1.34.42,139.67,139.67,0,0,1-11.35,25.06c-6.93,11.88-18.47,26.81-34.13,30.45A.47.47,0,0,1,1556.09,1067.19Z"/><path class="cls-14" d="M989.21,1040.26c-15.25,0-27.14-5.87-34.86-17.57-7.13-10.81-9.23-23.12-6.24-36.57,5.07-22.88,24.68-48.86,58.28-77.23a443.33,443.33,0,0,1,48.46-35.53,5.17,5.17,0,0,1,5.42,8.8c-.91.56-91.06,56.52-102.07,106.2-2.39,10.77-.83,20.14,4.78,28.64,15.09,22.89,49.46,10.21,68.61.61,61.6-30.89,121.75-102.77,111-132.62-1.8-5-4.68-7.42-9.33-7.91-24.26-2.57-76.66,46.07-84.07,58a5.17,5.17,0,0,1-8.78-5.46c4.41-7.08,20.4-23.44,38.55-37.51,16.12-12.5,38.82-27,55.38-25.28,8.62.9,14.83,6,18,14.67,3.83,10.61,5,34.69-30.63,76.67-23.86,28.16-55.79,53.84-85.43,68.7C1018.36,1035.8,1002.51,1040.26,989.21,1040.26Z"/></g></g></svg>