<svg xmlns="http://www.w3.org/2000/svg" viewBox="0 0 424.83 351.7"><defs><style>.cls-1{fill:#e0e0e0;}.cls-2{fill:#ffa8a7;}.cls-3{fill:#27debf;}.cls-4{opacity:0.2;}.cls-5{fill:#37474f;}.cls-24,.cls-6{opacity:0.6;}.cls-7{fill:#263238;}.cls-8{opacity:0.4;}.cls-21,.cls-24,.cls-9{fill:#fff;}.cls-15,.cls-23,.cls-9{opacity:0.5;}.cls-10{fill:#455a64;}.cls-11{fill:#f28f8f;}.cls-12{opacity:0.05;}.cls-13,.cls-16{opacity:0.1;}.cls-14{opacity:0.3;}.cls-17{fill:#e6e6e6;}.cls-18{fill:#f0f0f0;}.cls-19{fill:#fafafa;}.cls-20{opacity:0.15;}.cls-21{opacity:0.45;}.cls-22{fill:#f5f5f5;}</style></defs><title>employee</title><g id="Capa_2" data-name="Capa 2"><g id="Shadow"><path id="Shadow-2" data-name="Shadow" class="cls-1" d="M107.53,290.58l93.68-54.08a4.47,4.47,0,0,1,4.09,0l68.32,39.44a1.25,1.25,0,0,1,0,2.36L180,332.38a4.49,4.49,0,0,1-4.1,0l-68.32-39.44A1.25,1.25,0,0,1,107.53,290.58Z"/><ellipse id="Shadow-3" data-name="Shadow" class="cls-1" cx="339.51" cy="299.31" rx="62.72" ry="36.21"/><path id="Shadow-4" data-name="Shadow" class="cls-1" d="M81.21,351.7a6.24,6.24,0,0,1-3.09-.77l-76.26-44a3.25,3.25,0,0,1,0-5.88L63.54,265.4a6.57,6.57,0,0,1,6.17,0l76.26,44a3.24,3.24,0,0,1,0,5.87L84.3,350.93A6.24,6.24,0,0,1,81.21,351.7Z"/></g><g id="Character"><g id="Character-2" data-name="Character"><path class="cls-2" d="M340.18,54.42c-7.24,2.41-9,2.94-14,10.75-4.81,7.49-9.78,21.35-14.09,32.46-8-2.26-24.89-6.2-30.47-9.44s-5-5.49-7.29-7.57c-2.62-2.42-5.38-8.2-7.52-5-1.44,2.15,1.55,3.59,1.36,6.3s-8.4-3.72-11.83-6.12c-2.28-1.59-7.57,3.4-5.45,8.83,1.88,4.81,4.88,7.85,10.27,10.13,5.7,2.41,8.67,3.61,15.82,6.82,7.47,3.36,38.24,17,41.28,15.08,6.94-3.43,13.29-24.87,17.48-34.14S337.14,63.68,340.18,54.42Z"/><path class="cls-3" d="M341.93,53.53c-3.1,4.09-1.82,2.44-2.78,8.75-.77,5.08-11.46,54-21.14,56.06-4.24.89-34.88-13.12-42.3-17.21,2.5-3.71,5-8.28,5.87-12.94,8.9,3.48,24.24,6.91,29.76,8.62,2.55-7.12,5.67-14.42,8.59-21.59C325.5,61.55,329.08,55.38,341.93,53.53Z"/><path class="cls-4" d="M341.93,53.53c-3.1,4.09-1.82,2.44-2.78,8.75-.77,5.08-11.46,54-21.14,56.06-4.24.89-34.88-13.12-42.3-17.21,2.5-3.71,5-8.28,5.87-12.94,8.9,3.48,24.24,6.91,29.76,8.62,2.55-7.12,5.67-14.42,8.59-21.59C325.5,61.55,329.08,55.38,341.93,53.53Z"/><rect class="cls-2" x="371.55" y="275.34" width="11.93" height="20.43"/><polygon class="cls-2" points="339.13 283.07 326.11 283.51 325.46 259.91 340.21 259.43 339.13 283.07"/><path class="cls-5" d="M382,136.33c0,10.87.74,74,.74,74,.27,3.13,3.28,8.69,3.51,19.94.34,16.33-2.17,54.79-2.17,54.79a15,15,0,0,1-12.66.25s-8.94-54.4-11-70.56c-1.77-14.1-6.86-51-6.86-51l-7.68,47.93a80.45,80.45,0,0,1,.64,17.35c-.54,7.47-6.19,44.63-6.19,44.63a25,25,0,0,1-15.19.13s-1.18-57.89-1.31-64.75c-.15-7.82,3.26-75.08,3.26-75.08Z"/><path class="cls-3" d="M371.55,289.88v-1.71c-.64,0-1,.63-1.28,2.16-.18,1.1-.34,1.93-.7,3.38a40.21,40.21,0,0,1-2.08,6.11c-1.69,4.15-3.11,5.7-7,10.56-.92,1.15-3,3-3.71,4.27s-1,4.86.25,5.67c4.51,3,11.35,3.09,16.19,1.67a9.76,9.76,0,0,0,7-7.89c.18-1.1.11-2.23.24-3.33a15.75,15.75,0,0,1,3-6.94,20.73,20.73,0,0,0,2.29-3.77c1-2.45.2-5.21-.44-7.65-.56-2.11-1.16-4.43-1.88-4.24v1.3c-.86,1-3.26,1.92-6,2C375.77,291.56,371.54,291.21,371.55,289.88Z"/><path class="cls-6" d="M371.55,289.88v-1.71c-.64,0-1,.63-1.28,2.16-.18,1.1-.34,1.93-.7,3.38a40.21,40.21,0,0,1-2.08,6.11c-1.69,4.15-3.11,5.7-7,10.56-.92,1.15-3,3-3.71,4.27s-1,4.86.25,5.67c4.51,3,11.35,3.09,16.19,1.67a9.76,9.76,0,0,0,7-7.89c.18-1.1.11-2.23.24-3.33a15.75,15.75,0,0,1,3-6.94,20.73,20.73,0,0,0,2.29-3.77c1-2.45.2-5.21-.44-7.65-.56-2.11-1.16-4.43-1.88-4.24v1.3c-.86,1-3.26,1.92-6,2C375.77,291.56,371.54,291.21,371.55,289.88Z"/><path class="cls-3" d="M326,279.5c-.67,0-1.22,1-2.72,2.59a28.29,28.29,0,0,1-7.66,5.51c-4.88,2.45-14.37,6.2-18.66,8.14-2.68,1.21-2.56,4.45.22,6.29s9.46,3.17,17.5,1.37c4.38-1,10.08-5,13.68-4.8s10.36.16,13-1.67,1.6-5.76.85-9.12c-.82-3.68-1.65-9.41-2.87-9.16l-.06,1.37c-1.56,2.37-9.79,3.23-13.23,1.49Z"/><path class="cls-6" d="M326,279.5c-.67,0-1.22,1-2.72,2.59a28.29,28.29,0,0,1-7.66,5.51c-4.88,2.45-14.37,6.2-18.66,8.14-2.68,1.21-2.56,4.45.22,6.29s9.46,3.17,17.5,1.37c4.38-1,10.08-5,13.68-4.8s10.36.16,13-1.67,1.6-5.76.85-9.12c-.82-3.68-1.65-9.41-2.87-9.16l-.06,1.37c-1.56,2.37-9.79,3.23-13.23,1.49Z"/><path class="cls-7" d="M353.6,163.77s-10.14-3.31-16.89-9.83c0,0,3.05,5.72,12.14,11l-2.18,42Z"/><path class="cls-3" d="M362.29,53a109.5,109.5,0,0,1,12.36,3.58c3.09,1.1,4.75,4,5.4,6.92,2.11,9.26,2.47,28.68,2.47,28.68l.12,45.24c-7.83,5.71-40,8.6-56.51-3.44,0,0,2-53.87,2-62.26s4.66-18.46,17.53-19.21Z"/><path class="cls-8" d="M362.29,53a109.5,109.5,0,0,1,12.36,3.58c3.09,1.1,4.75,4,5.4,6.92,2.11,9.26,2.47,28.68,2.47,28.68l.12,45.24c-7.83,5.71-40,8.6-56.51-3.44,0,0,2-53.87,2-62.26s4.66-18.46,17.53-19.21Z"/><path class="cls-3" d="M424.81,105.88a.9.9,0,0,0-.34-.79l-.09,0L422.56,104h0a.89.89,0,0,0-.89.09L385.4,125l-1-4.26a1.18,1.18,0,0,0-.53-.69h0l-1.89-1.1h0a1.11,1.11,0,0,0-1.14,0l-15.44,8.91a2.77,2.77,0,0,0-1.25,2.17v51.46a.9.9,0,0,0,.34.79h0l1.94,1.13h0a.92.92,0,0,0,.86-.11l56.33-32.52a2.77,2.77,0,0,0,1.25-2.17Z"/><path class="cls-9" d="M383.8,120a1.15,1.15,0,0,0-1.13,0L367.24,129a2.58,2.58,0,0,0-.88.94l-1.88-1.1a2.58,2.58,0,0,1,.88-.94l15.43-8.9a1.13,1.13,0,0,1,1.15,0h0Z"/><path class="cls-9" d="M424.38,105a1,1,0,0,0-.83.12l-36.3,21a1.1,1.1,0,0,1-1.68-.67l-.17-.46,36.27-20.91a1.09,1.09,0,0,1,.56-.17.66.66,0,0,1,.32.08h0Z"/><path class="cls-3" d="M424.81,105.89l0,42.74a2.75,2.75,0,0,1-1.26,2.17L367.1,183.41a.74.74,0,0,1-1.11-.64V131.14a2.53,2.53,0,0,1,.37-1.23,2.67,2.67,0,0,1,.88-.94l15.43-8.9a1.12,1.12,0,0,1,1.13-.06l0,0h0a1.17,1.17,0,0,1,.53.7l1,4.26.17.45a1.09,1.09,0,0,0,1.67.67l36.31-21a.94.94,0,0,1,.82-.12l.05,0,0,0h0A.93.93,0,0,1,424.81,105.89Z"/><polygon class="cls-10" points="413.72 112.96 413.72 106.22 417.73 103.9 417.73 110.65 413.72 112.96"/><path class="cls-4" d="M366.45,183.45l-.06,0-1.94-1.13a.91.91,0,0,1-.34-.8V130.05a2.54,2.54,0,0,1,.37-1.24l1.88,1.1h0a2.54,2.54,0,0,0-.37,1.24v51.62A.74.74,0,0,0,366.45,183.45Z"/><path class="cls-2" d="M404.75,113.54C394.36,71.06,389,58,376.39,58.19c-3.69,4.4.2,18.11,2.63,24.77,0,0,11.17,27.28,13.24,37,1.82,8.56,3.89,19.32,3.75,26.68a5.29,5.29,0,0,1-1.44,3.49c-2.37,2.57-2.38,4.64-3.92,7.49-1.2,2.22-2.51,3.05-2.14,3.56a2.88,2.88,0,0,0,3.9.28,14.53,14.53,0,0,0,2.95-2.83,32.68,32.68,0,0,1-2.3,9.76l-2.64,1.52s.81,2.75,7.19.92c7.2-2.07,9.78-3,10.54-15.18a93.68,93.68,0,0,0,.14-13.52C407.2,130.56,406.42,120.37,404.75,113.54Z"/><path class="cls-3" d="M374.65,56.58s9.63-.22,12.68,4.45c3.53,5.4,8.1,13.75,14,34.83s7.73,36.45,8,48.32c0,0-7.43,3.46-14.28-.49,0,0-3-18.33-5.72-28.09s-11.32-30.89-11.32-30.89S369.85,71.25,374.65,56.58Z"/><path class="cls-4" d="M374.65,56.58s9.63-.22,12.68,4.45c3.53,5.4,8.1,13.75,14,34.83s7.73,36.45,8,48.32c0,0-7.43,3.46-14.28-.49,0,0-3-18.33-5.72-28.09s-11.32-30.89-11.32-30.89S369.85,71.25,374.65,56.58Z"/><path class="cls-7" d="M359.65,17.25a15.1,15.1,0,1,1-15.1-15.09A15.1,15.1,0,0,1,359.65,17.25Z"/><path class="cls-7" d="M370.65,28s-2.44,11.49-3.43,13.38a5.21,5.21,0,0,1-3,2.43l.17-8.09Z"/><path class="cls-7" d="M367.58,11.52a5.67,5.67,0,0,1,4.69,1.65c2,2.06.89,8.51-1.62,14.82l-4.61.53Z"/><path class="cls-2" d="M364.66,28.52c.93.55,2.24-1.22,3.38-2.41s4.86-2.83,6.72,1.08-1.64,9.25-4.57,10.17c-5.05,1.59-5.8-1.65-5.8-1.65L364,54.47h0c-3.49,4.48-11.33,9.74-15.55,9-3.37-.6-4.1-6.29-.88-10V47.89a31.42,31.42,0,0,1-6.8.35c-3.71-.57-6.05-3.5-7.17-7.52-1.81-6.45-2.5-11.66-1-24.35,1.68-13.91,17.86-14.06,26.6-8.56S364.66,28.52,364.66,28.52Z"/><path class="cls-7" d="M332.92,10.16c3.05,2.48,5,3.8,10.94,4a26.4,26.4,0,0,0,11.71-2.3,7.55,7.55,0,0,0,1.74,3.82c2.1,2.15,3.31,2.19,4.13,2.72.32,2.5.31,5.71.46,8.23.05.85.05,5.28,2.07,4a9.93,9.93,0,0,0,1.75-2A29.89,29.89,0,0,1,368,26.11c1.6-1.45-.46-14.59-.46-14.59a6.37,6.37,0,0,0-1.1-7.09C364.3,2,361.25-.91,351.35.27c-7.07.83-14.75,3-21,0C329.53,3.81,330.74,8.39,332.92,10.16Z"/><path class="cls-7" d="M367.57,12.54l5.59-3a3.08,3.08,0,0,0-4.23-1.39A3.33,3.33,0,0,0,367.57,12.54Z"/><path class="cls-11" d="M347.59,47.89s8.29-1.66,11.19-3.2a9.51,9.51,0,0,0,4-4,13.08,13.08,0,0,1-2.27,4.68c-2.12,2.71-12.92,4.7-12.92,4.7Z"/><path class="cls-7" d="M348.44,25.58a1.8,1.8,0,0,0,1.77,1.84,1.85,1.85,0,1,0-1.77-1.84Z"/><path class="cls-7" d="M350.21,19.56l3.68,2a2.2,2.2,0,0,0-.86-2.93A2,2,0,0,0,350.21,19.56Z"/><path class="cls-11" d="M348.29,37.67l-4.11,1.54A2.16,2.16,0,0,0,347,40.58,2.3,2.3,0,0,0,348.29,37.67Z"/><path class="cls-7" d="M333.77,21l3.35-2.58A2,2,0,0,0,334.2,18,2.22,2.22,0,0,0,333.77,21Z"/><path class="cls-7" d="M334.52,25.25a1.72,1.72,0,1,0,1.72-1.79A1.75,1.75,0,0,0,334.52,25.25Z"/><polygon class="cls-11" points="343.73 23.83 343.14 34.66 337.48 32.73 343.73 23.83"/><path class="cls-7" d="M341.69,62.27c1.05,2.5,3,3.52,6.53,3.92a13.11,13.11,0,0,0,9.76-3.4l-4.39-4.36L348,62.62,347.55,58Z"/><path class="cls-5" d="M344.45,60.9a11.65,11.65,0,0,0-.58,4.69,8,8,0,0,0,1.57,3.92,4.31,4.31,0,0,0,3.79.41,10.37,10.37,0,0,0,3.61-7.85l-4.81.55Z"/><path class="cls-5" d="M345.44,69.51s-5.71,31.51-5.94,34.05,3.28,11.58,5.46,11.65,6.45-8.1,6.51-10.41-2.24-34.88-2.24-34.88Z"/><path class="cls-7" d="M349.23,69.92a3.82,3.82,0,0,1-3.79-.41l-.09.49a4.33,4.33,0,0,0,3.94.78Z"/><path class="cls-3" d="M348,62.62,364.1,50.36l.06-3.21s3.76,1,4.6,7.6c-2.29,5.32-6.44,9.86-12.54,13.34l-3.38-6Z"/><path class="cls-4" d="M348,62.62,364.1,50.36l.06-3.21s3.76,1,4.6,7.6c-2.29,5.32-6.44,9.86-12.54,13.34l-3.38-6Z"/><path class="cls-3" d="M347.59,48.69s-3.77,1.76-5.39,4.42-1.59,11.28-1.59,11.28l3.84-3.49L348,62.62c-.35-3.38-.45-9.18-.45-9.18Z"/><path class="cls-4" d="M347.59,48.69s-3.77,1.76-5.39,4.42-1.59,11.28-1.59,11.28l3.84-3.49L348,62.62c-.35-3.38-.45-9.18-.45-9.18Z"/></g></g><g id="Cabinet"><g id="Cabinet-2" data-name="Cabinet"><g id="Cabinet-3" data-name="Cabinet"><polygon class="cls-7" points="177.9 324.54 118.73 290.38 118.73 104.94 177.9 139.1 177.9 324.54"/><polygon class="cls-5" points="177.9 139.1 262.43 90.3 262.43 275.74 177.9 324.54 177.9 139.1"/><polygon class="cls-10" points="262.43 90.3 177.9 139.1 118.73 104.94 203.26 56.13 262.43 90.3"/><polygon class="cls-7" points="186.35 259.29 253.97 220.25 253.97 267.25 255.53 268.14 187.9 307.19 186.35 306.29 186.35 259.29"/><polygon class="cls-10" points="187.91 260.19 255.53 221.15 255.53 268.14 187.9 307.19 187.91 260.19"/><g class="cls-12"><polygon points="187.91 260.19 255.53 221.15 255.53 268.14 187.9 307.19 187.91 260.19"/></g><path class="cls-7" d="M214.41,252.85l11.5-6.64c1.49-.86,2.7-.47,2.7.88a5.41,5.41,0,0,1-2.7,4l-11.5,6.64c-1.49.86-2.7.47-2.7-.88A5.41,5.41,0,0,1,214.41,252.85Z"/><polygon class="cls-7" points="186.35 202.54 253.97 163.5 253.97 210.5 255.53 211.4 187.9 250.44 186.35 249.54 186.35 202.54"/><polygon class="cls-10" points="187.91 203.44 255.53 164.4 255.53 211.4 187.9 250.44 187.91 203.44"/><g class="cls-12"><polygon points="187.91 203.44 255.53 164.4 255.53 211.4 187.9 250.44 187.91 203.44"/></g><path class="cls-7" d="M214.41,196.1l11.5-6.64c1.49-.86,2.7-.47,2.7.88a5.41,5.41,0,0,1-2.7,4L214.41,201c-1.49.86-2.7.47-2.7-.88A5.41,5.41,0,0,1,214.41,196.1Z"/><polygon class="cls-7" points="186.35 145.79 253.97 106.75 253.97 153.74 186.35 192.78 186.35 145.79"/></g><g id="Drawer"><polygon class="cls-5" points="287.78 134.22 250.26 112.57 250.26 153.97 287.78 175.62 287.78 134.22"/><g class="cls-13"><polygon points="287.78 134.22 250.26 112.57 250.26 153.97 287.78 175.62 287.78 134.22"/></g><polygon class="cls-10" points="252.88 111.05 250.26 112.56 287.78 134.22 290.41 132.7 252.88 111.05"/><path class="cls-3" d="M263.45,115.62a1,1,0,0,0-.36-.84l-.09,0-1.91-1.12h0a1,1,0,0,0-.93.1l-38.22,22-1.11-4.48a1.25,1.25,0,0,0-.55-.74h0l-2-1.15h0a1.17,1.17,0,0,0-1.21,0l-16.26,9.38a2.92,2.92,0,0,0-1.32,2.29V195.3a1,1,0,0,0,.35.84h0l2.05,1.18h0a.92.92,0,0,0,.9-.11l59.36-34.27a2.91,2.91,0,0,0,1.32-2.28Z"/><path class="cls-4" d="M220.24,130.5a1.19,1.19,0,0,0-1.18.06l-16.26,9.38a3,3,0,0,0-.94,1l-2-1.15a2.64,2.64,0,0,1,.94-1l16.26-9.38a1.13,1.13,0,0,1,1.2,0h0Z"/><path class="cls-4" d="M263,114.73a1,1,0,0,0-.87.13l-38.26,22.07a1.15,1.15,0,0,1-1.76-.7l-.18-.49,38.22-22a1.18,1.18,0,0,1,.58-.17.78.78,0,0,1,.35.08h0Z"/><path class="cls-3" d="M263.45,115.62l0,45a2.93,2.93,0,0,1-1.33,2.29l-59.5,34.35a.78.78,0,0,1-1.17-.67v-54.4a2.63,2.63,0,0,1,.38-1.29,2.81,2.81,0,0,1,.94-1l16.25-9.39a1.21,1.21,0,0,1,1.19-.05l0,0h0a1.28,1.28,0,0,1,.55.73l1.11,4.49.18.48a1.15,1.15,0,0,0,1.76.7l38.26-22.07a1,1,0,0,1,.86-.13l.06,0,0,0h0A.94.94,0,0,1,263.45,115.62Z"/><path class="cls-14" d="M263.45,115.62l0,45a2.93,2.93,0,0,1-1.33,2.29l-59.5,34.35a.78.78,0,0,1-1.17-.67v-54.4a2.63,2.63,0,0,1,.38-1.29,2.81,2.81,0,0,1,.94-1l16.25-9.39a1.21,1.21,0,0,1,1.19-.05l0,0h0a1.28,1.28,0,0,1,.55.73l1.11,4.49.18.48a1.15,1.15,0,0,0,1.76.7l38.26-22.07a1,1,0,0,1,.86-.13l.06,0,0,0h0A.94.94,0,0,1,263.45,115.62Z"/><polygon class="cls-1" points="224.38 138.89 224.39 131.78 228.61 129.34 228.61 136.45 224.38 138.89"/><path class="cls-15" d="M202,197.34l-.06,0-2.05-1.18a1,1,0,0,1-.35-.84V141.08a2.65,2.65,0,0,1,.39-1.3l2,1.15h0a2.66,2.66,0,0,0-.38,1.3v54.39A.76.76,0,0,0,202,197.34Z"/><path class="cls-3" d="M269.82,119.33a.94.94,0,0,0-.36-.83.37.37,0,0,0-.09-.06l-1.91-1.11h0a1,1,0,0,0-.93.1l-38.22,22L227.19,135a1.2,1.2,0,0,0-.55-.73h0l-2-1.15h0a1.15,1.15,0,0,0-1.21,0l-16.26,9.38a2.94,2.94,0,0,0-1.32,2.29V199a.94.94,0,0,0,.35.84h0l2.05,1.19h0a1,1,0,0,0,.9-.11l59.36-34.27a2.92,2.92,0,0,0,1.32-2.29Z"/><path class="cls-16" d="M226.61,134.22a1.17,1.17,0,0,0-1.18.05l-16.26,9.39a2.81,2.81,0,0,0-.94,1l-2-1.16a2.72,2.72,0,0,1,.94-1l16.26-9.38a1.17,1.17,0,0,1,1.21,0h0Z"/><path class="cls-16" d="M269.37,118.44a1,1,0,0,0-.87.13l-38.26,22.07a1.15,1.15,0,0,1-1.76-.7l-.18-.48,38.22-22a1.11,1.11,0,0,1,.59-.18.67.67,0,0,1,.34.09h0Z"/><path class="cls-3" d="M269.82,119.34l0,45a2.89,2.89,0,0,1-1.33,2.29L209,201a.78.78,0,0,1-1.17-.68V146a2.66,2.66,0,0,1,.38-1.3,2.81,2.81,0,0,1,.94-1l16.25-9.39a1.21,1.21,0,0,1,1.19-.05l0,0h0a1.23,1.23,0,0,1,.55.73l1.11,4.49.18.48a1.16,1.16,0,0,0,1.76.71l38.26-22.08a1,1,0,0,1,.86-.12l.06,0h0A1,1,0,0,1,269.82,119.34Z"/><path class="cls-4" d="M269.82,119.34l0,45a2.89,2.89,0,0,1-1.33,2.29L209,201a.78.78,0,0,1-1.17-.68V146a2.66,2.66,0,0,1,.38-1.3,2.81,2.81,0,0,1,.94-1l16.25-9.39a1.21,1.21,0,0,1,1.19-.05l0,0h0a1.23,1.23,0,0,1,.55.73l1.11,4.49.18.48a1.16,1.16,0,0,0,1.76.71l38.26-22.08a1,1,0,0,1,.86-.12l.06,0h0A1,1,0,0,1,269.82,119.34Z"/><polygon class="cls-17" points="239.88 137.33 239.88 130.22 244.11 127.78 244.11 134.89 239.88 137.33"/><path class="cls-8" d="M208.33,201.06l-.06,0-2.05-1.19a1,1,0,0,1-.35-.84V144.79a2.71,2.71,0,0,1,.39-1.3l2,1.16h0a2.77,2.77,0,0,0-.38,1.3v54.39A.77.77,0,0,0,208.33,201.06Z"/><path class="cls-3" d="M276.19,123.05a1,1,0,0,0-.36-.84.24.24,0,0,0-.09,0L273.83,121h0a.92.92,0,0,0-.93.09l-38.22,22-1.11-4.49A1.23,1.23,0,0,0,233,138h0l-2-1.16h0a1.19,1.19,0,0,0-1.21,0l-16.26,9.39a2.91,2.91,0,0,0-1.32,2.29v54.22a.93.93,0,0,0,.35.83h0l2,1.19h0a1,1,0,0,0,.9-.11l59.36-34.27a2.92,2.92,0,0,0,1.32-2.29Z"/><path class="cls-3" d="M233,137.93a1.17,1.17,0,0,0-1.18.06l-16.26,9.38a2.7,2.7,0,0,0-.93,1l-2-1.16a2.61,2.61,0,0,1,.94-1l16.26-9.39a1.19,1.19,0,0,1,1.21,0h0Z"/><path class="cls-3" d="M275.74,122.16a1,1,0,0,0-.87.12l-38.25,22.07a1.16,1.16,0,0,1-1.77-.7l-.18-.48,38.22-22a1.21,1.21,0,0,1,.59-.18.67.67,0,0,1,.34.09h0Z"/><path class="cls-3" d="M276.19,123.05l0,45a2.89,2.89,0,0,1-1.33,2.29l-59.5,34.36a.78.78,0,0,1-1.17-.68V149.66a2.66,2.66,0,0,1,.38-1.3,2.89,2.89,0,0,1,.94-1L231.8,138a1.17,1.17,0,0,1,1.18-.06l0,0h0a1.22,1.22,0,0,1,.55.74l1.11,4.48.18.48a1.15,1.15,0,0,0,1.76.71l38.26-22.07a1,1,0,0,1,.86-.13l.06,0h0A1,1,0,0,1,276.19,123.05Z"/><path class="cls-16" d="M276.19,123.05l0,45a2.89,2.89,0,0,1-1.33,2.29l-59.5,34.36a.78.78,0,0,1-1.17-.68V149.66a2.66,2.66,0,0,1,.38-1.3,2.89,2.89,0,0,1,.94-1L231.8,138a1.17,1.17,0,0,1,1.18-.06l0,0h0a1.22,1.22,0,0,1,.55.74l1.11,4.48.18.48a1.15,1.15,0,0,0,1.76.71l38.26-22.07a1,1,0,0,1,.86-.13l.06,0h0A1,1,0,0,1,276.19,123.05Z"/><polygon class="cls-18" points="255.38 135.77 255.38 128.67 259.61 126.22 259.61 133.34 255.38 135.77"/><path class="cls-14" d="M214.7,204.77l-.06,0-2-1.19a.94.94,0,0,1-.35-.84V148.51a2.65,2.65,0,0,1,.39-1.3l2,1.15h0a2.77,2.77,0,0,0-.38,1.3v54.39A.76.76,0,0,0,214.7,204.77Z"/><path class="cls-3" d="M282.56,126.76a1,1,0,0,0-.36-.84l-.09,0-1.91-1.12h0a1,1,0,0,0-.93.09l-38.22,22-1.11-4.48a1.25,1.25,0,0,0-.55-.74h0l-2-1.15h0a1.17,1.17,0,0,0-1.21,0l-16.26,9.38a2.92,2.92,0,0,0-1.32,2.29v54.22a1,1,0,0,0,.35.84h0l2,1.18h0a1,1,0,0,0,.9-.11l59.36-34.27a2.91,2.91,0,0,0,1.32-2.29Z"/><path class="cls-9" d="M239.35,141.64a1.17,1.17,0,0,0-1.18.06l-16.26,9.38a2.87,2.87,0,0,0-.93,1l-2-1.15a2.64,2.64,0,0,1,.94-1l16.26-9.38a1.17,1.17,0,0,1,1.21,0h0Z"/><path class="cls-9" d="M282.11,125.87a1,1,0,0,0-.87.13L243,148.07a1.16,1.16,0,0,1-1.77-.7l-.18-.49,38.22-22a1.19,1.19,0,0,1,.59-.17.77.77,0,0,1,.34.08h0Z"/><path class="cls-3" d="M282.56,126.76l0,45a2.91,2.91,0,0,1-1.33,2.29l-59.5,34.35a.78.78,0,0,1-1.17-.67v-54.4a2.66,2.66,0,0,1,.38-1.3,2.86,2.86,0,0,1,.94-1l16.26-9.39a1.19,1.19,0,0,1,1.18,0l0,0h0a1.2,1.2,0,0,1,.55.73l1.11,4.48.18.49a1.15,1.15,0,0,0,1.76.7L281.24,126a1,1,0,0,1,.86-.13l.06,0,0,0h0A.94.94,0,0,1,282.56,126.76Z"/><polygon class="cls-19" points="270.88 134.22 270.88 127.11 275.11 124.67 275.11 131.78 270.88 134.22"/><path class="cls-4" d="M221.07,208.48l-.06,0-2-1.18a1,1,0,0,1-.35-.84V152.22a2.65,2.65,0,0,1,.39-1.3l2,1.15h0a2.68,2.68,0,0,0-.39,1.3v54.39A.76.76,0,0,0,221.07,208.48Z"/><polygon class="cls-5" points="225.42 170.22 187.9 148.57 187.9 189.98 225.42 211.63 225.42 170.22"/><polygon class="cls-10" points="190.52 147.05 187.9 148.57 225.42 170.22 228.05 168.71 190.52 147.05"/><polygon class="cls-10" points="224.67 167.91 292.29 128.87 292.29 175.86 224.67 214.91 224.67 167.91"/><path class="cls-7" d="M251.17,160.57l11.5-6.64c1.49-.86,2.7-.47,2.7.88a5.41,5.41,0,0,1-2.7,4l-11.5,6.64c-1.49.86-2.7.47-2.7-.88A5.41,5.41,0,0,1,251.17,160.57Z"/><polygon class="cls-7" points="224.67 167.91 222.41 166.61 222.41 213.6 224.67 214.91 224.67 167.91"/><polygon class="cls-5" points="222.41 166.61 290.04 127.56 292.29 128.87 224.67 167.91 222.41 166.61"/></g></g></g><g id="Boxes"><g id="Box"><polygon class="cls-3" points="81.22 343.9 81.22 300.82 137.18 268.51 137.18 311.59 81.22 343.9"/><polygon class="cls-3" points="81.22 300.82 11.27 260.44 11.27 303.51 81.22 343.9 81.22 300.82"/><polygon class="cls-20" points="81.22 300.82 11.27 260.44 11.27 303.51 81.22 343.9 81.22 300.82"/><polygon class="cls-3" points="81.22 300.82 138.84 267.54 67.23 226.19 9.62 259.47 81.22 300.82"/><polygon class="cls-21" points="81.22 300.82 138.84 267.54 67.23 226.19 9.62 259.47 81.22 300.82"/><polygon class="cls-3" points="81.22 300.82 81.22 311.59 138.84 278.33 138.84 267.54 81.22 300.82"/><polygon class="cls-4" points="81.22 311.59 137.18 279.28 137.18 281.65 81.22 313.96 81.22 311.59"/><polygon class="cls-3" points="9.62 259.47 81.22 300.82 81.22 311.59 9.62 270.25 9.62 259.47"/><polygon class="cls-4" points="9.62 259.47 81.22 300.82 81.22 311.59 9.62 270.25 9.62 259.47"/><polygon class="cls-4" points="81.22 311.59 11.27 271.21 11.27 273.57 81.22 313.96 81.22 311.59"/><path class="cls-10" d="M99.64,307.37l19.12-11c.82-.47,1.49-.09,1.49.86V308.5a3.31,3.31,0,0,1-1.49,2.58l-19.12,11c-.82.48-1.49.09-1.49-.86V310A3.29,3.29,0,0,1,99.64,307.37Z"/><path class="cls-22" d="M100.87,308.65,117.53,299c.55-.32,1-.06,1,.57v8.48a2.21,2.21,0,0,1-1,1.72l-16.66,9.62c-.55.32-1,.06-1-.58v-8.47A2.21,2.21,0,0,1,100.87,308.65Z"/><g class="cls-23"><path class="cls-10" d="M101.33,310.89a.27.27,0,0,1-.21-.12.23.23,0,0,1,.09-.33L117,301.35a.24.24,0,0,1,.33.09.25.25,0,0,1-.09.33l-15.74,9.08A.19.19,0,0,1,101.33,310.89Z"/><path class="cls-10" d="M101.33,313a.27.27,0,0,1-.21-.12.23.23,0,0,1,.09-.33L117,303.43a.24.24,0,0,1,.33.09.25.25,0,0,1-.09.33l-15.74,9.09Z"/><path class="cls-10" d="M101.33,315.05a.27.27,0,0,1-.21-.12.23.23,0,0,1,.09-.33L117,305.51a.25.25,0,0,1,.33.09.25.25,0,0,1-.09.33L101.45,315A.27.27,0,0,1,101.33,315.05Z"/><path class="cls-10" d="M101.33,317.13a.25.25,0,0,1-.21-.12.23.23,0,0,1,.09-.33L117,307.59a.25.25,0,0,1,.33.09.25.25,0,0,1-.09.33l-15.74,9.09Z"/></g></g><polygon id="Shadow-5" data-name="Shadow" class="cls-16" points="134.16 264.84 81.22 295.41 14.29 256.75 12.65 257.71 81.22 297.17 135.81 265.79 134.16 264.84"/><g id="Box-2" data-name="Box"><polygon class="cls-3" points="81.22 295.41 81.22 252.33 137.18 220.02 137.18 263.1 81.22 295.41"/><polygon class="cls-3" points="81.22 252.33 11.27 211.95 11.27 255.02 81.22 295.41 81.22 252.33"/><polygon class="cls-20" points="81.22 252.33 11.27 211.95 11.27 255.02 81.22 295.41 81.22 252.33"/><polygon class="cls-3" points="81.22 252.33 138.84 219.05 67.23 177.7 9.62 210.98 81.22 252.33"/><polygon class="cls-24" points="81.22 252.33 138.84 219.05 67.23 177.7 9.62 210.98 81.22 252.33"/><polygon class="cls-3" points="81.22 252.33 81.22 263.1 138.84 229.84 138.84 219.05 81.22 252.33"/><polygon class="cls-4" points="81.22 263.1 137.18 230.79 137.18 233.16 81.22 265.47 81.22 263.1"/><polygon class="cls-3" points="9.62 210.98 81.22 252.33 81.22 263.1 9.62 221.76 9.62 210.98"/><polygon class="cls-4" points="9.62 210.98 81.22 252.33 81.22 263.1 9.62 221.76 9.62 210.98"/><polygon class="cls-4" points="81.22 263.1 11.27 222.72 11.27 225.08 81.22 265.47 81.22 263.1"/><path class="cls-10" d="M99.64,258.88l19.12-11c.82-.47,1.49-.09,1.49.86V260a3.31,3.31,0,0,1-1.49,2.58l-19.12,11c-.82.48-1.49.09-1.49-.86v-11.3A3.29,3.29,0,0,1,99.64,258.88Z"/><path class="cls-22" d="M100.87,260.16l16.66-9.62c.55-.32,1-.06,1,.57v8.47a2.21,2.21,0,0,1-1,1.73l-16.66,9.62c-.55.31-1,.06-1-.58v-8.47A2.21,2.21,0,0,1,100.87,260.16Z"/><g class="cls-23"><path class="cls-10" d="M101.33,262.4a.27.27,0,0,1-.21-.12.23.23,0,0,1,.09-.33L117,252.86a.24.24,0,0,1,.33.09.26.26,0,0,1-.09.33l-15.74,9.08A.19.19,0,0,1,101.33,262.4Z"/><path class="cls-10" d="M101.33,264.48a.27.27,0,0,1-.21-.12.23.23,0,0,1,.09-.33L117,254.94a.24.24,0,0,1,.33.09.25.25,0,0,1-.09.33l-15.74,9.08A.19.19,0,0,1,101.33,264.48Z"/><path class="cls-10" d="M101.33,266.56a.27.27,0,0,1-.21-.12.23.23,0,0,1,.09-.33L117,257a.24.24,0,0,1,.33.09.25.25,0,0,1-.09.33l-15.74,9.09A.27.27,0,0,1,101.33,266.56Z"/><path class="cls-10" d="M101.33,268.64a.25.25,0,0,1-.21-.12.23.23,0,0,1,.09-.33L117,259.1a.25.25,0,0,1,.33.09.25.25,0,0,1-.09.33l-15.74,9.09Z"/></g></g></g></g></svg>