<svg xmlns="http://www.w3.org/2000/svg" xmlns:xlink="http://www.w3.org/1999/xlink" viewBox="0 0 378.68 278.42"><defs><style>.cls-1{isolation:isolate;}.cls-10,.cls-11,.cls-15,.cls-16,.cls-17,.cls-18,.cls-2,.cls-20,.cls-21,.cls-22,.cls-23,.cls-24,.cls-25,.cls-26,.cls-27,.cls-28,.cls-29,.cls-3,.cls-30,.cls-31,.cls-32,.cls-33,.cls-34,.cls-35,.cls-36,.cls-37,.cls-38,.cls-39,.cls-4,.cls-40,.cls-41,.cls-42,.cls-43,.cls-44,.cls-45,.cls-46,.cls-47,.cls-48,.cls-49,.cls-5,.cls-50,.cls-51,.cls-52,.cls-53,.cls-54,.cls-55,.cls-56,.cls-57,.cls-58,.cls-59,.cls-6,.cls-60,.cls-61,.cls-62,.cls-63,.cls-64,.cls-65,.cls-66,.cls-67,.cls-68,.cls-69,.cls-7,.cls-70,.cls-71,.cls-74,.cls-8,.cls-9{fill-rule:evenodd;}.cls-2{fill:url(#Áåçûìÿííûé_ãðàäèåíò_47);}.cls-3{fill:url(#Áåçûìÿííûé_ãðàäèåíò_12);}.cls-4{fill:url(#Áåçûìÿííûé_ãðàäèåíò_341);}.cls-5{fill:url(#Áåçûìÿííûé_ãðàäèåíò_366);}.cls-6{fill:url(#Áåçûìÿííûé_ãðàäèåíò_366-2);}.cls-7{fill:#b63763;}.cls-8{fill:url(#Áåçûìÿííûé_ãðàäèåíò_366-3);}.cls-9{fill:url(#Áåçûìÿííûé_ãðàäèåíò_64);}.cls-10{fill:url(#Áåçûìÿííûé_ãðàäèåíò_12-2);}.cls-11{fill:url(#Áåçûìÿííûé_ãðàäèåíò_56);}.cls-12{mix-blend-mode:soft-light;}.cls-13{fill:url(#Áåçûìÿííûé_ãðàäèåíò_47-2);}.cls-14{fill:url(#Áåçûìÿííûé_ãðàäèåíò_47-3);}.cls-15,.cls-71{fill:#98256b;}.cls-15{opacity:0.5;}.cls-15,.cls-68,.cls-71,.cls-74{mix-blend-mode:multiply;}.cls-16{fill:url(#Áåçûìÿííûé_ãðàäèåíò_377);}.cls-17,.cls-19{fill:#eb7f68;}.cls-18{fill:url(#Áåçûìÿííûé_ãðàäèåíò_155);}.cls-20{fill:url(#Áåçûìÿííûé_ãðàäèåíò_40);}.cls-21{fill:url(#Áåçûìÿííûé_ãðàäèåíò_377-2);}.cls-22{fill:url(#Áåçûìÿííûé_ãðàäèåíò_155-2);}.cls-23{fill:url(#Áåçûìÿííûé_ãðàäèåíò_40-2);}.cls-24{fill:#f9d466;}.cls-25{fill:#f9c256;}.cls-26{fill:url(#Áåçûìÿííûé_ãðàäèåíò_377-3);}.cls-27{fill:url(#Áåçûìÿííûé_ãðàäèåíò_155-3);}.cls-28{fill:url(#Áåçûìÿííûé_ãðàäèåíò_40-3);}.cls-29{fill:#ff8954;}.cls-30{fill:url(#Áåçûìÿííûé_ãðàäèåíò_155-4);}.cls-31{fill:url(#Áåçûìÿííûé_ãðàäèåíò_40-4);}.cls-32{fill:url(#Áåçûìÿííûé_ãðàäèåíò_155-5);}.cls-33{fill:url(#Áåçûìÿííûé_ãðàäèåíò_40-5);}.cls-34{fill:url(#Áåçûìÿííûé_ãðàäèåíò_155-6);}.cls-35{fill:url(#Áåçûìÿííûé_ãðàäèåíò_40-6);}.cls-36{fill:url(#Áåçûìÿííûé_ãðàäèåíò_377-4);}.cls-37{fill:url(#Áåçûìÿííûé_ãðàäèåíò_155-7);}.cls-38{fill:url(#Áåçûìÿííûé_ãðàäèåíò_40-7);}.cls-39{fill:url(#Áåçûìÿííûé_ãðàäèåíò_377-5);}.cls-40{fill:url(#Áåçûìÿííûé_ãðàäèåíò_155-8);}.cls-41{fill:url(#Áåçûìÿííûé_ãðàäèåíò_40-8);}.cls-42{fill:url(#Áåçûìÿííûé_ãðàäèåíò_155-9);}.cls-43{fill:url(#Áåçûìÿííûé_ãðàäèåíò_40-9);}.cls-44{fill:url(#Áåçûìÿííûé_ãðàäèåíò_155-10);}.cls-45{fill:url(#Áåçûìÿííûé_ãðàäèåíò_40-10);}.cls-46{fill:url(#Áåçûìÿííûé_ãðàäèåíò_377-6);}.cls-47{fill:url(#Áåçûìÿííûé_ãðàäèåíò_155-11);}.cls-48{fill:url(#Áåçûìÿííûé_ãðàäèåíò_40-11);}.cls-49{fill:url(#Áåçûìÿííûé_ãðàäèåíò_377-7);}.cls-50{fill:url(#Áåçûìÿííûé_ãðàäèåíò_155-12);}.cls-51{fill:url(#Áåçûìÿííûé_ãðàäèåíò_40-12);}.cls-52{fill:url(#Áåçûìÿííûé_ãðàäèåíò_377-8);}.cls-53{fill:url(#Áåçûìÿííûé_ãðàäèåíò_155-13);}.cls-54{fill:url(#Áåçûìÿííûé_ãðàäèåíò_40-13);}.cls-55{fill:url(#Áåçûìÿííûé_ãðàäèåíò_377-9);}.cls-56{fill:url(#Áåçûìÿííûé_ãðàäèåíò_155-14);}.cls-57{fill:url(#Áåçûìÿííûé_ãðàäèåíò_40-14);}.cls-58{fill:url(#Áåçûìÿííûé_ãðàäèåíò_155-15);}.cls-59{fill:url(#Áåçûìÿííûé_ãðàäèåíò_40-15);}.cls-60{fill:url(#Áåçûìÿííûé_ãðàäèåíò_155-16);}.cls-61{fill:url(#Áåçûìÿííûé_ãðàäèåíò_40-16);}.cls-62{fill:url(#Áåçûìÿííûé_ãðàäèåíò_377-10);}.cls-63{fill:url(#Áåçûìÿííûé_ãðàäèåíò_155-17);}.cls-64{fill:url(#Áåçûìÿííûé_ãðàäèåíò_40-17);}.cls-65{fill:url(#Áåçûìÿííûé_ãðàäèåíò_377-11);}.cls-66{fill:url(#Áåçûìÿííûé_ãðàäèåíò_155-18);}.cls-67{fill:url(#Áåçûìÿííûé_ãðàäèåíò_40-18);}.cls-68,.cls-70{fill:#d55c63;}.cls-68,.cls-69{opacity:0.2;}.cls-69{fill:#ff954a;mix-blend-mode:screen;}.cls-71,.cls-74{opacity:0.6;}.cls-72{fill:#a63959;}.cls-73{fill:#ffde6a;}.cls-74{fill:#a7206b;}</style><linearGradient id="Áåçûìÿííûé_ãðàäèåíò_47" y1="19.74" x2="378.68" y2="19.74" gradientUnits="userSpaceOnUse"><stop offset="0" stop-color="#ffe0ce"/><stop offset="0.99" stop-color="#ffd6ba"/></linearGradient><linearGradient id="Áåçûìÿííûé_ãðàäèåíò_12" x1="189.34" y1="39.49" x2="189.34" y2="1.11" gradientUnits="userSpaceOnUse"><stop offset="0" stop-color="#f16b61"/><stop offset="1" stop-color="#db4f5a"/></linearGradient><linearGradient id="Áåçûìÿííûé_ãðàäèåíò_341" x1="177.96" y1="278.42" x2="177.96" y2="27.25" gradientUnits="userSpaceOnUse"><stop offset="0" stop-color="#ff7f42"/><stop offset="0.15" stop-color="#dc422a"/><stop offset="0.98" stop-color="#ff6f1d"/></linearGradient><linearGradient id="Áåçûìÿííûé_ãðàäèåíò_366" x1="299.01" y1="278.42" x2="299.01" y2="13.48" gradientUnits="userSpaceOnUse"><stop offset="0" stop-color="#ff7f42"/><stop offset="0.98" stop-color="#ff6f1d"/></linearGradient><linearGradient id="Áåçûìÿííûé_ãðàäèåíò_366-2" x1="51.9" y1="278.42" x2="51.9" y2="15.32" xlink:href="#Áåçûìÿííûé_ãðàäèåíò_366"/><linearGradient id="Áåçûìÿííûé_ãðàäèåíò_366-3" x1="95.38" y1="206.96" x2="250.54" y2="206.96" xlink:href="#Áåçûìÿííûé_ãðàäèåíò_366"/><linearGradient id="Áåçûìÿííûé_ãðàäèåíò_64" x1="180.59" y1="278.42" x2="180.59" y2="228.02" gradientUnits="userSpaceOnUse"><stop offset="0.02" stop-color="#b3332f"/><stop offset="1" stop-color="#a4292a"/></linearGradient><linearGradient id="Áåçûìÿííûé_ãðàäèåíò_12-2" x1="183.08" y1="278.42" x2="183.08" y2="232.15" xlink:href="#Áåçûìÿííûé_ãðàäèåíò_12"/><linearGradient id="Áåçûìÿííûé_ãðàäèåíò_56" x1="183.33" y1="277.8" x2="183.33" y2="236.38" gradientUnits="userSpaceOnUse"><stop offset="0" stop-color="#814252"/><stop offset="1" stop-color="#330f5b"/></linearGradient><linearGradient id="Áåçûìÿííûé_ãðàäèåíò_47-2" x1="165.17" y1="278.42" x2="165.17" y2="234.37" xlink:href="#Áåçûìÿííûé_ãðàäèåíò_47"/><linearGradient id="Áåçûìÿííûé_ãðàäèåíò_47-3" x1="197.68" y1="278.42" x2="197.68" y2="234.37" xlink:href="#Áåçûìÿííûé_ãðàäèåíò_47"/><linearGradient id="Áåçûìÿííûé_ãðàäèåíò_377" x1="136.37" y1="83.93" x2="136.37" y2="53.56" gradientUnits="userSpaceOnUse"><stop offset="0.07" stop-color="#a4292a"/><stop offset="0.99" stop-color="#b32f0f"/></linearGradient><linearGradient id="Áåçûìÿííûé_ãðàäèåíò_155" x1="137.55" y1="83.55" x2="137.55" y2="55.87" gradientUnits="userSpaceOnUse"><stop offset="0.03" stop-color="#814252"/><stop offset="1" stop-color="#331e38"/></linearGradient><linearGradient id="Áåçûìÿííûé_ãðàäèåíò_40" x1="134.24" y1="85.3" x2="134.24" y2="83.55" gradientUnits="userSpaceOnUse"><stop offset="0" stop-color="#ffc9a9"/><stop offset="0.99" stop-color="#ffc7a1"/></linearGradient><linearGradient id="Áåçûìÿííûé_ãðàäèåíò_377-2" x1="188.08" y1="83.93" x2="188.08" y2="53.56" xlink:href="#Áåçûìÿííûé_ãðàäèåíò_377"/><linearGradient id="Áåçûìÿííûé_ãðàäèåíò_155-2" x1="189.25" y1="83.55" x2="189.25" y2="55.87" xlink:href="#Áåçûìÿííûé_ãðàäèåíò_155"/><linearGradient id="Áåçûìÿííûé_ãðàäèåíò_40-2" x1="185.95" y1="85.3" x2="185.95" y2="83.55" xlink:href="#Áåçûìÿííûé_ãðàäèåíò_40"/><linearGradient id="Áåçûìÿííûé_ãðàäèåíò_377-3" x1="238.2" y1="83.93" x2="238.2" y2="53.56" xlink:href="#Áåçûìÿííûé_ãðàäèåíò_377"/><linearGradient id="Áåçûìÿííûé_ãðàäèåíò_155-3" x1="239.38" y1="83.55" x2="239.38" y2="55.87" xlink:href="#Áåçûìÿííûé_ãðàäèåíò_155"/><linearGradient id="Áåçûìÿííûé_ãðàäèåíò_40-3" x1="236.08" y1="85.3" x2="236.08" y2="83.55" xlink:href="#Áåçûìÿííûé_ãðàäèåíò_40"/><linearGradient id="Áåçûìÿííûé_ãðàäèåíò_155-4" x1="137.55" y1="156.95" x2="137.55" y2="129.27" xlink:href="#Áåçûìÿííûé_ãðàäèåíò_155"/><linearGradient id="Áåçûìÿííûé_ãðàäèåíò_40-4" x1="134.24" y1="158.7" x2="134.24" y2="156.96" xlink:href="#Áåçûìÿííûé_ãðàäèåíò_40"/><linearGradient id="Áåçûìÿííûé_ãðàäèåíò_155-5" x1="188.46" y1="156.95" x2="188.46" y2="129.27" xlink:href="#Áåçûìÿííûé_ãðàäèåíò_155"/><linearGradient id="Áåçûìÿííûé_ãðàäèåíò_40-5" x1="185.16" y1="158.7" x2="185.16" y2="156.96" xlink:href="#Áåçûìÿííûé_ãðàäèåíò_40"/><linearGradient id="Áåçûìÿííûé_ãðàäèåíò_155-6" x1="239.38" y1="156.95" x2="239.38" y2="129.27" xlink:href="#Áåçûìÿííûé_ãðàäèåíò_155"/><linearGradient id="Áåçûìÿííûé_ãðàäèåíò_40-6" x1="236.08" y1="158.7" x2="236.08" y2="156.96" xlink:href="#Áåçûìÿííûé_ãðàäèåíò_40"/><linearGradient id="Áåçûìÿííûé_ãðàäèåíò_377-4" x1="29.07" y1="71.54" x2="29.07" y2="40.46" xlink:href="#Áåçûìÿííûé_ãðàäèåíò_377"/><linearGradient id="Áåçûìÿííûé_ãðàäèåíò_155-7" x1="30.25" y1="71.04" x2="30.25" y2="42.81" xlink:href="#Áåçûìÿííûé_ãðàäèåíò_155"/><linearGradient id="Áåçûìÿííûé_ãðàäèåíò_40-7" x1="26.94" y1="72.96" x2="26.94" y2="70.68" xlink:href="#Áåçûìÿííûé_ãðàäèåíò_40"/><linearGradient id="Áåçûìÿííûé_ãðàäèåíò_377-5" x1="73.93" y1="69.82" x2="73.93" y2="38.41" xlink:href="#Áåçûìÿííûé_ãðàäèåíò_377"/><linearGradient id="Áåçûìÿííûé_ãðàäèåíò_155-8" x1="75.11" y1="69.32" x2="75.11" y2="40.79" xlink:href="#Áåçûìÿííûé_ãðàäèåíò_155"/><linearGradient id="Áåçûìÿííûé_ãðàäèåíò_40-8" x1="71.8" y1="71.25" x2="71.8" y2="68.96" xlink:href="#Áåçûìÿííûé_ãðàäèåíò_40"/><linearGradient id="Áåçûìÿííûé_ãðàäèåíò_155-9" x1="30.25" y1="149.67" x2="30.25" y2="121.65" xlink:href="#Áåçûìÿííûé_ãðàäèåíò_155"/><linearGradient id="Áåçûìÿííûé_ãðàäèåíò_40-9" x1="26.94" y1="151.5" x2="26.94" y2="149.49" xlink:href="#Áåçûìÿííûé_ãðàäèåíò_40"/><linearGradient id="Áåçûìÿííûé_ãðàäèåíò_155-10" x1="75.11" y1="148.79" x2="75.11" y2="120.48" xlink:href="#Áåçûìÿííûé_ãðàäèåíò_155"/><linearGradient id="Áåçûìÿííûé_ãðàäèåíò_40-10" x1="71.8" y1="150.64" x2="71.8" y2="148.61" xlink:href="#Áåçûìÿííûé_ãðàäèåíò_40"/><linearGradient id="Áåçûìÿííûé_ãðàäèåíò_377-6" x1="29.07" y1="228.68" x2="29.07" y2="198.17" xlink:href="#Áåçûìÿííûé_ãðàäèåíò_377"/><linearGradient id="Áåçûìÿííûé_ãðàäèåíò_155-11" x1="30.25" y1="228.3" x2="30.25" y2="200.5" xlink:href="#Áåçûìÿííûé_ãðàäèåíò_155"/><linearGradient id="Áåçûìÿííûé_ãðàäèåíò_40-11" x1="26.94" y1="230.05" x2="26.94" y2="228.29" xlink:href="#Áåçûìÿííûé_ãðàäèåíò_40"/><linearGradient id="Áåçûìÿííûé_ãðàäèåíò_377-7" x1="73.93" y1="228.64" x2="73.93" y2="197.81" xlink:href="#Áåçûìÿííûé_ãðàäèåíò_377"/><linearGradient id="Áåçûìÿííûé_ãðàäèåíò_155-12" x1="75.11" y1="228.26" x2="75.11" y2="200.16" xlink:href="#Áåçûìÿííûé_ãðàäèåíò_155"/><linearGradient id="Áåçûìÿííûé_ãðàäèåíò_40-12" x1="71.8" y1="230.03" x2="71.8" y2="228.25" xlink:href="#Áåçûìÿííûé_ãðàäèåíò_40"/><linearGradient id="Áåçûìÿííûé_ãðàäèåíò_377-8" x1="276.25" y1="71.56" x2="276.25" y2="40.75" xlink:href="#Áåçûìÿííûé_ãðàäèåíò_377"/><linearGradient id="Áåçûìÿííûé_ãðàäèåíò_155-13" x1="277.46" y1="71.11" x2="277.46" y2="43.08" xlink:href="#Áåçûìÿííûé_ãðàäèåíò_155"/><linearGradient id="Áåçûìÿííûé_ãðàäèåíò_40-13" x1="273.85" y1="72.96" x2="273.85" y2="70.89" xlink:href="#Áåçûìÿííûé_ãðàäèåíò_40"/><linearGradient id="Áåçûìÿííûé_ãðàäèåíò_377-9" x1="323.21" y1="70.5" x2="323.21" y2="39.49" xlink:href="#Áåçûìÿííûé_ãðàäèåíò_377"/><linearGradient id="Áåçûìÿííûé_ãðàäèåíò_155-14" x1="324.41" y1="70.04" x2="324.41" y2="41.84" xlink:href="#Áåçûìÿííûé_ãðàäèåíò_155"/><linearGradient id="Áåçûìÿííûé_ãðàäèåíò_40-14" x1="320.62" y1="71.9" x2="320.62" y2="69.82" xlink:href="#Áåçûìÿííûé_ãðàäèåíò_40"/><linearGradient id="Áåçûìÿííûé_ãðàäèåíò_155-15" x1="276.66" y1="149.7" x2="276.66" y2="121.81" xlink:href="#Áåçûìÿííûé_ãðàäèåíò_155"/><linearGradient id="Áåçûìÿííûé_ãðàäèåíò_40-15" x1="273.12" y1="151.5" x2="273.12" y2="149.59" xlink:href="#Áåçûìÿííûé_ãðàäèåíò_40"/><linearGradient id="Áåçûìÿííûé_ãðàäèåíò_155-16" x1="322.67" y1="149.16" x2="322.67" y2="121.09" xlink:href="#Áåçûìÿííûé_ãðàäèåíò_155"/><linearGradient id="Áåçûìÿííûé_ãðàäèåíò_40-16" x1="318.95" y1="150.97" x2="318.95" y2="149.05" xlink:href="#Áåçûìÿííûé_ãðàäèåíò_40"/><linearGradient id="Áåçûìÿííûé_ãðàäèåíò_377-10" x1="274.7" y1="228.68" x2="274.7" y2="198.22" xlink:href="#Áåçûìÿííûé_ãðàäèåíò_377"/><linearGradient id="Áåçûìÿííûé_ãðàäèåíò_155-17" x1="275.86" y1="228.3" x2="275.86" y2="200.54" xlink:href="#Áåçûìÿííûé_ãðàäèåíò_155"/><linearGradient id="Áåçûìÿííûé_ãðàäèåíò_40-17" x1="272.39" y1="230.05" x2="272.39" y2="228.3" xlink:href="#Áåçûìÿííûé_ãðàäèåíò_40"/><linearGradient id="Áåçûìÿííûé_ãðàäèåíò_377-11" x1="319.79" y1="228.66" x2="319.79" y2="198" xlink:href="#Áåçûìÿííûé_ãðàäèåíò_377"/><linearGradient id="Áåçûìÿííûé_ãðàäèåíò_155-18" x1="320.93" y1="228.27" x2="320.93" y2="200.34" xlink:href="#Áåçûìÿííûé_ãðàäèåíò_155"/><linearGradient id="Áåçûìÿííûé_ãðàäèåíò_40-18" x1="317.28" y1="230.03" x2="317.28" y2="228.27" xlink:href="#Áåçûìÿííûé_ãðàäèåíò_40"/></defs><title>Escuela</title><g class="cls-1"><g id="Capa_2" data-name="Capa 2"><g id="building"><polygon class="cls-2" points="0 6.44 0 17.27 93.82 12.87 119.11 29.85 252.85 25.41 248.9 11.64 349.62 11.03 376.84 39.49 378.68 32.91 351.52 1.11 248.88 0 248.9 11.64 250.7 17.94 121.62 23.73 98.04 4 0 6.44"/><polygon class="cls-3" points="376.84 39.49 370.97 39.49 24.89 32.8 0 17.27 93.82 12.87 98.04 4 121.62 23.73 119.11 29.85 252.85 25.41 248.9 11.64 349.62 11.03 351.52 1.11 378.68 32.91 376.84 39.49"/><polygon class="cls-4" points="102.73 278.42 101.2 32.5 254.72 27.25 248.4 278.42 102.73 278.42"/><polygon class="cls-5" points="254.72 13.48 248.4 278.42 334.91 278.42 349.62 13.48 254.72 13.48"/><polygon class="cls-6" points="93.82 15.32 9.98 17.91 14.18 278.42 91.03 278.42 93.82 15.32"/><polygon class="cls-7" points="93.82 15.32 118.66 32.16 118.5 278.42 91.03 278.42 93.82 15.32"/><polygon class="cls-7" points="349.62 13.48 372.8 38.1 361.8 278.42 334.91 278.42 349.62 13.48"/><polygon class="cls-8" points="95.38 193.38 250.54 193.15 249.45 220.78 95.38 220.78 95.38 193.38"/><polygon class="cls-9" points="132.48 278.42 131.09 228.02 230.1 228.02 228.13 278.42 132.48 278.42"/><polygon class="cls-10" points="136.22 278.42 136.22 232.15 229.94 232.15 228.13 278.42 136.22 278.42"/><polygon class="cls-11" points="139.12 278.42 137.87 234.37 228.79 234.37 226.35 278.42 139.12 278.42"/><g class="cls-12"><polygon class="cls-13" points="165.29 278.42 164.7 234.37 165.06 234.37 165.65 278.42 165.29 278.42"/></g><g class="cls-12"><polygon class="cls-14" points="197.46 278.42 197.1 278.42 197.91 234.37 198.26 234.37 197.46 278.42"/></g><polygon class="cls-15" points="131.09 228.02 136.22 232.15 229.94 232.15 230.1 228.02 131.09 228.02"/><polygon class="cls-16" points="124.03 83.93 124.03 53.56 148.71 53.56 147.97 83.93 124.03 83.93"/><polygon class="cls-17" points="147.97 83.93 126.28 83.93 126.28 54.93 148.68 54.93 147.97 83.93"/><polygon class="cls-18" points="148.06 55.87 147.73 76.49 147.73 76.55 147.72 77.23 147.62 83.55 127.04 83.55 127.42 55.87 148.06 55.87"/><polygon class="cls-17" points="127.33 63.22 148.06 63.22 148.06 62.85 127.03 62.85 127.33 63.22"/><rect class="cls-19" x="122.62" y="83.55" width="25.44" height="1.74"/><polygon class="cls-20" points="122.62 83.55 145.87 83.55 145.73 85.3 122.62 85.3 122.62 83.55"/><polygon class="cls-15" points="124.34 85.3 124.97 87.27 147.13 87.27 148.06 85.3 124.34 85.3"/><polygon class="cls-17" points="136.7 55.87 136.53 83.55 136.7 83.55 137.24 55.83 136.7 55.87"/><polygon class="cls-15" points="124.03 53.56 127.39 58.27 148.62 57.83 148.71 53.56 124.03 53.56"/><polygon class="cls-21" points="175.74 83.93 175.74 53.56 200.42 53.56 199.68 83.93 175.74 83.93"/><polygon class="cls-17" points="199.68 83.93 177.98 83.93 177.98 54.93 200.39 54.93 199.68 83.93"/><polygon class="cls-22" points="199.76 55.87 199.44 76.49 199.44 76.55 199.42 77.23 199.32 83.55 178.74 83.55 179.13 55.87 199.76 55.87"/><polygon class="cls-17" points="179.04 63.22 199.76 63.22 199.76 62.85 178.74 62.85 179.04 63.22"/><rect class="cls-19" x="174.32" y="83.55" width="25.44" height="1.74"/><polygon class="cls-23" points="174.32 83.55 197.58 83.55 197.44 85.3 174.32 85.3 174.32 83.55"/><polygon class="cls-15" points="176.05 85.3 176.67 87.27 198.84 87.27 199.76 85.3 176.05 85.3"/><polygon class="cls-17" points="188.4 55.87 188.23 83.55 188.4 83.55 188.95 55.83 188.4 55.87"/><polygon class="cls-15" points="175.74 53.56 179.1 58.27 200.33 57.83 200.42 53.56 175.74 53.56"/><polygon class="cls-24" points="251.12 167.58 341.24 167.58 345.23 95.76 252.76 95.57 251.12 167.58"/><polygon class="cls-24" points="12.41 169.43 92.2 167.58 92.96 96.04 11.25 97.69 12.41 169.43"/><polygon class="cls-25" points="118.61 106.79 252.49 106.79 250.98 170.34 118.57 170.34 118.61 106.79"/><polygon class="cls-26" points="225.86 83.93 225.86 53.56 250.54 53.56 249.81 83.93 225.86 83.93"/><polygon class="cls-17" points="249.81 83.93 228.11 83.93 228.11 54.93 250.51 54.93 249.81 83.93"/><polygon class="cls-27" points="249.89 55.87 249.56 76.49 249.56 76.55 249.55 77.23 249.45 83.55 228.87 83.55 229.25 55.87 249.89 55.87"/><polygon class="cls-17" points="229.16 63.22 249.89 63.22 249.89 62.85 228.87 62.85 229.16 63.22"/><rect class="cls-19" x="224.45" y="83.55" width="25.44" height="1.74"/><polygon class="cls-28" points="224.45 83.55 247.7 83.55 247.56 85.3 224.45 85.3 224.45 83.55"/><polygon class="cls-15" points="226.17 85.3 226.8 87.27 248.96 87.27 249.89 85.3 226.17 85.3"/><polygon class="cls-17" points="238.53 55.87 238.36 83.55 238.53 83.55 239.07 55.83 238.53 55.87"/><polygon class="cls-15" points="225.86 53.56 229.23 58.27 250.45 57.83 250.54 53.56 225.86 53.56"/><polygon class="cls-29" points="124.03 157.33 124.03 126.96 148.71 126.96 147.97 157.33 124.03 157.33"/><polygon class="cls-17" points="147.97 157.33 126.28 157.33 126.28 128.33 148.68 128.33 147.97 157.33"/><polygon class="cls-30" points="148.06 129.27 147.73 149.89 147.73 149.95 147.72 150.63 147.62 156.95 127.04 156.95 127.42 129.27 148.06 129.27"/><polygon class="cls-17" points="127.33 136.62 148.06 136.62 148.06 136.25 127.03 136.25 127.33 136.62"/><rect class="cls-19" x="122.62" y="156.96" width="25.44" height="1.74"/><polygon class="cls-31" points="122.62 156.96 145.87 156.96 145.73 158.7 122.62 158.7 122.62 156.96"/><polygon class="cls-15" points="124.34 158.7 124.97 160.67 147.13 160.67 148.06 158.7 124.34 158.7"/><polygon class="cls-17" points="136.7 129.27 136.53 156.95 136.7 156.96 137.24 129.23 136.7 129.27"/><polygon class="cls-15" points="124.03 126.96 127.39 131.67 148.62 131.23 148.71 126.96 124.03 126.96"/><polygon class="cls-29" points="174.95 157.33 174.95 126.96 199.63 126.96 198.89 157.33 174.95 157.33"/><polygon class="cls-17" points="198.89 157.33 177.19 157.33 177.19 128.33 199.6 128.33 198.89 157.33"/><polygon class="cls-32" points="198.97 129.27 198.65 149.89 198.65 149.95 198.63 150.63 198.53 156.95 177.95 156.95 178.34 129.27 198.97 129.27"/><polygon class="cls-17" points="178.25 136.62 198.97 136.62 198.97 136.25 177.95 136.25 178.25 136.62"/><rect class="cls-19" x="173.53" y="156.96" width="25.44" height="1.74"/><polygon class="cls-33" points="173.53 156.96 196.79 156.96 196.65 158.7 173.53 158.7 173.53 156.96"/><polygon class="cls-15" points="175.26 158.7 175.88 160.67 198.04 160.67 198.97 158.7 175.26 158.7"/><polygon class="cls-17" points="187.61 129.27 187.44 156.95 187.61 156.96 188.16 129.23 187.61 129.27"/><polygon class="cls-15" points="174.95 126.96 178.31 131.67 199.54 131.23 199.63 126.96 174.95 126.96"/><polygon class="cls-29" points="225.86 157.33 225.86 126.96 250.54 126.96 249.81 157.33 225.86 157.33"/><polygon class="cls-17" points="249.81 157.33 228.11 157.33 228.11 128.33 250.51 128.33 249.81 157.33"/><polygon class="cls-34" points="249.89 129.27 249.56 149.89 249.56 149.95 249.55 150.63 249.45 156.95 228.87 156.95 229.25 129.27 249.89 129.27"/><polygon class="cls-17" points="229.16 136.62 249.89 136.62 249.89 136.25 228.87 136.25 229.16 136.62"/><rect class="cls-19" x="224.45" y="156.96" width="25.44" height="1.74"/><polygon class="cls-35" points="224.45 156.96 247.7 156.96 247.56 158.7 224.45 158.7 224.45 156.96"/><polygon class="cls-15" points="226.17 158.7 226.8 160.67 248.96 160.67 249.89 158.7 226.17 158.7"/><polygon class="cls-17" points="238.53 129.27 238.36 156.95 238.53 156.96 239.07 129.23 238.53 129.27"/><polygon class="cls-15" points="225.86 126.96 229.23 131.67 250.45 131.23 250.54 126.96 225.86 126.96"/><polygon class="cls-36" points="21.48 71.54 21.48 41.15 36.67 40.46 35.93 70.98 21.48 71.54"/><polygon class="cls-17" points="35.93 70.98 23.72 71.45 23.72 42.42 36.64 41.84 35.93 70.98"/><polygon class="cls-37" points="36.01 42.81 35.69 63.52 35.69 63.58 35.67 64.27 35.57 70.61 24.48 71.04 24.86 43.31 36.01 42.81"/><polygon class="cls-17" points="24.78 50.87 36.01 50.38 36.01 49.62 24.48 50.12 24.78 50.87"/><polygon class="cls-17" points="20.06 71.21 20.06 72.96 36.01 72.35 36.01 70.6 20.06 71.21"/><polygon class="cls-38" points="20.06 71.21 33.83 70.69 33.69 72.44 20.06 72.96 20.06 71.21"/><polygon class="cls-15" points="21.79 72.89 22.41 74.84 35.09 74.36 36.01 72.35 21.79 72.89"/><polygon class="cls-15" points="21.48 41.15 24.84 45.72 36.58 44.75 36.67 40.46 21.48 41.15"/><polygon class="cls-39" points="66.34 69.82 66.34 39.11 81.53 38.41 80.79 69.26 66.34 69.82"/><polygon class="cls-17" points="80.79 69.26 68.58 69.73 68.58 40.39 81.5 39.81 80.79 69.26"/><polygon class="cls-40" points="80.87 40.79 80.55 61.72 80.55 61.79 80.53 62.48 80.44 68.89 69.34 69.32 69.72 41.29 80.87 40.79"/><polygon class="cls-17" points="69.64 48.93 80.87 48.45 80.87 47.67 69.34 48.17 69.64 48.93"/><polygon class="cls-17" points="64.92 69.49 64.92 71.25 80.87 70.64 80.87 68.88 64.92 69.49"/><polygon class="cls-41" points="64.92 69.49 78.69 68.96 78.55 70.73 64.92 71.25 64.92 69.49"/><polygon class="cls-15" points="66.65 71.19 67.27 73.15 79.94 72.68 80.87 70.64 66.65 71.19"/><polygon class="cls-15" points="66.34 39.11 69.7 43.72 81.44 42.76 81.53 38.41 66.34 39.11"/><polygon class="cls-29" points="21.48 150.11 21.48 119.72 36.67 119.32 35.93 149.83 21.48 150.11"/><polygon class="cls-17" points="35.93 149.83 23.72 150.06 23.72 121.03 36.64 120.69 35.93 149.83"/><polygon class="cls-42" points="36.01 121.66 35.69 142.36 35.69 142.42 35.67 143.11 35.57 149.45 24.48 149.67 24.86 121.95 36.01 121.66"/><polygon class="cls-17" points="24.78 129.5 36.01 129.23 36.01 128.46 24.48 128.75 24.78 129.5"/><polygon class="cls-17" points="20.06 149.76 20.06 151.5 36.01 151.19 36.01 149.44 20.06 149.76"/><polygon class="cls-43" points="20.06 149.76 33.83 149.49 33.69 151.24 20.06 151.5 20.06 149.76"/><polygon class="cls-15" points="21.79 151.47 22.41 153.43 35.09 153.19 36.01 151.19 21.79 151.47"/><polygon class="cls-15" points="21.48 119.72 24.84 124.35 36.58 123.61 36.67 119.32 21.48 119.72"/><polygon class="cls-29" points="66.34 149.23 66.34 118.52 81.53 118.11 80.79 148.95 66.34 149.23"/><polygon class="cls-17" points="80.79 148.95 68.58 149.19 68.58 119.85 81.5 119.5 80.79 148.95"/><polygon class="cls-44" points="80.87 120.48 80.55 141.41 80.55 141.47 80.53 142.16 80.44 148.57 69.34 148.79 69.72 120.77 80.87 120.48"/><polygon class="cls-17" points="69.64 128.41 80.87 128.13 80.87 127.36 69.34 127.64 69.64 128.41"/><polygon class="cls-17" points="64.92 148.88 64.92 150.64 80.87 150.33 80.87 148.56 64.92 148.88"/><polygon class="cls-45" points="64.92 148.88 78.69 148.61 78.55 150.38 64.92 150.64 64.92 148.88"/><polygon class="cls-15" points="66.65 150.6 67.27 152.58 79.94 152.35 80.87 150.33 66.65 150.6"/><polygon class="cls-15" points="66.34 118.52 69.7 123.2 81.44 122.45 81.53 118.11 66.34 118.52"/><polygon class="cls-46" points="21.48 228.68 21.48 198.3 36.67 198.17 35.93 228.67 21.48 228.68"/><polygon class="cls-17" points="35.93 228.67 23.72 228.68 23.72 199.65 36.64 199.55 35.93 228.67"/><polygon class="cls-47" points="36.01 200.5 35.69 221.2 35.69 221.26 35.67 221.94 35.57 228.29 24.48 228.3 24.86 200.58 36.01 200.5"/><polygon class="cls-17" points="24.78 208.14 36.01 208.07 36.01 207.31 24.48 207.38 24.78 208.14"/><rect class="cls-19" x="20.06" y="228.3" width="15.95" height="1.75"/><polygon class="cls-48" points="20.06 228.3 33.83 228.29 33.69 230.04 20.06 230.05 20.06 228.3"/><polygon class="cls-15" points="21.79 230.04 22.41 232.01 35.09 232.01 36.01 230.04 21.79 230.04"/><polygon class="cls-15" points="21.48 198.3 24.84 202.99 36.58 202.46 36.67 198.17 21.48 198.3"/><polygon class="cls-49" points="66.34 228.65 66.34 197.94 81.53 197.81 80.79 228.63 66.34 228.65"/><polygon class="cls-17" points="80.79 228.63 68.58 228.64 68.58 199.3 81.5 199.2 80.79 228.63"/><polygon class="cls-50" points="80.87 200.16 80.55 221.09 80.55 221.15 80.53 221.84 80.44 228.25 69.34 228.26 69.72 200.25 80.87 200.16"/><polygon class="cls-17" points="69.64 207.88 80.87 207.82 80.87 207.04 69.34 207.11 69.64 207.88"/><rect class="cls-19" x="64.92" y="228.26" width="15.95" height="1.76"/><polygon class="cls-51" points="64.92 228.26 78.69 228.25 78.55 230.02 64.92 230.03 64.92 228.26"/><polygon class="cls-15" points="66.65 230.02 67.27 232.01 79.94 232.01 80.87 230.02 66.65 230.02"/><polygon class="cls-15" points="66.34 197.94 69.7 202.68 81.44 202.15 81.53 197.81 66.34 197.94"/><polygon class="cls-52" points="268.15 71.56 268.38 41.18 284.35 40.75 283.22 71.22 268.15 71.56"/><polygon class="cls-17" points="283.22 71.22 270.49 71.5 270.73 42.48 284.3 42.12 283.22 71.22"/><polygon class="cls-53" points="283.63 43.09 283.05 63.76 283.05 63.82 283.03 64.51 282.85 70.84 271.28 71.11 271.93 43.4 283.63 43.09"/><polygon class="cls-17" points="271.77 50.95 283.55 50.65 283.56 49.88 271.46 50.19 271.77 50.95"/><polygon class="cls-17" points="266.67 71.21 266.66 72.96 283.29 72.58 283.31 70.83 266.67 71.21"/><polygon class="cls-54" points="266.67 71.21 281.03 70.89 280.86 72.64 266.66 72.96 266.67 71.21"/><polygon class="cls-15" points="268.46 72.92 269.09 74.87 282.3 74.58 283.29 72.58 268.46 72.92"/><polygon class="cls-15" points="268.38 41.18 271.88 45.8 284.2 45.04 284.35 40.75 268.38 41.18"/><polygon class="cls-55" points="314.93 70.5 315.53 39.91 331.49 39.49 330 70.15 314.93 70.5"/><polygon class="cls-17" points="330 70.15 317.27 70.44 317.86 41.23 331.43 40.87 330 70.15"/><polygon class="cls-56" points="330.75 41.84 329.92 62.65 329.92 62.71 329.89 63.4 329.64 69.78 318.07 70.04 319.04 42.15 330.75 41.84"/><polygon class="cls-17" points="318.79 49.75 330.57 49.45 330.59 48.68 318.5 48.99 318.79 49.75"/><polygon class="cls-17" points="313.46 70.15 313.42 71.9 330.05 71.53 330.1 69.77 313.46 70.15"/><polygon class="cls-57" points="313.46 70.15 327.82 69.82 327.63 71.58 313.42 71.9 313.46 70.15"/><polygon class="cls-15" points="315.22 71.86 315.83 73.83 329.04 73.54 330.05 71.53 315.22 71.86"/><polygon class="cls-15" points="315.53 39.91 318.96 44.57 331.3 43.8 331.49 39.49 315.53 39.91"/><polygon class="cls-29" points="267.53 150.12 267.77 119.74 283.42 119.49 282.31 149.94 267.53 150.12"/><polygon class="cls-17" points="282.31 149.94 269.83 150.09 270.07 121.07 283.37 120.86 282.31 149.94"/><polygon class="cls-58" points="282.71 121.81 282.14 142.49 282.14 142.55 282.12 143.23 281.94 149.57 270.61 149.7 271.24 122 282.71 121.81"/><polygon class="cls-17" points="271.08 129.55 282.63 129.38 282.64 128.62 270.79 128.79 271.08 129.55"/><polygon class="cls-17" points="266.09 149.76 266.08 151.5 282.37 151.31 282.39 149.56 266.09 149.76"/><polygon class="cls-59" points="266.09 149.76 280.16 149.59 280 151.34 266.08 151.5 266.09 149.76"/><polygon class="cls-15" points="267.84 151.48 268.46 153.44 281.4 153.29 282.37 151.31 267.84 151.48"/><polygon class="cls-15" points="267.77 119.74 271.19 124.4 283.27 123.77 283.42 119.49 267.77 119.74"/><polygon class="cls-29" points="313.37 149.58 313.97 119 329.62 118.74 328.14 149.4 313.37 149.58"/><polygon class="cls-17" points="328.14 149.4 315.67 149.55 316.26 120.34 329.56 120.13 328.14 149.4"/><polygon class="cls-60" points="328.89 121.09 328.07 141.9 328.07 141.96 328.04 142.65 327.79 149.02 316.45 149.16 317.42 121.27 328.89 121.09"/><polygon class="cls-17" points="317.17 128.87 328.71 128.7 328.73 127.93 316.88 128.11 317.17 128.87"/><polygon class="cls-17" points="311.93 149.21 311.9 150.97 328.2 150.78 328.24 149.02 311.93 149.21"/><polygon class="cls-61" points="311.93 149.21 326 149.05 325.82 150.81 311.9 150.97 311.93 149.21"/><polygon class="cls-15" points="313.66 150.95 314.26 152.92 327.2 152.78 328.2 150.78 313.66 150.95"/><polygon class="cls-15" points="313.97 119 317.34 123.69 329.43 123.06 329.62 118.74 313.97 119"/><polygon class="cls-62" points="266.92 228.68 267.16 198.3 282.49 198.22 281.39 228.67 266.92 228.68"/><polygon class="cls-17" points="281.39 228.67 269.17 228.68 269.41 199.66 282.44 199.6 281.39 228.67"/><polygon class="cls-63" points="281.8 200.54 281.23 221.22 281.23 221.28 281.21 221.96 281.04 228.29 269.93 228.3 270.56 200.6 281.8 200.54"/><polygon class="cls-17" points="270.4 208.15 281.71 208.11 281.72 207.34 270.11 207.39 270.4 208.15"/><polygon class="cls-17" points="265.51 228.3 265.49 230.05 281.45 230.04 281.48 228.29 265.51 228.3"/><polygon class="cls-64" points="265.51 228.3 279.29 228.3 279.13 230.04 265.49 230.05 265.51 228.3"/><polygon class="cls-15" points="267.22 230.05 267.83 232.01 280.5 232.01 281.45 230.04 267.22 230.05"/><polygon class="cls-15" points="267.16 198.3 270.51 203 282.35 202.51 282.49 198.22 267.16 198.3"/><polygon class="cls-65" points="311.82 228.66 312.42 198.08 327.75 198 326.29 228.65 311.82 228.66"/><polygon class="cls-17" points="326.29 228.65 314.07 228.66 314.66 199.45 327.69 199.38 326.29 228.65"/><polygon class="cls-66" points="327.03 200.34 326.22 221.14 326.22 221.21 326.19 221.89 325.94 228.27 314.83 228.27 315.79 200.39 327.03 200.34"/><polygon class="cls-17" points="315.55 207.99 326.86 207.95 326.88 207.18 315.26 207.22 315.55 207.99"/><polygon class="cls-17" points="310.41 228.28 310.38 230.03 326.34 230.03 326.38 228.27 310.41 228.28"/><polygon class="cls-67" points="310.41 228.28 324.19 228.27 324.01 230.03 310.38 230.03 310.41 228.28"/><polygon class="cls-15" points="312.1 230.03 312.69 232.01 325.36 232.01 326.34 230.03 312.1 230.03"/><polygon class="cls-15" points="312.42 198.08 315.72 202.81 327.56 202.31 327.75 198 312.42 198.08"/><polygon class="cls-68" points="10.98 81.3 44.45 81.3 44.45 97.02 11.25 97.69 10.98 81.3"/><polygon class="cls-69" points="48.62 93.76 48.62 85.24 75.11 85.24 75.11 92.45 48.62 93.76"/><polygon class="cls-69" points="298.82 255.27 298.82 246.75 325.31 246.75 324.82 255.27 298.82 255.27"/><polygon class="cls-69" points="256.06 91.52 256.06 83 286.04 83 285.84 91.52 256.06 91.52"/><polygon class="cls-69" points="182.59 101.95 182.59 93.43 205.38 93.43 205.23 101.95 182.59 101.95"/><polygon class="cls-69" points="196.75 181.43 196.75 172.91 219.53 172.91 219.38 181.43 196.75 181.43"/><polygon class="cls-69" points="259.5 185.69 259.5 177.17 289.48 177.17 289.28 185.69 259.5 185.69"/><polygon class="cls-68" points="286.04 195.45 286.04 186.93 301.02 186.93 300.93 195.45 286.04 195.45"/><polygon class="cls-68" points="120.29 215.75 120.29 207.23 135.28 207.23 135.18 215.75 120.29 215.75"/><polygon class="cls-68" points="219.96 201.44 219.96 192.92 245.52 192.92 245.35 201.44 219.96 201.44"/><polygon class="cls-69" points="66.27 258.09 66.27 243.86 91.32 243.86 91.16 258.09 66.27 258.09"/><polygon class="cls-68" points="281.99 266.97 281.99 258.45 296.97 258.45 296.88 266.97 281.99 266.97"/><polygon class="cls-68" points="283.14 35.52 283.14 27.01 306.49 27.01 306.34 35.52 283.14 35.52"/><polygon class="cls-68" points="196.46 47.83 196.46 39.31 219.82 39.31 219.66 47.83 196.46 47.83"/><polygon class="cls-68" points="134.19 189.95 134.19 181.43 157.55 181.43 157.4 189.95 134.19 189.95"/><polygon class="cls-68" points="205.53 101.95 205.53 93.43 223.29 93.43 223.17 101.95 205.53 101.95"/><polygon class="cls-69" points="12.77 191.19 12.77 182.67 31.97 182.67 32.36 191.19 12.77 191.19"/><polygon class="cls-69" points="98.38 206.65 98.38 198.13 117.58 198.13 117.97 206.65 98.38 206.65"/><polygon class="cls-69" points="223.29 220.71 223.29 212.19 242.49 212.19 242.88 220.71 223.29 220.71"/><polygon class="cls-68" points="32.36 181.43 32.36 172.91 51.56 172.91 51.96 181.43 32.36 181.43"/><polygon class="cls-68" points="18.24 255.23 18.24 246.72 37.44 246.72 37.83 255.23 18.24 255.23"/><polygon class="cls-69" points="49.99 24.19 49.99 32.8 91.03 30.02 91.03 20.3 49.99 24.19"/><polygon class="cls-68" points="82.66 170.98 82.66 183.08 92.14 183.08 104.84 184 104.84 172.99 92.28 170.34 82.66 170.98"/><polygon class="cls-70" points="92.96 96.04 118.61 106.79 118.57 170.34 92.2 167.58 92.96 96.04"/><polygon class="cls-70" points="345.23 95.76 369.66 106.79 366.58 173.9 341.06 167.58 345.23 95.76"/><polygon class="cls-71" points="376.84 39.49 349.62 11.03 248.9 11.64 252.85 25.41 254.4 26.93 254.51 18.64 348.1 20.3 372.6 42.59 372.8 39.49 376.84 39.49"/><path class="cls-72" d="M153.9,197.46a4.73,4.73,0,0,0-1.8,3.88,15.58,15.58,0,0,0,1.14,4.84,16.24,16.24,0,0,1,1.13,5.24,9,9,0,0,1-1,4.36,15.78,15.78,0,0,1-2.67,3.23l-1.45-2a15.05,15.05,0,0,0,2.05-2.36,6.21,6.21,0,0,0,.82-3.22,15.49,15.49,0,0,0-1.14-4.86,15.83,15.83,0,0,1-1.14-5.22,7.42,7.42,0,0,1,1.05-4,11.73,11.73,0,0,1,2.64-2.83l1.32,2.17Z"/><path class="cls-72" d="M162.85,196.87a6.33,6.33,0,0,0-.35,1.78c-.1,1.18-.16,1.81-.18,1.9l-.22,1.29-.12,0-2.28-.21c0-.44.08-1.06.19-1.85a1.6,1.6,0,0,0-.36-.92c-.22-.27-.42-.41-.6-.41-.35.3-.65,1.48-.91,3.55a33.35,33.35,0,0,0-.27,3.57c0,5.53.59,8.72,1.79,9.57l.05,0a6.39,6.39,0,0,0,.48-2.28v-1.32h2.28v1.32a8.32,8.32,0,0,1-.66,3.31c-.57,1.25-1.31,1.87-2.24,1.87a1.49,1.49,0,0,1-1.14-.71q-1.81-1.29-2.48-5.45a43.56,43.56,0,0,1-.36-6.34,29.47,29.47,0,0,1,.41-5.13q.68-3.94,2.27-4.5a2.28,2.28,0,0,1,.78-.13,2.6,2.6,0,0,1,1.66.61,15.16,15.16,0,0,1,.78-1.91l2,1.22Z"/><path class="cls-72" d="M162.16,207.23l2.17-.66c-.06-2.78-.18-5.38-.39-7.8a24.21,24.21,0,0,1,.09-3.46l2.26.24-.07,1.32a9.44,9.44,0,0,0,0,1.75c.09,1,.14,1.63.14,1.77.05,1.3.12,3.24.22,5.79L168,206c-.24-2.76-.36-4.44-.36-5q0-2.38.06-3.15a18.77,18.77,0,0,1,.69-3.09l2.14.84-.36,1.25a8.16,8.16,0,0,0-.26,2.06V201a31.63,31.63,0,0,0,.28,3.81c0,.45.09.95.13,1.48l.39,1.77-.29.08c0,1.14.09,2.82.18,5,0,.3.07.91.16,1.83.07.77.11,1.36.11,1.74v1.32h-2.28v-1.32a16.2,16.2,0,0,0-.11-1.66c-.09-.88-.14-1.47-.16-1.75,0-1-.08-2.58-.16-4.68a5.44,5.44,0,0,1-.6.08l-.93.11v1.66c0,.57,0,1.21-.06,1.93s-.07,1.23-.07,1.51a11.67,11.67,0,0,0,.52,3.23l-2.16.81a13.91,13.91,0,0,1-.64-3.78c0-.28,0-.81.07-1.58s.07-1.48.07-2.12v-1.21l-2.78.84-.5-2.6Z"/><path class="cls-72" d="M177.74,197.53a15.41,15.41,0,0,1,.71,3.65,72,72,0,0,1,.45,7.65q0,9.06-3,9.07-3.75,0-3.75-12.12,0-10.58,4.46-10.57a5.8,5.8,0,0,1,1.8.84Zm-2.14.88c-.8,1.05-1.21,3.51-1.21,7.37,0,1.68.08,3.27.23,4.79.24,2.5.65,4.05,1.21,4.63.53-1.11.8-3.24.8-6.37,0-1.4-.08-3.08-.23-5.05A23.8,23.8,0,0,0,175.6,198.41Z"/><path class="cls-72" d="M186,197.53a15.54,15.54,0,0,1,.7,3.65,69.65,69.65,0,0,1,.46,7.65q0,9.06-3,9.07-3.76,0-3.76-12.12,0-10.58,4.47-10.57a5.8,5.8,0,0,1,1.8.84Zm-2.14.88q-1.22,1.58-1.21,7.37a45.77,45.77,0,0,0,.23,4.79c.24,2.5.64,4.05,1.2,4.63.54-1.11.8-3.24.8-6.37,0-1.4-.08-3.08-.23-5.05A24,24,0,0,0,183.85,198.41Z"/><path class="cls-72" d="M194.67,214.88h1v2.65H192.8a33.58,33.58,0,0,0-3.9.47l-.29-2.62.22,0v-3.55c0-1.51,0-3.46-.06-5.84s-.07-4.34-.07-5.87q0-.9.06-2.25c.05-1,.08-1.77.1-2.25l2.25.06v.79q0,.38-.09,1.8c0,.72,0,1.34,0,1.85,0,1.53,0,3.49.06,5.86s.07,4.32.07,5.85V215a15.37,15.37,0,0,1,1.69-.11h1.87Z"/><path class="cls-73" d="M152.68,197.46a4.73,4.73,0,0,0-1.8,3.88,15.58,15.58,0,0,0,1.14,4.84,16,16,0,0,1,1.14,5.24,9,9,0,0,1-1,4.36,15.68,15.68,0,0,1-2.66,3.23L148,217a15.05,15.05,0,0,0,2.05-2.36,6.21,6.21,0,0,0,.82-3.22,15.49,15.49,0,0,0-1.14-4.86,15.83,15.83,0,0,1-1.14-5.22,7.42,7.42,0,0,1,1.05-4,11.73,11.73,0,0,1,2.64-2.83l1.32,2.17Z"/><path class="cls-73" d="M161.63,196.87a6.06,6.06,0,0,0-.34,1.78c-.11,1.18-.17,1.81-.19,1.9l-.22,1.29-.12,0-2.27-.21a17.19,17.19,0,0,1,.18-1.85,1.6,1.6,0,0,0-.36-.92c-.22-.27-.42-.41-.6-.41-.35.3-.65,1.48-.91,3.55a33.35,33.35,0,0,0-.27,3.57q0,8.3,1.8,9.57l0,0a6.39,6.39,0,0,0,.48-2.28v-1.32h2.28v1.32a8.32,8.32,0,0,1-.66,3.31c-.57,1.25-1.31,1.87-2.24,1.87a1.46,1.46,0,0,1-1.13-.71q-1.83-1.29-2.49-5.45a43.56,43.56,0,0,1-.36-6.34,30.48,30.48,0,0,1,.41-5.13q.68-3.94,2.28-4.5a2.19,2.19,0,0,1,.77-.13,2.6,2.6,0,0,1,1.66.61,15.16,15.16,0,0,1,.78-1.91l2,1.22Z"/><path class="cls-73" d="M160.94,207.23l2.17-.66q-.08-4.17-.39-7.8a24.21,24.21,0,0,1,.09-3.46l2.26.24-.07,1.32a8.75,8.75,0,0,0,0,1.75c.08,1,.13,1.63.13,1.77.05,1.3.12,3.24.23,5.79l1.36-.16c-.24-2.76-.36-4.44-.36-5,0-1.59,0-2.64.07-3.15a18.6,18.6,0,0,1,.68-3.09l2.14.84-.36,1.25a7.77,7.77,0,0,0-.25,2.06V201a31.42,31.42,0,0,0,.27,3.81c0,.45.09.95.14,1.48l.38,1.77-.29.08c0,1.14.09,2.82.18,5,0,.3.07.91.16,1.83.07.77.11,1.36.11,1.74v1.32h-2.28v-1.32a16.2,16.2,0,0,0-.11-1.66c-.09-.88-.14-1.47-.16-1.75,0-1-.08-2.58-.16-4.68a5.44,5.44,0,0,1-.6.08l-.92.11v1.66c0,.57,0,1.21-.07,1.93s-.07,1.23-.07,1.51a11.67,11.67,0,0,0,.52,3.23l-2.16.81a13.91,13.91,0,0,1-.64-3.78c0-.28,0-.81.07-1.58s.07-1.48.07-2.12v-1.21l-2.78.84-.5-2.6Z"/><path class="cls-73" d="M176.52,197.53a15.41,15.41,0,0,1,.71,3.65,72.22,72.22,0,0,1,.46,7.65q0,9.06-3,9.07-3.76,0-3.76-12.12,0-10.58,4.46-10.57a5.8,5.8,0,0,1,1.8.84Zm-2.14.88q-1.2,1.58-1.2,7.37c0,1.68.07,3.27.22,4.79.25,2.5.65,4.05,1.21,4.63.53-1.11.8-3.24.8-6.37,0-1.4-.08-3.08-.23-5.05A23.8,23.8,0,0,0,174.38,198.41Z"/><path class="cls-73" d="M184.77,197.53a15.54,15.54,0,0,1,.7,3.65,69.65,69.65,0,0,1,.46,7.65q0,9.06-3,9.07-3.75,0-3.76-12.12,0-10.58,4.47-10.57a5.8,5.8,0,0,1,1.8.84Zm-2.14.88q-1.22,1.58-1.21,7.37c0,1.68.08,3.27.23,4.79.24,2.5.64,4.05,1.21,4.63.53-1.11.79-3.24.79-6.37,0-1.4-.07-3.08-.22-5.05A24.41,24.41,0,0,0,182.63,198.41Z"/><path class="cls-73" d="M193.45,214.88h1v2.65h-2.91a33.58,33.58,0,0,0-3.9.47l-.29-2.62.23,0v-3.55c0-1.51,0-3.46-.07-5.84s-.07-4.34-.07-5.87c0-.6,0-1.35.07-2.25s.07-1.77.09-2.25l2.25.06v.79q0,.38-.09,1.8c0,.72,0,1.34,0,1.85,0,1.53,0,3.49.06,5.86s.07,4.32.07,5.85V215a15.53,15.53,0,0,1,1.69-.11h1.87Z"/><polygon class="cls-69" points="219.96 192.92 218.94 220.78 197.68 220.78 198.97 193.15 219.96 192.92"/><polygon class="cls-69" points="347.4 53.56 334.91 54.93 331.49 95.76 345.23 95.76 347.4 53.56"/><polygon class="cls-74" points="254.4 26.93 252.85 25.41 119.11 29.85 93.82 12.87 0 17.27 9.51 22.43 10.09 24.53 93.73 23.81 91.03 272.52 131.09 272.1 136.22 272.05 136.22 250.97 228.79 254.74 229.47 244.16 249.3 240.52 249.45 220.78 130.66 220.78 130.66 220.77 105.41 220.7 105.41 193.32 130.44 193.32 137.55 35.38 254.3 31.27 254.4 26.93"/><polygon class="cls-74" points="335.36 270.28 362.08 272.32 372.8 38.1 349.62 13.48 335.36 270.28"/><polygon class="cls-70" points="342.95 269.97 368.45 272.77 369.66 278.42 342.95 278.42 342.95 269.97"/><polygon class="cls-24" points="1.93 278.42 3.94 273.46 342.95 269.97 342.95 278.42 1.93 278.42"/></g></g></g></svg>