<svg xmlns="http://www.w3.org/2000/svg" xmlns:xlink="http://www.w3.org/1999/xlink" viewBox="0 0 245.62 359.32"><defs><style>.cls-1{isolation:isolate;}.cls-2,.cls-23,.cls-3,.cls-5{fill:#fff;}.cls-23,.cls-3,.cls-39,.cls-41,.cls-5{mix-blend-mode:soft-light;}.cls-4{fill:#e7ebf2;}.cls-16,.cls-23,.cls-4{opacity:0.5;}.cls-11,.cls-19,.cls-20,.cls-21,.cls-24,.cls-25,.cls-26,.cls-30,.cls-34,.cls-35,.cls-4,.cls-42{mix-blend-mode:multiply;}.cls-5{opacity:0.8;}.cls-6{fill:#dc6b5d;}.cls-7{fill:#3a3a3a;}.cls-8{fill:#a0a0a0;}.cls-9{fill:#ffd1b8;}.cls-10{fill:#fcb9a7;}.cls-11{fill:#f2e6e4;}.cls-12{fill:#d87f73;}.cls-13{fill:#a05e2d;}.cls-14{fill:#e5806c;}.cls-15{fill:#35302f;}.cls-16{fill:#fff2ee;}.cls-17{fill:#efa389;}.cls-18{fill:#ffc878;}.cls-19{fill:url(#linear-gradient);}.cls-20{fill:url(#radial-gradient);}.cls-21{fill:url(#radial-gradient-2);}.cls-22{fill:url(#radial-gradient-3);}.cls-24{fill:url(#linear-gradient-2);}.cls-25{fill:url(#linear-gradient-3);}.cls-26{fill:url(#linear-gradient-4);}.cls-27{fill:url(#linear-gradient-5);}.cls-28{fill:#4f4c4c;}.cls-29{fill:#bfbfbf;}.cls-30{fill:url(#linear-gradient-6);}.cls-31{fill:url(#linear-gradient-7);}.cls-32{fill:#e2e0e0;}.cls-33{fill:#536266;}.cls-34{fill:url(#linear-gradient-8);}.cls-35{fill:url(#linear-gradient-9);}.cls-36{fill:url(#radial-gradient-4);}.cls-37{fill:#515151;}.cls-38{fill:#ede8e6;}.cls-40,.cls-41{fill:#eae4e1;}.cls-42{fill:url(#linear-gradient-10);}.cls-43{fill:#c1544c;}.cls-44{fill:#dd7f7c;}</style><linearGradient id="linear-gradient" x1="121.46" y1="186.51" x2="156.5" y2="91.95" gradientUnits="userSpaceOnUse"><stop offset="0.26" stop-color="#fff" stop-opacity="0"/><stop offset="0.41" stop-color="#fffefe" stop-opacity="0.01"/><stop offset="0.52" stop-color="#fefbfa" stop-opacity="0.05"/><stop offset="0.61" stop-color="#fcf6f5" stop-opacity="0.12"/><stop offset="0.69" stop-color="#f9efec" stop-opacity="0.21"/><stop offset="0.76" stop-color="#f5e5e1" stop-opacity="0.33"/><stop offset="0.83" stop-color="#f1dad4" stop-opacity="0.48"/><stop offset="0.9" stop-color="#ecccc4" stop-opacity="0.66"/><stop offset="0.96" stop-color="#e6bdb2" stop-opacity="0.86"/><stop offset="1" stop-color="#e2b2a6"/></linearGradient><radialGradient id="radial-gradient" cx="139.05" cy="68.95" r="74.75" gradientUnits="userSpaceOnUse"><stop offset="0.26" stop-color="#fff" stop-opacity="0"/><stop offset="0.45" stop-color="#f6e6e3" stop-opacity="0.32"/><stop offset="0.64" stop-color="#edd0c9" stop-opacity="0.61"/><stop offset="0.81" stop-color="#e7c0b6" stop-opacity="0.82"/><stop offset="0.93" stop-color="#e3b6aa" stop-opacity="0.95"/><stop offset="1" stop-color="#e2b2a6"/></radialGradient><radialGradient id="radial-gradient-2" cx="114.75" cy="97.96" r="75.58" xlink:href="#radial-gradient"/><radialGradient id="radial-gradient-3" cx="160.9" cy="145.05" r="72.17" gradientUnits="userSpaceOnUse"><stop offset="0.65" stop-color="#fff" stop-opacity="0"/><stop offset="0.78" stop-color="#fff" stop-opacity="0.01"/><stop offset="0.83" stop-color="#fff" stop-opacity="0.03"/><stop offset="0.86" stop-color="#fff" stop-opacity="0.08"/><stop offset="0.89" stop-color="#fff" stop-opacity="0.15"/><stop offset="0.91" stop-color="#fff" stop-opacity="0.23"/><stop offset="0.93" stop-color="#fff" stop-opacity="0.34"/><stop offset="0.95" stop-color="#fff" stop-opacity="0.47"/><stop offset="0.97" stop-color="#fff" stop-opacity="0.61"/><stop offset="0.98" stop-color="#fff" stop-opacity="0.78"/><stop offset="1" stop-color="#fff" stop-opacity="0.96"/><stop offset="1" stop-color="#fff"/></radialGradient><linearGradient id="linear-gradient-2" x1="127.76" y1="229.56" x2="163.65" y2="210.44" xlink:href="#linear-gradient"/><linearGradient id="linear-gradient-3" x1="189.27" y1="213.98" x2="192.47" y2="202.37" xlink:href="#linear-gradient"/><linearGradient id="linear-gradient-4" x1="115.87" y1="213.24" x2="115.87" y2="217.11" gradientUnits="userSpaceOnUse"><stop offset="0.65" stop-color="#fff" stop-opacity="0"/><stop offset="0.82" stop-color="#e2e7eb" stop-opacity="0.51"/><stop offset="0.94" stop-color="#cfd6dd" stop-opacity="0.86"/><stop offset="1" stop-color="#c7d0d8"/></linearGradient><linearGradient id="linear-gradient-5" x1="134.95" y1="181.86" x2="140.48" y2="221.29" gradientUnits="userSpaceOnUse"><stop offset="0.65" stop-color="#fff" stop-opacity="0"/><stop offset="0.69" stop-color="#fff" stop-opacity="0.02"/><stop offset="0.73" stop-color="#fff" stop-opacity="0.07"/><stop offset="0.78" stop-color="#fff" stop-opacity="0.15"/><stop offset="0.82" stop-color="#fff" stop-opacity="0.26"/><stop offset="0.87" stop-color="#fff" stop-opacity="0.41"/><stop offset="0.92" stop-color="#fff" stop-opacity="0.59"/><stop offset="0.96" stop-color="#fff" stop-opacity="0.8"/><stop offset="1" stop-color="#fff"/></linearGradient><linearGradient id="linear-gradient-6" x1="98.39" y1="145.96" x2="104.05" y2="225.45" xlink:href="#linear-gradient-4"/><linearGradient id="linear-gradient-7" x1="103.36" y1="287.61" x2="99.32" y2="154.38" xlink:href="#linear-gradient-5"/><linearGradient id="linear-gradient-8" x1="46.94" y1="288.97" x2="126.06" y2="294.62" xlink:href="#linear-gradient-4"/><linearGradient id="linear-gradient-9" x1="22.75" y1="292.44" x2="136.53" y2="293.19" xlink:href="#linear-gradient-4"/><radialGradient id="radial-gradient-4" cx="213.47" cy="301.12" r="104.41" gradientTransform="matrix(1, -0.09, 0.22, 2.56, -65.46, -452.42)" gradientUnits="userSpaceOnUse"><stop offset="0.8" stop-color="#fff" stop-opacity="0"/><stop offset="0.87" stop-color="#fff" stop-opacity="0.01"/><stop offset="0.9" stop-color="#fff" stop-opacity="0.03"/><stop offset="0.92" stop-color="#fff" stop-opacity="0.08"/><stop offset="0.93" stop-color="#fff" stop-opacity="0.15"/><stop offset="0.95" stop-color="#fff" stop-opacity="0.23"/><stop offset="0.96" stop-color="#fff" stop-opacity="0.34"/><stop offset="0.97" stop-color="#fff" stop-opacity="0.47"/><stop offset="0.98" stop-color="#fff" stop-opacity="0.61"/><stop offset="0.99" stop-color="#fff" stop-opacity="0.78"/><stop offset="1" stop-color="#fff" stop-opacity="0.96"/><stop offset="1" stop-color="#fff"/></radialGradient><linearGradient id="linear-gradient-10" x1="167.45" y1="200.43" x2="183.4" y2="193.02" xlink:href="#linear-gradient"/></defs><title>HombreRojo</title><g class="cls-1"><g id="Capa_2" data-name="Capa 2"><g id="OBJECTS"><g id="MAN_RED" data-name="MAN RED"><path class="cls-2" d="M105.16,280h68.49s21.84.76,21.84-13V182.7h-17Z"/><g id="MAN_RED-2" data-name="MAN RED"><rect class="cls-3" x="190.24" y="131.58" width="47.82" height="66.89"/><rect class="cls-4" x="218.81" y="113.44" width="26.81" height="37.51"/><rect class="cls-4" x="218.81" y="113.44" width="26.81" height="37.51"/><polygon class="cls-4" points="214.48 41.51 157.73 41.51 155.73 2 217.48 0 214.48 41.51"/><polygon class="cls-4" points="214.48 41.51 157.73 41.51 155.73 2 217.48 0 214.48 41.51"/><polygon class="cls-3" points="19.68 20.75 0 41.3 0 145.17 104.33 145.17 104.33 20.75 19.68 20.75"/><polygon class="cls-5" points="19.68 20.75 0 41.3 0 145.17 104.33 145.17 104.33 20.75 19.68 20.75"/><polygon class="cls-2" points="19.68 20.75 16.35 43.47 0 41.3 19.68 20.75"/><path class="cls-6" d="M98.85,27.8a1.62,1.62,0,1,1-1.62-1.62A1.62,1.62,0,0,1,98.85,27.8Z"/><path class="cls-6" d="M6.79,139.67a1.62,1.62,0,1,1-3.23,0,1.62,1.62,0,0,1,3.23,0Z"/><rect class="cls-3" x="11.87" y="49.83" width="80.74" height="5.94"/><rect class="cls-3" x="11.87" y="49.83" width="80.74" height="5.94"/><rect class="cls-3" x="12.09" y="63.14" width="80.74" height="2.97"/><rect class="cls-3" x="12.09" y="68.97" width="78.59" height="2.97"/><rect class="cls-3" x="12.09" y="74.8" width="80.74" height="2.97"/><rect class="cls-3" x="12.09" y="80.62" width="69.33" height="2.97"/><rect class="cls-3" x="12.09" y="86.45" width="80.74" height="2.97"/><rect class="cls-3" x="12.09" y="92.27" width="35.79" height="2.97"/><rect class="cls-3" x="12.09" y="98.1" width="35.79" height="2.97"/><rect class="cls-3" x="12.09" y="103.92" width="80.74" height="2.97"/><rect class="cls-3" x="12.09" y="109.75" width="80.74" height="2.97"/><rect class="cls-4" x="11.87" y="116.03" width="80.74" height="17.58"/><path class="cls-7" d="M91.19,351.89s-19,1.76-19,7.43h43.32l-1.16-7.43Z"/><path class="cls-8" d="M35.5,217.51s3.11-5.48,11-6.22a9.75,9.75,0,0,1,10.3,5.87Z"/><path class="cls-6" d="M122.86,171.16a26.7,26.7,0,0,0-7,4.59c-2.57,2.64-15.07,22.61-17.2,24.12s-41.88,10.59-41.88,10.59l1.32,6.7s40.87-3.31,46.34-4.27S130.25,190,130.25,190Z"/><path class="cls-6" d="M189.14,169.47s6.17,3.21,9.31,6.85,5.84,34.94,5.34,37.82-13.38,1-15.26-5.54-6.16-19-6.16-19Z"/><path class="cls-6" d="M145.76,160s-14.29,7.1-22.9,11.15l3.25,40.65-2.26,27s25.42-.35,60.44,4.38l-.79-36.53,5.64-37.15A91.4,91.4,0,0,0,160.19,160"/><path class="cls-2" d="M147.65,165.9l6.72,5.84s8.72-5.28,12-12.75l-1.17-.69H146.56a17.29,17.29,0,0,0-4.94,11.24Z"/><path class="cls-9" d="M146.56,158.1l1.09,7.8L165.17,159S151.69,157.45,146.56,158.1Z"/><polygon class="cls-9" points="145.07 149.07 146.71 158.99 165.17 158.99 167.18 142.54 145.07 149.07"/><path class="cls-10" d="M133.3,128.87a5.94,5.94,0,1,1-5.93-5.93A5.94,5.94,0,0,1,133.3,128.87Z"/><path class="cls-11" d="M126.68,128.24s-.82,6,4.49,2.36C131.17,130.6,129.44,127.65,126.68,128.24Z"/><path class="cls-12" d="M125,128.87s3-1.73,6.13,1.73C131.17,130.6,128.85,125.71,125,128.87Z"/><polygon class="cls-13" points="126.63 100.5 127.37 125.46 127.46 100.97 126.63 100.5"/><path class="cls-10" d="M168.3,127.78a5.93,5.93,0,1,0,5.93-5.94A5.93,5.93,0,0,0,168.3,127.78Z"/><path class="cls-11" d="M174.92,127.15s.82,6-4.5,2.36C170.42,129.51,172.15,126.55,174.92,127.15Z"/><path class="cls-12" d="M176.55,127.78s-3-1.74-6.13,1.73C170.42,129.51,172.75,124.61,176.55,127.78Z"/><path class="cls-14" d="M145.86,153.82a29.23,29.23,0,0,0,3.53.21c7,0,13.17-2.27,17.18-6.5l.61-5-22.1,6.53Z"/><path class="cls-9" d="M171.07,132.24c0,12.07-9.78,18.84-21.85,18.84h0c-12.07,0-21.85-6.77-21.85-18.84V100.73c0-12.07,9.78-18.09,21.85-18.09h0c12.07,0,21.85,6,21.85,18.09Z"/><path class="cls-15" d="M148.73,125.09a1.48,1.48,0,1,0,1.45-1.78A1.65,1.65,0,0,0,148.73,125.09Z"/><path class="cls-16" d="M150.15,125.73a.59.59,0,0,0-.75.29c-.07.25.16.53.51.63a.59.59,0,0,0,.75-.29C150.73,126.11,150.5,125.82,150.15,125.73Z"/><path class="cls-17" d="M152.61,121.68a3.69,3.69,0,0,0-3.88-.91S150.44,119.17,152.61,121.68Z"/><path class="cls-13" d="M147.56,116.93c-.61,1.89,1.71.87,3.94,1.59s3.54,2.88,4.15,1-.72-4-3-4.72S148.16,115,147.56,116.93Z"/><path class="cls-18" d="M153.33,119.44a13.56,13.56,0,0,1,1.22.73A8.44,8.44,0,0,1,153.33,119.44Z"/><path class="cls-15" d="M135.6,124.89a1.48,1.48,0,1,1-1.45-1.78A1.65,1.65,0,0,1,135.6,124.89Z"/><path class="cls-16" d="M134.1,125.52c-.34-.13-.69,0-.78.21s.1.55.43.68a.61.61,0,0,0,.79-.21C134.63,126,134.43,125.65,134.1,125.52Z"/><path class="cls-17" d="M134.87,121a3.72,3.72,0,0,0-3.73,1.43S131.66,120.19,134.87,121Z"/><path class="cls-13" d="M128,120c.56,1.9,1.91-.24,4.16-.91s4.54.4,4-1.51-2.85-2.9-5.1-2.23S127.45,118.06,128,120Z"/><path class="cls-11" d="M143.58,131.18s-2.24,5.85-3.94.67A4.87,4.87,0,0,0,143.58,131.18Z"/><path class="cls-9" d="M143.05,116.13s.2,8.64-1.13,10.82-3.12-2-5.26,0,2.76,7.35,7.3,4"/><path class="cls-14" d="M143.05,116.13s0,.45.08,1.22.09,1.88.07,3.2c0,.67,0,1.39-.08,2.15a21.15,21.15,0,0,1-.26,2.4,8.69,8.69,0,0,1-.31,1.27,2.74,2.74,0,0,1-.71,1.24,1.2,1.2,0,0,1-.84.35,1.1,1.1,0,0,1-.42,0,2,2,0,0,1-.37-.13c-.45-.2-.81-.45-1.19-.65a2.35,2.35,0,0,0-1.07-.36,1.46,1.46,0,0,0-.95.38,1.54,1.54,0,0,0-.32,1.91,4.64,4.64,0,0,0,1.36,1.73,5.08,5.08,0,0,0,1.82.9,4.81,4.81,0,0,0,3-.22,5.45,5.45,0,0,0,.8-.39l.27-.16-.25.19a5.31,5.31,0,0,1-.75.5,4.84,4.84,0,0,1-3.2.49,5.47,5.47,0,0,1-2-.87,4.77,4.77,0,0,1-1.65-1.91,2.67,2.67,0,0,1-.26-1.39,2.3,2.3,0,0,1,.22-.75,1.88,1.88,0,0,1,.24-.33l.11-.12a.94.94,0,0,1,.16-.14A2.15,2.15,0,0,1,138,126a3.09,3.09,0,0,1,1.42.44c.41.22.78.47,1.13.63s.63.16.81,0a4.25,4.25,0,0,0,.89-2.12,34.65,34.65,0,0,0,.57-4.44c.09-1.32.17-2.42.2-3.19S143.05,116.13,143.05,116.13Z"/><path class="cls-11" d="M167.18,129.51c0,1.15-1.58,2.08-3.52,2.08s-3.52-.93-3.52-2.08,1.58-2.08,3.52-2.08S167.18,128.36,167.18,129.51Z"/><path class="cls-11" d="M130.88,129.51c0,1.15-1.57,2.07-3.51,2.07s-3.52-.92-3.52-2.07,1.57-2.08,3.52-2.08S130.88,128.36,130.88,129.51Z"/><path class="cls-19" d="M168.92,92c-3-2.72-10.86-8-25-6.79a39.29,39.29,0,0,0-10.7,2.36,16.34,16.34,0,0,0-5.89,13.17v3.08c9.52,1,28.42-4.34,28.42-4.34,1.55,6.85,8.37,6.39,8.37,6.39.63,9.83,6.91,20.1,6.91,20.1V100.73A17.49,17.49,0,0,0,168.92,92Z"/><path class="cls-13" d="M171.07,126s-6.28-11.3-6.91-22.1c0,0-6.82.5-8.37-7,0,0-24.91,7.79-31.94,3.77s1.3-17.71,20.11-19.47,26.46,9.17,26.46,9.17,2.57-1.89,3.81-1.63-3.16,2.13-3.16,2.13A3.44,3.44,0,0,1,175,92.43c1.38,2.39-2.27,29.62-2.27,29.62l-1.11.42Z"/><path class="cls-20" d="M171.07,126s-6.28-11.3-6.91-22.1c0,0-6.82.5-8.37-7,0,0-24.91,7.79-31.94,3.77s1.3-17.71,20.11-19.47,26.46,9.17,26.46,9.17,2.57-1.89,3.81-1.63-3.16,2.13-3.16,2.13A3.44,3.44,0,0,1,175,92.43c1.38,2.39-2.27,29.62-2.27,29.62l-1.11.42Z"/><path class="cls-21" d="M171.07,126s-6.28-11.3-6.91-22.1c0,0-6.82.5-8.37-7,0,0-24.91,7.79-31.94,3.77s1.3-17.71,20.11-19.47,26.46,9.17,26.46,9.17,2.57-1.89,3.81-1.63-3.16,2.13-3.16,2.13A3.44,3.44,0,0,1,175,92.43c1.38,2.39-2.27,29.62-2.27,29.62l-1.11.42Z"/><path class="cls-22" d="M171.07,126s-6.28-11.3-6.91-22.1c0,0-6.82.5-8.37-7,0,0-24.91,7.79-31.94,3.77s1.3-17.71,20.11-19.47,26.46,9.17,26.46,9.17,2.57-1.89,3.81-1.63-3.16,2.13-3.16,2.13A3.44,3.44,0,0,1,175,92.43c1.38,2.39-2.27,29.62-2.27,29.62l-1.11.42Z"/><path class="cls-2" d="M145.76,134l6.85-1.06S151.17,144.85,145.76,134Z"/><polygon class="cls-23" points="183.59 211.91 183.5 206.62 185.6 192.77 124.26 188.66 126.11 211.81 125.97 214.15 183.59 211.91"/><path class="cls-6" d="M148.7,217.16a8.79,8.79,0,0,1,7.05-8.69,230.1,230.1,0,0,1,31.11-5.3c10.18,0,18,.46,16.89,14Z"/><path class="cls-24" d="M155.25,208.61a8.76,8.76,0,0,0-6.55,8.55h14.65C160.31,211.15,157.42,209.11,155.25,208.61Z"/><path class="cls-9" d="M160.58,217.16s-2.07-5-5.08-6.24-14.7.1-17.08,2,10.74.42,10.74.42-5.84,1-6.35,2.19,7.66.44,7.66.44l.82,1.16Z"/><path class="cls-25" d="M186.86,203.17s3.49-.67,10.27,1.85"/><path class="cls-8" d="M79.61,214.14a2.48,2.48,0,0,0,0,.27,2.75,2.75,0,0,0,2.75,2.75h67.08a2.75,2.75,0,0,0,2.75-2.75,2.48,2.48,0,0,0,0-.27Z"/><path class="cls-26" d="M79.61,214.14a2.48,2.48,0,0,0,0,.27,2.75,2.75,0,0,0,2.75,2.75h67.08a2.75,2.75,0,0,0,2.75-2.75,2.48,2.48,0,0,0,0-.27Z"/><path class="cls-27" d="M152.13,214.14H130a2.45,2.45,0,0,1,0,.27,2.75,2.75,0,0,1-2.74,2.75h22.16a2.75,2.75,0,0,0,2.75-2.75A2.48,2.48,0,0,0,152.13,214.14Z"/><polygon class="cls-28" points="150.94 214.15 150.95 213.3 126.86 213.3 126.86 214.15 150.94 214.15"/><rect class="cls-29" x="73.36" y="172.55" width="56.89" height="42.9" rx="3.77"/><rect class="cls-30" x="73.36" y="172.55" width="56.89" height="42.9" rx="3.77"/><rect class="cls-31" x="74.46" y="174.35" width="52.12" height="39.3" rx="3.45"/><path class="cls-32" d="M126.49,172.55H77.13a3.8,3.8,0,0,0-2.67,1.11,4.15,4.15,0,0,1,.79-.08H124.6a3.76,3.76,0,0,1,3.77,3.76v35.37a3.75,3.75,0,0,1-1.1,2.66,3.75,3.75,0,0,0,3-3.68V176.32A3.76,3.76,0,0,0,126.49,172.55Z"/><rect class="cls-32" x="93.71" y="190.01" width="9.92" height="7.91" rx="3.77"/><path class="cls-9" d="M56.94,211.24a93.5,93.5,0,0,0-9.69-2.2c-2.64-.26-9.3,4.58-9.24,5.21s6.6-1.82,8.67-1.89,6.53,2.58,6.53,2.58-6.59.18-6.78,2.22H58.11Z"/><path class="cls-33" d="M91.06,351.89h23.18s-2.76-70.08-1.63-79.87,41.63,7.66,40.85-28.87c0,0-28.32-11.07-46.17-8.81C74.56,238.48,82.33,255.81,91.06,351.89Z"/><path class="cls-34" d="M91.06,351.89h23.18s-2.76-70.08-1.63-79.87,41.63,7.66,40.85-28.87c0,0-28.32-11.07-46.17-8.81C74.56,238.48,82.33,255.81,91.06,351.89Z"/><path class="cls-35" d="M91.06,351.89h23.18s-2.76-70.08-1.63-79.87,41.63,7.66,40.85-28.87c0,0-28.32-11.07-46.17-8.81C74.56,238.48,82.33,255.81,91.06,351.89Z"/><path class="cls-33" d="M121.9,351.89h23.18s-2.77-70.08-1.64-79.87,41.64,7.66,40.85-28.87c0,0-28.31-11.07-46.16-8.81C105.39,238.48,113.17,255.81,121.9,351.89Z"/><path class="cls-36" d="M121.9,351.89h23.18s-2.77-70.08-1.64-79.87,41.64,7.66,40.85-28.87c0,0-28.31-11.07-46.16-8.81C105.39,238.48,113.17,255.81,121.9,351.89Z"/><path class="cls-37" d="M21.5,357.81A1.52,1.52,0,0,1,20,359.32h0a1.51,1.51,0,0,1-1.5-1.51V221.17a1.5,1.5,0,0,1,1.5-1.5h0a1.51,1.51,0,0,1,1.51,1.5Z"/><path class="cls-7" d="M47.65,357.81a1.51,1.51,0,0,1-1.51,1.51h0a1.51,1.51,0,0,1-1.5-1.51V221.17a1.5,1.5,0,0,1,1.5-1.5h0a1.5,1.5,0,0,1,1.51,1.5Z"/><path class="cls-37" d="M158.88,357.81a1.52,1.52,0,0,1-1.51,1.51h0a1.52,1.52,0,0,1-1.51-1.51V221.17a1.51,1.51,0,0,1,1.51-1.5h0a1.51,1.51,0,0,1,1.51,1.5Z"/><path class="cls-7" d="M185.39,357.81a1.52,1.52,0,0,1-1.51,1.51h0a1.52,1.52,0,0,1-1.51-1.51V221.17a1.51,1.51,0,0,1,1.51-1.5h0a1.51,1.51,0,0,1,1.51,1.5Z"/><path class="cls-2" d="M12.9,222.17H185.78a5,5,0,0,0,5-5H7.89A5,5,0,0,0,12.9,222.17Z"/><path class="cls-38" d="M145.08,217.16a5,5,0,0,1-5,5h45.72a5,5,0,0,0,5-5Z"/><g class="cls-39"><polygon class="cls-40" points="139.7 346.99 139.58 343.98 139.65 343.98 139.7 346.99"/><polygon class="cls-40" points="139.46 340.97 139.34 337.96 139.55 337.95 139.6 340.97 139.46 340.97"/><polygon class="cls-40" points="139.22 334.95 139.1 331.94 139.46 331.93 139.51 334.94 139.22 334.95"/><polygon class="cls-40" points="138.99 328.92 138.89 325.91 139.34 325.9 139.4 328.91 138.99 328.92"/><polygon class="cls-40" points="138.79 322.9 138.69 319.88 139.22 319.87 139.28 322.88 138.79 322.9"/><polygon class="cls-40" points="138.6 316.87 138.5 313.85 139.1 313.84 139.16 316.85 138.6 316.87"/><polygon class="cls-40" points="138.41 310.84 138.33 307.83 138.98 307.81 139.04 310.82 138.41 310.84"/><polygon class="cls-40" points="138.25 304.81 138.17 301.8 138.85 301.78 138.91 304.8 138.25 304.81"/><polygon class="cls-40" points="138.09 298.79 138.02 295.77 138.73 295.76 138.79 298.77 138.09 298.79"/><polygon class="cls-40" points="137.95 292.76 137.88 289.74 138.62 289.73 138.67 292.74 137.95 292.76"/><rect class="cls-40" x="137.8" y="283.71" width="0.75" height="3.02" transform="translate(-4.88 2.41) rotate(-0.98)"/><polygon class="cls-40" points="137.74 280.69 137.72 277.68 138.44 277.67 138.47 280.69 137.74 280.69"/><path class="cls-40" d="M137.72,274.65l0-1.51c0-.19,0-.39,0-.56s0-.35,0-.49,0-.47,0-.47l.69.06s0,.18,0,.47,0,.3,0,.48,0,.35,0,.54l0,1.51Z"/><path class="cls-40" d="M138.37,268.57s.06-.18.16-.45a3.94,3.94,0,0,1,.17-.46c.09-.17.17-.35.26-.54s.22-.33.32-.49a2,2,0,0,1,.31-.41l.34-.37.47.48-.29.33a1.44,1.44,0,0,0-.28.35c-.09.14-.19.28-.28.44l-.21.46a2.56,2.56,0,0,0-.17.43l-.15.45Z"/><path class="cls-40" d="M142.71,264.34l.45-.11.47-.11c.18,0,.35-.1.55-.13l1.52-.23.08.64-1.45.22c-.18,0-.37.09-.54.13l-.46.11-.46.12Z"/><polygon class="cls-40" points="148.74 263.56 151.75 263.5 151.77 264.08 148.76 264.18 148.74 263.56"/><polygon class="cls-40" points="154.76 263.43 157.77 263.29 157.79 263.79 154.79 263.96 154.76 263.43"/><polygon class="cls-40" points="160.75 263.05 163.74 262.67 163.8 263.08 160.81 263.5 160.75 263.05"/><polygon class="cls-40" points="166.68 262.09 169.57 261.27 169.66 261.56 166.78 262.45 166.68 262.09"/><path class="cls-40" d="M172.33,260.13l1.31-.74,1.23-.86.1.13-1.23.9-1.3.77Z"/><path class="cls-40" d="M177,256.44l.84-1.25.68-1.35h0l-.64,1.37-.82,1.26Z"/></g><g class="cls-39"><polygon class="cls-40" points="108.65 346.99 108.53 343.98 108.66 343.98 108.65 346.99"/><polygon class="cls-40" points="108.42 340.97 108.32 337.96 108.66 337.95 108.66 340.96 108.42 340.97"/><polygon class="cls-40" points="108.23 334.94 108.15 331.93 108.63 331.92 108.65 334.94 108.23 334.94"/><polygon class="cls-40" points="108.07 328.92 107.99 325.9 108.6 325.89 108.61 328.91 108.07 328.92"/><polygon class="cls-40" points="107.93 322.89 107.88 319.87 108.55 319.86 108.58 322.88 107.93 322.89"/><polygon class="cls-40" points="107.83 316.85 107.78 313.84 108.5 313.83 108.52 316.85 107.83 316.85"/><polygon class="cls-40" points="107.74 310.83 107.7 307.81 108.45 307.81 108.47 310.82 107.74 310.83"/><polygon class="cls-40" points="107.68 304.8 107.67 301.78 108.38 301.77 108.42 304.79 107.68 304.8"/><polygon class="cls-40" points="107.67 298.76 107.66 295.75 108.33 295.75 108.35 298.76 107.67 298.76"/><polygon class="cls-40" points="107.66 292.74 107.68 289.72 108.29 289.72 108.31 292.74 107.66 292.74"/><polygon class="cls-40" points="107.72 286.7 107.77 283.69 108.25 283.69 108.26 286.71 107.72 286.7"/><polygon class="cls-40" points="107.83 280.67 107.93 277.65 108.25 277.66 108.25 280.68 107.83 280.67"/><polygon class="cls-40" points="108.06 274.64 108.25 271.63 108.37 271.64 108.28 274.65 108.06 274.64"/></g><path class="cls-41" d="M164.92,244.32s-3.21,12.81,7.91,7.73"/><path class="cls-37" d="M121.9,351.89s-19,1.76-19,7.43h43.33l-1.16-7.43Z"/><path class="cls-42" d="M182.46,185.54s-2.11,6.78,2,14.92l.46-3.05"/><path class="cls-6" d="M185.39,198.61s-8.68-19.15,3.75-29.14"/><path class="cls-3" d="M218.31,72.4H189.38a3.77,3.77,0,0,0-3.77,3.77V95.28A3.76,3.76,0,0,0,189.38,99h2.83c-.33,2.19-1.44,5.31-5,6.45,0,0,7.35-.09,9.53-6.45h21.61a3.76,3.76,0,0,0,3.77-3.76V76.17A3.77,3.77,0,0,0,218.31,72.4Z"/><path class="cls-3" d="M218.31,72.4H189.38a3.77,3.77,0,0,0-3.77,3.77V95.28A3.76,3.76,0,0,0,189.38,99h2.83c-.33,2.19-1.44,5.31-5,6.45,0,0,7.35-.09,9.53-6.45h21.61a3.76,3.76,0,0,0,3.77-3.76V76.17A3.77,3.77,0,0,0,218.31,72.4Z"/><rect class="cls-6" x="191.87" y="79.33" width="4.71" height="13.89"/><rect class="cls-43" x="198.07" y="81.02" width="4.54" height="12.19"/><rect class="cls-44" x="203.86" y="89.59" width="4.54" height="3.62"/><rect class="cls-6" x="209.61" y="85.64" width="4.54" height="7.58"/><polygon class="cls-6" points="218.81 94.96 189.99 94.96 189.99 76.88 190.74 76.88 190.74 94.21 218.81 94.21 218.81 94.96"/></g></g></g></g></g></svg>