<svg xmlns="http://www.w3.org/2000/svg" xmlns:xlink="http://www.w3.org/1999/xlink" viewBox="0 0 687.52 363.12"><defs><style>.cls-1{isolation:isolate;}.cls-2,.cls-79{fill:#e7ebf2;}.cls-16,.cls-2,.cls-23{opacity:0.5;}.cls-11,.cls-19,.cls-2,.cls-20,.cls-21,.cls-24,.cls-25,.cls-26,.cls-30,.cls-34,.cls-35,.cls-42,.cls-46,.cls-47,.cls-49,.cls-50,.cls-52,.cls-53,.cls-54,.cls-58,.cls-60,.cls-61,.cls-65,.cls-67,.cls-70,.cls-73,.cls-75,.cls-78{mix-blend-mode:multiply;}.cls-23,.cls-3,.cls-4,.cls-5{fill:#fff;}.cls-23,.cls-39,.cls-4,.cls-41,.cls-5,.cls-62,.cls-68{mix-blend-mode:soft-light;}.cls-5{opacity:0.8;}.cls-6{fill:#dc6b5d;}.cls-7{fill:#3a3a3a;}.cls-8{fill:#a0a0a0;}.cls-9{fill:#ffd1b8;}.cls-10{fill:#fcb9a7;}.cls-11{fill:#f2e6e4;}.cls-12{fill:#d87f73;}.cls-13{fill:#a05e2d;}.cls-14{fill:#e5806c;}.cls-15{fill:#35302f;}.cls-16{fill:#fff2ee;}.cls-17{fill:#efa389;}.cls-18{fill:#ffc878;}.cls-19{fill:url(#linear-gradient);}.cls-20{fill:url(#radial-gradient);}.cls-21{fill:url(#radial-gradient-2);}.cls-22{fill:url(#radial-gradient-3);}.cls-24{fill:url(#linear-gradient-2);}.cls-25{fill:url(#linear-gradient-3);}.cls-26{fill:url(#linear-gradient-4);}.cls-27{fill:url(#linear-gradient-5);}.cls-28{fill:#4f4c4c;}.cls-29{fill:#bfbfbf;}.cls-30{fill:url(#linear-gradient-6);}.cls-31{fill:url(#linear-gradient-7);}.cls-32,.cls-68{fill:#e2e0e0;}.cls-33{fill:#536266;}.cls-34{fill:url(#linear-gradient-8);}.cls-35{fill:url(#linear-gradient-9);}.cls-36{fill:url(#radial-gradient-4);}.cls-37{fill:#515151;}.cls-38{fill:#ede8e6;}.cls-40,.cls-41{fill:#eae4e1;}.cls-42{fill:url(#linear-gradient-10);}.cls-43{fill:#c1544c;}.cls-44{fill:#dd7f7c;}.cls-45{fill:#eaeaea;}.cls-46{fill:url(#linear-gradient-11);}.cls-47{fill:url(#linear-gradient-12);}.cls-48{fill:#5b8faf;}.cls-49{fill:url(#linear-gradient-13);}.cls-50{fill:url(#linear-gradient-14);}.cls-51,.cls-56{fill:#30363a;}.cls-52{fill:url(#linear-gradient-15);}.cls-53{fill:url(#radial-gradient-5);}.cls-54{fill:url(#radial-gradient-6);}.cls-55{fill:url(#radial-gradient-7);}.cls-56{opacity:0.3;}.cls-57{fill:#ad5549;}.cls-58{fill:url(#linear-gradient-16);}.cls-59{fill:#919191;}.cls-60{fill:url(#linear-gradient-17);}.cls-61{fill:url(#linear-gradient-18);}.cls-62{fill:url(#linear-gradient-19);}.cls-63{fill:none;stroke:#f2f3f4;stroke-miterlimit:10;stroke-width:0.5px;stroke-dasharray:3;}.cls-64{fill:#666;}.cls-65{fill:url(#linear-gradient-20);}.cls-66{fill:url(#linear-gradient-21);}.cls-67{fill:url(#linear-gradient-22);}.cls-69{fill:#4c4c4b;}.cls-70{fill:url(#linear-gradient-23);}.cls-71{fill:url(#linear-gradient-24);}.cls-72{fill:#494948;}.cls-73{fill:url(#linear-gradient-25);}.cls-74{fill:#777;}.cls-75{fill:url(#linear-gradient-26);}.cls-76{fill:#414142;}.cls-77{fill:#4f4f4e;}.cls-78{fill:url(#linear-gradient-27);}</style><linearGradient id="linear-gradient" x1="563.36" y1="186.51" x2="598.4" y2="91.95" gradientUnits="userSpaceOnUse"><stop offset="0.26" stop-color="#fff" stop-opacity="0"/><stop offset="0.41" stop-color="#fffefe" stop-opacity="0.01"/><stop offset="0.52" stop-color="#fefbfa" stop-opacity="0.05"/><stop offset="0.61" stop-color="#fcf6f5" stop-opacity="0.12"/><stop offset="0.69" stop-color="#f9efec" stop-opacity="0.21"/><stop offset="0.76" stop-color="#f5e5e1" stop-opacity="0.33"/><stop offset="0.83" stop-color="#f1dad4" stop-opacity="0.48"/><stop offset="0.9" stop-color="#ecccc4" stop-opacity="0.66"/><stop offset="0.96" stop-color="#e6bdb2" stop-opacity="0.86"/><stop offset="1" stop-color="#e2b2a6"/></linearGradient><radialGradient id="radial-gradient" cx="580.95" cy="68.95" r="74.75" gradientUnits="userSpaceOnUse"><stop offset="0.26" stop-color="#fff" stop-opacity="0"/><stop offset="0.45" stop-color="#f6e6e3" stop-opacity="0.32"/><stop offset="0.64" stop-color="#edd0c9" stop-opacity="0.61"/><stop offset="0.81" stop-color="#e7c0b6" stop-opacity="0.82"/><stop offset="0.93" stop-color="#e3b6aa" stop-opacity="0.95"/><stop offset="1" stop-color="#e2b2a6"/></radialGradient><radialGradient id="radial-gradient-2" cx="556.65" cy="97.96" r="75.58" xlink:href="#radial-gradient"/><radialGradient id="radial-gradient-3" cx="602.8" cy="145.05" r="72.17" gradientUnits="userSpaceOnUse"><stop offset="0.65" stop-color="#fff" stop-opacity="0"/><stop offset="0.78" stop-color="#fff" stop-opacity="0.01"/><stop offset="0.83" stop-color="#fff" stop-opacity="0.03"/><stop offset="0.86" stop-color="#fff" stop-opacity="0.08"/><stop offset="0.89" stop-color="#fff" stop-opacity="0.15"/><stop offset="0.91" stop-color="#fff" stop-opacity="0.23"/><stop offset="0.93" stop-color="#fff" stop-opacity="0.34"/><stop offset="0.95" stop-color="#fff" stop-opacity="0.47"/><stop offset="0.97" stop-color="#fff" stop-opacity="0.61"/><stop offset="0.98" stop-color="#fff" stop-opacity="0.78"/><stop offset="1" stop-color="#fff" stop-opacity="0.96"/><stop offset="1" stop-color="#fff"/></radialGradient><linearGradient id="linear-gradient-2" x1="569.66" y1="229.56" x2="605.55" y2="210.44" xlink:href="#linear-gradient"/><linearGradient id="linear-gradient-3" x1="631.17" y1="213.98" x2="634.37" y2="202.37" xlink:href="#linear-gradient"/><linearGradient id="linear-gradient-4" x1="557.77" y1="213.24" x2="557.77" y2="217.11" gradientUnits="userSpaceOnUse"><stop offset="0.65" stop-color="#fff" stop-opacity="0"/><stop offset="0.82" stop-color="#e2e7eb" stop-opacity="0.51"/><stop offset="0.94" stop-color="#cfd6dd" stop-opacity="0.86"/><stop offset="1" stop-color="#c7d0d8"/></linearGradient><linearGradient id="linear-gradient-5" x1="576.85" y1="181.86" x2="582.38" y2="221.29" gradientUnits="userSpaceOnUse"><stop offset="0.65" stop-color="#fff" stop-opacity="0"/><stop offset="0.69" stop-color="#fff" stop-opacity="0.02"/><stop offset="0.73" stop-color="#fff" stop-opacity="0.07"/><stop offset="0.78" stop-color="#fff" stop-opacity="0.15"/><stop offset="0.82" stop-color="#fff" stop-opacity="0.26"/><stop offset="0.87" stop-color="#fff" stop-opacity="0.41"/><stop offset="0.92" stop-color="#fff" stop-opacity="0.59"/><stop offset="0.96" stop-color="#fff" stop-opacity="0.8"/><stop offset="1" stop-color="#fff"/></linearGradient><linearGradient id="linear-gradient-6" x1="540.29" y1="145.96" x2="545.94" y2="225.45" xlink:href="#linear-gradient-4"/><linearGradient id="linear-gradient-7" x1="545.26" y1="287.61" x2="541.22" y2="154.38" xlink:href="#linear-gradient-5"/><linearGradient id="linear-gradient-8" x1="488.84" y1="288.97" x2="567.96" y2="294.62" xlink:href="#linear-gradient-4"/><linearGradient id="linear-gradient-9" x1="464.65" y1="292.44" x2="578.43" y2="293.19" xlink:href="#linear-gradient-4"/><radialGradient id="radial-gradient-4" cx="655.37" cy="301.12" r="104.41" gradientTransform="matrix(1, -0.09, 0.22, 2.56, -63.84, -414.63)" gradientUnits="userSpaceOnUse"><stop offset="0.8" stop-color="#fff" stop-opacity="0"/><stop offset="0.87" stop-color="#fff" stop-opacity="0.01"/><stop offset="0.9" stop-color="#fff" stop-opacity="0.03"/><stop offset="0.92" stop-color="#fff" stop-opacity="0.08"/><stop offset="0.93" stop-color="#fff" stop-opacity="0.15"/><stop offset="0.95" stop-color="#fff" stop-opacity="0.23"/><stop offset="0.96" stop-color="#fff" stop-opacity="0.34"/><stop offset="0.97" stop-color="#fff" stop-opacity="0.47"/><stop offset="0.98" stop-color="#fff" stop-opacity="0.61"/><stop offset="0.99" stop-color="#fff" stop-opacity="0.78"/><stop offset="1" stop-color="#fff" stop-opacity="0.96"/><stop offset="1" stop-color="#fff"/></radialGradient><linearGradient id="linear-gradient-10" x1="609.35" y1="200.43" x2="625.3" y2="193.02" xlink:href="#linear-gradient"/><linearGradient id="linear-gradient-11" x1="361.3" y1="204.67" x2="361.3" y2="219.73" gradientTransform="translate(527.5 -179.46) rotate(85.22)" xlink:href="#linear-gradient-4"/><linearGradient id="linear-gradient-12" x1="180.44" y1="197.75" x2="169.49" y2="200.57" xlink:href="#linear-gradient-4"/><linearGradient id="linear-gradient-13" x1="181.84" y1="199.18" x2="172.17" y2="208.51" xlink:href="#linear-gradient-4"/><linearGradient id="linear-gradient-14" x1="178.59" y1="197" x2="188.85" y2="197.34" xlink:href="#linear-gradient-4"/><linearGradient id="linear-gradient-15" x1="198.25" y1="187.99" x2="230.42" y2="101.74" xlink:href="#linear-gradient"/><radialGradient id="radial-gradient-5" cx="201.08" cy="45.94" r="73.98" xlink:href="#linear-gradient-4"/><radialGradient id="radial-gradient-6" cx="183.96" cy="106.41" r="73.9" xlink:href="#linear-gradient-4"/><radialGradient id="radial-gradient-7" cx="225.83" cy="154.38" r="67.76" gradientUnits="userSpaceOnUse"><stop offset="0.79" stop-color="#fff" stop-opacity="0"/><stop offset="0.87" stop-color="#fff" stop-opacity="0.01"/><stop offset="0.9" stop-color="#fff" stop-opacity="0.03"/><stop offset="0.92" stop-color="#fff" stop-opacity="0.08"/><stop offset="0.93" stop-color="#fff" stop-opacity="0.15"/><stop offset="0.95" stop-color="#fff" stop-opacity="0.23"/><stop offset="0.96" stop-color="#fff" stop-opacity="0.34"/><stop offset="0.97" stop-color="#fff" stop-opacity="0.47"/><stop offset="0.98" stop-color="#fff" stop-opacity="0.61"/><stop offset="0.99" stop-color="#fff" stop-opacity="0.78"/><stop offset="1" stop-color="#fff" stop-opacity="0.96"/><stop offset="1" stop-color="#fff"/></radialGradient><linearGradient id="linear-gradient-16" x1="225.4" y1="250.19" x2="221.98" y2="197.5" xlink:href="#linear-gradient-4"/><linearGradient id="linear-gradient-17" x1="182.06" y1="243.49" x2="207.16" y2="265.85" xlink:href="#linear-gradient-4"/><linearGradient id="linear-gradient-18" x1="359.35" y1="243.49" x2="384.45" y2="265.85" gradientTransform="matrix(-1, 0, 0, 1, 622.01, 0)" xlink:href="#linear-gradient-4"/><linearGradient id="linear-gradient-19" x1="141.3" y1="176.52" x2="228.51" y2="254.22" xlink:href="#linear-gradient-4"/><linearGradient id="linear-gradient-20" x1="95.07" y1="85.62" x2="103.99" y2="211.08" xlink:href="#linear-gradient-4"/><linearGradient id="linear-gradient-21" x1="102.9" y1="309.18" x2="96.53" y2="98.91" xlink:href="#linear-gradient-5"/><linearGradient id="linear-gradient-22" x1="100.37" y1="238.07" x2="94.25" y2="173.43" gradientUnits="userSpaceOnUse"><stop offset="0.14" stop-color="#fff" stop-opacity="0"/><stop offset="0.56" stop-color="#e2e7eb" stop-opacity="0.51"/><stop offset="0.86" stop-color="#cfd6dd" stop-opacity="0.86"/><stop offset="1" stop-color="#c7d0d8"/></linearGradient><linearGradient id="linear-gradient-23" x1="143.82" y1="120.12" x2="63.7" y2="193.4" xlink:href="#linear-gradient-4"/><linearGradient id="linear-gradient-24" x1="93.27" y1="242.94" x2="90.01" y2="135.56" xlink:href="#linear-gradient-5"/><linearGradient id="linear-gradient-25" x1="93.23" y1="191.33" x2="78.74" y2="192.36" gradientUnits="userSpaceOnUse"><stop offset="0.14" stop-color="#fff" stop-opacity="0"/><stop offset="0.41" stop-color="#feffff" stop-opacity="0.01"/><stop offset="0.53" stop-color="#fdfdfd" stop-opacity="0.04"/><stop offset="0.63" stop-color="#f9fafb" stop-opacity="0.1"/><stop offset="0.71" stop-color="#f5f6f8" stop-opacity="0.19"/><stop offset="0.77" stop-color="#eef1f3" stop-opacity="0.3"/><stop offset="0.84" stop-color="#e7ebee" stop-opacity="0.43"/><stop offset="0.89" stop-color="#dee3e8" stop-opacity="0.59"/><stop offset="0.95" stop-color="#d4dbe1" stop-opacity="0.78"/><stop offset="1" stop-color="#c8d1d9" stop-opacity="0.98"/><stop offset="1" stop-color="#c7d0d8"/></linearGradient><linearGradient id="linear-gradient-26" x1="218.73" y1="210.84" x2="218.73" y2="216.77" xlink:href="#linear-gradient-22"/><linearGradient id="linear-gradient-27" x1="276.53" y1="199.61" x2="255.53" y2="203.36" xlink:href="#linear-gradient-4"/></defs><title>hombresTrabajando</title><g class="cls-1"><g id="Capa_2" data-name="Capa 2"><g id="OBJECTS"><g id="SHADOW"><ellipse class="cls-2" cx="339.98" cy="359.31" rx="339.98" ry="3.81"/><ellipse class="cls-2" cx="339.98" cy="359.31" rx="339.98" ry="3.81"/></g><g id="MAN_RED" data-name="MAN RED"><path class="cls-3" d="M547.06,280h68.49s21.84.76,21.84-13V182.7h-17Z"/><g id="MAN_RED-2" data-name="MAN RED"><rect class="cls-4" x="632.14" y="131.58" width="47.82" height="66.89"/><rect class="cls-2" x="660.71" y="113.44" width="26.81" height="37.51"/><rect class="cls-2" x="660.71" y="113.44" width="26.81" height="37.51"/><polygon class="cls-2" points="656.38 41.51 599.63 41.51 597.63 2 659.38 0 656.38 41.51"/><polygon class="cls-2" points="656.38 41.51 599.63 41.51 597.63 2 659.38 0 656.38 41.51"/><polygon class="cls-4" points="461.58 20.75 441.9 41.3 441.9 145.17 546.23 145.17 546.23 20.75 461.58 20.75"/><polygon class="cls-5" points="461.58 20.75 441.9 41.3 441.9 145.17 546.23 145.17 546.23 20.75 461.58 20.75"/><polygon class="cls-3" points="461.58 20.75 458.25 43.47 441.9 41.3 461.58 20.75"/><path class="cls-6" d="M540.75,27.8a1.62,1.62,0,1,1-1.62-1.62A1.62,1.62,0,0,1,540.75,27.8Z"/><path class="cls-6" d="M448.69,139.67a1.62,1.62,0,1,1-3.23,0,1.62,1.62,0,0,1,3.23,0Z"/><rect class="cls-4" x="453.77" y="49.83" width="80.74" height="5.94"/><rect class="cls-4" x="453.77" y="49.83" width="80.74" height="5.94"/><rect class="cls-4" x="453.99" y="63.14" width="80.74" height="2.97"/><rect class="cls-4" x="453.99" y="68.97" width="78.59" height="2.97"/><rect class="cls-4" x="453.99" y="74.8" width="80.74" height="2.97"/><rect class="cls-4" x="453.99" y="80.62" width="69.33" height="2.97"/><rect class="cls-4" x="453.99" y="86.45" width="80.74" height="2.97"/><rect class="cls-4" x="453.99" y="92.27" width="35.79" height="2.97"/><rect class="cls-4" x="453.99" y="98.1" width="35.79" height="2.97"/><rect class="cls-4" x="453.99" y="103.92" width="80.74" height="2.97"/><rect class="cls-4" x="453.99" y="109.75" width="80.74" height="2.97"/><rect class="cls-2" x="453.77" y="116.03" width="80.74" height="17.58"/><path class="cls-7" d="M533.09,351.89s-19,1.76-19,7.43h43.32l-1.16-7.43Z"/><path class="cls-8" d="M477.4,217.51s3.11-5.48,11-6.22a9.75,9.75,0,0,1,10.3,5.87Z"/><path class="cls-6" d="M564.76,171.16a26.7,26.7,0,0,0-7,4.59c-2.57,2.64-15.07,22.61-17.2,24.12s-41.88,10.59-41.88,10.59l1.32,6.7s40.87-3.31,46.34-4.27S572.15,190,572.15,190Z"/><path class="cls-6" d="M631,169.47s6.17,3.21,9.31,6.85,5.84,34.94,5.34,37.82-13.38,1-15.26-5.54-6.16-19-6.16-19Z"/><path class="cls-6" d="M587.66,160s-14.29,7.1-22.9,11.15L568,211.81l-2.26,27s25.42-.35,60.44,4.38l-.79-36.53L631,169.47A91.4,91.4,0,0,0,602.09,160"/><path class="cls-3" d="M589.55,165.9l6.72,5.84S605,166.46,608.32,159l-1.17-.69H588.46a17.29,17.29,0,0,0-4.94,11.24Z"/><path class="cls-9" d="M588.46,158.1l1.09,7.8L607.07,159S593.59,157.45,588.46,158.1Z"/><polygon class="cls-9" points="586.98 149.07 588.61 158.99 607.07 158.99 609.08 142.54 586.98 149.07"/><path class="cls-10" d="M575.2,128.87a5.94,5.94,0,1,1-5.93-5.93A5.94,5.94,0,0,1,575.2,128.87Z"/><path class="cls-11" d="M568.58,128.24s-.82,6,4.49,2.36C573.07,130.6,571.34,127.65,568.58,128.24Z"/><path class="cls-12" d="M566.94,128.87s3-1.73,6.13,1.73C573.07,130.6,570.75,125.71,566.94,128.87Z"/><polygon class="cls-13" points="568.53 100.5 569.27 125.46 569.36 100.97 568.53 100.5"/><path class="cls-10" d="M610.2,127.78a5.93,5.93,0,1,0,5.93-5.94A5.93,5.93,0,0,0,610.2,127.78Z"/><path class="cls-11" d="M616.81,127.15s.83,6-4.49,2.36C612.32,129.51,614.05,126.55,616.81,127.15Z"/><path class="cls-12" d="M618.45,127.78s-3-1.74-6.13,1.73C612.32,129.51,614.65,124.61,618.45,127.78Z"/><path class="cls-14" d="M587.76,153.82a29.23,29.23,0,0,0,3.53.21c7,0,13.17-2.27,17.18-6.5l.61-5L587,149.07Z"/><path class="cls-9" d="M613,132.24c0,12.07-9.78,18.84-21.85,18.84h0c-12.07,0-21.85-6.77-21.85-18.84V100.73c0-12.07,9.78-18.09,21.85-18.09h0c12.07,0,21.85,6,21.85,18.09Z"/><path class="cls-15" d="M590.63,125.09a1.48,1.48,0,1,0,1.45-1.78A1.65,1.65,0,0,0,590.63,125.09Z"/><path class="cls-16" d="M592.05,125.73a.59.59,0,0,0-.75.29c-.07.25.16.53.51.63a.59.59,0,0,0,.75-.29C592.63,126.11,592.4,125.82,592.05,125.73Z"/><path class="cls-17" d="M594.51,121.68a3.69,3.69,0,0,0-3.88-.91S592.34,119.17,594.51,121.68Z"/><path class="cls-13" d="M589.46,116.93c-.61,1.89,1.71.87,3.94,1.59s3.54,2.88,4.15,1-.72-4-2.95-4.72S590.06,115,589.46,116.93Z"/><path class="cls-18" d="M595.23,119.44a13.56,13.56,0,0,1,1.22.73A7.93,7.93,0,0,1,595.23,119.44Z"/><path class="cls-15" d="M577.5,124.89a1.48,1.48,0,1,1-1.45-1.78A1.65,1.65,0,0,1,577.5,124.89Z"/><path class="cls-16" d="M576,125.52c-.34-.13-.69,0-.78.21s.1.55.43.68a.61.61,0,0,0,.79-.21C576.53,126,576.33,125.65,576,125.52Z"/><path class="cls-17" d="M576.77,121a3.72,3.72,0,0,0-3.73,1.43S573.56,120.19,576.77,121Z"/><path class="cls-13" d="M569.91,120c.56,1.9,1.91-.24,4.16-.91s4.54.4,4-1.51-2.85-2.9-5.1-2.23S569.35,118.06,569.91,120Z"/><path class="cls-11" d="M585.48,131.18s-2.24,5.85-3.94.67A4.87,4.87,0,0,0,585.48,131.18Z"/><path class="cls-9" d="M585,116.13s.2,8.64-1.13,10.82-3.12-2-5.26,0,2.76,7.35,7.3,4"/><path class="cls-14" d="M585,116.13s0,.45.08,1.22.09,1.88.07,3.2c0,.67,0,1.39-.08,2.15a21.15,21.15,0,0,1-.26,2.4,8.69,8.69,0,0,1-.31,1.27,2.74,2.74,0,0,1-.71,1.24,1.2,1.2,0,0,1-.84.35,1.1,1.1,0,0,1-.42,0,2,2,0,0,1-.37-.13c-.45-.2-.81-.45-1.19-.65a2.35,2.35,0,0,0-1.07-.36,1.46,1.46,0,0,0-1,.38,1.54,1.54,0,0,0-.32,1.91,4.64,4.64,0,0,0,1.36,1.73,5.08,5.08,0,0,0,1.82.9,4.81,4.81,0,0,0,3-.22,5.45,5.45,0,0,0,.8-.39l.27-.16-.25.19a5.31,5.31,0,0,1-.75.5,4.84,4.84,0,0,1-3.2.49,5.47,5.47,0,0,1-2-.87,4.77,4.77,0,0,1-1.65-1.91,2.67,2.67,0,0,1-.26-1.39,2.3,2.3,0,0,1,.22-.75,1.88,1.88,0,0,1,.24-.33l.11-.12a.94.94,0,0,1,.16-.14,2.15,2.15,0,0,1,1.42-.56,3.09,3.09,0,0,1,1.42.44c.41.22.78.47,1.13.63s.63.16.81,0a4.25,4.25,0,0,0,.89-2.12,34.65,34.65,0,0,0,.57-4.44c.09-1.32.17-2.42.2-3.19S585,116.13,585,116.13Z"/><path class="cls-11" d="M609.08,129.51c0,1.15-1.58,2.08-3.52,2.08s-3.52-.93-3.52-2.08,1.58-2.08,3.52-2.08S609.08,128.36,609.08,129.51Z"/><path class="cls-11" d="M572.78,129.51c0,1.15-1.57,2.07-3.51,2.07s-3.52-.92-3.52-2.07,1.57-2.08,3.52-2.08S572.78,128.36,572.78,129.51Z"/><path class="cls-19" d="M610.82,92c-3-2.72-10.86-8-25-6.79a39.29,39.29,0,0,0-10.7,2.36,16.34,16.34,0,0,0-5.89,13.17v3.08c9.52,1,28.42-4.34,28.42-4.34,1.55,6.85,8.37,6.39,8.37,6.39.63,9.83,6.91,20.1,6.91,20.1V100.73A17.49,17.49,0,0,0,610.82,92Z"/><path class="cls-13" d="M613,126s-6.28-11.3-6.91-22.1c0,0-6.82.5-8.37-7,0,0-24.91,7.79-31.94,3.77s1.3-17.71,20.11-19.47,26.46,9.17,26.46,9.17,2.57-1.89,3.81-1.63S613,90.8,613,90.8a3.44,3.44,0,0,1,3.89,1.63c1.38,2.39-2.27,29.62-2.27,29.62l-1.11.42Z"/><path class="cls-20" d="M613,126s-6.28-11.3-6.91-22.1c0,0-6.82.5-8.37-7,0,0-24.91,7.79-31.94,3.77s1.3-17.71,20.11-19.47,26.46,9.17,26.46,9.17,2.57-1.89,3.81-1.63S613,90.8,613,90.8a3.44,3.44,0,0,1,3.89,1.63c1.38,2.39-2.27,29.62-2.27,29.62l-1.11.42Z"/><path class="cls-21" d="M613,126s-6.28-11.3-6.91-22.1c0,0-6.82.5-8.37-7,0,0-24.91,7.79-31.94,3.77s1.3-17.71,20.11-19.47,26.46,9.17,26.46,9.17,2.57-1.89,3.81-1.63S613,90.8,613,90.8a3.44,3.44,0,0,1,3.89,1.63c1.38,2.39-2.27,29.62-2.27,29.62l-1.11.42Z"/><path class="cls-22" d="M613,126s-6.28-11.3-6.91-22.1c0,0-6.82.5-8.37-7,0,0-24.91,7.79-31.94,3.77s1.3-17.71,20.11-19.47,26.46,9.17,26.46,9.17,2.57-1.89,3.81-1.63S613,90.8,613,90.8a3.44,3.44,0,0,1,3.89,1.63c1.38,2.39-2.27,29.62-2.27,29.62l-1.11.42Z"/><path class="cls-3" d="M587.66,134l6.85-1.06S593.06,144.85,587.66,134Z"/><polygon class="cls-23" points="625.49 211.91 625.4 206.62 627.5 192.77 566.16 188.66 568 211.81 567.87 214.15 625.49 211.91"/><path class="cls-6" d="M590.6,217.16a8.79,8.79,0,0,1,7-8.69,230.1,230.1,0,0,1,31.11-5.3c10.18,0,18,.46,16.88,14Z"/><path class="cls-24" d="M597.15,208.61a8.76,8.76,0,0,0-6.55,8.55h14.65C602.21,211.15,599.32,209.11,597.15,208.61Z"/><path class="cls-9" d="M602.48,217.16s-2.07-5-5.08-6.24-14.7.1-17.08,2,10.74.42,10.74.42-5.84,1-6.35,2.19,7.66.44,7.66.44l.82,1.16Z"/><path class="cls-25" d="M628.76,203.17s3.49-.67,10.27,1.85"/><path class="cls-8" d="M521.51,214.14a2.48,2.48,0,0,0,0,.27,2.75,2.75,0,0,0,2.75,2.75h67.08a2.75,2.75,0,0,0,2.75-2.75,2.48,2.48,0,0,0,0-.27Z"/><path class="cls-26" d="M521.51,214.14a2.48,2.48,0,0,0,0,.27,2.75,2.75,0,0,0,2.75,2.75h67.08a2.75,2.75,0,0,0,2.75-2.75,2.48,2.48,0,0,0,0-.27Z"/><path class="cls-27" d="M594,214.14H571.87a2.45,2.45,0,0,1,0,.27,2.75,2.75,0,0,1-2.74,2.75h22.16a2.75,2.75,0,0,0,2.75-2.75A2.48,2.48,0,0,0,594,214.14Z"/><polygon class="cls-28" points="592.84 214.15 592.85 213.3 568.76 213.3 568.76 214.15 592.84 214.15"/><rect class="cls-29" x="515.26" y="172.55" width="56.89" height="42.9" rx="3.77"/><rect class="cls-30" x="515.26" y="172.55" width="56.89" height="42.9" rx="3.77"/><rect class="cls-31" x="516.36" y="174.35" width="52.12" height="39.3" rx="3.45"/><path class="cls-32" d="M568.39,172.55H519a3.8,3.8,0,0,0-2.67,1.11,4.15,4.15,0,0,1,.79-.08H566.5a3.76,3.76,0,0,1,3.77,3.76v35.37a3.75,3.75,0,0,1-1.1,2.66,3.75,3.75,0,0,0,3-3.68V176.32A3.76,3.76,0,0,0,568.39,172.55Z"/><rect class="cls-32" x="535.61" y="190.01" width="9.92" height="7.91" rx="3.77"/><path class="cls-9" d="M498.84,211.24a93.21,93.21,0,0,0-9.7-2.2c-2.63-.26-9.29,4.58-9.23,5.21s6.6-1.82,8.67-1.89,6.53,2.58,6.53,2.58-6.59.18-6.78,2.22H500Z"/><path class="cls-33" d="M533,351.89h23.18s-2.76-70.08-1.63-79.87,41.63,7.66,40.85-28.87c0,0-28.32-11.07-46.17-8.81C516.46,238.48,524.23,255.81,533,351.89Z"/><path class="cls-34" d="M533,351.89h23.18s-2.76-70.08-1.63-79.87,41.63,7.66,40.85-28.87c0,0-28.32-11.07-46.17-8.81C516.46,238.48,524.23,255.81,533,351.89Z"/><path class="cls-35" d="M533,351.89h23.18s-2.76-70.08-1.63-79.87,41.63,7.66,40.85-28.87c0,0-28.32-11.07-46.17-8.81C516.46,238.48,524.23,255.81,533,351.89Z"/><path class="cls-33" d="M563.8,351.89H587s-2.77-70.08-1.64-79.87,41.64,7.66,40.85-28.87c0,0-28.31-11.07-46.16-8.81C547.29,238.48,555.06,255.81,563.8,351.89Z"/><path class="cls-36" d="M563.8,351.89H587s-2.77-70.08-1.64-79.87,41.64,7.66,40.85-28.87c0,0-28.31-11.07-46.16-8.81C547.29,238.48,555.06,255.81,563.8,351.89Z"/><path class="cls-37" d="M463.4,357.81a1.52,1.52,0,0,1-1.51,1.51h0a1.51,1.51,0,0,1-1.5-1.51V221.17a1.5,1.5,0,0,1,1.5-1.5h0a1.51,1.51,0,0,1,1.51,1.5Z"/><path class="cls-7" d="M489.55,357.81a1.51,1.51,0,0,1-1.51,1.51h0a1.51,1.51,0,0,1-1.5-1.51V221.17a1.5,1.5,0,0,1,1.5-1.5h0a1.5,1.5,0,0,1,1.51,1.5Z"/><path class="cls-37" d="M600.78,357.81a1.52,1.52,0,0,1-1.51,1.51h0a1.52,1.52,0,0,1-1.51-1.51V221.17a1.51,1.51,0,0,1,1.51-1.5h0a1.51,1.51,0,0,1,1.51,1.5Z"/><path class="cls-7" d="M627.29,357.81a1.52,1.52,0,0,1-1.51,1.51h0a1.52,1.52,0,0,1-1.51-1.51V221.17a1.51,1.51,0,0,1,1.51-1.5h0a1.51,1.51,0,0,1,1.51,1.5Z"/><path class="cls-3" d="M454.8,222.17H627.68a5,5,0,0,0,5-5H449.79A5,5,0,0,0,454.8,222.17Z"/><path class="cls-38" d="M587,217.16a5,5,0,0,1-5,5h45.72a5,5,0,0,0,5-5Z"/><g class="cls-39"><polygon class="cls-40" points="581.6 346.99 581.48 343.98 581.55 343.98 581.6 346.99"/><polygon class="cls-40" points="581.36 340.97 581.24 337.96 581.45 337.95 581.5 340.97 581.36 340.97"/><polygon class="cls-40" points="581.12 334.95 581 331.94 581.36 331.93 581.41 334.94 581.12 334.95"/><polygon class="cls-40" points="580.89 328.92 580.79 325.91 581.24 325.9 581.3 328.91 580.89 328.92"/><polygon class="cls-40" points="580.69 322.9 580.59 319.88 581.12 319.87 581.18 322.88 580.69 322.9"/><polygon class="cls-40" points="580.5 316.87 580.4 313.85 581 313.84 581.06 316.85 580.5 316.87"/><polygon class="cls-40" points="580.31 310.84 580.23 307.83 580.88 307.81 580.95 310.82 580.31 310.84"/><polygon class="cls-40" points="580.15 304.81 580.07 301.8 580.75 301.78 580.81 304.8 580.15 304.81"/><polygon class="cls-40" points="579.99 298.79 579.92 295.77 580.63 295.76 580.69 298.77 579.99 298.79"/><polygon class="cls-40" points="579.85 292.76 579.78 289.74 580.52 289.73 580.57 292.74 579.85 292.76"/><rect class="cls-40" x="579.7" y="283.71" width="0.75" height="3.02" transform="translate(-4.81 10) rotate(-0.98)"/><polygon class="cls-40" points="579.64 280.69 579.62 277.68 580.34 277.67 580.37 280.69 579.64 280.69"/><path class="cls-40" d="M579.62,274.65l0-1.51c0-.19,0-.39,0-.56s0-.35,0-.49,0-.47,0-.47l.69.06s0,.18,0,.47,0,.3,0,.48,0,.35,0,.54l0,1.51Z"/><path class="cls-40" d="M580.27,268.57s.06-.18.16-.45a3.94,3.94,0,0,1,.17-.46c.09-.17.17-.35.26-.54s.22-.33.32-.49a2,2,0,0,1,.31-.41l.34-.37.47.48-.29.33a1.44,1.44,0,0,0-.28.35c-.09.14-.19.28-.28.44l-.21.46a2.56,2.56,0,0,0-.17.43l-.15.45Z"/><path class="cls-40" d="M584.61,264.34l.45-.11.47-.11c.18,0,.35-.1.55-.13l1.52-.23.08.64-1.45.22c-.18,0-.37.09-.54.13l-.46.11-.46.12Z"/><polygon class="cls-40" points="590.64 263.56 593.65 263.5 593.67 264.08 590.66 264.18 590.64 263.56"/><polygon class="cls-40" points="596.66 263.43 599.67 263.29 599.69 263.79 596.69 263.96 596.66 263.43"/><polygon class="cls-40" points="602.65 263.05 605.64 262.67 605.7 263.08 602.71 263.5 602.65 263.05"/><polygon class="cls-40" points="608.58 262.09 611.47 261.27 611.56 261.56 608.68 262.45 608.58 262.09"/><path class="cls-40" d="M614.23,260.13l1.31-.74,1.23-.86.1.13-1.23.9-1.3.77Z"/><path class="cls-40" d="M618.9,256.44l.84-1.25.68-1.35h0l-.64,1.37-.82,1.26Z"/></g><g class="cls-39"><polygon class="cls-40" points="550.55 346.99 550.43 343.98 550.56 343.98 550.55 346.99"/><polygon class="cls-40" points="550.32 340.97 550.22 337.96 550.56 337.95 550.56 340.96 550.32 340.97"/><polygon class="cls-40" points="550.13 334.94 550.05 331.93 550.53 331.92 550.55 334.94 550.13 334.94"/><polygon class="cls-40" points="549.97 328.92 549.89 325.9 550.5 325.89 550.51 328.91 549.97 328.92"/><polygon class="cls-40" points="549.83 322.89 549.78 319.87 550.45 319.86 550.48 322.88 549.83 322.89"/><polygon class="cls-40" points="549.73 316.85 549.68 313.84 550.39 313.83 550.42 316.85 549.73 316.85"/><polygon class="cls-40" points="549.64 310.83 549.6 307.81 550.35 307.81 550.37 310.82 549.64 310.83"/><polygon class="cls-40" points="549.58 304.8 549.57 301.78 550.28 301.77 550.32 304.79 549.58 304.8"/><polygon class="cls-40" points="549.57 298.76 549.56 295.75 550.23 295.75 550.25 298.76 549.57 298.76"/><polygon class="cls-40" points="549.56 292.74 549.58 289.72 550.19 289.72 550.21 292.74 549.56 292.74"/><polygon class="cls-40" points="549.62 286.7 549.67 283.69 550.15 283.69 550.16 286.71 549.62 286.7"/><polygon class="cls-40" points="549.74 280.67 549.83 277.65 550.15 277.66 550.14 280.68 549.74 280.67"/><polygon class="cls-40" points="549.96 274.64 550.15 271.63 550.27 271.64 550.18 274.65 549.96 274.64"/></g><path class="cls-41" d="M606.82,244.32s-3.21,12.81,7.91,7.73"/><path class="cls-37" d="M563.8,351.89s-19,1.76-19,7.43h43.33L587,351.89Z"/><path class="cls-42" d="M624.36,185.54s-2.11,6.78,2,14.92l.46-3.05"/><path class="cls-6" d="M627.29,198.61s-8.68-19.15,3.75-29.14"/><path class="cls-4" d="M660.21,72.4H631.28a3.77,3.77,0,0,0-3.77,3.77V95.28A3.76,3.76,0,0,0,631.28,99h2.83c-.33,2.19-1.44,5.31-5,6.45,0,0,7.35-.09,9.53-6.45h21.61A3.76,3.76,0,0,0,664,95.28V76.17A3.77,3.77,0,0,0,660.21,72.4Z"/><path class="cls-4" d="M660.21,72.4H631.28a3.77,3.77,0,0,0-3.77,3.77V95.28A3.76,3.76,0,0,0,631.28,99h2.83c-.33,2.19-1.44,5.31-5,6.45,0,0,7.35-.09,9.53-6.45h21.61A3.76,3.76,0,0,0,664,95.28V76.17A3.77,3.77,0,0,0,660.21,72.4Z"/><rect class="cls-6" x="633.77" y="79.33" width="4.71" height="13.89"/><rect class="cls-43" x="639.97" y="81.02" width="4.54" height="12.19"/><rect class="cls-44" x="645.76" y="89.59" width="4.54" height="3.62"/><rect class="cls-6" x="651.51" y="85.64" width="4.54" height="7.58"/><polygon class="cls-6" points="660.71 94.96 631.89 94.96 631.89 76.88 632.64 76.88 632.64 94.21 660.71 94.21 660.71 94.96"/></g></g><g id="MAN_BLUE" data-name="MAN BLUE"><rect class="cls-3" x="187.5" y="158.25" width="68.68" height="98.86" rx="20"/><path class="cls-3" d="M269.93,267.9a9.76,9.76,0,0,1-9.75,9.76H183.47a9.76,9.76,0,0,1-9.76-9.76h0a9.76,9.76,0,0,1,9.76-9.76h76.71a9.76,9.76,0,0,1,9.75,9.76Z"/><polygon class="cls-5" points="396.56 146.48 24.74 150.59 19.26 3.24 400.67 7.35 396.56 146.48"/><polygon class="cls-5" points="396.56 146.48 24.74 150.59 19.26 3.24 400.67 7.35 396.56 146.48"/><polygon class="cls-5" points="399.35 7.33 395.27 145.28 24.69 149.38 24.74 150.59 396.56 146.48 400.67 7.35 399.35 7.33"/><polygon class="cls-2" points="389.31 138.99 31.92 142.62 26.66 12.72 393.26 16.34 389.31 138.99"/><polygon class="cls-2" points="389.31 138.99 31.92 142.62 26.66 12.72 393.26 16.34 389.31 138.99"/><polygon class="cls-2" points="389.31 138.99 31.92 142.62 26.66 12.72 393.26 16.34 389.31 138.99"/><polygon class="cls-2" points="27.8 14.09 393.21 17.7 393.26 16.34 26.66 12.72 31.92 142.62 33.01 142.6 27.8 14.09"/><polygon class="cls-2" points="27.8 14.09 393.21 17.7 393.26 16.34 26.66 12.72 31.92 142.62 33.01 142.6 27.8 14.09"/><polygon class="cls-9" points="340.46 217.16 344.65 217.16 344.34 213.07 340.46 217.16"/><rect class="cls-45" x="341.96" y="180.67" width="44.29" height="34" transform="translate(114.99 528.71) rotate(-81.53)"/><rect class="cls-3" x="339.16" y="180.01" width="44.29" height="34" transform="translate(134.85 540.63) rotate(-85.22)"/><rect class="cls-46" x="339.16" y="180.01" width="44.29" height="34" transform="translate(134.85 540.63) rotate(-85.22)"/><path class="cls-47" d="M182.37,173.26a47.27,47.27,0,0,0-8.24,6.5c-3,3.25-9.36,37.4-4.57,39.91s18.94,0,18.94,0V197Z"/><path class="cls-48" d="M182.37,173.26a47.27,47.27,0,0,0-8.24,6.5c-3,3.25-9.36,37.4-4.57,39.91s18.94,0,18.94,0V197Z"/><path class="cls-49" d="M182.37,173.26a47.27,47.27,0,0,0-8.24,6.5c-3,3.25-9.36,37.4-4.57,39.91s18.94,0,18.94,0V197Z"/><path class="cls-50" d="M182.37,173.26a47.27,47.27,0,0,0-8.24,6.5c-3,3.25-9.36,37.4-4.57,39.91s18.94,0,18.94,0V197Z"/><path class="cls-48" d="M148.69,217.16s-1-8.41,6-12.18,20-1.53,24.81,0,5.65,12.18,5.65,12.18Z"/><path class="cls-48" d="M256.43,205.89l5.48-32.63c-4.5-2.45-33.32-8.2-39.23-9.36v-.21l-.54.1-.54-.1v.21c-5.91,1.16-34.73,6.91-39.23,9.36,0,0,5.25,31.26,5.47,32.63s-1.36,34.45-1.36,34.45,10.13-1.59,35.66-1.59,35.66,1.59,35.66,1.59S256.21,207.26,256.43,205.89Z"/><path class="cls-3" d="M222.25,174.63l-9.17,5.13s-19.1-15.51,9.43-15.51,11.09,14.94,11.09,14.94Z"/><path class="cls-9" d="M213.08,166.53l9.17,8.1,8.31-8.1S220.07,164.36,213.08,166.53Z"/><polygon class="cls-9" points="212.23 156.38 213.08 166.53 230.56 166.53 232.26 156.38 212.23 156.38"/><path class="cls-14" d="M231.17,162.86l1.09-6.48h-20l.41,4.83a26.66,26.66,0,0,0,11.57,2.48A29,29,0,0,0,231.17,162.86Z"/><path class="cls-10" d="M206.76,139.33a5.94,5.94,0,1,1-5.94-5.93A5.93,5.93,0,0,1,206.76,139.33Z"/><path class="cls-11" d="M200.14,138.7s-.82,6,4.49,2.36C204.63,141.06,202.9,138.11,200.14,138.7Z"/><path class="cls-12" d="M198.5,139.33s3-1.73,6.13,1.73C204.63,141.06,202.31,136.17,198.5,139.33Z"/><path class="cls-10" d="M241.75,138.23a5.94,5.94,0,1,0,5.94-5.93A5.94,5.94,0,0,0,241.75,138.23Z"/><path class="cls-11" d="M248.37,137.6s.83,6-4.49,2.36C243.88,140,245.61,137,248.37,137.6Z"/><path class="cls-12" d="M250,138.23s-3-1.73-6.13,1.73C243.88,140,246.21,135.07,250,138.23Z"/><path class="cls-9" d="M244.53,142.7c0,12.07-9.78,18.84-21.85,18.84h0c-12.07,0-21.86-6.77-21.86-18.84V111.18c0-12.06,9.79-18.08,21.86-18.08h0c12.07,0,21.85,6,21.85,18.08Z"/><path class="cls-15" d="M227.66,135.55a1.48,1.48,0,1,0,1.45-1.78A1.65,1.65,0,0,0,227.66,135.55Z"/><path class="cls-16" d="M229.09,136.19c-.35-.09-.68,0-.75.28s.16.54.5.64.69,0,.75-.29S229.44,136.28,229.09,136.19Z"/><path class="cls-17" d="M231.55,132.14a3.72,3.72,0,0,0-3.89-.92S229.38,129.63,231.55,132.14Z"/><path class="cls-51" d="M226.49,127.38c-.6,1.89,1.72.88,3.95,1.6s3.53,2.88,4.14,1-.72-4-3-4.71S227.1,125.49,226.49,127.38Z"/><path class="cls-18" d="M232.26,129.9a12.29,12.29,0,0,1,1.22.73A9,9,0,0,1,232.26,129.9Z"/><path class="cls-15" d="M214.53,135.35a1.48,1.48,0,1,1-1.45-1.78A1.65,1.65,0,0,1,214.53,135.35Z"/><path class="cls-16" d="M213,136a.57.57,0,0,0-.77.21c-.1.24.1.54.43.68s.69,0,.78-.21S213.37,136.11,213,136Z"/><path class="cls-17" d="M213.8,131.5a3.7,3.7,0,0,0-3.72,1.43S210.59,130.65,213.8,131.5Z"/><path class="cls-51" d="M206.94,130.42c.57,1.9,1.91-.24,4.16-.91s4.55.4,4-1.51-2.84-2.9-5.09-2.23S206.38,128.52,206.94,130.42Z"/><path class="cls-11" d="M222.51,141.64s-2.23,5.85-3.93.67A4.85,4.85,0,0,0,222.51,141.64Z"/><path class="cls-9" d="M222,126.59s.21,8.64-1.13,10.82-3.12-2-5.25,0,2.76,7.35,7.3,4"/><path class="cls-14" d="M222,126.59s0,.44.08,1.22.1,1.87.08,3.2c0,.67,0,1.39-.08,2.15a21.15,21.15,0,0,1-.26,2.4,10.2,10.2,0,0,1-.31,1.27,2.85,2.85,0,0,1-.72,1.24,1.32,1.32,0,0,1-1.26.3,2,2,0,0,1-.37-.13c-.44-.21-.81-.45-1.18-.65a2.39,2.39,0,0,0-1.07-.36,1.37,1.37,0,0,0-.95.38,1.53,1.53,0,0,0-.32,1.91,4.54,4.54,0,0,0,1.36,1.73,5.29,5.29,0,0,0,1.81.9,4.83,4.83,0,0,0,3-.22,6.72,6.72,0,0,0,.8-.39l.27-.16-.25.19a4.38,4.38,0,0,1-.76.49,4.81,4.81,0,0,1-3.19.5,5.69,5.69,0,0,1-2-.87,4.75,4.75,0,0,1-1.64-1.91,2.69,2.69,0,0,1-.26-1.39,2,2,0,0,1,.22-.75,1.88,1.88,0,0,1,.23-.33l.11-.12.16-.14a2.18,2.18,0,0,1,1.43-.56,3,3,0,0,1,1.42.44c.4.22.77.47,1.12.63a.73.73,0,0,0,.82,0,4.38,4.38,0,0,0,.89-2.13,36.13,36.13,0,0,0,.56-4.44c.1-1.31.18-2.41.21-3.18S222,126.59,222,126.59Z"/><path class="cls-11" d="M240.63,140c0,1.15-1.57,2.08-3.51,2.08s-3.52-.93-3.52-2.08,1.58-2.07,3.52-2.07S240.63,138.82,240.63,140Z"/><path class="cls-11" d="M209.82,140c0,1.15-1.58,2.08-3.52,2.08s-3.51-.93-3.51-2.08,1.57-2.07,3.51-2.07S209.82,138.82,209.82,140Z"/><path class="cls-52" d="M240.18,99.5c-6-4.7-17.91-6.19-25.6-5.37-8.06,2.18-13.76,7.85-13.76,17.05v.72c11.83,4.79,32.66-2.59,32.66-2.59,1,7.24,6.27,6.39,6.27,6.39a57.74,57.74,0,0,0,4.78,21.64V111.18A16.53,16.53,0,0,0,240.18,99.5Z"/><path class="cls-51" d="M244.53,137.34a65.44,65.44,0,0,1-4.78-23.17s-5.24.91-6.27-6.85c0,0-23,8.75-34.4,1.89a12,12,0,0,1-4.73-5.2s3.31.23,5-2.05,3-7.07,10.71-9.93,29.33-.91,33.21,8.9c0,0,2.64-2.39,3.66-1.82s-3.07,2.51-3.07,2.51,3.4-.69,4.54.22-3.89,1-3.89,1,3,.8,3.16,1.83-2.24,28-2.24,28l-.92.66Z"/><path class="cls-53" d="M244.53,137.34a65.44,65.44,0,0,1-4.78-23.17s-5.24.91-6.27-6.85c0,0-23,8.75-34.4,1.89a12,12,0,0,1-4.73-5.2s3.31.23,5-2.05,3-7.07,10.71-9.93,29.33-.91,33.21,8.9c0,0,2.64-2.39,3.66-1.82s-3.07,2.51-3.07,2.51,3.4-.69,4.54.22-3.89,1-3.89,1,3,.8,3.16,1.83-2.24,28-2.24,28l-.92.66Z"/><path class="cls-54" d="M244.53,137.34a65.44,65.44,0,0,1-4.78-23.17s-5.24.91-6.27-6.85c0,0-23,8.75-34.4,1.89a12,12,0,0,1-4.73-5.2s3.31.23,5-2.05,3-7.07,10.71-9.93,29.33-.91,33.21,8.9c0,0,2.64-2.39,3.66-1.82s-3.07,2.51-3.07,2.51,3.4-.69,4.54.22-3.89,1-3.89,1,3,.8,3.16,1.83-2.24,28-2.24,28l-.92.66Z"/><path class="cls-55" d="M244.53,137.34a65.44,65.44,0,0,1-4.78-23.17s-5.24.91-6.27-6.85c0,0-23,8.75-34.4,1.89a12,12,0,0,1-4.73-5.2s3.31.23,5-2.05,3-7.07,10.71-9.93,29.33-.91,33.21,8.9c0,0,2.64-2.39,3.66-1.82s-3.07,2.51-3.07,2.51,3.4-.69,4.54.22-3.89,1-3.89,1,3,.8,3.16,1.83-2.24,28-2.24,28l-.92.66Z"/><polygon class="cls-51" points="199.08 109.21 200.82 136.42 200.85 110.11 199.08 109.21"/><path class="cls-56" d="M222.68,161.54c12.07,0,21.85-6.77,21.85-18.84v-5.36c-.67,7.71-8.31,8.28-8.31,8.28-5.31-4.79-13.57-4.05-13.57-4.05a4.4,4.4,0,0,1-4.82.47c-10.09.7-13.2,3.58-13.2,3.58-3.6-2.22-3.81-9.2-3.81-9.2v6.28C200.82,154.77,210.61,161.54,222.68,161.54Z"/><path class="cls-57" d="M221.1,146.34a9.84,9.84,0,0,0,1,.56,3,3,0,0,0,2.32.2,1.93,1.93,0,0,0,.51-.35,2.27,2.27,0,0,0,.41-.47,5,5,0,0,0,.33-.52l.25-.5c.08-.15.12-.31.18-.44s.1-.25.13-.35l.13-.3s0,.12,0,.32,0,.23-.05.38a2.42,2.42,0,0,1-.1.48q-.08.27-.18.57a3,3,0,0,1-.29.6,2.6,2.6,0,0,1-1.08,1,2.13,2.13,0,0,1-.77.19,3,3,0,0,1-.74-.07,4.1,4.1,0,0,1-1.15-.53A4.21,4.21,0,0,1,221.1,146.34Z"/><path class="cls-58" d="M200.85,205l43-3S216.14,201.78,200.85,205Z"/><path class="cls-59" d="M275.15,249.24C265.22,238.63,256.44,239,256.44,239a269,269,0,0,0-34.07-1.59A268.91,268.91,0,0,0,188.3,239s-8.79-.34-18.71,10.27,9.58,100.28,9.58,100.28h18.71s.23-76,4.11-81.45h40.76c3.88,5.47,4.1,81.45,4.1,81.45h18.71S285.07,259.85,275.15,249.24Z"/><polygon class="cls-60" points="201.99 268.07 206.17 258.14 204.08 268.07 201.99 268.07"/><polygon class="cls-61" points="242.73 268.07 238.54 258.14 240.64 268.07 242.73 268.07"/><path class="cls-62" d="M217.21,237.34h-1c-.95,5.34-1.86,16.9,8.28,17C224.54,254.38,213.74,253.28,217.21,237.34Z"/><path class="cls-63" d="M196.13,264.53s-3.88,34.68-1.14,80.77"/><path class="cls-63" d="M248.53,264.53s3.88,34.68,1.14,80.77"/><path class="cls-7" d="M184.38,349.52S164.65,351,164.65,359h34.22l-.73-9.47Z"/><path class="cls-7" d="M261.14,349.52S281.87,351,281.87,359H245.93l.77-9.47Z"/><rect class="cls-64" x="55.57" y="127.6" width="89.79" height="67.71" rx="5.95"/><rect class="cls-65" x="55.57" y="127.6" width="89.79" height="67.71" rx="5.95"/><rect class="cls-66" x="57.3" y="130.44" width="82.25" height="62.03" rx="5.45"/><path class="cls-67" d="M73.93,151.66h39.78a3,3,0,0,1,3,3V183.2a3,3,0,0,1-3,3H73.93a3,3,0,0,1-3-3V154.7A3,3,0,0,1,73.93,151.66Z"/><path class="cls-68" d="M139.41,127.6H61.51a5.94,5.94,0,0,0-4.21,1.75,6.28,6.28,0,0,1,1.24-.13h77.89a5.94,5.94,0,0,1,5.95,5.94V191a5.87,5.87,0,0,1-1.74,4.19,5.94,5.94,0,0,0,4.71-5.81V133.54A5.94,5.94,0,0,0,139.41,127.6Z"/><path class="cls-69" d="M72.13,150.21h39.78a3,3,0,0,1,3,3v28.5a3,3,0,0,1-3,3H72.13a3,3,0,0,1-3-3V153.24A3,3,0,0,1,72.13,150.21Z"/><path class="cls-70" d="M72.13,150.21h39.78a3,3,0,0,1,3,3v28.5a3,3,0,0,1-3,3H72.13a3,3,0,0,1-3-3V153.24A3,3,0,0,1,72.13,150.21Z"/><rect class="cls-71" x="69.98" y="151.66" width="42" height="31.68" rx="2.78"/><path class="cls-68" d="M111.91,150.21H72.13a3,3,0,0,0-2.15.89,3.28,3.28,0,0,1,.63-.06h39.78a3,3,0,0,1,3,3v28.51a3,3,0,0,1-.89,2.14,3,3,0,0,0,2.41-3v-28.5A3,3,0,0,0,111.91,150.21Z"/><path class="cls-37" d="M32.87,357.81a1.52,1.52,0,0,1-1.51,1.51h0a1.52,1.52,0,0,1-1.51-1.51V221.17a1.51,1.51,0,0,1,1.51-1.5h0a1.51,1.51,0,0,1,1.51,1.5Z"/><path class="cls-7" d="M59,357.81a1.51,1.51,0,0,1-1.51,1.51h0a1.51,1.51,0,0,1-1.5-1.51V221.17a1.5,1.5,0,0,1,1.5-1.5h0a1.5,1.5,0,0,1,1.51,1.5Z"/><path class="cls-7" d="M368.76,357.81a1.52,1.52,0,0,1-1.51,1.51h0a1.52,1.52,0,0,1-1.51-1.51V221.17a1.51,1.51,0,0,1,1.51-1.5h0a1.51,1.51,0,0,1,1.51,1.5Z"/><path class="cls-37" d="M395.26,357.81a1.51,1.51,0,0,1-1.5,1.51h0a1.51,1.51,0,0,1-1.51-1.51V221.17a1.5,1.5,0,0,1,1.51-1.5h0a1.5,1.5,0,0,1,1.5,1.5Z"/><path class="cls-3" d="M24.27,222.17H395.65a5,5,0,0,0,5-5H19.26A5,5,0,0,0,24.27,222.17Z"/><path class="cls-72" d="M78.18,164.75s.34,52.41,8.39,52.41h32.34v-2.1s-9.58-.17-11.47-.85-6.5-6.16-6.5-49.46Z"/><path class="cls-73" d="M78.18,164.75s.34,52.41,8.39,52.41h32.34v-2.1s-9.58-.17-11.47-.85-6.5-6.16-6.5-49.46Z"/><path class="cls-68" d="M107.44,214.21c-1.88-.69-6.5-6.16-6.5-49.46H78.18l20.6.91c0,44.62,4.62,50.26,6.5,51a18.18,18.18,0,0,0,3.79.54h9.84v-2.1S109.33,214.89,107.44,214.21Z"/><rect class="cls-74" x="174.13" y="211.3" width="89.21" height="5.86"/><rect class="cls-75" x="174.13" y="211.3" width="89.21" height="5.86"/><rect class="cls-76" x="178.23" y="208.9" width="81.68" height="2.39"/><path class="cls-77" d="M141.76,217.16s2.55-8.83,14.09-9.4,12.46,9.4,12.46,9.4Z"/><path class="cls-9" d="M141.76,217.16s2.51-12.3,14.86-12.3,11.53,5.26,10.54,5.72c-1.54.7-5.78-2.26-5.78-2.26s-1.38,8.47-4,8.47-2.76-7.57-2.76-7.57S145.06,207.66,141.76,217.16Z"/><path class="cls-48" d="M261.91,173.26s6.22,2,8.28,3.81,20.3,15.06,23.95,16.66S342.52,205,342.52,205l-2.06,12.18s-50.19-3.49-54.36-4.49c-3.77-.91-28.92-14-28.92-14"/><path class="cls-78" d="M261.91,173.26s6.22,2,8.28,3.81,20.3,15.06,23.95,16.66S342.52,205,342.52,205l-2.06,12.18s-50.19-3.49-54.36-4.49c-3.77-.91-28.92-14-28.92-14"/><path class="cls-9" d="M342.52,205s5.3-3,8.5-2.81-4.8,6.5-4.8,6.5.18,5.34-5.76,8.49Z"/><polygon class="cls-79" points="314.32 33.34 319.34 97.37 372.27 96.32 375.47 31.06 314.32 33.34"/><polygon class="cls-2" points="281.87 59.83 335.31 54.79 335.31 120.66 289.22 117.98 281.87 59.83"/><polygon class="cls-2" points="281.87 59.83 335.31 54.79 335.31 120.66 289.22 117.98 281.87 59.83"/><polygon class="cls-79" points="98.59 29.69 103.49 80.8 171.48 76.92 174.13 29.69 98.59 29.69"/></g></g></g></g></svg>