<svg xmlns="http://www.w3.org/2000/svg" viewBox="0 0 438.89 334.92"><defs><style>.cls-1{isolation:isolate;}.cls-18,.cls-2,.cls-20,.cls-23{fill:#fff;}.cls-2{opacity:0.3;}.cls-2,.cls-23{mix-blend-mode:screen;}.cls-3,.cls-6{fill:#cc8b7c;}.cls-3{opacity:0.5;}.cls-21,.cls-3{mix-blend-mode:multiply;}.cls-21,.cls-4{fill:#855044;}.cls-5{fill:#5e3930;}.cls-7{fill:#094559;}.cls-8{fill:#f4c099;}.cls-9{fill:#1390ba;}.cls-10{fill:#a61539;}.cls-11{fill:#db1c4b;}.cls-12{fill:#3a4d5c;}.cls-13{fill:#394c5a;}.cls-14{fill:#547085;}.cls-15{fill:#f4971f;}.cls-16{fill:#fcc640;}.cls-17{fill:#d4831b;}.cls-18{opacity:0.15;}.cls-19{fill:#fcdb8b;}.cls-21{opacity:0.4;}.cls-22{fill:#b2d7ea;}.cls-23{opacity:0.2;}.cls-24{fill:#1a1a1a;}.cls-25{fill:#b3b3b3;}.cls-26{fill:#4d4d4d;}.cls-27{fill:#333;}.cls-28{fill:#40edff;}.cls-29{fill:#ed1c24;}.cls-30{fill:#999;}.cls-31{fill:#39b54a;}.cls-32{fill:#f73968;}.cls-33{fill:#36201b;}</style></defs><title>Recurso 1</title><g class="cls-1"><g id="Capa_2" data-name="Capa 2"><g id="Layer_1" data-name="Layer 1"><ellipse class="cls-2" cx="219.45" cy="208.22" rx="219.45" ry="126.7"/></g><g id="Layer_2" data-name="Layer 2"><ellipse class="cls-3" cx="127.5" cy="284.2" rx="44.37" ry="25.46"/><ellipse class="cls-3" cx="61.7" cy="220.35" rx="24.13" ry="13.85"/><polygon class="cls-3" points="410.8 160.74 374.68 181.59 334.63 158.47 370.74 137.61 410.8 160.74"/><path class="cls-3" d="M326.62,255.9l-50.83-29.34,37.9-21.88-62.53-36.1L126.68,240.45l62.53,36.1,32.58-18.81,51.07,29.48a16,16,0,0,0,16,0l37.74-21.79A5.5,5.5,0,0,0,326.62,255.9Z"/><polygon class="cls-4" points="220.59 180.93 220.59 23.06 217.68 24.74 217.68 182.61 220.59 180.93"/><polygon class="cls-5" points="217.68 182.61 217.68 24.74 189.02 8.19 189.02 166.07 217.68 182.61"/><polygon class="cls-6" points="220.59 23.06 191.93 6.51 189.02 8.19 217.68 24.74 220.59 23.06"/><polygon class="cls-4" points="220.59 151.95 131.8 203.21 131.8 199.85 220.59 148.59 220.59 151.95"/><polygon class="cls-6" points="220.59 148.59 131.8 199.85 103.14 183.31 191.93 132.05 220.59 148.59"/><polygon class="cls-5" points="131.8 203.21 103.14 186.67 103.14 183.31 131.8 199.85 131.8 203.21"/><path class="cls-7" d="M202.13,155.17l12.79-7.39-3.1-1.8-9.69,6A4.24,4.24,0,0,0,202.13,155.17Z"/><path class="cls-8" d="M201.76,154.84l12.55-7.25v-3.21l-12.79,7.38A3.69,3.69,0,0,0,201.76,154.84Z"/><path class="cls-9" d="M182.09,143.59l20,11.58a4.45,4.45,0,0,1,0-3.22l-20-11.57A4.72,4.72,0,0,0,182.09,143.59Z"/><polygon class="cls-7" points="182.09 140.38 202.13 151.95 214.92 144.57 194.88 133 182.09 140.38"/><path class="cls-7" d="M202.18,151.42,215,144l-3.1-1.8-9.69,6A4.24,4.24,0,0,0,202.18,151.42Z"/><path class="cls-8" d="M201.8,151.08l12.56-7.24v-3.22L201.56,148A3.75,3.75,0,0,0,201.8,151.08Z"/><path class="cls-9" d="M182.14,139.84l20,11.58a4.45,4.45,0,0,1,0-3.22l-20-11.57A4.72,4.72,0,0,0,182.14,139.84Z"/><polygon class="cls-7" points="182.14 136.63 202.18 148.2 214.97 140.82 194.93 129.24 182.14 136.63"/><path class="cls-10" d="M201.9,147.24l12.79-7.38-3.1-1.8-9.69,6A4.21,4.21,0,0,0,201.9,147.24Z"/><path class="cls-8" d="M201.52,146.91l12.56-7.24v-3.22l-12.8,7.39A3.75,3.75,0,0,0,201.52,146.91Z"/><path class="cls-11" d="M181.86,135.67l20,11.57a4.42,4.42,0,0,1,0-3.21l-20-11.57A4.72,4.72,0,0,0,181.86,135.67Z"/><polygon class="cls-10" points="181.86 132.46 201.9 144.03 214.69 136.65 194.65 125.07 181.86 132.46"/><path class="cls-10" d="M200.58,142.34,213.37,135l-3.11-1.8-9.68,6A4.22,4.22,0,0,0,200.58,142.34Z"/><path class="cls-8" d="M200.2,142l12.56-7.25v-3.21L200,138.93A3.69,3.69,0,0,0,200.2,142Z"/><path class="cls-11" d="M182.27,131.77l18.31,10.57a4.42,4.42,0,0,1,0-3.21l-18.31-10.57A4.73,4.73,0,0,0,182.27,131.77Z"/><polygon class="cls-10" points="182.27 128.56 200.58 139.13 213.37 131.74 195.07 121.17 182.27 128.56"/><path class="cls-7" d="M192.83,132.3l-14.15-8.16v4l11.07,6C191.37,133.67,192.4,133.08,192.83,132.3Z"/><path class="cls-8" d="M192.72,132.85l-13.88-8-3.08,1.78,14.15,8.17A4.07,4.07,0,0,0,192.72,132.85Z"/><path class="cls-7" d="M192.83,159V132.3a4.82,4.82,0,0,1-3.08,1.78v26.67A5.25,5.25,0,0,0,192.83,159Z"/><polygon class="cls-9" points="189.75 160.75 189.75 134.08 175.61 125.91 175.61 152.58 189.75 160.75"/><path class="cls-12" d="M189.21,136.53l-13.75-7.93v5.31l9.64,5C187.26,138.36,188.63,137.56,189.21,136.53Z"/><path class="cls-8" d="M189.07,137.26l-13.4-7.73-4.12,2.38,13.75,7.93A5.48,5.48,0,0,0,189.07,137.26Z"/><path class="cls-13" d="M189.21,160.86V136.53a6.45,6.45,0,0,1-4.12,2.38v24.33A7,7,0,0,0,189.21,160.86Z"/><polygon class="cls-14" points="185.09 163.24 185.09 138.91 171.34 130.97 171.34 155.3 185.09 163.24"/><path class="cls-5" d="M184.22,140.67l-14.15-8.17v4l11.08,6C182.76,142,183.79,141.44,184.22,140.67Z"/><path class="cls-8" d="M184.11,141.21l-13.88-8L167.15,135l14.15,8.17A4.07,4.07,0,0,0,184.11,141.21Z"/><path class="cls-4" d="M184.22,164.05V140.67a4.85,4.85,0,0,1-3.08,1.77v23.38A5.22,5.22,0,0,0,184.22,164.05Z"/><polygon class="cls-6" points="181.14 165.82 181.14 142.44 166.99 134.28 166.99 157.66 181.14 165.82"/><path class="cls-10" d="M180.39,140.67l-14.15-8.17v4l11.08,6C178.93,142,180,141.44,180.39,140.67Z"/><path class="cls-8" d="M180.28,141.21l-13.89-8L163.32,135l14.15,8.17A4.07,4.07,0,0,0,180.28,141.21Z"/><path class="cls-11" d="M180.39,166.27v-25.6a4.88,4.88,0,0,1-3.08,1.77V168A5.25,5.25,0,0,0,180.39,166.27Z"/><polygon class="cls-10" points="177.31 168.04 177.31 142.44 163.16 134.28 163.16 159.87 177.31 168.04"/><path class="cls-7" d="M176.23,142.93l-14.14-8.16v4l11.08,6C174.78,144.3,175.8,143.71,176.23,142.93Z"/><path class="cls-8" d="M176.13,143.48l-13.89-8-3.08,1.78,14.15,8.17A4.12,4.12,0,0,0,176.13,143.48Z"/><path class="cls-9" d="M176.23,168.53v-25.6a4.79,4.79,0,0,1-3.07,1.78v25.6A5.2,5.2,0,0,0,176.23,168.53Z"/><polygon class="cls-7" points="173.16 170.31 173.16 144.71 159.01 136.54 159.01 162.14 173.16 170.31"/><path class="cls-15" d="M172.4,142.44l-16.14-9.32V138l12.36,6.61C170.6,144.12,171.87,143.39,172.4,142.44Z"/><path class="cls-8" d="M172.27,143.11,156.46,134l-3.8,2.19,16.14,9.32A5.06,5.06,0,0,0,172.27,143.11Z"/><path class="cls-15" d="M172.4,170.51V142.44a6,6,0,0,1-3.79,2.19V172.7A6.45,6.45,0,0,0,172.4,170.51Z"/><polygon class="cls-16" points="168.61 172.7 168.61 144.63 152.47 135.31 152.47 163.38 168.61 172.7"/><path class="cls-5" d="M165.92,151.22l-14.15-8.17v4l11.08,6C164.46,152.58,165.49,152,165.92,151.22Z"/><path class="cls-8" d="M165.81,151.76l-13.88-8-3.08,1.77L163,153.69A4.07,4.07,0,0,0,165.81,151.76Z"/><path class="cls-4" d="M165.92,174.6V151.22a4.85,4.85,0,0,1-3.08,1.77v23.39A5.28,5.28,0,0,0,165.92,174.6Z"/><polygon class="cls-6" points="162.84 176.38 162.84 153 148.69 144.83 148.69 168.21 162.84 176.38"/><path class="cls-10" d="M162.09,151.22l-14.15-8.17v4L159,153C160.63,152.58,161.65,152,162.09,151.22Z"/><path class="cls-8" d="M162,151.76l-13.89-8L145,145.52l14.14,8.17A4.12,4.12,0,0,0,162,151.76Z"/><path class="cls-11" d="M162.09,176.82v-25.6A4.88,4.88,0,0,1,159,153v25.6A5.25,5.25,0,0,0,162.09,176.82Z"/><polygon class="cls-10" points="159.01 178.59 159.01 153 144.86 144.83 144.86 170.43 159.01 178.59"/><path class="cls-7" d="M157.93,153.48l-14.15-8.16v4l11.08,6C156.48,154.85,157.5,154.26,157.93,153.48Z"/><path class="cls-8" d="M157.82,154l-13.88-8-3.08,1.78L155,156A4.07,4.07,0,0,0,157.82,154Z"/><path class="cls-9" d="M157.93,179.08v-25.6a4.79,4.79,0,0,1-3.07,1.78v25.6A5.2,5.2,0,0,0,157.93,179.08Z"/><polygon class="cls-7" points="154.85 180.86 154.85 155.26 140.71 147.09 140.71 172.69 154.85 180.86"/><path class="cls-10" d="M148.64,156.34l-14.39-7.41.58,3.95,11.2,5.38Q148.2,157.53,148.64,156.34Z"/><path class="cls-8" d="M148.62,156.89l-14.12-7.27-2.61,1.91L146.28,159A3.38,3.38,0,0,0,148.62,156.89Z"/><path class="cls-11" d="M152.38,181.77l-3.74-25.43a4,4,0,0,1-2.61,1.92l3.74,25.43A4.2,4.2,0,0,0,152.38,181.77Z"/><polygon class="cls-10" points="149.77 183.69 146.03 158.26 131.64 150.85 135.38 176.28 149.77 183.69"/><path class="cls-12" d="M143.72,163.12,130,155.19v5.31l9.64,5C141.77,165,143.14,164.15,143.72,163.12Z"/><path class="cls-8" d="M143.58,163.85l-13.4-7.73-4.12,2.38,13.75,7.93A5.48,5.48,0,0,0,143.58,163.85Z"/><path class="cls-13" d="M143.72,187.45V163.12a6.45,6.45,0,0,1-4.12,2.38v24.33A6.94,6.94,0,0,0,143.72,187.45Z"/><polygon class="cls-14" points="139.6 189.83 139.6 165.5 125.86 157.56 125.86 181.89 139.6 189.83"/><path class="cls-7" d="M137.6,165.28l-14.15-8.17v4l11.07,6C136.14,166.65,137.17,166.05,137.6,165.28Z"/><path class="cls-8" d="M137.49,165.83l-13.88-8-3.08,1.78,14.15,8.17A4.1,4.1,0,0,0,137.49,165.83Z"/><path class="cls-9" d="M137.6,190.88v-25.6a4.86,4.86,0,0,1-3.08,1.78v25.6A5.25,5.25,0,0,0,137.6,190.88Z"/><polygon class="cls-7" points="134.52 192.66 134.52 167.06 120.38 158.89 120.38 184.49 134.52 192.66"/><polygon class="cls-4" points="220.59 119.73 131.8 170.99 131.8 167.63 220.59 116.37 220.59 119.73"/><polygon class="cls-6" points="220.59 116.37 131.8 167.63 103.14 151.09 191.93 99.83 220.59 116.37"/><polygon class="cls-5" points="131.8 170.99 103.14 154.45 103.14 151.09 131.8 167.63 131.8 170.99"/><path class="cls-7" d="M213.63,87.54l-14.15-8.17v4l11.08,6C212.17,88.9,213.2,88.31,213.63,87.54Z"/><path class="cls-8" d="M213.52,88.08l-13.88-8-3.08,1.78L210.71,90A4.07,4.07,0,0,0,213.52,88.08Z"/><path class="cls-9" d="M213.63,113.13V87.54a4.85,4.85,0,0,1-3.08,1.77v25.6A5.18,5.18,0,0,0,213.63,113.13Z"/><polygon class="cls-7" points="210.55 114.91 210.55 89.31 196.4 81.14 196.4 106.74 210.55 114.91"/><path class="cls-10" d="M209.17,92.27,195,84.1v4l11.07,6C207.71,93.64,208.74,93,209.17,92.27Z"/><path class="cls-8" d="M209.06,92.82l-13.88-8-3.08,1.78,14.15,8.17A4.1,4.1,0,0,0,209.06,92.82Z"/><path class="cls-11" d="M209.17,115.65V92.27a4.86,4.86,0,0,1-3.08,1.78v23.38A5.2,5.2,0,0,0,209.17,115.65Z"/><polygon class="cls-10" points="206.09 117.43 206.09 94.05 191.95 85.88 191.95 109.26 206.09 117.43"/><path class="cls-7" d="M205.44,91.32l-14.15-8.16v4l11.08,6C204,92.69,205,92.1,205.44,91.32Z"/><path class="cls-8" d="M205.33,91.87l-13.89-8-3.07,1.78,14.14,8.17A4.09,4.09,0,0,0,205.33,91.87Z"/><path class="cls-7" d="M205.44,118V91.32a4.84,4.84,0,0,1-3.08,1.78v26.67A5.31,5.31,0,0,0,205.44,118Z"/><polygon class="cls-9" points="202.36 119.77 202.36 93.1 188.21 84.93 188.21 111.6 202.36 119.77"/><path class="cls-12" d="M201.81,95.55l-13.74-7.93,0,5.31,9.65,5C199.86,97.38,201.24,96.58,201.81,95.55Z"/><path class="cls-8" d="M201.67,96.28l-13.4-7.73-4.11,2.38,13.75,7.93A5.48,5.48,0,0,0,201.67,96.28Z"/><path class="cls-13" d="M201.81,119.88V95.55a6.45,6.45,0,0,1-4.11,2.38v24.33A7,7,0,0,0,201.81,119.88Z"/><polygon class="cls-14" points="197.7 122.26 197.7 97.93 183.95 89.99 183.95 114.32 197.7 122.26"/><path class="cls-16" d="M196.44,99.48l-14.15-8.17v4l11.08,6C195,100.85,196,100.25,196.44,99.48Z"/><path class="cls-8" d="M196.33,100l-13.88-8-3.08,1.78L193.52,102A4.1,4.1,0,0,0,196.33,100Z"/><path class="cls-15" d="M196.44,122.86V99.48a4.82,4.82,0,0,1-3.08,1.78v23.38A5.23,5.23,0,0,0,196.44,122.86Z"/><polygon class="cls-16" points="193.36 124.64 193.36 101.26 179.21 93.09 179.21 116.47 193.36 124.64"/><path class="cls-10" d="M192.61,99.48l-14.15-8.17v4l11.08,6C191.15,100.85,192.17,100.25,192.61,99.48Z"/><path class="cls-8" d="M192.5,100l-13.89-8-3.07,1.78L189.68,102A4.12,4.12,0,0,0,192.5,100Z"/><path class="cls-11" d="M192.61,125.08V99.48a4.84,4.84,0,0,1-3.08,1.78v25.6A5.31,5.31,0,0,0,192.61,125.08Z"/><polygon class="cls-10" points="189.53 126.86 189.53 101.26 175.38 93.09 175.38 118.69 189.53 126.86"/><path class="cls-12" d="M188.26,102.68l-13.75-7.94v5.32l9.64,5C186.31,104.51,187.68,103.71,188.26,102.68Z"/><path class="cls-8" d="M188.11,103.41l-13.39-7.73-4.12,2.37L184.35,106A5.45,5.45,0,0,0,188.11,103.41Z"/><path class="cls-13" d="M188.26,127V102.68a6.52,6.52,0,0,1-4.12,2.38v24.33A7.06,7.06,0,0,0,188.26,127Z"/><polygon class="cls-14" points="184.14 129.39 184.14 105.06 170.39 97.12 170.39 121.45 184.14 129.39"/><path class="cls-7" d="M183.83,104.22l-14.14-8.17v4l11.08,6C182.38,105.59,183.4,105,183.83,104.22Z"/><path class="cls-8" d="M183.73,104.77l-13.89-8-3.07,1.78,14.14,8.17A4.15,4.15,0,0,0,183.73,104.77Z"/><path class="cls-9" d="M183.83,129.82v-25.6a4.83,4.83,0,0,1-3.07,1.78v25.6A5.25,5.25,0,0,0,183.83,129.82Z"/><polygon class="cls-7" points="180.76 131.6 180.76 106 166.61 97.83 166.61 123.43 180.76 131.6"/><path class="cls-7" d="M179.41,107.65l-14.15-8.17v4l11.07,6C178,109,179,108.42,179.41,107.65Z"/><path class="cls-8" d="M179.3,108.2l-13.88-8L162.34,102l14.15,8.17A4.1,4.1,0,0,0,179.3,108.2Z"/><path class="cls-9" d="M179.41,133.25v-25.6a4.86,4.86,0,0,1-3.08,1.78V135A5.25,5.25,0,0,0,179.41,133.25Z"/><polygon class="cls-7" points="176.33 135.03 176.33 109.43 162.19 101.26 162.19 126.86 176.33 135.03"/><path class="cls-10" d="M175,112.39l-14.14-8.17v4l11.08,6C173.5,113.75,174.52,113.16,175,112.39Z"/><path class="cls-8" d="M174.85,112.93l-13.89-8-3.07,1.77L172,114.86A4.12,4.12,0,0,0,174.85,112.93Z"/><path class="cls-11" d="M175,135.77V112.39a4.88,4.88,0,0,1-3.07,1.78v23.38A5.25,5.25,0,0,0,175,135.77Z"/><polygon class="cls-10" points="171.88 137.55 171.88 114.17 157.73 106 157.73 129.38 171.88 137.55"/><path class="cls-16" d="M171.22,111.44l-14.15-8.17v4l11.08,6C169.76,112.8,170.79,112.21,171.22,111.44Z"/><path class="cls-8" d="M171.11,112l-13.88-8-3.08,1.78,14.15,8.16A4,4,0,0,0,171.11,112Z"/><path class="cls-15" d="M171.22,138.11V111.44a4.9,4.9,0,0,1-3.08,1.78v26.66A5.22,5.22,0,0,0,171.22,138.11Z"/><polygon class="cls-16" points="168.14 139.88 168.14 113.22 153.99 105.05 153.99 131.71 168.14 139.88"/><path class="cls-12" d="M167.6,115.67l-13.75-7.94v5.32l9.64,5Q166.74,117.21,167.6,115.67Z"/><path class="cls-8" d="M167.45,116.4l-13.39-7.74L149.94,111,163.69,119A5.45,5.45,0,0,0,167.45,116.4Z"/><path class="cls-13" d="M167.6,140V115.67a6.59,6.59,0,0,1-4.12,2.38v24.32A7.05,7.05,0,0,0,167.6,140Z"/><polygon class="cls-14" points="163.48 142.37 163.48 118.05 149.73 110.11 149.73 134.44 163.48 142.37"/><path class="cls-5" d="M162.22,119.6l-14.15-8.17v4l11.07,6C160.76,121,161.79,120.37,162.22,119.6Z"/><path class="cls-8" d="M162.11,120.14l-13.88-8-3.08,1.78,14.15,8.16A4.07,4.07,0,0,0,162.11,120.14Z"/><path class="cls-4" d="M162.22,143V119.6a4.9,4.9,0,0,1-3.08,1.78v23.38A5.25,5.25,0,0,0,162.22,143Z"/><polygon class="cls-6" points="159.14 144.76 159.14 121.38 145 113.21 145 136.59 159.14 144.76"/><path class="cls-10" d="M158.39,119.6l-14.15-8.17v4l11.08,6C156.93,121,158,120.37,158.39,119.6Z"/><path class="cls-8" d="M158.28,120.14l-13.88-8-3.08,1.78,14.15,8.16A4.07,4.07,0,0,0,158.28,120.14Z"/><path class="cls-11" d="M158.39,145.2V119.6a4.9,4.9,0,0,1-3.08,1.78V147A5.22,5.22,0,0,0,158.39,145.2Z"/><polygon class="cls-10" points="155.31 146.97 155.31 121.38 141.16 113.21 141.16 138.81 155.31 146.97"/><path class="cls-12" d="M154,122.8l-13.75-7.94v5.31l9.64,5Q153.18,124.35,154,122.8Z"/><path class="cls-8" d="M153.89,123.53l-13.39-7.74-4.12,2.38,13.75,7.94A5.46,5.46,0,0,0,153.89,123.53Z"/><path class="cls-13" d="M154,147.13V122.8a6.48,6.48,0,0,1-4.12,2.37V149.5A7,7,0,0,0,154,147.13Z"/><polygon class="cls-14" points="149.92 149.5 149.92 125.17 136.17 117.24 136.17 141.56 149.92 149.5"/><path class="cls-7" d="M149.62,124.34l-14.15-8.17v4l11.08,6C148.16,125.7,149.18,125.11,149.62,124.34Z"/><path class="cls-8" d="M149.51,124.88l-13.89-8-3.07,1.78,14.15,8.16A4.07,4.07,0,0,0,149.51,124.88Z"/><path class="cls-9" d="M149.62,149.94v-25.6a4.93,4.93,0,0,1-3.08,1.78v25.59A5.25,5.25,0,0,0,149.62,149.94Z"/><polygon class="cls-7" points="146.54 151.71 146.54 126.12 132.39 117.95 132.39 143.55 146.54 151.71"/><path class="cls-12" d="M145.11,128.16l-13.75-7.94v5.32l9.64,5C143.16,130,144.53,129.19,145.11,128.16Z"/><path class="cls-8" d="M145,128.89l-13.39-7.73-4.12,2.37,13.75,7.94A5.45,5.45,0,0,0,145,128.89Z"/><path class="cls-13" d="M145.11,152.49V128.16a6.5,6.5,0,0,1-4.12,2.38v24.33A7,7,0,0,0,145.11,152.49Z"/><polygon class="cls-14" points="140.99 154.87 140.99 130.54 127.24 122.6 127.24 146.93 140.99 154.87"/><path class="cls-12" d="M140,132.13l-13.75-7.94v5.32l9.64,5C138,134,139.41,133.16,140,132.13Z"/><path class="cls-8" d="M139.85,132.86l-13.4-7.73-4.12,2.37,13.75,7.94A5.48,5.48,0,0,0,139.85,132.86Z"/><path class="cls-13" d="M140,156.46V132.13a6.49,6.49,0,0,1-4.12,2.38v24.33A7,7,0,0,0,140,156.46Z"/><polygon class="cls-14" points="135.87 158.84 135.87 134.51 122.13 126.57 122.13 150.9 135.87 158.84"/><polygon class="cls-4" points="220.59 87.5 131.8 138.77 131.8 135.41 220.59 84.15 220.59 87.5"/><polygon class="cls-6" points="220.59 84.15 131.8 135.41 103.14 118.86 191.93 67.6 220.59 84.15"/><polygon class="cls-5" points="131.8 138.77 103.14 122.22 103.14 118.86 131.8 135.41 131.8 138.77"/><path class="cls-5" d="M207.88,62.1l-14.14-8.17v4l11.08,6C206.43,63.46,207.45,62.87,207.88,62.1Z"/><path class="cls-8" d="M207.78,62.64l-13.89-8-3.08,1.77L205,64.57A4.12,4.12,0,0,0,207.78,62.64Z"/><path class="cls-4" d="M207.88,85.48V62.1a4.82,4.82,0,0,1-3.07,1.77V87.25A5.19,5.19,0,0,0,207.88,85.48Z"/><polygon class="cls-6" points="204.81 87.25 204.81 63.87 190.66 55.7 190.66 79.08 204.81 87.25"/><path class="cls-10" d="M204.05,62.1,189.9,53.93v4l11.07,6C202.59,63.46,203.62,62.87,204.05,62.1Z"/><path class="cls-8" d="M203.94,62.64l-13.88-8L187,56.4l14.15,8.17A4.07,4.07,0,0,0,203.94,62.64Z"/><path class="cls-11" d="M204.05,87.69V62.1A4.85,4.85,0,0,1,201,63.87v25.6A5.15,5.15,0,0,0,204.05,87.69Z"/><polygon class="cls-10" points="200.97 89.47 200.97 63.87 186.82 55.7 186.82 81.3 200.97 89.47"/><path class="cls-12" d="M199.7,65.29,186,57.36v5.31l9.65,5C197.75,67.12,199.13,66.33,199.7,65.29Z"/><path class="cls-8" d="M199.56,66l-13.4-7.73-4.11,2.38L195.8,68.6A5.48,5.48,0,0,0,199.56,66Z"/><path class="cls-13" d="M199.7,89.62V65.29a6.45,6.45,0,0,1-4.11,2.38V92A7,7,0,0,0,199.7,89.62Z"/><polygon class="cls-14" points="195.59 92 195.59 67.67 181.84 59.73 181.84 84.06 195.59 92"/><path class="cls-7" d="M195.28,66.84l-14.15-8.17v4l11.08,6C193.82,68.2,194.85,67.61,195.28,66.84Z"/><path class="cls-8" d="M195.17,67.38l-13.88-8-3.08,1.78,14.15,8.17A4.07,4.07,0,0,0,195.17,67.38Z"/><path class="cls-9" d="M195.28,92.43V66.84a4.85,4.85,0,0,1-3.08,1.77v25.6A5.18,5.18,0,0,0,195.28,92.43Z"/><polygon class="cls-7" points="192.2 94.21 192.2 68.61 178.05 60.44 178.05 86.04 192.2 94.21"/><path class="cls-12" d="M191.63,70.55l-13.74-7.93,0,5.31,9.65,5C189.68,72.38,191.06,71.59,191.63,70.55Z"/><path class="cls-8" d="M191.49,71.28l-13.4-7.73L174,65.93l13.75,7.93A5.48,5.48,0,0,0,191.49,71.28Z"/><path class="cls-13" d="M191.63,94.88V70.55a6.45,6.45,0,0,1-4.11,2.38V97.26A7,7,0,0,0,191.63,94.88Z"/><polygon class="cls-14" points="187.52 97.26 187.52 72.93 173.77 64.99 173.77 89.32 187.52 97.26"/><path class="cls-5" d="M186.64,74.69l-14.15-8.17v4l11.07,6C185.18,76.05,186.21,75.46,186.64,74.69Z"/><path class="cls-8" d="M186.53,75.23l-13.88-8L169.57,69l14.15,8.17A4.07,4.07,0,0,0,186.53,75.23Z"/><path class="cls-4" d="M186.64,98.07V74.69a4.9,4.9,0,0,1-3.08,1.78V99.85A5.25,5.25,0,0,0,186.64,98.07Z"/><polygon class="cls-6" points="183.56 99.85 183.56 76.47 169.42 68.3 169.42 91.68 183.56 99.85"/><path class="cls-10" d="M182.81,74.69l-14.15-8.17v4l11.08,6C181.35,76.05,182.38,75.46,182.81,74.69Z"/><path class="cls-8" d="M182.7,75.23l-13.88-8L165.74,69l14.15,8.17A4.07,4.07,0,0,0,182.7,75.23Z"/><path class="cls-11" d="M182.81,100.29V74.69a4.9,4.9,0,0,1-3.08,1.78v25.59A5.22,5.22,0,0,0,182.81,100.29Z"/><polygon class="cls-10" points="179.73 102.06 179.73 76.47 165.58 68.3 165.58 93.89 179.73 102.06"/><path class="cls-12" d="M178.46,77.89,164.71,70v5.31l9.64,5Q177.59,79.43,178.46,77.89Z"/><path class="cls-8" d="M178.32,78.61l-13.4-7.73-4.11,2.38,13.74,7.94A5.48,5.48,0,0,0,178.32,78.61Z"/><path class="cls-13" d="M178.46,102.21V77.89a6.48,6.48,0,0,1-4.12,2.37v24.33A6.94,6.94,0,0,0,178.46,102.21Z"/><polygon class="cls-14" points="174.34 104.59 174.34 80.26 160.6 72.33 160.6 96.65 174.34 104.59"/><path class="cls-7" d="M174,79.43l-14.15-8.17v4l11.08,6C172.58,80.79,173.61,80.2,174,79.43Z"/><path class="cls-8" d="M173.93,80l-13.88-8L157,73.73l14.15,8.17A4.07,4.07,0,0,0,173.93,80Z"/><path class="cls-9" d="M174,105V79.43A4.9,4.9,0,0,1,171,81.21V106.8A5.22,5.22,0,0,0,174,105Z"/><polygon class="cls-7" points="170.96 106.8 170.96 81.2 156.81 73.04 156.81 98.64 170.96 106.8"/><path class="cls-7" d="M170.05,82.11,155.9,73.94v4l11.08,6C168.6,83.47,169.62,82.88,170.05,82.11Z"/><path class="cls-8" d="M169.94,82.65l-13.88-8L153,76.41l14.15,8.17A4.07,4.07,0,0,0,169.94,82.65Z"/><path class="cls-9" d="M170.05,107.71V82.11A4.85,4.85,0,0,1,167,83.88v25.6A5.19,5.19,0,0,0,170.05,107.71Z"/><polygon class="cls-7" points="166.97 109.48 166.97 83.89 152.83 75.72 152.83 101.31 166.97 109.48"/><path class="cls-7" d="M166.05,84.54,151.9,76.37v4l11.08,6C164.6,85.91,165.62,85.31,166.05,84.54Z"/><path class="cls-8" d="M165.94,85.09l-13.88-8L149,78.85,163.13,87A4.1,4.1,0,0,0,165.94,85.09Z"/><path class="cls-9" d="M166.05,110.14V84.54A4.83,4.83,0,0,1,163,86.32v25.6A5.25,5.25,0,0,0,166.05,110.14Z"/><polygon class="cls-7" points="162.97 111.92 162.97 86.32 148.83 78.15 148.83 103.75 162.97 111.92"/><path class="cls-5" d="M162.3,88.83l-14.15-8.16v4l11.07,6C160.84,90.2,161.87,89.61,162.3,88.83Z"/><path class="cls-8" d="M162.19,89.38l-13.88-8-3.08,1.78,14.15,8.17A4.07,4.07,0,0,0,162.19,89.38Z"/><path class="cls-4" d="M162.3,112.21V88.83a4.82,4.82,0,0,1-3.08,1.78V114A5.15,5.15,0,0,0,162.3,112.21Z"/><polygon class="cls-6" points="159.22 113.99 159.22 90.61 145.08 82.44 145.08 105.82 159.22 113.99"/><path class="cls-10" d="M158.47,88.83l-14.15-8.16v4l11.08,6C157,90.2,158,89.61,158.47,88.83Z"/><path class="cls-8" d="M158.36,89.38l-13.88-8-3.08,1.78,14.15,8.17A4.07,4.07,0,0,0,158.36,89.38Z"/><path class="cls-11" d="M158.47,114.43V88.83a4.82,4.82,0,0,1-3.08,1.78v25.6A5.23,5.23,0,0,0,158.47,114.43Z"/><polygon class="cls-10" points="155.39 116.21 155.39 90.61 141.24 82.44 141.24 108.04 155.39 116.21"/><path class="cls-7" d="M154.32,91.1l-14.15-8.17v4l11.08,6C152.86,92.47,153.89,91.87,154.32,91.1Z"/><path class="cls-8" d="M154.21,91.65l-13.88-8-3.08,1.78,14.15,8.17A4.1,4.1,0,0,0,154.21,91.65Z"/><path class="cls-9" d="M154.32,116.7V91.1a4.86,4.86,0,0,1-3.08,1.78v25.6A5.28,5.28,0,0,0,154.32,116.7Z"/><polygon class="cls-7" points="151.24 118.48 151.24 92.88 137.09 84.71 137.09 110.31 151.24 118.48"/><path class="cls-10" d="M148.77,94.44l-14.14-8.17v4l11.08,6C147.32,95.8,148.34,95.21,148.77,94.44Z"/><path class="cls-8" d="M148.67,95l-13.89-8-3.07,1.77,14.14,8.17A4.12,4.12,0,0,0,148.67,95Z"/><path class="cls-11" d="M148.77,120V94.44a4.82,4.82,0,0,1-3.07,1.77v25.6A5.19,5.19,0,0,0,148.77,120Z"/><polygon class="cls-10" points="145.7 121.81 145.7 96.21 131.55 88.05 131.55 113.64 145.7 121.81"/><path class="cls-15" d="M145,94.42,128.84,85.1V90l12.35,6.61C143.19,96.09,144.45,95.37,145,94.42Z"/><path class="cls-8" d="M144.85,95.09,129,86l-3.79,2.19,16.13,9.31A5,5,0,0,0,144.85,95.09Z"/><path class="cls-15" d="M145,122.48V94.42a6,6,0,0,1-3.79,2.18v28.07A6.42,6.42,0,0,0,145,122.48Z"/><polygon class="cls-16" points="141.19 124.67 141.19 96.6 125.05 87.29 125.05 115.36 141.19 124.67"/><path class="cls-15" d="M140.67,96.78l-16.14-9.32v4.9L136.87,99C138.87,98.46,140.13,97.73,140.67,96.78Z"/><path class="cls-8" d="M140.53,97.45l-15.81-9.13-3.79,2.19,16.14,9.32A5,5,0,0,0,140.53,97.45Z"/><path class="cls-15" d="M140.67,124.85V96.78a6,6,0,0,1-3.8,2.19V127A6.48,6.48,0,0,0,140.67,124.85Z"/><polygon class="cls-16" points="136.87 127.04 136.87 98.97 120.74 89.65 120.74 117.72 136.87 127.04"/><polygon class="cls-4" points="220.59 55.28 131.8 106.54 131.8 103.19 220.59 51.92 220.59 55.28"/><polygon class="cls-6" points="220.59 51.92 131.8 103.19 103.14 86.64 191.93 35.38 220.59 51.92"/><polygon class="cls-5" points="131.8 106.54 103.14 90 103.14 86.64 131.8 103.19 131.8 106.54"/><path class="cls-5" d="M206.37,31.92l-14.15-8.17v4l11.08,6C204.91,33.29,205.94,32.69,206.37,31.92Z"/><path class="cls-8" d="M206.26,32.47l-13.88-8-3.08,1.78,14.15,8.17A4.1,4.1,0,0,0,206.26,32.47Z"/><path class="cls-4" d="M206.37,55.3V31.92a4.86,4.86,0,0,1-3.08,1.78V57.08A5.23,5.23,0,0,0,206.37,55.3Z"/><polygon class="cls-6" points="203.29 57.08 203.29 33.7 189.14 25.53 189.14 48.91 203.29 57.08"/><path class="cls-10" d="M202.54,31.92l-14.15-8.17v4l11.08,6C201.08,33.29,202.11,32.69,202.54,31.92Z"/><path class="cls-8" d="M202.43,32.47l-13.88-8-3.08,1.78,14.15,8.17A4.1,4.1,0,0,0,202.43,32.47Z"/><path class="cls-11" d="M202.54,57.52V31.92a4.86,4.86,0,0,1-3.08,1.78V59.3A5.28,5.28,0,0,0,202.54,57.52Z"/><polygon class="cls-10" points="199.46 59.3 199.46 33.7 185.31 25.53 185.31 51.13 199.46 59.3"/><path class="cls-7" d="M198.39,34.19,184.24,26v4l11.08,6C196.93,35.55,198,35,198.39,34.19Z"/><path class="cls-8" d="M198.28,34.73l-13.89-8-3.07,1.78,14.14,8.16A4.12,4.12,0,0,0,198.28,34.73Z"/><path class="cls-9" d="M198.39,59.79V34.19A4.93,4.93,0,0,1,195.31,36V61.56A5.25,5.25,0,0,0,198.39,59.79Z"/><polygon class="cls-7" points="195.31 61.56 195.31 35.97 181.16 27.8 181.16 53.4 195.31 61.56"/><path class="cls-10" d="M189.09,37.05,174.7,29.63l.58,3.95L186.48,39C187.93,38.47,188.8,37.84,189.09,37.05Z"/><path class="cls-8" d="M189.07,37.59,175,30.32l-2.61,1.92,14.39,7.41A3.38,3.38,0,0,0,189.07,37.59Z"/><path class="cls-11" d="M192.84,62.48l-3.75-25.43A4,4,0,0,1,186.48,39l3.75,25.42A4.29,4.29,0,0,0,192.84,62.48Z"/><polygon class="cls-10" points="190.23 64.39 186.48 38.97 172.09 31.55 175.84 56.98 190.23 64.39"/><path class="cls-12" d="M184.17,43.83l-13.75-7.94V41.2l9.65,5C182.22,45.65,183.6,44.86,184.17,43.83Z"/><path class="cls-8" d="M184,44.56l-13.4-7.74-4.11,2.38,13.75,7.94A5.51,5.51,0,0,0,184,44.56Z"/><path class="cls-13" d="M184.17,68.16V43.83a6.48,6.48,0,0,1-4.11,2.37V70.53A7,7,0,0,0,184.17,68.16Z"/><polygon class="cls-14" points="180.06 70.53 180.06 46.2 166.31 38.27 166.31 62.59 180.06 70.53"/><path class="cls-7" d="M179.19,45.16,165.05,37v4l11.08,6C177.74,46.52,178.76,45.93,179.19,45.16Z"/><path class="cls-8" d="M179.09,45.7l-13.89-8-3.08,1.77,14.15,8.17A4.12,4.12,0,0,0,179.09,45.7Z"/><path class="cls-9" d="M179.19,70.76V45.16a4.82,4.82,0,0,1-3.07,1.77v25.6A5.19,5.19,0,0,0,179.19,70.76Z"/><polygon class="cls-7" points="176.12 72.53 176.12 46.93 161.97 38.77 161.97 64.36 176.12 72.53"/><path class="cls-7" d="M175.74,47.13,161.59,39v4l11.08,6C174.28,48.49,175.31,47.9,175.74,47.13Z"/><path class="cls-8" d="M175.63,47.67l-13.88-8-3.08,1.77,14.15,8.17A4.07,4.07,0,0,0,175.63,47.67Z"/><path class="cls-9" d="M175.74,72.73V47.13a4.9,4.9,0,0,1-3.08,1.78V74.5A5.22,5.22,0,0,0,175.74,72.73Z"/><polygon class="cls-7" points="172.66 74.5 172.66 48.91 158.51 40.74 158.51 66.33 172.66 74.5"/><path class="cls-7" d="M172.12,49.16,158,41v4l11.08,6C170.66,50.52,171.69,49.93,172.12,49.16Z"/><path class="cls-8" d="M172,49.7l-13.88-8-3.08,1.77,14.15,8.17A4.07,4.07,0,0,0,172,49.7Z"/><path class="cls-9" d="M172.12,74.75V49.16A4.85,4.85,0,0,1,169,50.93v25.6A5.18,5.18,0,0,0,172.12,74.75Z"/><polygon class="cls-7" points="169.04 76.53 169.04 50.93 154.89 42.77 154.89 68.36 169.04 76.53"/><path class="cls-10" d="M168.28,51.73l-14.15-8.17v4l11.08,6C166.82,53.09,167.85,52.5,168.28,51.73Z"/><path class="cls-8" d="M168.17,52.27l-13.88-8L151.21,46l14.15,8.17A4.07,4.07,0,0,0,168.17,52.27Z"/><path class="cls-11" d="M168.28,77.33V51.73a4.9,4.9,0,0,1-3.08,1.78v25.6A5.28,5.28,0,0,0,168.28,77.33Z"/><polygon class="cls-10" points="165.2 79.11 165.2 53.51 151.05 45.34 151.05 70.94 165.2 79.11"/><path class="cls-10" d="M164.31,55.71l-14.15-8.17v4l11.08,6C162.85,57.07,163.88,56.48,164.31,55.71Z"/><path class="cls-8" d="M164.2,56.25l-13.88-8L147.24,50l14.15,8.16A4.07,4.07,0,0,0,164.2,56.25Z"/><path class="cls-11" d="M164.31,79.09V55.71a4.9,4.9,0,0,1-3.08,1.78V80.87A5.25,5.25,0,0,0,164.31,79.09Z"/><polygon class="cls-10" points="161.23 80.87 161.23 57.49 147.09 49.32 147.09 72.7 161.23 80.87"/><path class="cls-7" d="M160.57,54.76l-14.14-8.17v4l11.08,6C159.12,56.12,160.14,55.53,160.57,54.76Z"/><path class="cls-8" d="M160.47,55.3l-13.89-8-3.08,1.78,14.15,8.17A4.12,4.12,0,0,0,160.47,55.3Z"/><path class="cls-7" d="M160.57,81.43V54.76a4.88,4.88,0,0,1-3.07,1.78V83.2A5.19,5.19,0,0,0,160.57,81.43Z"/><polygon class="cls-9" points="157.5 83.2 157.5 56.54 143.35 48.37 143.35 75.03 157.5 83.2"/><path class="cls-12" d="M157,59,143.2,51.05v5.32l9.64,5Q156.08,60.53,157,59Z"/><path class="cls-8" d="M156.81,59.72,143.41,52l-4.11,2.38L153,62.3A5.48,5.48,0,0,0,156.81,59.72Z"/><path class="cls-13" d="M157,83.32V59a6.53,6.53,0,0,1-4.12,2.38V85.69A7,7,0,0,0,157,83.32Z"/><polygon class="cls-14" points="152.84 85.69 152.84 61.37 139.09 53.43 139.09 77.76 152.84 85.69"/><path class="cls-5" d="M152,63.12,137.81,55v4l11.07,6C150.5,64.49,151.53,63.89,152,63.12Z"/><path class="cls-8" d="M151.85,63.67l-13.88-8-3.08,1.78L149,65.6A4.1,4.1,0,0,0,151.85,63.67Z"/><path class="cls-4" d="M152,86.5V63.12a4.82,4.82,0,0,1-3.08,1.78V88.28A5.2,5.2,0,0,0,152,86.5Z"/><polygon class="cls-6" points="148.88 88.28 148.88 64.9 134.74 56.73 134.74 80.11 148.88 88.28"/><path class="cls-10" d="M148.13,63.12,134,55v4l11.08,6C146.67,64.49,147.7,63.89,148.13,63.12Z"/><path class="cls-8" d="M148,63.67l-13.88-8-3.08,1.78,14.15,8.17A4.1,4.1,0,0,0,148,63.67Z"/><path class="cls-11" d="M148.13,88.72V63.12a4.82,4.82,0,0,1-3.08,1.78V90.5A5.28,5.28,0,0,0,148.13,88.72Z"/><polygon class="cls-10" points="145.05 90.5 145.05 64.9 130.9 56.73 130.9 82.33 145.05 90.5"/><path class="cls-7" d="M144,65.39l-14.15-8.17v4l11.08,6C142.52,66.75,143.54,66.16,144,65.39Z"/><path class="cls-8" d="M143.87,65.93l-13.89-8-3.07,1.78,14.14,8.16A4.06,4.06,0,0,0,143.87,65.93Z"/><path class="cls-9" d="M144,91V65.39a4.93,4.93,0,0,1-3.08,1.78v25.6A5.31,5.31,0,0,0,144,91Z"/><polygon class="cls-7" points="140.9 92.77 140.9 67.17 126.75 59 126.75 84.6 140.9 92.77"/><path class="cls-15" d="M140.14,64.9,124,55.58v4.9l12.36,6.61C138.34,66.58,139.61,65.85,140.14,64.9Z"/><path class="cls-8" d="M140,65.57,124.2,56.44l-3.79,2.19L136.54,68A5.06,5.06,0,0,0,140,65.57Z"/><path class="cls-15" d="M140.14,93V64.9a6,6,0,0,1-3.79,2.19V95.16A6.42,6.42,0,0,0,140.14,93Z"/><polygon class="cls-16" points="136.35 95.16 136.35 67.09 120.21 57.77 120.21 85.84 136.35 95.16"/><polygon class="cls-4" points="134.71 230.51 134.71 72.64 131.8 74.32 131.8 232.19 134.71 230.51"/><polygon class="cls-5" points="131.8 232.19 131.8 74.32 103.14 57.78 103.14 215.65 131.8 232.19"/><polygon class="cls-6" points="134.71 72.64 106.05 56.1 103.14 57.78 131.8 74.32 134.71 72.64"/><polygon class="cls-4" points="220.59 23.06 131.8 74.32 131.8 70.96 220.59 19.7 220.59 23.06"/><polygon class="cls-6" points="220.59 19.7 131.8 70.96 103.14 54.42 191.93 3.15 220.59 19.7"/><polygon class="cls-5" points="131.8 74.32 103.14 57.78 103.14 54.42 131.8 70.96 131.8 74.32"/><path class="cls-5" d="M280.89,160.14v2.6c0,2.91,1.92,5.82,5.77,8,7.69,4.45,20.17,4.45,27.86,0,3.85-2.22,5.78-5.13,5.78-8v-2.6Z"/><ellipse class="cls-6" cx="300.59" cy="160.14" rx="19.7" ry="11.38"/><path class="cls-5" d="M295.14,156.46v2.13a2.73,2.73,0,0,0,1.6,2.23,8.56,8.56,0,0,0,7.7,0,2.71,2.71,0,0,0,1.6-2.23v-2.13Z"/><path class="cls-4" d="M304.44,154.23c2.13,1.23,2.13,3.22,0,4.45a8.5,8.5,0,0,1-7.7,0c-2.13-1.23-2.13-3.22,0-4.45A8.56,8.56,0,0,1,304.44,154.23Z"/><path class="cls-5" d="M298.46,40.78V155.23a1.07,1.07,0,0,0,.62.87,3.35,3.35,0,0,0,3,0,1.07,1.07,0,0,0,.62-.87V40.78Z"/><path class="cls-6" d="M302.1,39.91a.92.92,0,0,1,0,1.74,3.35,3.35,0,0,1-3,0,.92.92,0,0,1,0-1.74A3.35,3.35,0,0,1,302.1,39.91Z"/><path class="cls-17" d="M277.84,53.89a.28.28,0,0,1-.28-.27v-6a.29.29,0,0,1,.28-.28.28.28,0,0,1,.27.28v6A.27.27,0,0,1,277.84,53.89Z"/><path class="cls-17" d="M278.15,55.08a.27.27,0,0,1-.27-.28v-6a.27.27,0,0,1,.27-.27.28.28,0,0,1,.28.27v6A.28.28,0,0,1,278.15,55.08Z"/><path class="cls-17" d="M278.65,56.25a.28.28,0,0,1-.28-.28v-6a.28.28,0,0,1,.55,0v6A.28.28,0,0,1,278.65,56.25Z"/><path class="cls-17" d="M279.32,57.39a.27.27,0,0,1-.27-.28v-6a.28.28,0,0,1,.55,0v6A.27.27,0,0,1,279.32,57.39Z"/><path class="cls-17" d="M280.19,58.5a.27.27,0,0,1-.28-.28v-6a.28.28,0,0,1,.55,0v6A.27.27,0,0,1,280.19,58.5Z"/><path class="cls-17" d="M281.23,59.57a.27.27,0,0,1-.27-.27v-6a.27.27,0,0,1,.27-.27.28.28,0,0,1,.28.27v6A.28.28,0,0,1,281.23,59.57Z"/><path class="cls-17" d="M282.46,60.59a.28.28,0,0,1-.28-.27v-6a.28.28,0,0,1,.28-.28.27.27,0,0,1,.27.28v6A.27.27,0,0,1,282.46,60.59Z"/><path class="cls-17" d="M283.87,61.56a.28.28,0,0,1-.27-.28v-6a.27.27,0,0,1,.27-.27.28.28,0,0,1,.28.27v6A.29.29,0,0,1,283.87,61.56Z"/><path class="cls-17" d="M285.15,62.29a.27.27,0,0,1-.27-.27V56a.28.28,0,0,1,.27-.28.29.29,0,0,1,.28.28v6A.28.28,0,0,1,285.15,62.29Z"/><path class="cls-17" d="M286.34,62.89a.28.28,0,0,1-.27-.28v-6a.27.27,0,0,1,.27-.27.28.28,0,0,1,.28.27v6A.29.29,0,0,1,286.34,62.89Z"/><path class="cls-17" d="M287.58,63.42a.27.27,0,0,1-.27-.27v-6a.28.28,0,1,1,.55,0v6A.27.27,0,0,1,287.58,63.42Z"/><path class="cls-17" d="M288.87,63.91a.28.28,0,0,1-.27-.28v-6a.27.27,0,0,1,.27-.27.28.28,0,0,1,.28.27v6A.29.29,0,0,1,288.87,63.91Z"/><path class="cls-17" d="M290.2,64.33a.28.28,0,0,1-.28-.27V58a.29.29,0,0,1,.28-.28.28.28,0,0,1,.27.28v6A.27.27,0,0,1,290.2,64.33Z"/><path class="cls-17" d="M291.56,64.7a.27.27,0,0,1-.27-.27v-6a.28.28,0,0,1,.27-.28.29.29,0,0,1,.28.28v6A.28.28,0,0,1,291.56,64.7Z"/><path class="cls-17" d="M293,65a.27.27,0,0,1-.28-.27v-6a.28.28,0,1,1,.55,0v6A.27.27,0,0,1,293,65Z"/><path class="cls-17" d="M294.38,65.28a.28.28,0,0,1-.28-.27V59a.29.29,0,0,1,.28-.28.28.28,0,0,1,.27.28v6A.27.27,0,0,1,294.38,65.28Z"/><path class="cls-17" d="M295.82,65.49a.28.28,0,0,1-.28-.28v-6a.28.28,0,0,1,.28-.27.27.27,0,0,1,.27.27v6A.27.27,0,0,1,295.82,65.49Z"/><path class="cls-17" d="M297.28,65.64a.27.27,0,0,1-.28-.27v-6a.28.28,0,1,1,.55,0v6A.27.27,0,0,1,297.28,65.64Z"/><path class="cls-17" d="M298.74,65.74a.28.28,0,0,1-.27-.28v-6a.28.28,0,0,1,.55,0v6A.28.28,0,0,1,298.74,65.74Z"/><path class="cls-17" d="M300.22,65.78a.29.29,0,0,1-.28-.28v-6a.28.28,0,0,1,.28-.27.27.27,0,0,1,.27.27v6A.28.28,0,0,1,300.22,65.78Z"/><path class="cls-17" d="M301.69,65.76a.27.27,0,0,1-.27-.27v-6a.28.28,0,1,1,.55,0v6A.27.27,0,0,1,301.69,65.76Z"/><path class="cls-17" d="M303.17,65.69a.27.27,0,0,1-.28-.27v-6a.28.28,0,1,1,.55,0v6A.27.27,0,0,1,303.17,65.69Z"/><path class="cls-17" d="M304.63,65.57a.27.27,0,0,1-.27-.28v-6a.27.27,0,0,1,.27-.27.28.28,0,0,1,.28.27v6A.28.28,0,0,1,304.63,65.57Z"/><path class="cls-17" d="M306.08,65.39a.28.28,0,0,1-.28-.27V59.07a.28.28,0,0,1,.28-.27.27.27,0,0,1,.27.27v6.05A.27.27,0,0,1,306.08,65.39Z"/><path class="cls-17" d="M307.51,65.16a.28.28,0,0,1-.27-.28v-6a.27.27,0,0,1,.27-.27.28.28,0,0,1,.28.27v6A.29.29,0,0,1,307.51,65.16Z"/><path class="cls-17" d="M308.92,64.87a.29.29,0,0,1-.28-.28v-6a.28.28,0,0,1,.28-.27.27.27,0,0,1,.27.27v6A.28.28,0,0,1,308.92,64.87Z"/><path class="cls-17" d="M310.3,64.52a.28.28,0,0,1-.28-.27v-6a.28.28,0,0,1,.28-.27.27.27,0,0,1,.27.27v6A.27.27,0,0,1,310.3,64.52Z"/><path class="cls-17" d="M311.64,64.12a.27.27,0,0,1-.27-.27V57.8a.28.28,0,0,1,.55,0v6.05A.27.27,0,0,1,311.64,64.12Z"/><path class="cls-17" d="M313,63.66a.27.27,0,0,1-.27-.27v-6a.28.28,0,0,1,.27-.28.29.29,0,0,1,.28.28v6A.28.28,0,0,1,313,63.66Z"/><path class="cls-17" d="M314.21,63.15a.27.27,0,0,1-.27-.27v-6a.28.28,0,1,1,.55,0v6A.27.27,0,0,1,314.21,63.15Z"/><path class="cls-17" d="M315.43,62.59a.27.27,0,0,1-.27-.28v-6a.27.27,0,0,1,.27-.27.28.28,0,0,1,.28.27v6A.28.28,0,0,1,315.43,62.59Z"/><path class="cls-17" d="M316.59,62a.28.28,0,0,1-.27-.28v-6a.28.28,0,0,1,.55,0v6A.28.28,0,0,1,316.59,62Z"/><path class="cls-17" d="M318.05,61.06a.28.28,0,0,1-.28-.28v-6a.28.28,0,0,1,.55,0v6A.28.28,0,0,1,318.05,61.06Z"/><path class="cls-17" d="M319.37,60.05a.27.27,0,0,1-.27-.27V53.73a.28.28,0,0,1,.55,0v6.05A.27.27,0,0,1,319.37,60.05Z"/><path class="cls-17" d="M320.52,59a.27.27,0,0,1-.28-.28v-6a.28.28,0,0,1,.55,0v6A.27.27,0,0,1,320.52,59Z"/><path class="cls-17" d="M321.47,57.88a.27.27,0,0,1-.27-.27v-6a.28.28,0,0,1,.27-.28.29.29,0,0,1,.28.28v6A.28.28,0,0,1,321.47,57.88Z"/><path class="cls-17" d="M322.24,56.74a.28.28,0,0,1-.28-.27v-6a.28.28,0,0,1,.28-.28.27.27,0,0,1,.27.28v6A.27.27,0,0,1,322.24,56.74Z"/><path class="cls-17" d="M322.82,55.57a.28.28,0,0,1-.28-.27v-6a.28.28,0,0,1,.28-.27.27.27,0,0,1,.27.27v6A.27.27,0,0,1,322.82,55.57Z"/><path class="cls-17" d="M323.21,54.38a.28.28,0,0,1-.28-.28v-6a.28.28,0,0,1,.28-.27.27.27,0,0,1,.27.27v6A.27.27,0,0,1,323.21,54.38Z"/><path class="cls-17" d="M323.41,53.17a.27.27,0,0,1-.27-.27v-6a.28.28,0,1,1,.55,0v6A.27.27,0,0,1,323.41,53.17Z"/><path class="cls-15" d="M316.9,56.38c-9,5.21-23.63,5.21-32.65,0-4.49-2.61-6.76-6-6.76-9.42a8.16,8.16,0,0,1,.52-2.81l.64-1.71,8.42-22.7h27l8.16,22s.91,2.46.91,2.46C324.73,48.43,322.65,53.05,316.9,56.38Z"/><path class="cls-18" d="M315.79,54.47a33.12,33.12,0,0,1-15.21,3.62,30.89,30.89,0,0,1-15.22-3.62c-4.63-2.65-8-8.63-6.71-12l8.42-22.7h27l8.16,22C323.51,45.12,322.24,51.08,315.79,54.47Z"/><path class="cls-19" d="M310.34,27.06a16.19,16.19,0,0,1-3,1.31,23,23,0,0,1-13.56,0,16.39,16.39,0,0,1-3-1.31c-5.39-3.11-5.39-8.16,0-11.28s14.14-3.11,19.53,0S315.73,24,310.34,27.06Z"/><path class="cls-20" d="M307.35,28.37a23,23,0,0,1-13.56,0,5,5,0,0,1,1.89-2.6,8.58,8.58,0,0,1,9.8,0A5,5,0,0,1,307.35,28.37Z"/><path d="M370.81,164l0,12.84a1.64,1.64,0,0,0,1,1.35,5.18,5.18,0,0,0,4.71,0,1.67,1.67,0,0,0,1-1.37l0-12.84a1.64,1.64,0,0,0-1-1.35,5.15,5.15,0,0,0-4.71,0,1.6,1.6,0,0,0-1,1.46S370.81,164.07,370.81,164Z"/><path d="M399.36,147.32l0,12.84a1.63,1.63,0,0,0,1,1.35,5.16,5.16,0,0,0,4.7,0,1.65,1.65,0,0,0,1-1.37l0-12.84a1.65,1.65,0,0,0-1-1.35,5.13,5.13,0,0,0-4.7,0,1.61,1.61,0,0,0-1,1.46S399.36,147.35,399.36,147.32Z"/><path d="M345.73,145.78a1.61,1.61,0,0,0-1-1.46,5.18,5.18,0,0,0-4.71,0,1.64,1.64,0,0,0-1,1.35l0,12.84a1.66,1.66,0,0,0,1,1.37,5.13,5.13,0,0,0,4.7,0,1.63,1.63,0,0,0,1-1.35l0-12.84S345.73,145.75,345.73,145.78Z"/><polygon class="cls-5" points="374.52 129.67 374.52 176.07 407.69 156.93 407.69 110.52 374.52 129.67"/><polygon class="cls-6" points="407.69 110.52 374.52 129.67 337.74 108.43 370.9 89.28 407.69 110.52"/><polygon class="cls-4" points="337.74 108.43 337.74 154.84 374.52 176.07 374.52 129.67 337.74 108.43"/><polygon class="cls-5" points="356.43 122.52 371.67 131.32 371.67 171.13 356.43 162.33 356.43 122.52"/><polygon class="cls-5" points="354.85 121.61 354.85 161.42 340.6 153.19 340.6 113.38 354.85 121.61"/><polygon class="cls-21" points="337.74 109.41 337.74 119.03 374.52 140.26 374.69 140.35 407.69 121.31 407.69 111.68 374.69 130.73 374.52 130.64 337.74 109.41"/><polygon class="cls-5" points="410.8 112.48 374.68 133.33 374.68 129.59 410.8 108.74 410.8 112.48"/><polygon class="cls-6" points="410.8 108.74 374.68 129.59 334.63 106.47 370.74 85.62 410.8 108.74"/><polygon class="cls-4" points="374.68 133.33 334.63 110.21 334.63 106.47 374.68 129.59 374.68 133.33"/><g class="cls-1"><path class="cls-6" d="M357.05,142a.66.66,0,0,1,.64.06,2,2,0,0,1,.89,1.54.64.64,0,0,1-.26.57l-1.43.84a.62.62,0,0,0,.26-.57,2,2,0,0,0-.89-1.54.61.61,0,0,0-.63-.06Z"/><path class="cls-4" d="M356.26,142.93c-.49-.28-.89-.06-.89.51a2,2,0,0,0,.89,1.54c.49.28.89.05.89-.51A2,2,0,0,0,356.26,142.93Z"/></g><g class="cls-1"><path class="cls-6" d="M352.64,139.26a.59.59,0,0,1,.63.06,1.93,1.93,0,0,1,.89,1.53.64.64,0,0,1-.26.58l-1.42.83a.62.62,0,0,0,.26-.57,2,2,0,0,0-.89-1.53.62.62,0,0,0-.63-.07Z"/><path class="cls-4" d="M351.85,140.16c-.49-.29-.89-.06-.89.5a1.92,1.92,0,0,0,.88,1.54c.5.29.9.06.9-.51A2,2,0,0,0,351.85,140.16Z"/></g><path d="M143.37,219.82a2.35,2.35,0,0,0-1.42-2.14,7.59,7.59,0,0,0-6.87,0,2.42,2.42,0,0,0-1.41,2l0,18.75a2.42,2.42,0,0,0,1.43,2,7.56,7.56,0,0,0,6.87,0,2.41,2.41,0,0,0,1.41-2l.06-18.75A.59.59,0,0,1,143.37,219.82Z"/><path d="M194.86,249.89a2.37,2.37,0,0,0-1.43-2.14,7.56,7.56,0,0,0-6.87,0,2.42,2.42,0,0,0-1.41,2l-.05,18.75a2.44,2.44,0,0,0,1.43,2,7.56,7.56,0,0,0,6.87,0,2.44,2.44,0,0,0,1.42-2l.05-18.75S194.86,249.85,194.86,249.89Z"/><path d="M221.71,228.6l0,18.76a2.41,2.41,0,0,0,1.41,2,7.59,7.59,0,0,0,6.87,0,2.45,2.45,0,0,0,1.44-2l-.06-18.75a2.42,2.42,0,0,0-1.41-2,7.56,7.56,0,0,0-6.87,0,2.34,2.34,0,0,0-1.42,2.14A.61.61,0,0,1,221.71,228.6Z"/><polygon class="cls-5" points="189.45 199.56 189.45 267.34 131.23 233.72 131.23 165.94 189.45 199.56"/><polygon class="cls-6" points="131.23 165.95 189.45 199.56 233.39 174.19 175.17 140.58 131.23 165.95"/><polygon class="cls-4" points="233.39 174.19 233.39 241.97 189.45 267.34 189.45 199.56 233.39 174.19"/><polygon class="cls-5" points="192.67 261.75 230.16 240.11 230.16 226.74 192.67 248.38 192.67 261.75"/><polygon class="cls-5" points="192.67 233.05 192.67 246.51 230.16 224.88 230.16 211.41 192.67 233.05"/><polygon class="cls-5" points="230.16 196.08 192.67 217.72 192.67 231.19 230.16 209.54 230.16 196.08"/><polygon class="cls-5" points="230.16 179.78 192.67 201.42 192.67 215.85 230.16 194.22 230.16 179.78"/><g class="cls-1"><path class="cls-6" d="M212.89,192.65a.9.9,0,0,0-.92.09,2.85,2.85,0,0,0-1.3,2.24.93.93,0,0,0,.38.84l2.08,1.22a.94.94,0,0,1-.38-.83,2.87,2.87,0,0,1,1.3-2.25.92.92,0,0,1,.93-.09Z"/><path class="cls-4" d="M214.05,194c.72-.41,1.3-.08,1.3.74a2.84,2.84,0,0,1-1.29,2.25c-.72.41-1.3.08-1.31-.74A2.87,2.87,0,0,1,214.05,194Z"/></g><polygon class="cls-5" points="305.56 132.52 305.56 205.76 247.34 172.14 247.34 98.91 305.56 132.52"/><polygon class="cls-4" points="308.85 130.63 308.85 203.86 305.56 205.76 305.56 132.52 308.85 130.63"/><polygon class="cls-21" points="233.39 175.61 233.39 189.67 189.45 215.03 189.21 215.17 131.23 181.7 131.23 167.64 189.21 201.11 189.45 200.97 233.39 175.61"/><polygon class="cls-5" points="126.68 168.81 189.21 204.91 189.21 201.06 126.68 164.96 126.68 168.81"/><polygon class="cls-6" points="126.68 164.96 189.21 201.06 313.69 129.19 251.16 93.09 126.68 164.96"/><polygon class="cls-4" points="189.21 204.91 313.69 133.04 313.69 129.19 189.21 201.06 189.21 204.91"/><g class="cls-1"><path class="cls-6" d="M212.89,239.05a.9.9,0,0,0-.92.09,2.85,2.85,0,0,0-1.3,2.24.93.93,0,0,0,.38.84l2.08,1.22a.92.92,0,0,1-.38-.83,2.87,2.87,0,0,1,1.3-2.25.92.92,0,0,1,.93-.09Z"/><path class="cls-4" d="M214.05,240.36c.72-.41,1.3-.08,1.3.75a2.82,2.82,0,0,1-1.29,2.24c-.72.42-1.3.08-1.31-.74A2.87,2.87,0,0,1,214.05,240.36Z"/></g><g class="cls-1"><path class="cls-6" d="M212.89,223.58a.9.9,0,0,0-.92.09,2.87,2.87,0,0,0-1.3,2.25.91.91,0,0,0,.38.83l2.08,1.22a.92.92,0,0,1-.38-.83,2.85,2.85,0,0,1,1.3-2.24,1,1,0,0,1,.93-.1Z"/><path class="cls-4" d="M214.05,224.9c.72-.42,1.3-.09,1.3.74a2.82,2.82,0,0,1-1.29,2.24c-.72.42-1.3.09-1.31-.74A2.85,2.85,0,0,1,214.05,224.9Z"/></g><g class="cls-1"><path class="cls-6" d="M212.89,208.11a.92.92,0,0,0-.92.09,2.87,2.87,0,0,0-1.3,2.25.9.9,0,0,0,.38.83l2.08,1.23a1,1,0,0,1-.38-.84,2.85,2.85,0,0,1,1.3-2.24.92.92,0,0,1,.93-.09Z"/><path class="cls-4" d="M214.05,209.43c.72-.42,1.3-.08,1.3.74a2.84,2.84,0,0,1-1.29,2.25c-.72.41-1.3.08-1.31-.75A2.85,2.85,0,0,1,214.05,209.43Z"/></g><path class="cls-10" d="M175,158.2l-1.59-3.11H172l-.5-.3c-5.47-3.16-14.33-3.16-19.8,0l-.5.3h-1.43l-1.59,3.11c-1.41,2.75-.24,5.85,3.52,8,5.47,3.16,14.33,3.16,19.8,0C175.21,164.05,176.38,161,175,158.2Z"/><path class="cls-11" d="M170.28,152.08c4.81,2.79,4.81,7.3,0,10.08s-12.63,2.78-17.45,0-4.82-7.29,0-10.08S165.46,149.3,170.28,152.08Z"/><path class="cls-20" d="M169.6,159a1,1,0,0,1,0,1.84,3.52,3.52,0,0,1-3.19,0,1,1,0,0,1,0-1.84A3.52,3.52,0,0,1,169.6,159Z"/><path class="cls-10" d="M169,158.55a.57.57,0,0,1,0,1.09,2,2,0,0,1-1.89,0,.57.57,0,0,1,0-1.09A2,2,0,0,1,169,158.55Z"/><g class="cls-1"><path class="cls-12" d="M165,125.84l3.41-2c-5.64,3.28-8.06,11.79-7.42,30.13l-3.41,2C157,137.63,159.37,129.12,165,125.84Z"/><polygon class="cls-22" points="172.66 121.46 176.07 119.48 177.05 122.15 173.63 124.13 172.66 121.46"/><path class="cls-12" d="M162.2,123.58l3.41-2c2.73-1.58,6.18-2.19,10.46-2.12l-3.41,2C168.37,121.4,164.93,122,162.2,123.58Z"/><path class="cls-22" d="M172.66,121.46l1,2.67c-11.74-.36-16.94,6-16,31.84l-4.13-2.38C153.52,128.25,158.58,121.25,172.66,121.46Z"/></g><path class="cls-11" d="M170.7,140.31c-1.35-4.24-.63-9.55,1.39-15.53l10-4a29.86,29.86,0,0,1,11.72,10.06C193,135,176.87,141.91,170.7,140.31Z"/><path class="cls-23" d="M182,121.74l-.72.82a31.76,31.76,0,0,1,9.34,10.73s0,.08,0,.12a6.64,6.64,0,0,0,2.28-2.39A29,29,0,0,0,182,121.74Z"/><path class="cls-10" d="M170.52,120.82l1.57,4c2.77,1.11,9.67-1.77,10-4l-1.84-4.43c-1.42-3-5.2-2.71-6.85-2A5.33,5.33,0,0,0,170.52,120.82Z"/><path class="cls-23" d="M179.49,116.74a3.66,3.66,0,0,0-3.55-2,5.62,5.62,0,0,0-2,.36,5.44,5.44,0,0,1,.57,0,3.83,3.83,0,0,1,3.75,2.19l1.89,4.68a3.19,3.19,0,0,0,1.06-1.08Z"/><polygon class="cls-20" points="232.88 167.29 212.37 179.13 181.31 161.2 201.82 149.36 232.88 167.29"/><path class="cls-10" d="M274.87,129.82l13.65-7.88L285.2,120l-10.33,6.38C274.43,127.94,274.43,129.09,274.87,129.82Z"/><path class="cls-8" d="M274.46,129.47l13.4-7.74V118.3l-13.65,7.88A4,4,0,0,0,274.46,129.47Z"/><path class="cls-11" d="M255.33,118.54l19.54,11.28a4.7,4.7,0,0,1,0-3.43l-19.54-11.28A5.11,5.11,0,0,0,255.33,118.54Z"/><polygon class="cls-10" points="255.33 115.11 274.87 126.39 288.52 118.51 268.98 107.23 255.33 115.11"/><path class="cls-7" d="M278,126.83,291.6,119,288.29,117,278,123.4A4.59,4.59,0,0,0,278,126.83Z"/><path class="cls-8" d="M277.55,126.48l13.4-7.74v-3.43l-13.66,7.88A4,4,0,0,0,277.55,126.48Z"/><path class="cls-7" d="M255.67,114,278,126.83a4.7,4.7,0,0,1,0-3.43l-22.28-12.86A5,5,0,0,0,255.67,114Z"/><polygon class="cls-9" points="255.67 110.53 277.95 123.4 291.6 115.52 269.32 102.65 255.67 110.53"/><path class="cls-12" d="M276.35,121.08l13.27-7.66-4.44-2.57-8.83,5.64Q275.48,119.61,276.35,121.08Z"/><path class="cls-8" d="M275.81,120.61l12.93-7.46v-4.59l-13.27,7.66A5.3,5.3,0,0,0,275.81,120.61Z"/><path class="cls-13" d="M256,109.34l20.33,11.74a6.34,6.34,0,0,1,0-4.59L256,104.76A6.83,6.83,0,0,0,256,109.34Z"/><polygon class="cls-14" points="256.02 104.76 276.35 116.49 289.62 108.83 269.29 97.1 256.02 104.76"/><polygon points="264.78 144.57 232.8 163.04 212.58 151.36 212.58 150.24 244.56 132.9 264.78 143.45 264.78 144.57"/><polygon class="cls-24" points="264.78 143.45 232.8 161.92 212.58 150.24 244.56 131.78 264.78 143.45"/><polygon class="cls-25" points="217.92 149.2 219.88 148.06 221.38 148.93 219.42 150.06 217.92 149.2"/><polygon class="cls-25" points="220.2 147.88 222.17 146.74 223.66 147.61 221.7 148.74 220.2 147.88"/><polygon class="cls-25" points="222.49 146.56 224.45 145.42 225.95 146.29 223.99 147.42 222.49 146.56"/><polygon class="cls-25" points="224.77 145.24 226.74 144.1 228.24 144.97 226.27 146.1 224.77 145.24"/><polygon class="cls-25" points="227.06 143.92 229.02 142.79 230.52 143.65 228.56 144.78 227.06 143.92"/><polygon class="cls-25" points="229.34 142.6 231.31 141.47 232.81 142.33 230.84 143.47 229.34 142.6"/><polygon class="cls-25" points="231.63 141.28 233.59 140.15 235.09 141.01 233.13 142.15 231.63 141.28"/><polygon class="cls-25" points="233.91 139.96 235.88 138.83 237.38 139.69 235.41 140.83 233.91 139.96"/><polygon class="cls-25" points="236.2 138.64 238.16 137.51 239.66 138.37 237.7 139.51 236.2 138.64"/><polygon class="cls-25" points="238.48 137.32 240.45 136.19 241.94 137.06 239.98 138.19 238.48 137.32"/><polygon class="cls-25" points="240.77 136 242.73 134.87 244.23 135.74 242.27 136.87 240.77 136"/><polygon class="cls-25" points="220.6 150.75 222.57 149.61 224.07 150.48 222.1 151.61 220.6 150.75"/><polygon class="cls-25" points="222.89 149.43 224.85 148.29 226.35 149.16 224.39 150.29 222.89 149.43"/><polygon class="cls-25" points="225.17 148.11 227.14 146.97 228.64 147.84 226.67 148.97 225.17 148.11"/><polygon class="cls-25" points="227.46 146.79 229.42 145.66 230.92 146.52 228.96 147.66 227.46 146.79"/><polygon class="cls-25" points="229.74 145.47 231.71 144.34 233.21 145.2 231.24 146.34 229.74 145.47"/><polygon class="cls-25" points="232.03 144.15 233.99 143.02 235.49 143.88 233.53 145.02 232.03 144.15"/><polygon class="cls-25" points="234.31 142.83 236.28 141.7 237.78 142.56 235.81 143.7 234.31 142.83"/><polygon class="cls-25" points="236.6 141.51 238.56 140.38 240.06 141.24 238.1 142.38 236.6 141.51"/><polygon class="cls-25" points="238.88 140.19 240.85 139.06 242.35 139.93 240.38 141.06 238.88 140.19"/><polygon class="cls-25" points="241.17 138.88 243.13 137.74 244.63 138.61 242.67 139.74 241.17 138.88"/><polygon class="cls-25" points="243.45 137.56 245.42 136.42 246.92 137.29 244.95 138.42 243.45 137.56"/><polygon class="cls-25" points="222.32 151.74 224.29 150.6 225.78 151.47 223.82 152.6 222.32 151.74"/><polygon class="cls-25" points="224.61 150.42 226.57 149.29 228.07 150.15 226.11 151.28 224.61 150.42"/><polygon class="cls-25" points="226.89 149.1 228.86 147.97 230.35 148.83 228.39 149.97 226.89 149.1"/><polygon class="cls-25" points="229.18 147.78 231.14 146.65 232.64 147.51 230.68 148.65 229.18 147.78"/><polygon class="cls-25" points="231.46 146.46 233.43 145.33 234.93 146.19 232.96 147.33 231.46 146.46"/><polygon class="cls-25" points="233.75 145.14 235.71 144.01 237.21 144.87 235.25 146.01 233.75 145.14"/><polygon class="cls-25" points="236.03 143.82 238 142.69 239.49 143.56 237.53 144.69 236.03 143.82"/><polygon class="cls-25" points="238.32 142.5 240.28 141.37 241.78 142.24 239.81 143.37 238.32 142.5"/><polygon class="cls-25" points="240.6 141.19 242.57 140.05 244.06 140.92 242.1 142.05 240.6 141.19"/><polygon class="cls-25" points="242.89 139.87 244.85 138.73 246.35 139.6 244.38 140.73 242.89 139.87"/><polygon class="cls-25" points="224.04 152.73 226 151.6 227.5 152.46 225.54 153.6 224.04 152.73"/><polygon class="cls-25" points="226.32 151.41 228.29 150.28 229.79 151.14 227.82 152.28 226.32 151.41"/><polygon class="cls-25" points="228.61 150.09 230.57 148.96 232.07 149.82 230.11 150.96 228.61 150.09"/><polygon class="cls-25" points="230.9 148.77 232.86 147.64 234.36 148.5 232.39 149.64 230.9 148.77"/><polygon class="cls-25" points="233.18 147.45 235.14 146.32 236.64 147.19 234.68 148.32 233.18 147.45"/><polygon class="cls-25" points="235.47 146.13 237.43 145 238.93 145.87 236.96 147 235.47 146.13"/><polygon class="cls-25" points="237.75 144.82 239.71 143.68 241.21 144.55 239.25 145.68 237.75 144.82"/><polygon class="cls-25" points="240.03 143.5 242 142.36 243.5 143.23 241.53 144.36 240.03 143.5"/><polygon class="cls-25" points="242.32 142.18 244.28 141.04 245.78 141.91 243.82 143.04 242.32 142.18"/><polygon class="cls-25" points="245.17 138.55 246.89 139.54 244.6 140.86 246.1 141.72 248.39 140.4 248.96 140.07 250.35 139.27 249.08 138.53 248.85 138.41 247.14 137.41 245.17 138.55"/><polygon class="cls-25" points="228.64 152.06 228.04 152.4 225.76 153.72 227.26 154.59 229.54 153.27 230.14 152.92 231.51 152.13 230.01 151.27 228.64 152.06"/><polygon class="cls-25" points="230.33 151.08 232.29 149.95 233.79 150.82 231.83 151.95 230.33 151.08"/><polygon class="cls-25" points="232.61 149.76 234.58 148.63 236.07 149.5 234.11 150.63 232.61 149.76"/><polygon class="cls-25" points="234.9 148.45 236.86 147.31 238.36 148.18 236.4 149.31 234.9 148.45"/><polygon class="cls-25" points="237.18 147.13 239.15 145.99 240.65 146.86 238.68 147.99 237.18 147.13"/><polygon class="cls-25" points="239.47 145.81 241.43 144.67 242.93 145.54 240.97 146.67 239.47 145.81"/><polygon class="cls-25" points="241.75 144.49 243.72 143.35 245.22 144.22 243.25 145.35 241.75 144.49"/><polygon class="cls-25" points="244.04 143.17 246 142.03 247.5 142.9 245.54 144.03 244.04 143.17"/><polygon class="cls-25" points="248.29 140.72 247.95 140.91 246.32 141.85 247.82 142.72 249.45 141.78 249.78 141.58 252.07 140.26 250.57 139.4 248.29 140.72"/><polygon class="cls-25" points="227.48 154.72 229.44 153.58 230.94 154.45 228.97 155.58 227.48 154.72"/><polygon class="cls-25" points="229.76 153.4 231.72 152.26 233.22 153.13 231.26 154.26 229.76 153.4"/><polygon class="cls-25" points="232.05 152.08 234.01 150.94 235.51 151.81 233.54 152.94 232.05 152.08"/><polygon class="cls-25" points="244.45 144.91 243.47 145.48 243.15 145.67 241.19 146.8 240.87 146.99 238.9 148.12 238.58 148.3 236.62 149.44 234.33 150.76 235.83 151.62 238.11 150.3 240.08 149.17 240.4 148.98 242.36 147.85 242.68 147.66 244.65 146.53 244.97 146.34 245.95 145.78 246.93 145.21 245.44 144.35 244.45 144.91"/><polygon class="cls-25" points="245.76 144.16 247.72 143.03 249.22 143.89 247.25 145.03 245.76 144.16"/><polygon class="cls-25" points="248.04 142.84 250 141.71 251.5 142.57 249.54 143.71 248.04 142.84"/><polygon class="cls-25" points="250.32 141.52 252.29 140.39 253.79 141.25 251.82 142.39 250.32 141.52"/><polygon class="cls-26" points="249.58 149.51 243.27 153.15 239.31 150.86 245.62 147.22 249.58 149.51"/><polygon points="243.68 131.48 212.58 150.24 211.69 149.95 205.57 127.07 237.55 108.61 238.44 108.9 243.68 131.48"/><polygon class="cls-27" points="244.56 131.78 212.58 150.24 206.46 127.37 238.44 108.9 244.56 131.78"/><polygon class="cls-28" points="207.58 127.83 237.84 110.36 243.44 131.31 213.18 148.78 207.58 127.83"/><polygon class="cls-20" points="214.98 128 215.37 129.54 231.66 120.14 231.23 118.62 214.98 128"/><polygon class="cls-29" points="232.67 117.79 231.23 118.62 231.66 120.14 233.09 119.32 232.67 117.79"/><polygon class="cls-20" points="236.26 131.01 233.09 119.32 215.37 129.54 218.39 141.33 236.26 131.01"/><path class="cls-24" d="M219.38,139.28a.23.23,0,0,1-.21-.13.22.22,0,0,1,.09-.32l14.87-8.59a.24.24,0,0,1,.33.08.23.23,0,0,1-.09.33l-14.87,8.59A.28.28,0,0,1,219.38,139.28Z"/><path class="cls-24" d="M218.91,137.51a.25.25,0,0,1-.21-.12.25.25,0,0,1,.09-.33l14.88-8.59a.24.24,0,1,1,.24.42L219,137.48A.24.24,0,0,1,218.91,137.51Z"/><path class="cls-24" d="M218.45,135.74a.25.25,0,0,1-.21-.12.24.24,0,0,1,.09-.33l14.88-8.59a.25.25,0,0,1,.33.09.25.25,0,0,1-.09.33l-14.88,8.59Z"/><path class="cls-24" d="M218,134a.22.22,0,0,1-.21-.12.24.24,0,0,1,.08-.33l14.88-8.58a.24.24,0,0,1,.33.08.23.23,0,0,1-.09.33l-14.87,8.59A.27.27,0,0,1,218,134Z"/><path class="cls-24" d="M217.52,132.21a.27.27,0,0,1-.21-.12.25.25,0,0,1,.09-.33l14.88-8.59a.24.24,0,0,1,.33.09.24.24,0,0,1-.09.32l-14.88,8.59A.19.19,0,0,1,217.52,132.21Z"/><path class="cls-24" d="M217.06,130.44a.22.22,0,0,1-.21-.12.24.24,0,0,1,.09-.33l14.88-8.59a.22.22,0,0,1,.32.09.24.24,0,0,1-.08.33l-14.88,8.59Z"/><path class="cls-27" d="M249.47,267.22a2.75,2.75,0,1,1-2.75-2.75A2.76,2.76,0,0,1,249.47,267.22Z"/><path class="cls-27" d="M292.12,279.8a2.75,2.75,0,1,1-2.75-2.75A2.76,2.76,0,0,1,292.12,279.8Z"/><path class="cls-27" d="M325.22,260.48a2.76,2.76,0,1,1-2.75-2.75A2.75,2.75,0,0,1,325.22,260.48Z"/><circle class="cls-27" cx="301.89" cy="235.33" r="2.75"/><path class="cls-27" d="M256.27,240.37a2.75,2.75,0,1,1-2.75-2.75A2.75,2.75,0,0,1,256.27,240.37Z"/><path class="cls-27" d="M290.83,251.72l13.42-17.95v-1.19l-3.95,0L283,249.42a17.37,17.37,0,0,0-3.47.32l-25.41-12.91-3.14.62v1.19l22.37,14.67a3.65,3.65,0,0,0-.55,2l-29.13,8.78v1.19l2,2.28,31.09-7.75a14.06,14.06,0,0,0,3.13.93l7.41,19.06,4.38-.4v-1.18l-3.16-18.28a9.48,9.48,0,0,0,1.36-.65,9,9,0,0,0,1.13-.78l33.71,1.82.69-2.53v-1.18l-33-3.1A5.44,5.44,0,0,0,290.83,251.72Z"/><path class="cls-30" d="M290.83,247l13.42-14.38-3.95-1.16L283,244.67a16,16,0,0,0-3.47.32l-25.41-9.35L251,237.45l22.37,11.1a3.66,3.66,0,0,0-.55,2l-29.13,13.53,2,2.28,31.09-11.32a13.55,13.55,0,0,0,3.13.93l7.41,22.64,4.38-.4-3.16-23a9.48,9.48,0,0,0,1.36-.65,9,9,0,0,0,1.13-.78l33.71,5.39.69-2.52-33-7.85A5.56,5.56,0,0,0,290.83,247Z"/><path class="cls-26" d="M287.23,224.22a4.49,4.49,0,0,0-.88-.66,8.39,8.39,0,0,0-7.59,0,4.13,4.13,0,0,0-.87.66h-.7v25.26a2.66,2.66,0,0,0,1.57,2.19,8.39,8.39,0,0,0,7.59,0,2.64,2.64,0,0,0,1.57-2.19V224.22Z"/><path class="cls-26" d="M286.35,222c2.09,1.21,2.09,3.17,0,4.38a8.39,8.39,0,0,1-7.59,0c-2.09-1.21-2.09-3.17,0-4.38A8.39,8.39,0,0,1,286.35,222Z"/><path class="cls-30" d="M289.4,206.49a8,8,0,0,0-3.62-1.92,12.34,12.34,0,0,0-6.44,0,8,8,0,0,0-3.63,1.92h-1v19.2c0,1.61,1.47,3.22,4.42,4.1a12.2,12.2,0,0,0,6.88,0c2.94-.88,4.42-2.49,4.42-4.1v-19.2Z"/><path class="cls-26" d="M286,202.4c5.89,1.75,5.89,6.43,0,8.19a12.2,12.2,0,0,1-6.88,0c-5.9-1.76-5.9-6.44,0-8.19A12,12,0,0,1,286,202.4Z"/><path d="M294.5,249.77l37.13-21.58a2.39,2.39,0,0,0,1-2.21v-5a7.56,7.56,0,0,0-3.44-5.91L288,191.39a2.39,2.39,0,0,0-2.41-.23l-37.14,21.57Z"/><path class="cls-27" d="M250.89,225.9l41.19,23.63c1.89,1.09,3.42.2,3.41-2v-5a7.55,7.55,0,0,0-3.43-5.91L250.86,213c-1.89-1.08-3.42-.19-3.41,2v5A7.57,7.57,0,0,0,250.89,225.9Z"/><path d="M305.9,162.88l-.75,32.74-8.44,43.43,37.19-21.47a1.93,1.93,0,0,0,.53-.46c8.71-10.84,17.74-30.12,14.77-69.66a8,8,0,0,0-3.57-5.81,2.51,2.51,0,0,0-2.54-.24Z"/><path class="cls-27" d="M288.81,235.8l5.14,3c1.33.77,2.57.71,3.28-.17,8.71-10.84,17.74-30.12,14.78-69.66a8,8,0,0,0-3.58-5.81c-1.88-1.09-3.44-.31-3.57,1.77-1.64,25.35-6.1,47.77-18.48,64.51C285.24,231,286.59,234.52,288.81,235.8Z"/><path class="cls-5" d="M46.16,196a1.32,1.32,0,0,1-.66-2.47l17.23-9.95a1.33,1.33,0,0,1,1.33,2.3l-17.23,9.94A1.35,1.35,0,0,1,46.16,196Z"/><path class="cls-5" d="M77.24,196a1.31,1.31,0,0,1-.66-.18l-17.23-9.94a1.33,1.33,0,1,1,1.32-2.3l17.23,9.95a1.31,1.31,0,0,1,.49,1.81A1.34,1.34,0,0,1,77.24,196Z"/><path class="cls-4" d="M49.49,174.57l-6.58-.15-2.06,44.85a1.15,1.15,0,0,0,.69,1,3.69,3.69,0,0,0,3.33,0,1.17,1.17,0,0,0,.67-.89S49.49,174.57,49.49,174.57Z"/><path class="cls-4" d="M74.05,174.57l6.58-.15,2.06,44.85a1.15,1.15,0,0,1-.69,1,3.69,3.69,0,0,1-3.33,0,1.21,1.21,0,0,1-.68-.89Z"/><path class="cls-5" d="M61.42,207.61a1.35,1.35,0,0,1-.67-.18L45.5,198.62a1.32,1.32,0,1,1,1.33-2.29l15.25,8.8a1.33,1.33,0,0,1-.66,2.48Z"/><path class="cls-5" d="M61.7,207.77A1.32,1.32,0,0,1,61,205.3l15.54-9a1.32,1.32,0,1,1,1.32,2.29l-15.53,9A1.34,1.34,0,0,1,61.7,207.77Z"/><path class="cls-4" d="M65,183.44H58.41L59.33,230a1.19,1.19,0,0,0,.69.94,3.69,3.69,0,0,0,3.33,0A1.17,1.17,0,0,0,64,230Z"/><path class="cls-5" d="M79.49,174.47A17.64,17.64,0,0,0,76.07,172c-7.94-4.58-20.8-4.58-28.74,0a17.54,17.54,0,0,0-3.41,2.52H41.38v5.11c0,2.67,2,5.34,5.95,7.63,7.94,4.59,20.8,4.59,28.74,0,4-2.29,6-5,6-7.63v-5.11Z"/><ellipse class="cls-6" cx="61.7" cy="174.47" rx="20.32" ry="11.73"/><g class="cls-1"><path class="cls-4" d="M105.18,265.72a2.28,2.28,0,0,1,2.18.11l14.87,7.43-3,1.72-14.87-7.42a2.25,2.25,0,0,0-2.18-.11Z"/><polygon class="cls-5" points="119.24 280.02 122.21 278.3 122.23 273.26 119.26 274.98 119.24 280.02"/><path class="cls-5" d="M119.26,275l-14.87-7.42c-1.78-.88-3.16,0-3.17,2.06l18,10.4Z"/></g><g class="cls-1"><path class="cls-4" d="M149.63,265.72a2.28,2.28,0,0,0-2.18.11l-14.86,7.43,3,1.72,14.86-7.42a2.25,2.25,0,0,1,2.18-.11Z"/><polygon class="cls-5" points="135.57 280.02 132.6 278.3 132.59 273.26 135.56 274.98 135.57 280.02"/><path class="cls-5" d="M135.56,275l14.86-7.42c1.78-.88,3.17,0,3.17,2.06l-18,10.4Z"/></g><path class="cls-5" d="M116.72,278.13v5.93c0,1.55,1,3.11,3.08,4.29a16.42,16.42,0,0,0,14.86,0c2.06-1.18,3.08-2.74,3.08-4.29v-5.93Z"/><ellipse class="cls-4" cx="127.23" cy="278.13" rx="10.51" ry="6.07"/><path class="cls-5" d="M123.12,242.62v33.14a2,2,0,0,0,1.2,1.68,6.42,6.42,0,0,0,5.82,0,2,2,0,0,0,1.2-1.68V242.62Z"/><path class="cls-6" d="M130.14,240.94c1.6.93,1.6,2.43,0,3.36a6.42,6.42,0,0,1-5.82,0c-1.6-.93-1.6-2.43,0-3.36A6.48,6.48,0,0,1,130.14,240.94Z"/><g class="cls-1"><path class="cls-4" d="M151.94,291.63l-14.86-9.74-3,1.73L149,293.35a7.55,7.55,0,0,1,3.15,5.71l3-1.73A7.51,7.51,0,0,0,151.94,291.63Z"/><path class="cls-5" d="M134.11,283.62,149,293.35a7.55,7.55,0,0,1,3.15,5.71l-18-10.4Z"/></g><g class="cls-1"><path class="cls-4" d="M102.52,291.63l14.86-9.74,3,1.73-14.86,9.73a7.55,7.55,0,0,0-3.15,5.71l-3-1.73A7.51,7.51,0,0,1,102.52,291.63Z"/><path class="cls-5" d="M120.35,283.62l-14.86,9.73a7.55,7.55,0,0,0-3.15,5.71l18-10.4Z"/></g><path class="cls-5" d="M83.13,237.83v2.68c0,6.51,4.3,13,12.92,18,17.22,9.94,45.14,9.94,62.36,0,8.62-5,12.92-11.49,12.92-18v-2.68Z"/><ellipse class="cls-6" cx="127.23" cy="237.83" rx="44.1" ry="25.46"/><path class="cls-9" d="M117.69,34.36H142c1.76,6.34.87,13.3-1.33,19.89-.43,1.27-1.76,2.5-3.72,3.45a16.91,16.91,0,0,1-14.22,0c-2-1-3.28-2.18-3.7-3.45C116.82,47.66,115.93,40.7,117.69,34.36Z"/><path class="cls-9" d="M121.23,28.85c-4.76,2.75-4.76,7.2,0,9.95s12.47,2.75,17.23,0,4.76-7.2,0-9.95S126,26.1,121.23,28.85Z"/><path class="cls-7" d="M120.89,36.42a7.24,7.24,0,0,0,1.83,1.41,16.14,16.14,0,0,0,14.25,0,7.24,7.24,0,0,0,1.83-1.41c2-2.13,1.35-4.81-1.83-6.6a16.14,16.14,0,0,0-14.25,0C119.53,31.61,118.92,34.29,120.89,36.42Z"/><path d="M120.89,36.42a7.24,7.24,0,0,0,1.83,1.41,16.14,16.14,0,0,0,14.25,0,7.24,7.24,0,0,0,1.83-1.41A7.24,7.24,0,0,0,137,35a16.14,16.14,0,0,0-14.25,0A7.24,7.24,0,0,0,120.89,36.42Z"/><polygon class="cls-5" points="132.28 36.42 131.14 24.39 125.5 19.62 119.76 17.08 115.09 12.26 111.1 7.88 104.33 6.28 110.86 8.75 114.44 12.57 117.13 16.7 112.88 18.24 110.36 14.84 103.05 15.12 98.27 10.87 102.77 15.52 110.02 15.64 112.41 18.86 118.24 18.05 124.23 20.29 122.76 26 117.73 26.77 114.69 25.16 110.23 30.06 114.81 25.92 117.69 27.65 122.98 26.84 124.93 21.72 129.46 25.54 127.76 36.01 125.81 37.21 129.19 37.21 132.27 38.47 131.88 37.38 134.51 36.92 132.28 36.42"/><path class="cls-5" d="M109.92,27.81c.32-.13.63-.26,1-.37l.3-.1a14.63,14.63,0,0,1,2.52-.59l0-.22a16,16,0,0,0-2.55.6l-.31.11c-.33.11-.65.24-1,.37Z"/><path class="cls-31" d="M100.53,41.19s.11-.42.35-1.1A18,18,0,0,1,102,37.48a21.45,21.45,0,0,1,4.48-5.65c1.32-1.23,2.35-2.07,3.07-2.78a9.57,9.57,0,0,0,1.35-1.5,2,2,0,0,0,.19-.26,2.47,2.47,0,0,0-.31-.09,4.57,4.57,0,0,0-2.16,0,8.94,8.94,0,0,0-4.32,2.31A13.06,13.06,0,0,0,100.48,37a13.53,13.53,0,0,0-.1,3A10,10,0,0,0,100.53,41.19Z"/><path class="cls-5" d="M113.29,29.32c.21-.27.42-.54.65-.79l.22-.25a16.55,16.55,0,0,1,1.89-1.76l-.13-.17A15.48,15.48,0,0,0,114,28.14l-.22.25c-.23.25-.45.53-.66.8Z"/><path class="cls-31" d="M111.21,45.72s-.09-.43-.18-1.15a20,20,0,0,1-.18-2.86,23.22,23.22,0,0,1,1.35-7.17c.59-1.73,1.08-3,1.38-3.95a10.33,10.33,0,0,0,.45-2,2.54,2.54,0,0,0,0-.32,1.64,1.64,0,0,0-.31.08,4.66,4.66,0,0,0-1.9,1,9.06,9.06,0,0,0-2.68,4.12,13.69,13.69,0,0,0,1.39,11.21A10.84,10.84,0,0,0,111.21,45.72Z"/><polygon class="cls-5" points="117.84 30.96 117.95 30.11 117.98 29.84 118.31 27.26 118.1 27.23 117.77 29.81 117.74 30.08 117.63 30.93 117.84 30.96"/><path class="cls-31" d="M113.65,44.43l.23-.11a4.9,4.9,0,0,0,.64-.37,7.29,7.29,0,0,0,1.89-1.82,14.43,14.43,0,0,0,2.38-6.51c.43-3.35-.37-5-.73-5.5a2.41,2.41,0,0,0-.15-.24,1.81,1.81,0,0,0-.21.2c-.48.42-1.66,1.78-2.09,5.13a58.55,58.55,0,0,1-.65,6.23,8.35,8.35,0,0,1-.8,2.17,5.63,5.63,0,0,1-.37.6Z"/><path class="cls-5" d="M108.62,20l1.06-.43.35-.11a22,22,0,0,1,2.5-.67l0-.21a20.55,20.55,0,0,0-2.53.68l-.35.11-1.07.43Z"/><path class="cls-31" d="M96.54,34.08l.58-1.15a26.39,26.39,0,0,1,1.66-2.72,29.4,29.4,0,0,1,2.64-3.15c1-1,2.08-1.95,3.09-2.81,1.61-1.32,2.8-2.27,3.66-3a11.06,11.06,0,0,0,1.55-1.61,2.31,2.31,0,0,0,.22-.26,1.55,1.55,0,0,0-.34-.09,5.85,5.85,0,0,0-2.35.07,11,11,0,0,0-4.79,2.43,16.88,16.88,0,0,0-3.16,3.6,18.87,18.87,0,0,0-2,4.11,17.74,17.74,0,0,0-.7,3.28C96.58,33.59,96.54,34.08,96.54,34.08Z"/><path class="cls-5" d="M100.59,18l.8-.67a2.52,2.52,0,0,1,.25-.21c.69-.53,1.39-1,2.12-1.5l-.11-.18c-.74.47-1.45,1-2.14,1.51-.09.06-.17.14-.26.21l-.8.68Z"/><path class="cls-31" d="M92.15,33,92.61,32c.3-.68.75-1.6,1.29-2.63s1.25-2.14,2-3.24,1.54-2.15,2.25-3.14a39.72,39.72,0,0,0,2.48-3.62,8.59,8.59,0,0,0,.85-1.9,2.3,2.3,0,0,0,.09-.31,2.54,2.54,0,0,0-.32,0,5.13,5.13,0,0,0-2.07.66A10.79,10.79,0,0,0,95.56,21a17.83,17.83,0,0,0-2.08,3.8,20.74,20.74,0,0,0-1.09,4,19.33,19.33,0,0,0-.26,3C92.14,32.59,92.15,33,92.15,33Z"/><path class="cls-5" d="M115.25,19.81c.26-.24.52-.47.8-.69l.26-.21a15.58,15.58,0,0,1,2.19-1.39l-.1-.19a16,16,0,0,0-2.22,1.41l-.26.21c-.29.22-.56.46-.82.7Z"/><path class="cls-31" d="M111,36.17a11.68,11.68,0,0,1-.1-1.2A18,18,0,0,1,111,32a20.48,20.48,0,0,1,2.25-7.13c.86-1.6,1.5-2.79,2-3.78a10.93,10.93,0,0,0,.82-1.91l.1-.31a1.64,1.64,0,0,0-.33,0,4.83,4.83,0,0,0-2.1.74,9.28,9.28,0,0,0-3.39,3.79,13.26,13.26,0,0,0-1,8.68,13.43,13.43,0,0,0,1,3A10.93,10.93,0,0,0,111,36.17Z"/><path class="cls-5" d="M107.05,8.39c.46,0,.92,0,1.38.12l.43.06a17.86,17.86,0,0,1,2.52.63l.07-.2a17.62,17.62,0,0,0-2.55-.64l-.44-.06c-.47-.07-.93-.1-1.4-.13Z"/><path class="cls-31" d="M90.81,22.05l.12-.39c.08-.26.21-.62.38-1.07a16.93,16.93,0,0,1,1.8-3.37,17.27,17.27,0,0,1,3.3-3.58,17.74,17.74,0,0,1,4.18-2.53,35.4,35.4,0,0,1,5.31-1.75,24.06,24.06,0,0,0,2.51-.74,2.25,2.25,0,0,0,.38-.13,2.75,2.75,0,0,0-.33-.23,6.42,6.42,0,0,0-2.63-1,11.5,11.5,0,0,0-6.53.92,13.77,13.77,0,0,0-4.78,3.53,15.28,15.28,0,0,0-2.84,4.79,14.47,14.47,0,0,0-.85,4,9.93,9.93,0,0,0,0,1.16Z"/><path class="cls-5" d="M130.11,19.81a9.79,9.79,0,0,0-1,.42,2.3,2.3,0,0,0-.32.15,10,10,0,0,0-2.16,1.48l.15.16a9.53,9.53,0,0,1,2.11-1.45,3,3,0,0,1,.31-.15,8.68,8.68,0,0,1,1-.4Z"/><path class="cls-31" d="M143.72,28.37l0-.33a6.56,6.56,0,0,0,0-.92,9.89,9.89,0,0,0-.71-3.19,10.5,10.5,0,0,0-2.58-3.71A9.5,9.5,0,0,0,136.13,18a7.87,7.87,0,0,0-5.35.64,4.32,4.32,0,0,0-1.73,1.54.86.86,0,0,0-.17.28l.32.05a18.87,18.87,0,0,0,2.09.17,26.11,26.11,0,0,1,4.16.45,11.16,11.16,0,0,1,6.21,3.67,10.86,10.86,0,0,1,1.6,2.49,6.65,6.65,0,0,1,.34.82Z"/><path class="cls-5" d="M127.16,17.05c-.21.25-.44.49-.63.76l-.19.25a11.17,11.17,0,0,0-1.24,2.31l.21.07a10,10,0,0,1,1.21-2.25l.18-.25c.19-.26.41-.5.62-.75Z"/><path class="cls-31" d="M142.14,16.17l-.18-.24c-.12-.16-.3-.38-.54-.64a9.93,9.93,0,0,0-2.32-1.82,10.26,10.26,0,0,0-3.87-1.26,9.3,9.3,0,0,0-4.36.5,7.36,7.36,0,0,0-3.79,3,4.05,4.05,0,0,0-.64,2,2.38,2.38,0,0,0,0,.31,1.14,1.14,0,0,0,.29-.09,11.73,11.73,0,0,0,1.8-.7c.86-.39,1.94-1,3.47-1.55a12.73,12.73,0,0,1,6.55-.74,12,12,0,0,1,2.58.73c.32.13.57.25.74.34Z"/><path class="cls-5" d="M114.19,8.73c.1.32.21.63.29,1l.08.31a11.66,11.66,0,0,1,.31,2.57h.22a12.19,12.19,0,0,0-.32-2.62l-.08-.31c-.08-.34-.19-.66-.3-1Z"/><path class="cls-31" d="M100.66.88A9.91,9.91,0,0,1,101.8,1a13.48,13.48,0,0,1,2.71.62,14.69,14.69,0,0,1,5.82,3.75c1.2,1.23,2,2.25,2.64,3a12.84,12.84,0,0,0,1.4,1.41,2.75,2.75,0,0,0,.25.2,1.62,1.62,0,0,0,.11-.29,4.28,4.28,0,0,0,.17-2.15,8,8,0,0,0-2.29-4.39,10.49,10.49,0,0,0-3.76-2.4,11.21,11.21,0,0,0-7.1-.22A8.68,8.68,0,0,0,100.66.88Z"/><path class="cls-5" d="M123,14.33a10.74,10.74,0,0,0-.23,1.26l0,.4a12.64,12.64,0,0,0,0,2.61l.22,0a11.54,11.54,0,0,1,0-2.56l0-.4c.06-.41.13-.82.23-1.23Z"/><path class="cls-31" d="M139.82,6.47l-.31-.22a7.74,7.74,0,0,0-.9-.57,11.3,11.3,0,0,0-3.54-1.24,12.09,12.09,0,0,0-5.17.25,10.9,10.9,0,0,0-4.82,2.78A9.25,9.25,0,0,0,122.34,13a5.15,5.15,0,0,0,.29,2.59,2.39,2.39,0,0,0,.14.35,1.8,1.8,0,0,0,.22-.3c.25-.32.7-1,1.34-2a23.88,23.88,0,0,1,3-3.91,12.49,12.49,0,0,1,3.48-2.5,12.6,12.6,0,0,1,7.61-1.08c.43.08.78.15,1,.22Z"/><path class="cls-5" d="M104.24,18.79c.11-.28.25-.54.38-.8l.12-.25a17.24,17.24,0,0,1,1.36-2.21l-.17-.13a17.72,17.72,0,0,0-1.38,2.24l-.13.25c-.12.27-.27.53-.37.81Z"/><path class="cls-31" d="M104.46,33.25s-.06-.38-.17-1-.19-1.49-.25-2.46a34.79,34.79,0,0,1,.48-6.34,15,15,0,0,0,.2-5.41,1.48,1.48,0,0,0-.07-.29,2,2,0,0,0-.26.12,3.93,3.93,0,0,0-1.48,1.22A8,8,0,0,0,101.35,23a13.32,13.32,0,0,0,1.14,7.18,14.93,14.93,0,0,0,1.34,2.26Z"/><path class="cls-5" d="M102.85,5.22c.41.08.81.19,1.22.3l.38.12a16.1,16.1,0,0,1,2.39,1l.1-.19a15.18,15.18,0,0,0-2.43-1l-.38-.12c-.41-.12-.82-.23-1.24-.31Z"/><path class="cls-31" d="M85.63,14.43l.21-.31c.12-.2.33-.5.59-.85a16.73,16.73,0,0,1,2.36-2.54,17.58,17.58,0,0,1,7.86-3.94,46.64,46.64,0,0,1,5-.78A17.11,17.11,0,0,0,104,5.63a2.21,2.21,0,0,0,.35-.08,2,2,0,0,0-.25-.27,5.65,5.65,0,0,0-2.21-1.35,10.55,10.55,0,0,0-6-.26A13.22,13.22,0,0,0,91,6a14.58,14.58,0,0,0-3.45,3.72A14.16,14.16,0,0,0,86,13.05c-.13.43-.22.78-.27,1Z"/><path class="cls-5" d="M98.08,16.1c.32-.26.62-.54.94-.79l.31-.24c.68-.54,1.41-1,2.13-1.48l-.11-.19c-.73.48-1.46,1-2.15,1.5l-.31.24c-.33.26-.63.53-1,.8Z"/><path class="cls-31" d="M89.06,34.18l.37-1.33c.25-.83.64-2,1.16-3.24a42.46,42.46,0,0,1,2-4c.78-1.35,1.66-2.65,2.47-3.84,1.32-1.86,2.26-3.23,2.92-4.26a11.22,11.22,0,0,0,1.11-2.13,1.69,1.69,0,0,0,.14-.33,2.14,2.14,0,0,0-.37,0,6.4,6.4,0,0,0-2.33.89,13.1,13.1,0,0,0-4.1,4,20.16,20.16,0,0,0-2.3,4.54A22.83,22.83,0,0,0,89,29.21a23.14,23.14,0,0,0-.11,3.58C89,33.66,89.06,34.18,89.06,34.18Z"/><path class="cls-11" d="M136.71,219H115.48c-1.54,5.54-.76,11.62,1.16,17.38a6,6,0,0,0,3.24,3,14.76,14.76,0,0,0,12.43,0,6,6,0,0,0,3.23-3C137.47,230.59,138.25,224.51,136.71,219Z"/><path class="cls-32" d="M133.62,214.16c4.16,2.4,4.16,6.29,0,8.69a16.63,16.63,0,0,1-15.05,0c-4.16-2.4-4.16-6.29,0-8.69A16.63,16.63,0,0,1,133.62,214.16Z"/><path class="cls-10" d="M133.92,220.77a6.31,6.31,0,0,1-1.6,1.23,14.11,14.11,0,0,1-12.45,0,6.14,6.14,0,0,1-1.6-1.23c-1.71-1.86-1.18-4.2,1.6-5.76a14.11,14.11,0,0,1,12.45,0C135.1,216.57,135.64,218.91,133.92,220.77Z"/><path d="M133.92,220.77a6.31,6.31,0,0,1-1.6,1.23,14.11,14.11,0,0,1-12.45,0,6.14,6.14,0,0,1-1.6-1.23,6.36,6.36,0,0,1,1.6-1.23,14.11,14.11,0,0,1,12.45,0A6.55,6.55,0,0,1,133.92,220.77Z"/><polygon class="cls-33" points="123.97 220.77 124.97 210.26 122.87 205.17 123.92 199.07 119.67 196.77 115.45 193.77 113.34 188.07 116.17 193.47 119.87 196.17 123.97 198.27 125.47 194.57 123.17 191.67 125.07 185.57 122.57 180.57 125.47 185.42 123.92 191.57 126.09 194.32 123.97 204.57 127.97 203.12 129.91 199.12 129.37 196.17 134.61 193.72 129.97 196.47 130.66 199.32 128.62 203.52 124.67 205.77 126.57 210.41 127.92 220.41 129.62 221.46 126.67 221.46 123.98 222.56 124.32 221.61 122.02 221.21 123.97 220.77"/><path class="cls-33" d="M129.33,203.84c-.2,0-.4-.1-.6-.13l-.55-.1.06-.37.57.11c.2,0,.4.09.61.14Z"/><path class="cls-31" d="M138,209.15l-.77-.23c-.47-.14-1.11-.33-1.81-.5a26.85,26.85,0,0,1-4.16-1.14,4.3,4.3,0,0,1-2.11-2.21,5.72,5.72,0,0,1-.38-1,.59.59,0,0,1,0-.32l0-.11,0-.12c0-.07,0-.18.13-.29a3.48,3.48,0,0,1,.88-.76,3.85,3.85,0,0,1,3.78-.09,8.13,8.13,0,0,1,3.65,4.06,10,10,0,0,1,.63,2C137.93,208.85,138,209.15,138,209.15Z"/><path class="cls-33" d="M134,196.93l-.58.17a12,12,0,0,0-3.34,1.65l-.21-.3a12,12,0,0,1,3.44-1.7l.6-.18Z"/><path class="cls-31" d="M143.92,198.16l-.79.05c-.24,0-.53,0-.84.08a10,10,0,0,0-1,.13c-.7.1-1.44.27-2.14.41a10.49,10.49,0,0,1-2,.28,4.33,4.33,0,0,1-2.8-1,6,6,0,0,1-.84-.73,4.43,4.43,0,0,1-.3-.36,3.21,3.21,0,0,1,.45-1.56,3.86,3.86,0,0,1,3.4-1.83,6.77,6.77,0,0,1,2.82.64,8.61,8.61,0,0,1,2.31,1.57,6.84,6.84,0,0,1,.79.87,6.24,6.24,0,0,1,.53.74C143.8,197.9,143.92,198.16,143.92,198.16Z"/><path class="cls-33" d="M117.89,199.28l.48-.4a12.47,12.47,0,0,1,3.19-1.83l.13.35a12.08,12.08,0,0,0-3.1,1.77l-.46.39Z"/><path class="cls-31" d="M113.41,208.36s-.14-.26-.35-.73a4.94,4.94,0,0,1-.31-.86,6,6,0,0,1-.26-1.14,8.71,8.71,0,0,1,0-2.79,6.76,6.76,0,0,1,1.08-2.68A3.81,3.81,0,0,1,117,198.4a3.5,3.5,0,0,1,1.14.28,1.9,1.9,0,0,1,.4.22,4.27,4.27,0,0,1,.13.45,7.08,7.08,0,0,1,.14,1.11,4.47,4.47,0,0,1-.77,2.88c-.7,1-1.94,1.94-2.91,3-.24.26-.48.51-.68.75s-.4.45-.54.64Z"/><polygon class="cls-33" points="122.43 205.39 123.01 205.17 123.76 204.94 123.86 205.3 123.13 205.52 122.57 205.74 122.43 205.39"/><path class="cls-31" d="M115.9,213a8.15,8.15,0,0,1-.22-.79c-.05-.25-.09-.55-.13-.91a9.15,9.15,0,0,1,0-1.18,8.12,8.12,0,0,1,.69-2.75A6.29,6.29,0,0,1,118,205a4.34,4.34,0,0,1,2.17-1,3.58,3.58,0,0,1,1.7.22,3.53,3.53,0,0,1,1,.62c.13.09.13.21.17.27l0,.11,0,.11a.61.61,0,0,1,0,.32,7.31,7.31,0,0,1-.21,1.09,4.48,4.48,0,0,1-1.49,2.48c-.89.71-2.29,1.32-3.46,2.12-.3.19-.56.39-.83.58l-.65.52Z"/><polygon class="cls-33" points="125.72 192.45 125.31 192.9 124.93 193.3 124.66 193.05 125.03 192.65 125.45 192.2 125.72 192.45"/><path class="cls-31" d="M134.28,187.09l-.57.54c-.35.35-.82.82-1.28,1.36s-.93,1.13-1.36,1.69a9.93,9.93,0,0,1-1.35,1.51,4.35,4.35,0,0,1-3,1.05,4.94,4.94,0,0,1-1.12-.18c-.16,0-.21-.12-.28-.16l-.09-.07-.08-.09c0-.06-.15-.1-.18-.26a4.36,4.36,0,0,1-.25-1.12,3.88,3.88,0,0,1,1.47-3.33,6.84,6.84,0,0,1,2.53-1.31,8.37,8.37,0,0,1,2.79-.3,8.07,8.07,0,0,1,2,.38A6.79,6.79,0,0,1,134.28,187.09Z"/><polygon class="cls-33" points="115.63 194.47 116.25 194.45 117.08 194.45 117.07 194.82 116.25 194.82 115.64 194.84 115.63 194.47"/><path class="cls-31" d="M105.66,197.05s.15-.26.44-.68a13.22,13.22,0,0,1,1.31-1.54,9,9,0,0,1,4.57-2.61,3.92,3.92,0,0,1,3.51,1,4,4,0,0,1,.7.92.59.59,0,0,1,.08.31v.23a.7.7,0,0,1-.07.31,4.55,4.55,0,0,1-.6,1,4.16,4.16,0,0,1-2.72,1.66,18,18,0,0,1-4.53-.22Z"/><path class="cls-33" d="M122.72,191c.16.14.3.29.45.43s.49.51.73.76l-.27.25c-.24-.25-.47-.51-.72-.75l-.44-.42Z"/><path class="cls-31" d="M113.65,186.14s.29-.1.78-.23a11.41,11.41,0,0,1,2-.31,8.67,8.67,0,0,1,5.21,1.18A3.91,3.91,0,0,1,123.5,190a3.8,3.8,0,0,1-.16,1.14.58.58,0,0,1-.16.28l-.07.09-.09.08a.85.85,0,0,1-.28.17,6.14,6.14,0,0,1-1.09.25,4.31,4.31,0,0,1-3.07-.68,20.32,20.32,0,0,1-3.12-3.16l-1.27-1.43Z"/><path class="cls-33" d="M126.19,184.17c-.11.17-.21.34-.31.52-.2.36-.38.74-.55,1.11l-.34-.15c.18-.38.36-.77.57-1.14.1-.18.21-.36.32-.54Z"/><path class="cls-31" d="M134.33,178.3l-.55.57c-.34.36-.77.86-1.21,1.42-.9,1.13-1.7,2.47-2.55,3.31a4.52,4.52,0,0,1-2.73,1.17,8.86,8.86,0,0,1-1.11,0,1.42,1.42,0,0,1-.42-.13l-.1-.07a.62.62,0,0,1-.23-.23,3.47,3.47,0,0,1-.45-1.08,3.85,3.85,0,0,1,1.25-3.66,6.71,6.71,0,0,1,2.51-1.44,8.61,8.61,0,0,1,2.75-.42,8.51,8.51,0,0,1,2.06.28C134.05,178.19,134.33,178.3,134.33,178.3Z"/></g></g></g></svg>