<svg xmlns="http://www.w3.org/2000/svg" viewBox="0 0 1583.57 1702.25"><defs><style>.cls-1{fill:#adb6da;}.cls-2{fill:#531d34;}.cls-3{fill:#1f2535;}.cls-4{fill:#e89776;}.cls-5{fill:#242851;}.cls-6{fill:#f5a987;}.cls-7{fill:#e28c72;}.cls-8{fill:#282c34;}.cls-9{fill:#694997;}.cls-10{fill:#21242b;}.cls-11{fill:#30376b;}.cls-12{fill:#f5a47f;}.cls-13{fill:#ea8f72;}.cls-14{fill:#432918;}.cls-15{fill:#fff;}.cls-16{isolation:isolate;}.cls-17{fill:#0093c7;}.cls-18{fill:#4bafe4;}.cls-19{fill:#90c1e9;}.cls-20{fill:#822c4b;}.cls-21{fill:#a73e6b;}.cls-22{fill:#cd4577;}.cls-23{fill:#212020;}.cls-24{fill:#030200;}.cls-25{fill:#184070;}.cls-26{fill:#174891;}.cls-27{fill:#8e294e;}.cls-28{fill:#2e1a09;}.cls-29{fill:#424a74;}.cls-30{fill:#494684;}.cls-31{fill:#5b59a3;}.cls-32{fill:#6673b5;}.cls-33{fill:#143a6a;}.cls-34{fill:#007fa6;}.cls-35{fill:#141211;}.cls-36{fill:#334d88;}.cls-37{fill:#ffd77b;}.cls-38{fill:#452008;}.cls-39{fill:#004b86;}.cls-40{fill:#005c9f;}.cls-41{fill:#1d6dab;}.cls-42{fill:#551c2f;}.cls-43{fill:#024084;}.cls-44{fill:#004d9d;}.cls-45{fill:#f5bd94;}.cls-46{fill:#3a190f;}.cls-47{fill:#f7bd94;}.cls-48{fill:#e2a786;}.cls-49{fill:#ededed;}</style></defs><title>PeoplePuzzle</title><g id="Capa_2" data-name="Capa 2"><g id="Capa_1-2" data-name="Capa 1"><path class="cls-1" d="M962.6,1012.44l-294.75-124L437.91,1043.56,560,1094.93a52.93,52.93,0,0,1-8.23,5.37,67.41,67.41,0,0,1-15.06,4.38c-10.27,1.9-22.88,1.59-30.19,6.52-11.44,7.72-2.44,21.74,20.07,31.77.65.3,1.32.58,2,.87,24,10.08,52.93,11.82,64.7,3.87,9.56-6.45,2.21-16.69,7.92-24.19a57.35,57.35,0,0,1,9.53-7.24l121.93,51.31,95.14-64.19-1.22-.56a113.21,113.21,0,0,0-12.52-4.59c-14.19-3.12-33.38.67-45.64-4.49-15-6.69-11.95-21.86,6.53-34.33,18.69-12.61,46.07-17.69,61.17-11.35,9.36,4.17,9,10.74,12.62,16.13a28,28,0,0,0,8.44,8.06c.44.27,2.14,1.12,4.29,2.09,1.81.8,3.93,1.68,5.9,2.34Z"/><path class="cls-1" d="M649.75,1447.91c-7.44-5-20.26-4.71-30.69-6.63a67.85,67.85,0,0,1-15.32-4.47,53.16,53.16,0,0,1-8.36-5.44l124.09-52.22-96.68-65.23c.39-.2.81-.39,1.24-.58a117,117,0,0,1,12.72-4.67c14.41-3.16,33.91.68,46.88-4.78,14.76-6.58,11.65-22-7.15-34.68-19-12.82-46.82-18-62.62-11.32-9.05,4-8.68,10.71-12.37,16.18a28.23,28.23,0,0,1-8.58,8.2c-.45.27-2.2,1.15-4.4,2.13-1.82.82-4,1.7-6,2.37l-96.8-65.32L186.17,1347.52l233.71,157.69,124-52.15a59.56,59.56,0,0,1,9.68,7.36c5.79,7.62-1.68,18,8,24.59,12,8.07,41.41,6.31,65.77-3.94.68-.28,1.36-.58,2-.87C652.21,1470,661.37,1455.75,649.75,1447.91Z"/><path class="cls-1" d="M881.47,1153.85l123.94-52.15a59.46,59.46,0,0,1,9.69,7.35c5.8,7.63-1.67,18,8,24.6,12,8.07,41.41,6.3,65.76-3.94.68-.29,1.35-.57,2-.87,22.88-10.2,32.06-24.45,20.42-32.3-7.43-5-20.25-4.7-30.69-6.63a67.92,67.92,0,0,1-15.31-4.46A54.46,54.46,0,0,1,1057,1080l124.09-52.21,233.72,157.7-299.59,126.07-96.69-65.24c.38-.19.78-.37,1.2-.56a115.26,115.26,0,0,1,12.76-4.68c14.42-3.17,33.92.68,46.38-4.56,15.27-6.81,12.15-22.22-6.64-34.9-19-12.82-46.82-18-62.16-11.53-9.52,4.24-9.15,10.92-12.83,16.38a28.23,28.23,0,0,1-8.58,8.2c-.45.27-2.2,1.15-4.4,2.13-1.82.82-4,1.7-6,2.37Z"/><path class="cls-1" d="M1280.7,1496.34l-122-51.31a58.4,58.4,0,0,0-9.52,7.24c-5.7,7.5,1.65,17.74-7.91,24.19-11.77,7.94-40.74,6.21-64.69-3.87-.68-.29-1.34-.57-2-.87-22.5-10-31.52-24-20.08-31.77,7.31-4.94,19.93-4.62,30.19-6.51a66.74,66.74,0,0,0,15.06-4.4,51.54,51.54,0,0,0,8.22-5.35l-122.08-51.38-95.23,64.27c-2-.67-4.09-1.54-5.9-2.35a46.79,46.79,0,0,1-4.28-2.09,27.79,27.79,0,0,1-8.45-8.05c-3.63-5.39-3.27-12-12.17-15.93-15.54-6.54-42.92-1.47-61.62,11.15-18.48,12.47-21.54,27.64-7,34.11,12.76,5.38,31.94,1.59,46.12,4.71a113.21,113.21,0,0,1,12.52,4.59c.43.19.84.37,1.22.56L756,1527.47l294.76,124Z"/><path class="cls-1" d="M587.3,989c0,41.37-75.37,74.91-168.36,74.91S250.58,1030.39,250.58,989s75.38-74.9,168.36-74.9S587.3,947.65,587.3,989Z"/><polygon class="cls-2" points="464.27 984.01 467.03 983.49 469.79 960.31 462.54 951.72 464.27 984.01"/><polygon class="cls-3" points="460.94 982.12 464.27 984.01 463.74 946.06 457.88 944.73 460.94 982.12"/><path class="cls-4" d="M486.45,934.36l6.16,20.35S501,974.3,507.91,982c0,0,12.48,17.11-10.87,16,0,0-24.9-1.33-24.52-17.3.32-13.75-12.3-30.8-12.3-30.8-4.65-8,0-14.56,1.62-16.4l4.32-4.93,20.95-3.66Z"/><path class="cls-3" d="M509.26,988.35a31.39,31.39,0,0,1-27.12-8.21c-6.47-6.38-13.86-29.72-11.41-22,1,3.2-6.6-25.17-4.57-29.6l-4.32,4.93c-1.57,1.84-6.7,8.8-2,16.84,0,0,13,16.61,12.73,30.36C472.14,996.68,497,998,497,998c14,.68,15.12-5.21,13.76-10A13.87,13.87,0,0,1,509.26,988.35Z"/><path class="cls-3" d="M521,995.18s3.51,6.64-7.64,6.64c0,0-41.78-2.66-41.77-20.61V966.75s3.28,20.64,29.09,20.69c0,0,11.45,0,5.53-7.3Z"/><path class="cls-5" d="M453.74,27.81A27.81,27.81,0,1,1,425.94,0,27.81,27.81,0,0,1,453.74,27.81Z"/><path class="cls-6" d="M445.87,156h54.76c-2.48-8-7.64-28.61.34-42.66L445.64,77S455.48,137.94,445.87,156Z"/><path class="cls-7" d="M452,121.56c3.28,8.39,8.58,12.47,17.24,15.21a57.73,57.73,0,0,0,27.81,2c-.87-8.4-.41-17.92,3.91-25.51L445.64,77s3,18.6,4.06,38.29C450.45,117.36,451.19,119.46,452,121.56Z"/><path class="cls-6" d="M511.5,126l2.91-8.24,7.09-24.23c1-3.85,1.44-9.1.13-12.86a38.86,38.86,0,0,1-1.13-20.12C525,38.49,515.22,27,515.22,27,502.35,6.71,472,6.8,472,6.8c-37.55,2-40.62,38.32-40.62,38.32-6,24.19,13.27,44.28,13.3,44.31,2.44,2.54,2.7,6.67,3.88,9.81a30.27,30.27,0,0,0,5.51,9.19,67.43,67.43,0,0,0,19.25,15.45c6.71,3.42,19.72,6.93,29,6.83C506.07,130.67,509.84,130.72,511.5,126Z"/><polygon class="cls-2" points="336.21 988.37 338.99 988.76 349.04 967.69 344.93 957.23 336.21 988.37"/><polygon class="cls-3" points="333.66 985.51 336.21 988.37 347.89 952.25 342.77 949.11 333.66 985.51"/><path class="cls-6" d="M373.15,948.46c-.55,16.95-1.81,36,5,52,0,0,6.33,20.21-15.42,11.64,0,0-23.16-9.25-17.68-24.26,4.72-12.91-1.77-33.11-1.77-33.11-1.82-9.1,4.73-13.77,6.81-15l5.67-3.29h21.77Z"/><path class="cls-3" d="M377.44,1006.91a31.37,31.37,0,0,1-23.05-16.47c-4.09-8.12-3.6-32.6-3.77-24.47-.06,3.36,1.82-26,5.17-29.5l-5.67,3.29c-2.08,1.24-9.17,6.18-7.35,15.29,0,0,7,19.92,2.31,32.83-5.48,15,17.68,24.26,17.68,24.26,13.06,5.14,16-.08,16.26-5.08A14.52,14.52,0,0,1,377.44,1006.91Z"/><path class="cls-3" d="M386.36,1017.14s1.2,7.42-9.36,3.84c0,0-38.73-15.92-32.95-32.91l4.62-13.7s-3.51,20.6,20.91,28.92c0,0,10.86,3.68,7.59-5.14Z"/><path class="cls-6" d="M397.2,695.08c-27.77,51.28-32.68,72.15-37.62,111.14-2.88,22.68-1.93,118.21-4.9,132.46-1.24,5.91,21.21,2.67,21.21,2.67,4.11-10,69.49-229.49,69.49-229.49s7.31-22.73,1.24-26.68C416.13,665.32,409.31,672.73,397.2,695.08Z"/><path class="cls-8" d="M376.57,945.93c4.1-10,68.81-234.07,68.81-234.07s7.31-22.73,1.24-26.68c-30.49-19.86-37.31-12.45-49.42,9.9-27.77,51.28-32.68,72.15-37.62,111.14C356.7,828.9,352,921.14,349,935.39,349,935.39,365.65,955.18,376.57,945.93Z"/><path class="cls-8" d="M521.87,324.23s21.34,90.33,18.47,100.2c-8.25,28.42-84.82,68.3-154.64,10.14,0,0,16-66.81,49.11-123.32C434.81,311.25,447,323.83,521.87,324.23Z"/><path class="cls-9" d="M511,140.68s27.94,54,40.41,83.62c-5.23,34.73-24.1,86.25-31.68,97.11-16.62,23.81-92.59,2.55-92.59,2.55l-21.9-73.11c63.92-22.95,30.26-90.31,30.26-90.31l10-6.33s10.23,33.11,51.83,31.93c0,0,13.67-8.9,3.61-46.66A58,58,0,0,1,511,140.68Z"/><path class="cls-4" d="M441.45,448.75s7.35,145.72,34.31,224.1c4,11.69,50.09-3.84,50.09-3.84S549.1,543.62,547.7,491.67c-.78-29.36-11.29-92.66-11.29-92.66S450,387.71,441.45,448.75Z"/><path class="cls-4" d="M477.09,672.33,525.85,669s-30,248.76-32.68,259.22c0,0-21,7.58-20.54,1.56,1-14.53-16.47-126.17-17-149C454.77,744.05,456.21,720.86,477.09,672.33Z"/><path class="cls-10" d="M441.45,448.75s7.35,145.72,34.31,224.1c4,11.69,50.09-3.84,50.09-3.84S549.1,543.62,547.7,491.67c-.78-29.36-11.29-92.66-11.29-92.66S450,387.71,441.45,448.75Z"/><path class="cls-10" d="M499.21,929.79c5-9.61,26.64-260.78,26.64-260.78l-48.76,3.32c-20.88,48.53-22.32,71.72-21.46,108.44.53,22.85,11.6,134.49,10.58,149C466.21,929.79,492.72,942.4,499.21,929.79Z"/><path class="cls-4" d="M599.2,317.58l-37-134c-13.31-35.85-33.17-36.73-33.17-36.73-38.07,5.76-13.7,72.56-13.7,72.56l47,111.32"/><path class="cls-4" d="M706.33,417.71c-16-11.85-17.09-15.07-19.51-19.9-10.42-20.69,16.16-16.15,22.65-13.64,3.73,1.45,2.61,10.65,12.91,23.59,0,0,17.16,13.69,21.91,13.6,0,0,4.71,1.4,4.2,4.87C748.49,426.23,734.15,432.08,706.33,417.71Z"/><path class="cls-4" d="M596.33,309.79l108.26,81.9c3,14.93-3.85,16-3.85,16L613.42,368C576,351.78,563,333.15,563,333.15s-15.28-14.31,9-28.66C572.06,304.49,583.11,298.13,596.33,309.79Z"/><path class="cls-4" d="M706.4,383.24s-4.74,9.16,7.63,8.57l13.1-7.22s3.94-1.41,3.16-5.1c0,0-1.11-2.2-5.16-.78Z"/><path class="cls-6" d="M381.82,460.94s.56,145.78,19.79,226.4c2.86,12,46.79,8.33,46.79,8.33S477.06,557.81,480.71,506c2.06-29.3,7.92-80.57,7.92-80.57S385.81,415.21,381.82,460.94Z"/><path class="cls-6" d="M403.09,178.07c-22.41,16.38-10.95,41-10.95,41l42.32,102.79s68.63,23.34,85.25-.47c7.58-10.86,14.61-39.68,23.82-81.24,6.26-28.24,6.68-77.58-9.21-92.19-9.17-8.43-38.85-8.25-39.07-9.25l-48.07,15.48Z"/><path class="cls-6" d="M493.7,313.48c4.07-.73,26,7.93,26,7.93s15.8,67.36,16.7,77.6-69.53,63.25-148.21,33.07c0,0,39.73-93.72,45.53-113.31C440.4,296.27,493.7,313.48,493.7,313.48Z"/><path class="cls-9" d="M531.91,182.34s23.22,27.35,25.17,47.67c1.09,11.31-13.2,30.25-20.34,37.22C531.68,272.18,501.68,201.22,531.91,182.34Z"/><path class="cls-8" d="M407.47,409.75s-27.74,6.16-25.24,57c2.44,49.66,92.86,60,104.47,10C499.19,422.86,456.84,391.29,407.47,409.75Z"/><path class="cls-11" d="M448.85,103.45c-.19-17.15.24-16.09.24-16.09.4-5,10.23,5.79,10-.74-.93-29.88,9.92-44.1,14.17-46.41,11.53-6.23,23.69-8,33.34-6.32,15.11,2.69,14.53,22.8,14.53,22.8C534-16.95,451.9,6.58,451.9,6.58,411.9,17.09,416,54.78,416,54.78c-4.9,40.48,33.44,63.86,33.44,63.86Z"/><path class="cls-12" d="M451.48,97.62a8.07,8.07,0,0,1-5.21,1.58c-5.82-.08-10.65-5.52-10.79-12.14s4.46-11.91,10.27-11.83A10.22,10.22,0,0,1,453,78.52c2.79,2.92,2.88,8.31,2.22,12C454.65,93.51,453.48,96.07,451.48,97.62Z"/><path class="cls-13" d="M448.1,81.39c-.34-3.47-7.37-.15-6.31,1.81a10.81,10.81,0,0,0,2.82,2.74,5.1,5.1,0,0,1,2.16,3.8c0,.19.06.8-.14.94-.91.63-3.89-2.76-4.54-3.48a5.83,5.83,0,0,1-.85-5.56A3.49,3.49,0,0,1,445.1,79c1.58.09,3.18.2,3.09,2.17,0,0-.07.36-.09.18Z"/><path class="cls-13" d="M445.85,85c.74-.73,1.44-.12,2.18.41a3.37,3.37,0,0,1,1.26,2,8.18,8.18,0,0,1-.87,5.8,4.4,4.4,0,0,1-3.78,2c-2.11-.06-2.74-1.93-2.82-3.72,0-.48-.06-1.61.4-1.91s.87.46,1.21.81a3,3,0,0,0,1.79.67,3.83,3.83,0,0,0,3.15-1.41,1.64,1.64,0,0,0,.32-.54c0,1.17-.06,1.43-.19.79a3.33,3.33,0,0,0-.39-.83c-.49-.81-1.32-1.36-1.87-2.14-.26-.36-.76-1.61-.39-2Z"/><path class="cls-14" d="M484.79,72c.21,2.09-.78,3.88-2.19,4s-2.72-1.43-2.92-3.52.78-3.88,2.19-4S484.59,70,484.79,72Z"/><path class="cls-14" d="M513.68,68.14c.08,2.09-1,3.83-2.42,3.88s-2.63-1.6-2.71-3.69,1-3.82,2.43-3.87S513.61,66.05,513.68,68.14Z"/><path class="cls-11" d="M472.34,69.23c5.43-5.7,18.2-5.25,18.2-5.25s.86,0,.63-2.65c0,0-.07-2.3-1.91-2.07C489.26,59.26,473,58.18,472.34,69.23Z"/><path class="cls-11" d="M521,58.32c-5.67-4.59-16.1-1-16.1-1-1.84.27-1.29,2.5-1.29,2.5.45,2.57,1.29,2.39,1.29,2.39s8.62-2.66,15.37-1.09C520.54,60.18,520.8,59.26,521,58.32Z"/><path class="cls-15" d="M510,98.42l-20.57,3.81c-1.08.2-1.51.84-.93,1.42,0,0,5.92,5.92,12.59,4.67s10-8.9,10-8.9C511.41,98.75,510.91,98.36,510,98.42Z"/><path class="cls-13" d="M495.25,91.94c10.78-.78,11.38-3.6,11.38-3.6L501,77S502.27,88.34,495.25,91.94Z"/><path class="cls-8" d="M381.82,460.94s.56,145.78,19.79,226.4c2.86,12,46.79,8.33,46.79,8.33S477.06,557.81,480.71,506c2.06-29.3,7.92-80.57,7.92-80.57S385.81,415.21,381.82,460.94Z"/><path class="cls-8" d="M521.87,324.23s21.34,90.33,18.47,100.2c-8.25,28.42-84.82,68.3-154.64,10.14,0,0,16-66.81,49.11-123.32C434.81,311.25,447,323.83,521.87,324.23Z"/><path class="cls-9" d="M427.12,324s78.13,24.08,94.75.27c7.58-10.86,24.29-65.2,29.52-99.93C538.92,194.68,511,140.68,511,140.68a58,58,0,0,0-10-1.2c10.06,37.76-3.61,46.66-3.61,46.66-41.6,1.18-51.83-31.93-51.83-31.93l-10,6.33s31,64.37-28.83,93.81C406.65,254.35,405.22,323.42,427.12,324Z"/><path class="cls-15" d="M451.76,98.83a3.56,3.56,0,1,1-3.56-3.56A3.57,3.57,0,0,1,451.76,98.83Z"/><path class="cls-6" d="M436.65,187.46a32.11,32.11,0,0,1-1.4,45.4c-12.92,12.15-53.53,35.33-53.91,17.59-.74-34.86.62-53.8,13.54-65.95S424.49,174.53,436.65,187.46Z"/><path class="cls-6" d="M438.1,216.93,410,200.75,381.82,218.4s-16.51,105.19-10.43,129.27c6.48,25.65,18.26,6.75,23.84-.27C395.23,347.4,441.27,237.37,438.1,216.93Z"/><path class="cls-6" d="M375.65,357.94s50.48,36,95.28,55.65c0,0,14.8-6.22,7.4-13.06-12.57-11.62-67.52-64.23-80.2-75.87C375.65,317,375.65,357.94,375.65,357.94Z"/><path class="cls-6" d="M496.47,433.71c-18.27-7.9-20.08-10.78-23.54-14.92-14.87-17.76,12-19.42,18.94-18.46,3.95.56,5,9.77,17.95,20,0,0,19.84,9.39,24.44,8.22,0,0,4.91.28,5.2,3.79C539.46,432.36,526.84,441.33,496.47,433.71Z"/><path class="cls-6" d="M491,400.12s-7.82,6.72,3.87,10.81l14.84-1.78s4.19.16,4.85-3.55c0,0-.21-2.46-4.5-2.65Z"/><g class="cls-16"><path class="cls-17" d="M807.28,531c-.22-.06-.44-.1-.66-.15l-1-.22-.74-.13-.71-.12-.5,57.45L708.51,652l.6-68.56,78.81-53.17c-1.15.13-2.32.3-3.49.49l-.77.13-1.34.24-.91.19c-.43.08-.87.17-1.3.27l-.82.18-2.07.5-.55.14c-.86.22-1.71.45-2.55.7l-.46.14c-1.17.34-2.34.72-3.51,1.11l-.12,0c-1.17.4-2.34.83-3.5,1.28l-.25.1c-1.31.51-2.61,1.06-3.89,1.64l-.18.08c-1.3.59-2.58,1.21-3.83,1.86a.52.52,0,0,0-.13.06q-1.9,1-3.75,2.07l-.06,0c-1.25.73-2.46,1.5-3.64,2.3-10.5,7.08-16,15-16.09,21.81q.31-34.27.61-68.55c.06-6.78,5.58-14.73,16.08-21.82,1.18-.8,2.39-1.56,3.64-2.29l.07,0c1.22-.73,2.47-1.41,3.74-2.08l.13-.06c1.26-.65,2.53-1.27,3.82-1.86l.2-.08c1.28-.57,2.57-1.12,3.87-1.63l.08,0,.22-.08c1.13-.45,2.28-.87,3.43-1.26l.17-.07c1.15-.39,2.31-.75,3.47-1.1l.3-.09.2-.06c.84-.24,1.68-.47,2.53-.69.18-.06.37-.1.56-.15.68-.17,1.36-.34,2-.49l.41-.1.45-.09,1.25-.26,1-.19,1.27-.23.67-.13h.17c1.17-.2,2.33-.36,3.48-.5l.3,0,.22,0c1-.11,2-.2,3-.27l.25,0h.33c.94-.06,1.87-.1,2.78-.12h.08c.87,0,1.72,0,2.56,0h.64c.85,0,1.68.08,2.51.14h.07l.19,0c.85.07,1.69.17,2.51.28l.28,0,.19,0c.34,0,.66.11,1,.16l.79.14.94.2.64.14.08,0c.74.18,1.45.38,2.15.6l.49.16c.7.23,1.39.48,2,.76s1,.48,1.49.73l.41.22c.16.1.34.19.5.28s.26.18.4.26l.49.33c.26.17.51.35.75.53l.41.33.15.1c.28.24.54.48.8.72l.1.1c.2.2.39.39.57.59v0h0v0c.06.06.1.13.16.19l.26.3c.18.22.35.43.51.65a3.55,3.55,0,0,1,.23.31s.08.1.12.15l.21.34c.15.21.28.42.42.64l.27.48q.2.33.36.66a1.18,1.18,0,0,1,.11.19,2.29,2.29,0,0,1,.1.23c.2.38.38.76.56,1.15a.82.82,0,0,0,.09.19c.23.53.45,1.06.68,1.58.14.34.29.68.44,1l.21.47c.2.45.41.9.64,1.34.11.23.23.45.36.67s.12.24.19.36c.2.34.41.68.63,1s.3.43.46.64.43.6.67.9l.31.39c.31.39.65.78,1,1.17l.07.08c.37.4.76.79,1.17,1.18.11.12.24.23.36.34.3.28.61.55.93.83l.46.39,1,.77.45.33c.5.36,1,.7,1.56,1l.09.05.16.1.1,0c.07.05.15.08.23.13l.17.09.27.13.19.1.32.16.26.12.34.17.41.19.24.12.48.22.26.12.77.35c1.81.8,3.93,1.68,5.9,2.34l95.23-64.26-.6,68.55-95.23,64.26c-2-.66-4.1-1.53-5.9-2.33l-.78-.36-.13-.06-.6-.28-.22-.1-.44-.21-.27-.13-.33-.16-.2-.1-.32-.16-.15-.08-.28-.14-.12-.06-.21-.12-.09-.05-.13-.07,0,0c-.53-.33-1-.68-1.54-1l-.47-.35c-.34-.25-.66-.5-1-.76l-.25-.19a2.31,2.31,0,0,0-.24-.2l-.9-.81c-.12-.12-.26-.23-.38-.36-.41-.39-.8-.78-1.16-1.18h0l-.07-.08c-.35-.38-.68-.77-1-1.16l-.3-.39c-.24-.29-.46-.6-.68-.9,0-.08-.12-.15-.17-.22l-.28-.42c-.22-.33-.43-.66-.63-1l-.26-.48-.28-.52v0c-.23-.45-.45-.91-.65-1.37-.06-.12-.12-.25-.17-.38-.18-.41-.36-.81-.53-1.22s-.41-1-.62-1.42l-.12-.26c-.17-.36-.34-.73-.52-1.09l-.23-.45c-.11-.21-.22-.43-.35-.64s-.18-.33-.28-.49-.27-.42-.41-.64-.21-.33-.33-.49l-.23-.31c-.16-.21-.33-.43-.51-.63a4.15,4.15,0,0,0-.27-.32c-.23-.26-.47-.52-.73-.77a.52.52,0,0,1-.1-.11c-.3-.28-.62-.55-1-.82l-.41-.32-.75-.54-.5-.33c-.28-.18-.58-.36-.89-.53l-.41-.23c-.47-.25-1-.5-1.49-.73s-1.34-.52-2-.75l-.49-.16C808.73,531.36,808,531.16,807.28,531Z"/><path class="cls-18" d="M413.75,528l.61-68.55L536.45,510.8l-.5,57.05h.11l.8.09c1,.11,1.94.21,2.9.29l.28,0c.71.06,1.41.11,2.1.14l.79.05,1.56.06.58,0c1.22,0,2.44,0,3.62,0h.47c1,0,2-.06,2.92-.12h.22c.89-.06,1.76-.15,2.62-.24l.64-.07c.73-.09,1.45-.19,2.14-.3l.26,0c.76-.13,1.49-.27,2.22-.43l.55-.12c.67-.16,1.33-.33,2-.51l.28-.08.39-.13c.35-.1.7-.21,1-.33l.52-.19c.28-.11.57-.21.85-.33l.47-.19.81-.37.44-.21.8-.42.36-.2c.37-.21.73-.44,1.07-.67,4.58-3.09,5.28-7.05,5.39-11.17l0-3.34c0-3.38.26-6.74,2.49-9.68a58,58,0,0,1,9.54-7.24l121.93,51.31-.6,68.56L586.57,600.7a57.83,57.83,0,0,0-9.53,7.23c-2,2.65-2.4,5.62-2.47,8.65,0,1.11,0,2.22,0,3.33,0,4.48-.44,8.87-5.41,12.22-.34.23-.7.45-1.07.66l-.37.21c-.26.13-.52.28-.79.41l-.45.22-.8.36-.47.2-.26.11-.6.22-.51.19-1,.33-.42.13-.07,0-.18,0q-1,.28-2,.51l-.29.08-.24,0c-.72.16-1.47.3-2.23.43h0l-.17,0c-.72.12-1.45.21-2.2.3l-.32.05-.29,0c-.86.09-1.73.17-2.63.23h-.24c-1,.06-1.92.1-2.92.13h-.44c-1.19,0-2.4,0-3.63,0h-.28l-.31,0-1.55-.06-.79,0c-.74,0-1.49-.09-2.24-.16h-.13c-1-.07-1.95-.18-2.93-.28l-.77-.09c-.86-.11-1.73-.21-2.6-.34l-.32,0-.11,0-2.44-.38-.41-.08-2.05-.37-.92-.18-1.56-.32-1-.23-1.47-.34-.38-.08-.34-.09c-1.32-.32-2.64-.66-4-1l-.52-.15c-1.35-.38-2.69-.79-4-1.22l-.41-.13c-1.37-.45-2.73-.92-4.08-1.42l-.24-.09c-1.41-.53-2.81-1.08-4.18-1.66l-2-.86q-1.38-.61-2.7-1.26l-.89-.44c-.57-.28-1.14-.57-1.69-.86l-1-.51-1.49-.83-.92-.53-.55-.32-.9-.56-.78-.49L490,620.54c-.16-.11-.34-.22-.5-.34-.66-.46-1.3-.93-1.91-1.4l-.45-.36-1.07-.85-.19-.17c-.45-.38-.87-.75-1.28-1.13l-.56-.5c-.57-.55-1.12-1.09-1.62-1.64h0q-.66-.72-1.23-1.44l-.35-.46-.6-.79-.14-.22-.26-.4c-.22-.33-.42-.67-.61-1l-.24-.42-.13-.24c-.18-.35-.34-.7-.49-1,0-.06,0-.12-.07-.18-.1-.24-.2-.49-.28-.73s-.09-.31-.13-.46a2.25,2.25,0,0,1-.08-.24c-.09-.35-.18-.7-.24-1a1.52,1.52,0,0,0,0-.21c0-.07,0-.15,0-.22a7.91,7.91,0,0,1-.09-1.18v-.12q.21-24.4.43-48.79Z"/><path class="cls-19" d="M939.05,428.3l-294.75-124L414.36,459.43,536.45,510.8a53.45,53.45,0,0,1-8.23,5.36,67.41,67.41,0,0,1-15.06,4.39c-10.28,1.89-22.88,1.58-30.2,6.51-11.43,7.73-2.43,21.74,20.08,31.78l2,.86c24,10.08,52.93,11.82,64.7,3.87,9.56-6.44,2.21-16.69,7.91-24.19a58,58,0,0,1,9.54-7.24l121.93,51.31,95.14-64.19L803,518.7a112.51,112.51,0,0,0-12.52-4.58c-14.19-3.12-33.38.66-45.64-4.5-15-6.68-12-21.86,6.53-34.33,18.69-12.61,46.07-17.69,61.16-11.34,9.37,4.17,9,10.73,12.63,16.12a27.77,27.77,0,0,0,8.44,8.06c.44.27,2.14,1.13,4.29,2.09,1.81.8,3.93,1.68,5.9,2.34Z"/></g><g class="cls-16"><path class="cls-20" d="M669.38,707.39c0,.17,0,.34,0,.51s0,.36,0,.54,0,.29-.05.44,0,.35-.06.52-.06.34-.1.51,0,.25-.08.38-.09.35-.14.51-.07.25-.11.37a1.8,1.8,0,0,1-.08.21,9.94,9.94,0,0,1-.58,1.39,0,0,0,0,0,0,0,13.85,13.85,0,0,1-.77,1.27l-.14.21a11.32,11.32,0,0,1-1,1.17c-.09.11-.19.21-.29.32s-.21.23-.33.33l-.4.37c-.12.11-.24.23-.37.33l-.35.29-.67.51-.36.26c-.25.17-.51.34-.78.49l-.34.22c-.23.14-.47.27-.71.39s-.26.16-.4.23l-1.19.57a31.9,31.9,0,0,1-4.93,1.58c-1.37.33-2.78.6-4.24.81s-2.8.35-4.23.47c-2,.16-4.07.26-6.14.31-4.55.14-9.21.09-13.74.22-2,.06-4.06.15-6,.31l.6,69.68c2-.16,4-.26,6-.31,4.53-.13,9.19-.08,13.74-.21,2.08-.06,4.13-.16,6.14-.32,1.44-.11,2.85-.27,4.24-.47s2.86-.48,4.24-.81a30.76,30.76,0,0,0,4.92-1.59q.62-.27,1.2-.57l.32-.18c.27-.14.53-.28.79-.44l.08,0,.22-.14.81-.52.36-.26c.23-.17.46-.34.67-.51l.21-.16.15-.13c.12-.11.25-.21.37-.33l.39-.36.34-.34a2,2,0,0,1,.2-.21l.09-.11a11.46,11.46,0,0,0,.94-1.17s0-.05.06-.08l.08-.12a12.06,12.06,0,0,0,.77-1.28h0a10.78,10.78,0,0,0,.59-1.41l0-.11s0-.05,0-.08.09-.28.13-.42l.12-.46.09-.42c0-.11,0-.23.07-.34s0-.09,0-.13,0-.37.07-.56,0-.27,0-.4,0-.42,0-.62,0-.2,0-.3v-.14Z"/><path class="cls-20" d="M613.2,724.54h-.07a117,117,0,0,0-12.65,4.65c-.43.19-.85.38-1.25.58l.62,69.68c.39-.2.81-.39,1.24-.58a117.82,117.82,0,0,1,12.64-4.65l.08,0c1.09-.24,2.22-.43,3.37-.61,1.37-.19,2.77-.34,4.2-.46l-.6-69.68c-1.44.11-2.84.27-4.21.47C615.42,724.09,614.29,724.3,613.2,724.54Z"/><path class="cls-21" d="M696.53,864.7,695.92,795,571.83,847.23l.51,58c-14.41,1.72-27.35.37-34.35-4.34-4.64-3.15-5.35-7.16-5.47-11.34l0-3.45c0-3.43-.27-6.83-2.53-9.81a60.67,60.67,0,0,0-9.68-7.35L396.33,921.08l.61,69.68,124-52.16a59.56,59.56,0,0,1,9.68,7.36c2,2.67,2.43,5.68,2.51,8.74l0,3.45c0,4.55.45,9,5.5,12.4,12,8.08,41.4,6.31,65.76-3.94.68-.28,1.36-.58,2-.88,16.2-7.21,25.53-16.47,25.46-24q-.23-24.8-.44-49.59Z"/><path class="cls-20" d="M660.08,719.76l.61,69.67c-13,5.46-32.47,1.62-46.88,4.78a117.8,117.8,0,0,0-12.72,4.67c-.43.19-.85.38-1.24.58l-.62-69.68c.4-.2.82-.39,1.25-.58a114.13,114.13,0,0,1,12.72-4.66C627.61,721.37,647.12,725.21,660.08,719.76Z"/><polygon class="cls-20" points="396.33 921.08 162.62 763.38 163.23 833.06 396.94 990.76 396.33 921.08"/><path class="cls-22" d="M626.2,863.77c-7.44-5-20.26-4.7-30.69-6.63a68.22,68.22,0,0,1-15.32-4.46,53.41,53.41,0,0,1-8.36-5.45L695.92,795l-96.69-65.24c.4-.2.82-.39,1.25-.58a114.13,114.13,0,0,1,12.72-4.66c14.41-3.17,33.92.67,46.88-4.78,14.76-6.59,11.65-22-7.15-34.68-19-12.82-46.82-18-62.62-11.33-9,4-8.68,10.71-12.37,16.18a28.23,28.23,0,0,1-8.58,8.2c-.45.27-2.2,1.15-4.4,2.14-1.82.81-4,1.69-6,2.37l-96.8-65.33L162.62,763.38l233.71,157.7,124-52.15a60.67,60.67,0,0,1,9.68,7.35c5.79,7.63-1.68,18,8,24.6,12,8.07,41.41,6.3,65.77-3.94l2-.88C628.66,885.86,637.82,871.61,626.2,863.77Z"/></g><path class="cls-1" d="M1246.85,1130.86c0,41.38,75.38,74.91,168.36,74.91s168.36-33.53,168.36-74.91-75.38-74.9-168.36-74.9S1246.85,1089.49,1246.85,1130.86Z"/><path class="cls-23" d="M1358.5,1114.07c-11.89,12-31.5,18.36-31.5,18.37-16.53,4.2-26.25-6.8-26.25-6.8-3.55-5,.77-7.69.77-7.69,34.84-26.5,45.28-34,45.28-34h32c1.56,12.86.69,18,.69,18a27.71,27.71,0,0,1-17.55,10.63c-.66.11-1.89-.85-2.51-.6Z"/><path class="cls-24" d="M1301.36,1118.06a9.21,9.21,0,0,0,.67,2.19c2.71,5.79,10.24,8.19,16.2,8.1,7.17-.1,13.68-3.6,19.92-6.76a88.91,88.91,0,0,0,16.5-11.19c3.6-3,8.21-4.38,12.47-6.24,4.8-2.1,8.43-5.36,12.58-8.47,0,3.44-.22,6.31-.22,6.31a27.71,27.71,0,0,1-17.55,10.63c-.66.11-1.89-.85-2.51-.6l-.92,2c-11.89,12-31.5,18.36-31.5,18.37-16.53,4.2-26.25-6.8-26.25-6.8C1297.59,1121.23,1300.64,1118.6,1301.36,1118.06Z"/><path class="cls-4" d="M1382.31,824.49c-35.57,39.28-49.67-2.26-49.67-2.26l-4.41-241.44c-.46,3.59-1.65-24.35,43.27-18.3s56.13,23.5,56.13,23.5-24.65,166.76-45.32,238.5"/><path class="cls-4" d="M1332.41,819.17s18,254.26,19.53,263.19c0,0,21.94,4.85,22-.21.25-12.18,25.3-161,25.62-180.11.82-48.45-11.67-57.61-24.13-90.25C1375.47,811.79,1332.32,779.89,1332.41,819.17Z"/><path class="cls-25" d="M1393,833.63c20.67-71.74,34.6-247.64,34.6-247.64s-11.34-17.46-56.13-23.5-43.73,21.89-43.27,18.3c0,0-13.61,130.92-1.15,249.91C1327.08,830.7,1365.45,851.08,1393,833.63Z"/><path class="cls-6" d="M1460.91,451.29c6.35,22.59,32.54,108.8,32.54,108.8-93.77,112.18-164.41,14-165.34,3.79-1.12-12.25,12.55-59,15-109.45C1343.14,454.43,1368.71,415.07,1460.91,451.29Z"/><path class="cls-25" d="M1328.65,592c-4.44-30.22,4.77-60.69,9.52-91.22h137.35c8.79,29.27,17.93,59.35,17.93,59.35s5.87,69.26-52.94,77.56C1440.51,637.65,1338,655.42,1328.65,592Z"/><path class="cls-6" d="M1484.91,829.78c-29.37,44.12-49.47,5.11-49.47,5.11L1387.81,599.7c.07,3.62,1.42-30.64,46.74-31.31s59,14.92,59,14.92,1.18,172.45-8.63,246.47"/><path class="cls-6" d="M1434.76,831.9s47.18,267.94,50,276.55c0,0,22.42,1.54,21.77-3.47-1.56-12.08,2.48-181,0-200-6.37-48-13-56.3-30.19-86.74C1476.26,818.23,1428.86,793.07,1434.76,831.9Z"/><path class="cls-23" d="M1482.57,1103.27l-13.27,40.46s2.74,36.23,31.79,13.78l8.65-8.39a9.26,9.26,0,0,0,3.13-8.89l-2.58-15.51-3.09-21.45S1489,1090.91,1482.57,1103.27Z"/><path class="cls-24" d="M1501.09,1152.34l8.65-8.38a9,9,0,0,0,3-4.64l.16.91a9.26,9.26,0,0,1-3.13,8.89l-8.65,8.39c-29,22.45-31.79-13.78-31.79-13.78l.52-1.58C1471.45,1150.71,1477.85,1170.3,1501.09,1152.34Z"/><path class="cls-26" d="M1429.63,841.39C1413.08,792.82,1381.85,592,1381.85,592c.07,3.62,9.35-48,54.67-48.64s56.93,16.77,56.93,16.77,14.16,196.59,4.34,270.61C1497.79,830.7,1466,867.46,1429.63,841.39Z"/><path class="cls-4" d="M1350.1,296.78S1273.37,387,1235.22,416.91c0,0-25.64-9.48-24.85-26.9,0,0,56.18-83.1,91.44-132.26C1301.81,257.75,1349.5,244,1350.1,296.78Z"/><path class="cls-4" d="M1221.48,382.47S1137.7,431.24,1103,447.54c0,0-6.23,9.75,3.82,10.67,16.8,1.54,133.54-38,136.39-47.17C1256.51,368.25,1221.48,382.47,1221.48,382.47Z"/><path class="cls-4" d="M1298,286.7a31.27,31.27,0,0,0,40,18.5,30.84,30.84,0,0,0,18.13-39.86,31.27,31.27,0,0,0-40-18.5A30.84,30.84,0,0,0,1298,286.7Z"/><path class="cls-27" d="M1336.33,245.12s-27.35-9.59-46.15,17.26l-66.92,97.07s13.79,30.91,46.36,47.78C1269.62,407.23,1389.45,296.89,1336.33,245.12Z"/><path class="cls-12" d="M1413.87,212.53s5.52-10.63,17.71-31c0,0,25.93-26.64,11.4-60.11,0,0-8-28-56.92-23.92C1386.06,97.49,1381.38,174.53,1413.87,212.53Z"/><path class="cls-6" d="M1415.8,168.91s-8.23,76.78,9.33,82.58l-62.61-3.73s9.84-23.19-1.61-40.31Z"/><path class="cls-7" d="M1366,234.35c1-17.54-1.16-21.1-5-26.9l54.89-38.54s-2.65,24.8-1.73,47.28C1398.18,231.24,1385.05,234.77,1366,234.35Z"/><path class="cls-6" d="M1318.36,245c-13.95,10.18-15.55,34.54-10.57,49.76,5.71,17.48,8,39.78,13.7,65.06,7.75,34.25,13,60.62,21.65,94.64,7.16,28.13,120.2,5.46,120.2,5.46l40.51-138.44s7-36.15-25.76-48.17c0,0-34.5-18.62-59.75-27.17-22.29-7.55-30.37-8.26-53.26-6.85C1365.08,239.26,1334.41,240.38,1318.36,245Z"/><path class="cls-28" d="M1338.5,103.31c-3.23,14.73-6.9,22.43-2.83,35.93,3.66,12.12,2.81,24.87,8.11,36.62,7.55,16.76,17.38,14.57,24.89-.85,7.69-15.78,15.71-37.11-1.65-48.8-11.15-7.51-15.17-20.42-28.52-22.9Z"/><path class="cls-12" d="M1348.17,218.39l-2.61-8.68-6.59-32.1a32.41,32.41,0,0,1,.51-13.33c1.11-4.37,2-8.95,1.14-13.7-3.95-23,8.58-35,8.58-35C1363.54,95.19,1395,96.79,1395,96.79c38.84,3.88,40.22,41.72,40.22,41.72,5.06,25.37-15.93,45.24-16,45.28-1.68,1.59-1.27,9.88-1.87,12.2-2.56,9.9-12.44,15.56-21.13,19.37-9.55,4.18-21.06,8.56-31.53,9C1360.77,224.52,1349.66,223.37,1348.17,218.39Z"/><path class="cls-28" d="M1339.76,177c5.11,4.61,12,2.51,17.49,5.84,3.55,2.18,5.31,2,9.2.9a14.42,14.42,0,0,1,8.78.3c3.24.93,9.12,3.75,12.27,5,4.8,1.94,10.19,1.33,13.92-3.21,3.91-4.76,5.39-5.74,7.23-11.44,3.37-10.5,14-11.14,21.3-5.25a62.91,62.91,0,0,1-10.68,14.61c-1.68,1.59-1.27,16.73-1.87,19.05-2.56,9.9-12.44,15.56-21.13,19.37-9.55,4.18-24.11,4.76-34.58,5.2-4,.16-12-4-13.52-9l-2.61-8.68-6.59-32.1c-.11-.56-.16-1.18-.23-1.78A9.69,9.69,0,0,0,1339.76,177Z"/><path class="cls-28" d="M1339.06,117c8.79,0,8.69,7.37,15.42,11.46,14.44,8.79,36.85-4.09,48.48,10.15a27.39,27.39,0,0,1,3,4.52c3.44,6.41,4.46,14.16,5.56,21.28.32,2.1-1.24,7.47.67,9.07,1.09.93,3,.65,5,0,.39,3.21-2.19,5.68-3.3,8.64s-2.85,5.49-1.28,8.48c4,7.7.94,6.43,1.31,21.91,2.51-3.67,8.69-8.13,10.64-9.83,5.64-4.92,11-10.29,15-16.63s6.56-13.19,9.13-20.06c4.2-11.25,6.62-23.44,3.25-35.25,0,0-2.66-27.44-25.62-30.38,0,0,2.92-17.68-39-22.35,0,0-33.13.51-35-10.92,0,0-6.69,5.72-5,14.56,0,0-13.63,4.15-19.75-11.44C1327.53,70.23,1316.18,111.29,1339.06,117Z"/><path class="cls-12" d="M1413.28,190.27a6.89,6.89,0,0,0,4.4,2.62c5.22,1,10.46-3.91,11.69-10.87s-2-13.35-7.22-14.31a8.44,8.44,0,0,0-7,2.17c-3,2.58-4,8.24-4,12.27C1411.12,185.38,1411.74,188.28,1413.28,190.27Z"/><path class="cls-13" d="M1418.9,173.88c.81-3.64,7.85.78,6.47,2.72a11.29,11.29,0,0,1-3.34,2.55,5.48,5.48,0,0,0-2.78,3.76c0,.22-.17.85,0,1,.88.79,4.48-2.43,5.27-3.11a6.23,6.23,0,0,0,1.61-5.79,3.74,3.74,0,0,0-3.77-3.26c-1.68-.11-3.41-.2-3.56,1.9,0,0,0,.4.07.21Z"/><path class="cls-13" d="M1420.83,178c-.68-.87-1.5-.31-2.37.17a3.52,3.52,0,0,0-1.6,2,8.75,8.75,0,0,0,.19,6.27,4.71,4.71,0,0,0,3.75,2.62c2.26.2,3.16-1.71,3.48-3.6.09-.5.27-1.71-.19-2.08s-1,.39-1.38.7a3.17,3.17,0,0,1-2,.49,4.09,4.09,0,0,1-3.17-1.89,2.43,2.43,0,0,1-.27-.62c-.14,1.24-.11,1.53.1.86a3.56,3.56,0,0,1,.53-.83c.62-.8,1.58-1.28,2.25-2,.33-.34,1-1.62.67-2.07Z"/><path class="cls-13" d="M1359.34,175.11l10.58,4.09s-14.28.89-14.83-3.26c0,0,2.16-8.1,4.5-15.77C1359.59,160.17,1357.77,174.5,1359.34,175.11Z"/><path class="cls-28" d="M1377.81,160.17c0,2.24,1.23,4,2.75,4s2.75-1.8,2.75-4-1.23-4-2.75-4S1377.81,157.94,1377.81,160.17Z"/><path class="cls-28" d="M1347.28,156.78c0,2.24,1.23,4,2.75,4s2.75-1.8,2.75-4-1.23-4.05-2.75-4.05S1347.28,154.54,1347.28,156.78Z"/><path class="cls-28" d="M1375,152.32c-1,.2-1.24-1.13-1.24-1.13a4.61,4.61,0,0,1,.07-2.37,2.27,2.27,0,0,1,1.18-1.19c2.55-.36,7.49.27,11.69,1.52,2.32.7,6.08,2.42,6.33,4.56.07.64.13,1.75-.59,1.94A95.49,95.49,0,0,0,1375,152.32Z"/><path class="cls-28" d="M1340.23,148.84a83.28,83.28,0,0,1,13.65,1.43c.9.47,1.49-.74,1.49-.74a4.64,4.64,0,0,0,.58-2.31,2.24,2.24,0,0,0-.8-1.46,24.67,24.67,0,0,0-10.12-1.59,20,20,0,0,0-5.08.69S1339.65,145.67,1340.23,148.84Z"/><path class="cls-15" d="M1353.43,188c-.87,0-1.33.4-1,1,0,0,3.81,7.15,10.48,8s12.11-5.23,12.11-5.23c.53-.59.07-1.18-1-1.32C1374,190.47,1362.49,189,1353.43,188Z"/><path class="cls-26" d="M1484,532.67S1508,571.5,1484,615s-97.5,27.66-97.71-28.71C1386,530.62,1436.7,509.33,1484,532.67Z"/><path class="cls-27" d="M1365.08,239.26s-30.67,1.12-46.72,5.71c-13.95,10.18-15.55,34.54-10.57,49.76,5.71,17.48,8,39.78,13.7,65.06,7.75,34.25-2,59.28,6.62,93.3,7.16,28.13,156.74,0,156.74,0l19-131.64s7-36.15-25.76-48.17c0,0-32.93-18.07-58.18-26.63,0,0,3.94,26.63-39.47,19.28C1380.44,265.93,1353.92,259.53,1365.08,239.26Z"/><path class="cls-27" d="M1484.85,453.09c6.34,22.59,11.37,98.77,11.37,98.77-17.2,71.31-175.4,20-176.34,9.77-1.11-12.25,3.74-70.52,6.22-121C1326.1,440.67,1392.64,416.87,1484.85,453.09Z"/><path class="cls-6" d="M1438.21,324.82c10.33,21,48.64,127,61,143.71,3.27,4.45,34.85,24.79,42-2.94-17.41-110-43.74-172.73-43.74-172.73s-30.75-25.64-55.31-1.94C1442.08,290.92,1430.93,310.28,1438.21,324.82Z"/><path class="cls-6" d="M1433.86,306.05a37,37,0,1,0,42.64-30.33A37,37,0,0,0,1433.86,306.05Z"/><path class="cls-27" d="M1470.35,269.23s31.81,11.93,39.33,37.74l19.63,70.23s-25.72,37.41-64,36.17l-37.88-84.13S1401.9,282,1470.35,269.23Z"/><path class="cls-4" d="M1063.24,470.16l9.8-.26s-17.87,4.58-23.63-1.22c0,0-1.47-.92.82-3,0,0,15.8-.54,22.74-2.54,0,0-15.63,3.78-26.76,2.66,0,0-4.36-2.86.34-5.46-3.54-1.37-.52-3.71-.52-3.71a61.62,61.62,0,0,1,10.65-4.11,253.32,253.32,0,0,0,24.38-9.5s-10.31-6.75-6.45-12.19l15.91,8.39,14.39,9.25,1.91,9.73-15,10.41s-14.55,5.85-22.79,6.13C1069.06,474.75,1045.43,473.91,1063.24,470.16Z"/><path class="cls-26" d="M1429.63,841.39l41.14,256.39s13.63,13.13,45.26,0l5.25-125.28s9.29-82.76-23.49-141.8C1497.79,830.7,1433.22,778.59,1429.63,841.39Z"/><path class="cls-25" d="M1393,833.63s17.51,25.34,1.82,120.44L1378.79,1084s-18.47,11.06-39.26.5l-13-258.73S1338.19,781.8,1393,833.63Z"/><g class="cls-16"><path class="cls-29" d="M1092.83,520.64c0-3.11-1.65-5.94-5-8.24a19,19,0,0,0-1.7-1c-.19-.1-.38-.18-.57-.27-.43-.21-.86-.41-1.31-.59a3.31,3.31,0,0,0-.33-.15l-.29-.1c-.72-.27-1.45-.53-2.21-.75l0,0h0c-.77-.23-1.57-.42-2.38-.6l-.27-.08-.34-.06c-1-.21-1.93-.4-2.92-.57h-.08l-.25,0c-1-.17-2.06-.32-3.11-.46l-.33,0c-1.1-.15-2.21-.27-3.32-.4l-.2,0-2.69-.31-3.16-.38-.58-.08c-1-.13-2-.28-3-.44-.51-.08-1-.17-1.55-.27q-1.58-.28-3.15-.63l-.56-.13c-.77-.17-1.53-.35-2.29-.54l-.06,0c-.76-.19-1.51-.4-2.26-.61l-.72-.22-1.53-.49-.75-.25-1.54-.55-.57-.22c-.65-.26-1.28-.52-1.88-.8a52.94,52.94,0,0,1-8.36-5.45l.62,69.68a53,53,0,0,0,8.35,5.45c.61.28,1.24.54,1.88.8l.14.05.43.16c.51.2,1,.39,1.55.57l.73.24c.51.17,1,.34,1.58.5l.43.14a1.55,1.55,0,0,1,.23.06c.76.22,1.52.43,2.29.62h0l2.34.56.22,0,.32.07c1,.23,2.11.45,3.16.65l1.3.23.26,0c1,.16,2,.3,3,.44l.6.08,3.11.37h0l2,.23.82.09,3.37.41.26,0c1.06.14,2.12.29,3.15.46l.33,0c1,.16,2,.35,2.92.55l.62.14c.81.19,1.61.39,2.39.61s1.52.5,2.25.77l.62.24c.45.18.89.39,1.32.59l.56.28a19.13,19.13,0,0,1,1.71,1c3.39,2.29,5,5.13,5,8.24Z"/><path class="cls-30" d="M991.87,674.09l.72-.16,1-.21.8-.14.69-.12.51,58.4,96.69,65.24-.62-69.68-80.09-54c1.17.14,2.35.31,3.54.5l.81.14c.44.08.89.15,1.33.25s.64.12,1,.19l1.27.26.89.2c.68.16,1.37.32,2.06.5l.57.14c.86.22,1.73.46,2.58.71l.49.15c1.19.35,2.37.72,3.54,1.12l.18.06c1.17.41,2.34.84,3.49,1.28l.29.12c1.32.52,2.64,1.08,3.94,1.66l.19.09c1.32.59,2.62,1.22,3.9,1.88l.12.06c1.3.67,2.57,1.38,3.81,2.11l.07,0c1.26.75,2.5,1.52,3.69,2.33,10.68,7.21,16.29,15.29,16.35,22.18q-.3-34.85-.61-69.68c-.06-6.88-5.68-15-16.35-22.18q-1.8-1.22-3.69-2.33l-.07,0q-1.86-1.1-3.81-2.1l-.13-.07c-1.28-.66-2.57-1.29-3.89-1.89l-.19-.08c-1.3-.59-2.62-1.14-3.95-1.67l-.07,0-.21-.07c-1.16-.46-2.34-.89-3.52-1.3l-.14,0c-1.19-.41-2.38-.78-3.57-1.14-.09,0-.18-.06-.27-.09l-.18,0-2.61-.72-.53-.12c-.7-.19-1.41-.36-2.12-.52l-.4-.09-.44-.09-1.33-.28-.91-.19-1.34-.23-.65-.12-.17,0c-1.19-.21-2.39-.37-3.57-.51l-.27,0-.21,0c-1-.11-2.06-.21-3.08-.28l-.25,0h-.33c-1.9-.11-3.74-.16-5.54-.11h-.6c-.88,0-1.74.08-2.59.15H998l-.15,0c-.88.07-1.75.17-2.6.29l-.27,0-.2,0-1,.18L993,604l-1.06.23-.56.12-.08,0c-.75.18-1.48.39-2.19.61l-.49.17c-.72.24-1.42.49-2.09.77s-1,.49-1.51.74l-.42.24-.51.27c-.14.09-.26.18-.4.26l-.51.34c-.26.17-.51.36-.75.55l-.43.32a.83.83,0,0,1-.15.11c-.28.25-.55.48-.8.73l-.1.09c-.21.2-.41.41-.6.61a1.46,1.46,0,0,1-.16.19l-.27.31-.52.66c-.07.1-.16.2-.23.31l-.12.16-.22.35c-.15.21-.28.42-.41.64s-.2.33-.29.5-.24.43-.36.64-.08.14-.11.22-.08.17-.12.25q-.29.56-.54,1.11a1.89,1.89,0,0,1-.11.25c-.22.5-.44,1-.65,1.5s-.33.78-.5,1.15c-.06.15-.13.3-.19.44-.21.46-.42.92-.65,1.37-.12.24-.25.48-.39.71a2.57,2.57,0,0,1-.18.33c-.19.35-.4.69-.63,1s-.3.42-.45.63-.45.61-.69.93l-.32.39c-.32.39-.65.78-1,1.18a.73.73,0,0,0-.08.09c-.38.41-.78.81-1.19,1.21l-.37.35c-.3.28-.61.56-.94.83l-.48.41c-.33.26-.66.52-1,.77l-.47.36c-.51.35-1,.7-1.57,1l-.17.09a.18.18,0,0,0-.08,0l-.22.11-.12.07a1.58,1.58,0,0,0-.26.13l-.19.09-.28.14-.25.13-.29.13-.33.17-.32.14-.35.18-.51.23-.23.11-.8.36c-1.82.81-4,1.7-5.95,2.37l-96.81-65.33.62,69.69,96.8,65.32c2-.68,4.12-1.56,5.95-2.37l1.5-.68,0,0,.63-.29s0,0,0,0l.45-.21.18-.09.32-.16.21-.1.24-.13.21-.1a.7.7,0,0,1,.17-.09l.17-.1.11-.06.11-.06,0,0c.55-.33,1.07-.69,1.58-1.05l.46-.34,1-.79a2.23,2.23,0,0,1,.24-.19l.23-.2.93-.84.39-.35c.41-.4.8-.8,1.18-1.21,0,0,0,0,0,0l.08-.09c.36-.39.69-.77,1-1.16l.31-.41c.24-.3.47-.6.69-.91,0-.08.12-.15.18-.24l.27-.39c.23-.34.44-.68.64-1l.2-.37c.12-.21.23-.42.34-.63l0,0c.23-.46.44-.92.65-1.38.06-.15.13-.29.19-.43.16-.38.33-.76.5-1.14s.43-1,.66-1.53l.1-.21c.17-.39.36-.77.55-1.15.07-.16.15-.3.22-.45l.36-.66c.09-.17.19-.33.28-.49l.42-.64c.11-.18.22-.35.34-.52l.24-.31c.16-.21.33-.43.51-.64s.18-.22.28-.32c.23-.27.48-.53.75-.79l.1-.1q.45-.44,1-.84c.13-.11.28-.22.42-.32s.49-.37.76-.56l.5-.33.91-.54.42-.23c.48-.25,1-.5,1.51-.75s1.37-.53,2.09-.76l.49-.16C990.39,674.48,991.12,674.27,991.87,674.09Z"/><polygon class="cls-31" points="1391.23 601.36 1391.84 671.03 1092.25 797.1 1091.63 727.42 1391.23 601.36"/><path class="cls-32" d="M857.92,569.71l123.94-52.15a60.06,60.06,0,0,1,9.69,7.35c5.8,7.63-1.67,18,8,24.6,12,8.07,41.41,6.3,65.76-3.94.68-.28,1.35-.57,2-.86,22.88-10.21,32.06-24.46,20.42-32.31-7.43-5-20.25-4.7-30.69-6.63a67.92,67.92,0,0,1-15.31-4.46,52.94,52.94,0,0,1-8.36-5.45l124.09-52.21,233.72,157.71-299.6,126.06L995,662.18c.38-.19.78-.37,1.19-.55a115.9,115.9,0,0,1,12.77-4.69c14.42-3.16,33.92.68,46.38-4.56,15.26-6.8,12.15-22.22-6.64-34.9-19-12.82-46.83-18-62.16-11.52-9.52,4.23-9.15,10.91-12.83,16.38a28.47,28.47,0,0,1-8.58,8.2c-.45.26-2.2,1.15-4.4,2.13-1.82.81-4,1.7-5.95,2.37Z"/></g><path class="cls-12" d="M437.81,898s10.26-6.65.41-18.92c-25.44-1.62-55.35-15.36-55.35-15.36-37.4-11.76-89.93-69.66-113.84-96-26.85-29.58-67.51-4.47-45.69,29.3,40.82,63.19,148.13,104.85,213.94,102.38"/><path class="cls-33" d="M159.39,1192C175,1119,179.7,949.85,179.7,949.85s-12.52-16.63-57.62-19.53S80,955.19,80.18,951.59c0,0,0,119.67,20.75,237.5C100.93,1189.09,133.09,1211.28,159.39,1192Z"/><path class="cls-34" d="M80.64,959.87c-4.45-30.21,4.76-60.69,9.51-91.22H227.51C236.3,897.93,245.43,928,245.43,928s5.88,69.26-53,77.56C192.48,1005.56,90,1023.33,80.64,959.87Z"/><path class="cls-1" d="M0,1487.11c0,58.23,106.1,105.44,237,105.44s237-47.21,237-105.44-106.09-105.43-237-105.43S0,1428.88,0,1487.11Z"/><path class="cls-23" d="M374.82,1483.3l-7.83-.45c-2.67-.42-2.65,3.78-3,3.92-8.18,3.23-15.45,5.75-18.53,5.88,0,0-14.48-1.89-16-6.27l2.05-26.86c16.13-1.36,33-4.48,33-4.48l35.46-5c17.06-1.78,20.17,4.39,20.17,4.39S430.52,1470.05,374.82,1483.3Z"/><path class="cls-35" d="M353.29,1481.71a43.11,43.11,0,0,1,9.17-3c17.49-3.06,34.61-4.79,49.17-16,3.56-2.74,6.07-6.16,6.32-10.23a6.3,6.3,0,0,1,2.12,2s10.45,15.6-45.25,28.85l-7.83-.45c-2.67-.42-2.65,3.78-3,3.92-8.18,3.23-15.45,5.75-18.53,5.88,0,0-14.48-1.89-16-6.27l.5-6.55C335.68,1483.15,345.86,1485.15,353.29,1481.71Z"/><path class="cls-23" d="M137.91,1476.65l-7.83-.45c-2.66-.42-2.64,3.77-3,3.92-8.18,3.22-15.45,5.75-18.53,5.88,0,0-14.47-1.89-16-6.28l2-26.85c16.14-1.36,33-4.48,33-4.48l35.47-5c17.06-1.78,20.16,4.4,20.16,4.4S193.61,1463.4,137.91,1476.65Z"/><path class="cls-35" d="M116.38,1475.06a42.73,42.73,0,0,1,9.17-3c17.5-3.06,34.61-4.79,49.17-16,3.56-2.75,6.07-6.16,6.33-10.24a6.39,6.39,0,0,1,2.11,2s10.45,15.6-45.25,28.85l-7.83-.45c-2.66-.42-2.64,3.77-3,3.92-8.18,3.22-15.45,5.75-18.53,5.88,0,0-14.47-1.89-16-6.28l.49-6.54C98.78,1476.5,109,1478.49,116.38,1475.06Z"/><path class="cls-33" d="M134.91,1454.83c5.81-6.93,24.87-261.63,24.87-261.63,3.16-39.16-61.94-22.72-61.94-22.72-9.48,39-8,46.31-10.93,94.68-1.18,19.11,1.87,177.33,1.16,189.5C88.07,1454.66,118.29,1474.68,134.91,1454.83Z"/><path class="cls-36" d="M184.85,904.05s39.1,66.56,15,110.07S74.47,1010.28,80.7,959.89C87.54,904.63,137.6,880.7,184.85,904.05Z"/><path class="cls-6" d="M212.89,819.2c6.35,22.59,32.54,108.8,32.54,108.8C173.66,995.69,81,942,80.09,931.79c-1.11-12.25,12.55-59,15-109.45C95.13,822.34,120.69,783,212.89,819.2Z"/><path class="cls-36" d="M299.25,1179.32c-7.62-74.28-60.53-263.76-60.53-263.76s-15.46-14.24-59.27-3.11-48.65,68.3-49.57,64.8c0,0,51,119.93,118.8,225.6C248.68,1202.85,281.44,1219.63,299.25,1179.32Z"/><path class="cls-36" d="M365.34,1452C364.05,1443,298,1176.9,298,1176.9c-15.55-32.82-60.2,1.74-60.2,1.74.15,23.82.79,52.56,16.17,98.51,6.07,18.15,62.23,182.51,66.14,194C320.11,1471.19,353.29,1481.71,365.34,1452Z"/><path class="cls-4" d="M43.4,646.71s-7.1,119.54-2.57,167.8c0,0,0,21.93,38.63,32.92,0,0,14.05-133.09,25.49-192.5C105,654.93,82.13,610.86,43.4,646.71Z"/><path class="cls-4" d="M86.53,677.59A31.26,31.26,0,0,1,45.62,661.3a30.83,30.83,0,0,1,16.46-40.58A31.26,31.26,0,0,1,103,637,30.83,30.83,0,0,1,86.53,677.59Z"/><path class="cls-37" d="M70.33,612.88s-28.23,6.53-29.74,39.27L36,770s28.2,18.73,64.74,15.55C100.76,785.52,142.91,628.17,70.33,612.88Z"/><path class="cls-6" d="M176.93,538.08s.25,42.08,3.93,84l-55.51-9.2s8.13-19.14-3.32-36.25Z"/><path class="cls-6" d="M70.33,612.88c-13.94,10.19-15.54,34.55-10.56,49.76,5.72,17.48,8,39.78,13.71,65.06,7.75,34.25,13,60.62,21.65,94.64,7.15,28.13,120.19,5.46,120.19,5.46l40.51-138.44s7-36.14-25.76-48.17c0,0-34.49-18.62-59.74-27.17-22.3-7.55-30.38-8.26-53.27-6.85C117.06,607.17,86.39,608.29,70.33,612.88Z"/><path class="cls-36" d="M235.94,900.59s24.06,38.82,0,82.33-97.49,27.66-97.71-28.71C138,898.53,188.69,877.24,235.94,900.59Z"/><path class="cls-37" d="M117.06,607.17s-30.67,1.12-46.73,5.71c-14.5,10.6-14.25,31.42-11.45,47.17,5.35,30.13,10.78,60.56,13.57,91,1.25,13.5,4.61,41,5.61,54.5,1,13.11,5.13,20.34,18.55,27.27,10.2,5.26,17.79,1.08,28.9,1.38,28.27.77,56.17-2.32,84.18-5.78,1.18-.15,44.89,29.34,30.51,7.65l15.63-146.74s7-36.14-25.76-48.17c0,0-23-14.41-48.28-23C181.79,618.23,137.88,619.34,117.06,607.17Z"/><path class="cls-12" d="M195.61,586.68l2.37-9.14,5.61-33.7A33.74,33.74,0,0,0,202.54,530c-1.32-4.5-2.38-9.25-1.73-14.22,3.23-24.14-10.29-36.13-10.29-36.13-15.73-20.67-48.46-17.78-48.47-17.78-17,2.57-31.79,9.59-40.24,25.07-7.66,14-11.82,31.16-7.28,46.83,5,17.18,14.61,30.61,27.35,42.79,8.16,7.8,16.49,8.76,27.16,12.66,7.43,2.71,21.65,4.3,29.54,4.35C182.72,593.55,194.24,591.93,195.61,586.68Z"/><path class="cls-38" d="M189.14,493.62l-5.21,20.92c-6,2.6-8.34,4.91-7.52,12.73l1.88,17.28-4.7,1.8c.39-6.92-9.21-7-9.21-7-7-.41-8.21,5.57-7.8,11.33,1,15-4.41,38.7-16.94,42.87-4.95,1.65-14.28,3.37-15.85-3.33-1.91-8.2-17.44-24.49-17.44-24.49C87.7,547.66,83,516.83,91.84,493.27a56.88,56.88,0,0,1,13.39-19.79c11.63-11.13,26.28-16.6,41.72-18.61,0,0,21.26-2.6,33.22,5.79,7.4,5.21,12.27,10,15.44,14.13C195.61,474.79,200.14,484.39,189.14,493.62Z"/><path class="cls-12" d="M172,561a8.64,8.64,0,0,1-5.45,2.05c-6.22.3-11.74-5.18-12.34-12.23s4-13,10.16-13.32a10.93,10.93,0,0,1,7.92,3c3.18,2.93,3.64,8.67,3.18,12.68C175.12,556.44,174,559.24,172,561Z"/><path class="cls-13" d="M167.3,543.94c-.61-3.68-7.88.33-6.61,2.35a11.37,11.37,0,0,0,3.19,2.74,5.45,5.45,0,0,1,2.56,3.9c0,.22.12.86-.08,1-.93.74-4.34-2.68-5.09-3.4a6.2,6.2,0,0,1-1.28-5.87,3.73,3.73,0,0,1,3.94-3c1.69,0,3.42,0,3.45,2.1,0,0,0,.4-.08.21Z"/><path class="cls-13" d="M165.14,548c.74-.84,1.52-.24,2.36.29a3.54,3.54,0,0,1,1.48,2.1,8.77,8.77,0,0,1-.54,6.25,4.71,4.71,0,0,1-3.9,2.4c-2.26.08-3.06-1.88-3.26-3.78-.06-.51-.18-1.73.3-2.07s1,.44,1.34.78a3.2,3.2,0,0,0,2,.6,4.11,4.11,0,0,0,3.27-1.71,2,2,0,0,0,.3-.61c.08,1.25,0,1.53-.14.86a3,3,0,0,0-.49-.86c-.57-.83-1.49-1.37-2.13-2.16-.3-.36-.92-1.67-.55-2.09Z"/><path class="cls-6" d="M477,885.33c-2.87-4.26-.36-6.48-6.18-6.67-6.63-.21-12.58-3.49-17.08-3.36-7.84.22-37.46,7.12-17.58,24.08,4.62,4,17.86,21.65,27,16.4C476.73,908,472.13,910.89,479,894Z"/><path class="cls-6" d="M200.82,667.87a34.75,34.75,0,1,0,48-10.45A34.76,34.76,0,0,0,200.82,667.87Z"/><path class="cls-37" d="M244.4,796.67c4.51,47.4,7.43,163.46,7.43,163.46-16.82,44.88-177.26,7-178.2-3.23C72.51,944.65,75.8,858.4,78.28,808,78.28,808,152.2,760.46,244.4,796.67Z"/><path class="cls-37" d="M222.56,637.26c42.26,11.89,47.51,63,47.51,63l19.08,84s-48,38.08-77.27,27.36c0,0-23.85-63.4-31.33-126.59C180.55,685.05,180.86,638.63,222.56,637.26Z"/><path class="cls-38" d="M198.14,493.13c-4.77,3.85-10.85,1.33-16.31.06-7.44,8.73,1.47,17.45-9.81,21.69-6,2.23-14.8,2.88-21.41,3.94-5.28.86-10.62-.37-14.4,3.58-4.08,4.27-.21,17.57-5,20.11-8.45,4.46-15.07-18.66-25.84-16.82-9.19,1.56-10.81,16.13-7.6,23.3a11.13,11.13,0,0,0-2.4-1.63c-4.38-11.42-10-11.62-14.8-19.74C73,515,74.31,518,72.82,506c0-.11,1.47-5.29,1.49-5.36,3.51-12.85,9.53-15.05,12.41-20.5,3-5.76,7.75-9.8,11.65-14.88,3.6-4.67,5.41-11,9.55-15.15,6.27-6.34,16.55-9.53,25.19-10.66,9.29-1.23,18.14,4.55,27.35,2.93,3.78-.67,7.32-4.09,11.11-3.88,4.62.26,7.82,4.85,11.82,6.64,7.43,3.35,19.14,2,25.48,7.23,7,5.78,5.51,14.13,1.19,21.21-2.42,4-7.34,6.26-9.52,10.38C199.94,485.05,198.29,493,198.14,493.13Z"/><path class="cls-6" d="M1503.72,459.37s-38.51,67.35-69,143.3c0,0,.57,14.45,11.21,10s96.5-126.08,96.59-137.15C1542.8,447,1503.72,459.37,1503.72,459.37Z"/><path class="cls-6" d="M1414.23,631.59l9.28-3.16s-15.71,9.67-22.93,5.84c0,0-1.68-.45-.11-3.1,0,0,14.94-5.19,21-9.15,0,0-13.81,8.22-24.77,10.45,0,0-5-1.44-1.3-5.32-3.79-.26-1.59-3.39-1.59-3.39a62,62,0,0,1,9-7.07,250.53,250.53,0,0,0,20.49-16.3s-11.85-3.39-9.77-9.73l17.67,3.3,16.48,4.58,4.71,8.74-11.22,14.37s-12.17,9.89-19.95,12.6C1421.15,634.25,1398.32,640.44,1414.23,631.59Z"/><g class="cls-16"><path class="cls-39" d="M1026,863.93c0-3.07,1.62-5.87,5-8.12a18.28,18.28,0,0,1,1.67-1c.18-.1.37-.19.56-.28.42-.2.85-.39,1.29-.58l.32-.13a2.65,2.65,0,0,1,.3-.11c.7-.27,1.42-.52,2.16-.74h0c.76-.22,1.54-.42,2.33-.59l.28-.08.36-.06c.92-.21,1.87-.39,2.83-.55h.09l.31-.05c1-.16,1.93-.3,2.92-.43l.39-.05c1.06-.14,2.13-.26,3.19-.38l.19,0,.72-.08,2.17-.25c1-.11,2-.23,3-.36l.6-.07c1-.14,2-.28,2.94-.44l1.53-.25c1-.2,2.07-.41,3.11-.64l.58-.12c.75-.17,1.49-.34,2.22-.53l.07,0c.75-.19,1.49-.4,2.22-.61l.68-.2c.51-.15,1-.31,1.51-.48l.74-.25c.5-.17,1-.35,1.47-.53l.61-.23c.63-.25,1.25-.51,1.85-.78a52.52,52.52,0,0,0,8.22-5.36l-.6,68.55a51.78,51.78,0,0,1-8.22,5.36c-.6.27-1.23.53-1.87.79l-.14.06-.42.15c-.49.19-1,.37-1.51.55l-.72.24c-.49.17-1,.33-1.51.48l-.46.15-.24.06c-.72.21-1.46.41-2.2.6l-.1,0c-.72.19-1.46.36-2.19.53l-.25.06-.36.07c-1,.23-2.07.44-3.1.63l-1.27.22-.27,0c-1,.15-1.92.29-2.9.42l-.66.08-2.89.35h-.09l-2.06.24-1,.11c-1.05.13-2.11.25-3.16.39l-.37,0c-1,.12-2,.27-2.93.42l-.4.06c-1,.17-1.92.35-2.85.55l-.61.14c-.8.18-1.59.37-2.34.6h0q-1.14.33-2.19.75l-.62.24c-.45.18-.87.37-1.29.58l-.56.27a18.53,18.53,0,0,0-1.68,1c-3.33,2.25-4.93,5-5,8.11Z"/><path class="cls-39" d="M758.29,928.53c0-.13-.06-.26-.08-.39s-.06-.24-.08-.35a.41.41,0,0,0,0-.12c0-.19,0-.37-.07-.55s0-.27,0-.41,0-.38,0-.57,0-.22,0-.33v-.14l.6-68.55c0,.16,0,.31,0,.47s0,.38,0,.57,0,.27,0,.41,0,.36.07.54l.09.47c0,.14.05.27.08.4s.09.32.14.49.07.25.11.37.05.13.07.19a11.06,11.06,0,0,0,.58,1.39s0,0,0,0a12.64,12.64,0,0,0,.76,1.25,1.43,1.43,0,0,0,.14.2,12.19,12.19,0,0,0,.92,1.15l.29.31.33.33c.12.12.25.25.39.37l.36.32.35.29.66.5.36.25.79.51.3.19.75.42.35.19,1.17.56c.78.33,1.59.62,2.42.89l.85.23c.56.17,1.13.33,1.71.47l.47.1c.66.15,1.32.29,2,.4l.81.14c.63.1,1.27.19,1.91.27l.64.08c.84.09,1.68.18,2.54.25l1.62.1,1.37.09c.55,0,1.11,0,1.67.06l1.35,0c1.07,0,2.15.05,3.23.06h.09l3.81,0q1.23,0,2.43,0h1.21l2.06,0h.53c.3,0,.59,0,.89,0l1.57.06,1.45.08,1.5.1.51,0v0h0v0l1.67.16.34,0q1.08.12,2.13.27l.25.05c1,.15,2.09.33,3.09.55l.09,0,.1,0,.14,0,.22.06.18.06.29.09.21.06.37.12.22.07.43.14.26.09.48.16.28.09.52.18.3.1.54.19a3.59,3.59,0,0,0,.35.12l.5.19.42.15.5.18.44.16.52.19.45.17.51.21.46.17.51.2.45.18.51.21.45.18.54.23.39.16.89.39c.43.19.84.38,1.22.57L827,947.7l-1.22-.57-.9-.39-.3-.12-.63-.27-.36-.14c-.2-.08-.39-.17-.59-.24l-.41-.17-.56-.22-.43-.16-.54-.21-.44-.17-.52-.19-.43-.16-.52-.19-.41-.15-.5-.17-.44-.16-.42-.15-.43-.15-.39-.13-.39-.14-.38-.12-.34-.12-.34-.11-.31-.09-.29-.1-.27-.08-.24-.07-.21-.06-.19-.07-.15,0-.19-.05c-1-.23-2-.4-3.1-.56-.78-.11-1.56-.23-2.36-.31l-.41,0-2.13-.19-1.48-.09-1.47-.08c-.51,0-1,0-1.54-.06l-1.46-.05-2,0-1.26,0-2.41,0-3.14,0h-.8c-1.06,0-2.12,0-3.18-.07h-.16l-1.31-.05c-.53,0-1,0-1.57-.06s-1-.06-1.42-.09l-1.56-.1h-.18c-.8-.06-1.6-.14-2.38-.24l-.6-.07-1.19-.15v0h0v0l-.75-.13-.81-.13c-.67-.12-1.34-.26-2-.4l-.47-.1-.14,0q-.81-.21-1.59-.45c-.28-.08-.56-.14-.83-.23-.83-.27-1.64-.56-2.42-.89-.41-.18-.79-.37-1.17-.56l-.39-.21-.7-.39-.09,0-.25-.16-.76-.49c-.13-.09-.24-.18-.37-.26s-.44-.33-.64-.5l-.21-.16h0l-.16-.13-.34-.31-.41-.38-.32-.32-.2-.21-.09-.1a12.43,12.43,0,0,1-.93-1.16l-.05-.07s0-.09-.08-.12a12.77,12.77,0,0,1-.76-1.26h0a0,0,0,0,1,0,0,10.1,10.1,0,0,1-.58-1.36s0-.08-.05-.12v0h0v0l0-.09c0-.12-.07-.24-.1-.37S758.33,928.7,758.29,928.53Z"/><polygon class="cls-40" points="732.45 943.33 731.85 1011.89 1026.61 1135.92 1027.21 1067.36 732.45 943.33"/><polygon class="cls-39" points="1027.21 1067.36 1026.61 1135.92 1256.55 980.76 1257.15 912.2 1027.21 1067.36"/><path class="cls-41" d="M1257.15,912.2l-122-51.31a59,59,0,0,0-9.52,7.24c-5.7,7.5,1.65,17.75-7.91,24.19-11.77,7.95-40.73,6.21-64.69-3.87-.68-.28-1.34-.57-2-.86-22.5-10-31.52-24.06-20.08-31.78,7.31-4.93,19.93-4.62,30.19-6.51a67.26,67.26,0,0,0,15.06-4.39,52.52,52.52,0,0,0,8.22-5.36L962.39,788.17l-95.23,64.27c-2-.66-4.09-1.54-5.9-2.34-2.15-1-3.84-1.82-4.29-2.09a27.88,27.88,0,0,1-8.44-8.06c-3.63-5.39-3.27-12-12.17-15.93-15.54-6.54-42.92-1.46-61.62,11.15-18.48,12.47-21.54,27.64-7,34.12,12.76,5.37,31.94,1.58,46.12,4.7a113.21,113.21,0,0,1,12.52,4.59c.43.19.84.38,1.22.57l-95.13,64.18,294.76,124Z"/></g><path class="cls-1" d="M1427.44,1627.34c0,41.38-75.38,74.91-168.36,74.91s-168.36-33.53-168.36-74.91,75.38-74.91,168.36-74.91S1427.44,1586,1427.44,1627.34Z"/><path class="cls-4" d="M1173.75,1625.06s-17.86-3.27-12.83,11.31c0,0,41.69,17.9,70.81,13.86,0,0,20.47-.68,17.26-22.89l.34-18-27.46,5.2,1.56,17.15Z"/><path class="cls-42" d="M1249,1627.34a11.56,11.56,0,0,1-2.74,7.74c-7.19,8.29-21.31,8.54-31.26,7.9a335.62,335.62,0,0,1-47.55-6.65c-3.41-.72-4.35-1.83-4.39-2.83a13.87,13.87,0,0,1,10.7-8.44l-15.2-1.94c-14-.5-20.4,2.71-23.67,4.83-3.89,11.1,15,18.51,15,18.51a307,307,0,0,0,44.27,12.35s53.36,12.59,59.81-3.83Z"/><path class="cls-4" d="M1279.77,1600.25s-17.86-3.26-12.84,11.31c0,0,41.7,17.9,70.82,13.87,0,0,20.46-.69,17.25-22.89l.34-18-27.45,5.2,1.56,17.15Z"/><path class="cls-42" d="M1355,1602.54a11.54,11.54,0,0,1-2.73,7.73c-7.19,8.29-21.32,8.54-31.26,7.91a338.88,338.88,0,0,1-47.56-6.65c-3.4-.72-4.34-1.84-4.39-2.84a13.91,13.91,0,0,1,10.71-8.44l-15.21-1.94c-14-.5-20.39,2.72-23.67,4.84-3.88,11.09,15,18.5,15,18.5a308.22,308.22,0,0,0,44.27,12.36s53.37,12.58,59.82-3.83Z"/><path class="cls-43" d="M1274.82,1118.33a51,51,0,1,0,51-51A51,51,0,0,0,1274.82,1118.33Z"/><path class="cls-43" d="M1357.85,1363.65s-.7,12.81-23.72,13.13c0,0-21.79,7.43-31.19-20.94-37.07-111.71-27.27-228.3-27.27-228.3s52.33-29.14,101.07-9.21C1376.74,1118.33,1368.86,1265,1357.85,1363.65Z"/><path class="cls-43" d="M1302.94,1355.84s18,241.46,19.63,250.09c17.52,11.12,33-.3,33-.3-.09-11.85,12.82-110.58,14.16-129.13,2.29-31.87,6.12-72.13-14-117.93Z"/><path class="cls-44" d="M1210.15,1371s-4.91,11.85-26.73,4.52c0,0-23-.2-22.49-30.08,2-117.69,53.61-239.66,53.61-239.66s58.08-5.55,97.47,29.41C1312,1135.21,1253.23,1281.56,1210.15,1371Z"/><path class="cls-44" d="M1215.84,1101.45a51,51,0,1,0,65-31.2A51,51,0,0,0,1215.84,1101.45Z"/><path class="cls-44" d="M1376.74,1110.91c-6.16-56.67-34.59-83-34.59-83l-98.51-12.44s-27.15,47.25-30,95.41c11.77,32.12,53.74,41.48,53.74,41.48l31.87,9.46S1371.49,1150.88,1376.74,1110.91Z"/><path class="cls-44" d="M1165.47,1368.9s48.87,253.65,51.8,261.93c-1.28-.62,23.1,11.21,33.89-4.06-1.84-11.7-2.87-140.54-4.29-159.07-2.45-31.87-2.11-61.59-28.81-103.9C1218.06,1363.8,1151.35,1316,1165.47,1368.9Z"/><path class="cls-4" d="M1384,924.78s-17.94,21.13-53.63,72.15l6.16,10.45s61.14-30.79,80.64-65.35Z"/><path class="cls-4" d="M1333.5,849.17s46,100.41,73.66,96.6c0,0,9.54.59,11.45-6.59,0,0,19.51-17.31-61.64-142.17,0,0-7.93-10.61-24.18-7.87C1332.79,789.14,1308.14,805.43,1333.5,849.17Z"/><rect class="cls-45" x="1259.08" y="770.57" width="49.74" height="52.87"/><path class="cls-6" d="M1228.31,771.77l-1.87-8.45-3.72-31a28.3,28.3,0,0,1,1.84-12.58c1.58-4,2.92-8.3,2.54-12.86-1.87-22.15,12.39-32.37,12.39-32.37,17-18,49.69-13.7,49.7-13.7,16.91,3.22,31.39,10.37,39,24.9,6.9,13.17,10.11,29,4.66,43-6,15.39-16.4,27.12-29.89,37.55-8.64,6.68-17.07,7.13-28,10.14-7.62,2.09-22,2.8-29.92,2.44C1240.87,778.7,1229.38,776.63,1228.31,771.77Z"/><path class="cls-46" d="M1251,743.12c2.46-3.49,11.4-5.64,11.4-5.64,10.8,0,9.39,14.42,10.41,20.66.33,2,.72,4.12,1.18,6.2,5.15,18.33,20.55,18.17,33.71,20.38l1.54-.87c2.38-8.12,10-16.56,10-16.56,19.77-17.09,26.22-47.8,18.7-72a57.26,57.26,0,0,0-12.34-20.64c-11-11.84-25.46-18.16-40.85-21.06s-70.06,4.54-55.12,37.79c0,0,22.53,26,21.41,51.71"/><path class="cls-47" d="M1251,743.12c2-4.94,6.77-8.75,12.19-7.14a8.16,8.16,0,0,1,6,8.79c-.08.89-.27,1.77-.36,2.66-1.56,9.48-11.57,13.1-11.57,13.1"/><path class="cls-48" d="M1262.14,740.47a5.33,5.33,0,0,0-2.4-.65c-3.62-.24-6.55,5.36-2.92,6.35a2.06,2.06,0,0,1,0,2.87c-1.25,1.36-2.93,3.31-2.55,5.22.23,1.13,1.49,1.74,2.63,2,.91.23,1.09-.48.37-.82a4.2,4.2,0,0,1-1.39-1.14l-.11-.19a1,1,0,0,1-.08-.15,1.19,1.19,0,0,1,0-.83,2.22,2.22,0,0,0,2.81,0c.69-.83.17-2.12.4-3.07a7.46,7.46,0,0,1,.84-1.87c1.67-2.77-1.33-3.24-1.33-3.24a6.45,6.45,0,0,0-1.1.08c-1.52-.79.17-3.07,1.1-3.44a2.91,2.91,0,0,1,3.16.56,4.48,4.48,0,0,1,1,3.2,10.44,10.44,0,0,1-1,3.84c-.33.68-.74,1.48-1.07,2.17s.52,1.12.9.34c.8-1.64,2.28-4.05,2.59-6.32A4.8,4.8,0,0,0,1262.14,740.47Z"/><path class="cls-48" d="M1251,743.12s.44-.62,1.15-1.74a13.54,13.54,0,0,1,1.5-1.74,11.49,11.49,0,0,1,2.29-1.78,9.57,9.57,0,0,1,3.1-1.13,8.08,8.08,0,0,1,3.54.25,9.44,9.44,0,0,1,1.8.76,8.18,8.18,0,0,1,1.43,1.1,6.84,6.84,0,0,1,1.89,3.22,9.7,9.7,0,0,1,.06,4l-.13,1.09,0,.14v0c0-.07,0,.15,0-.14v0l0,.07,0,.27-.11.53a12.09,12.09,0,0,1-.51,1.92,15.78,15.78,0,0,1-1.69,3.36,20.81,20.81,0,0,1-2.17,2.7,25.54,25.54,0,0,1-4.1,3.4c-1.09.71-1.76,1.08-1.76,1.08a12.26,12.26,0,0,0,2-.65,20.26,20.26,0,0,0,4.83-2.77,16,16,0,0,0,2.71-2.65,15,15,0,0,0,3-5.87l.13-.53.07-.27,0-.06,0-.22,0-.14.16-1.09a12,12,0,0,0,0-4.87,9.45,9.45,0,0,0-2.66-4.34,12.23,12.23,0,0,0-1-.8l-1.15-.64a10.44,10.44,0,0,0-2.19-.77,9.15,9.15,0,0,0-4.48.06,9.78,9.78,0,0,0-3.52,1.76,10.15,10.15,0,0,0-2.19,2.37,14.49,14.49,0,0,0-1.23,2.11C1251.2,742.39,1251,743.12,1251,743.12Z"/><path class="cls-15" d="M1257.18,758.21a3,3,0,1,1-3-3A3,3,0,0,1,1257.18,758.21Z"/><path class="cls-49" d="M1254.89,759.82a2.38,2.38,0,0,1-2.38-2.39,2.36,2.36,0,0,1,1.66-2.24h0a3,3,0,1,0,3,3c0-.08,0-.15,0-.22A2.35,2.35,0,0,1,1254.89,759.82Z"/><path class="cls-42" d="M1388.71,1051.57l-54.92-78.79c-2.55-11.59,3.22-34.63,3.22-34.63l17.55-120.75c-2.08-13.83-3-31.4-21.77-28.26-13.21,2.22-15.81,4.06-24,6.68,2.38,11.21-17,18.42-17,18.42-26.62,11.5-32.78,3.92-32.78,3.92-7.09,3.84-31,15.8-37.26,20.92-6.46,5.32-10.37,13.59-8.34,27.53l19.16,114.44-3.37,28.43-35,88.75a75.34,75.34,0,0,1,34.1-4.08c10.89,1.31,20.27,7.72,31.08,8.92,16.33,1.8,28.45-4.1,40.78-11.91a196.85,196.85,0,0,0,47.21-16.59h1c12.22.06,26.06-.15,35.07-9.71C1385.43,1062.84,1391,1054.89,1388.71,1051.57Z"/><path class="cls-6" d="M1199.19,1022.28l.32-139c3.39-38.1,22.31-44.18,22.31-44.18,38.24-4.48,32.35,66.38,32.35,66.38l-16,119.77"/><path class="cls-6" d="M1077.46,1098.29c17.54-9.39,19.11-12.41,22.21-16.83,13.33-19-13.63-18.35-20.41-16.81-3.89.89-4.13,10.15-16.22,21.46,0,0-19,11-23.66,10.23,0,0-4.87.7-4.87,4.21C1034.51,1100.55,1047.84,1108.43,1077.46,1098.29Z"/><path class="cls-6" d="M1202.07,1007.63,1083,1072.8c-5.14,14.33,1.47,16.39,1.47,16.39l92.19-26.52c39.36-10.54,55-27.06,55-27.06s17.21-11.92-4.76-29.67C1226.85,1005.94,1216.85,998,1202.07,1007.63Z"/><path class="cls-46" d="M1240.4,734.6c3.08,23.06-.39,53.58,11.09,78.78,5.12,11.22,10.76,16.78,7.69,29.79-2.51,10.65-7.55,20.7-10.28,31.73-6,24.34,2.17,48.13,30.54,39.31,13.6-4.22,15.12-4.16,27.51.65,10.4,4,20.19,5.15,30.52.12,16-7.81,11.21-19.62,20.2-31.44,6.85-9,16.53-8.79,21.69-20.9,6.22-14.61-1.19-22.42-8.78-34.82-7.9-12.91-9.16-21.42-6.56-37,2.18-13.09-1.06-19.7-5.39-31.73-4.44-12.33-2.5-23.07-4.6-35.44-4.17-24.44-17.53-57.62-43.14-64.8-12.55-3.51-28.77-6.26-40.85-1.82-16.44,6-34.76,12.46-34,32.68C1236.73,710.52,1237.65,714.07,1240.4,734.6Z"/><path class="cls-6" d="M1082.44,1064.18s3.34,9.76-8.81,7.36l-11.89-9.06s-3.7-2-2.39-5.5c0,0,1.42-2,5.22,0Z"/></g></g></svg>