<svg xmlns="http://www.w3.org/2000/svg" viewBox="0 0 429.29 437.74"><defs><style>.cls-1{fill:#e8505b;}.cls-2{opacity:0.8;}.cls-3{fill:#fff;}.cls-4{fill:#263238;}.cls-5{opacity:0.2;}.cls-6{fill:#455a64;}.cls-7{fill:#f5f5f5;}.cls-8{fill:none;}.cls-9{fill:#fafafa;}.cls-10{opacity:0.3;}.cls-11{fill:#ffbe9d;}.cls-12{fill:#eb996e;}.cls-13{opacity:0.78;}</style></defs><title>workerMind</title><g id="Capa_2" data-name="Capa 2"><g id="Mind_Map" data-name="Mind Map"><path class="cls-1" d="M200.16,193.2a3.83,3.83,0,0,1-.37.61l-1.14,1.68c-1,1.46-2.48,3.56-4.32,6.13-3.68,5.15-8.83,12.21-14.68,19.9S168.34,236,164.23,240.85c-2.07,2.4-3.75,4.34-5,5.62l-1.4,1.48c-.33.34-.5.51-.52.49a4.67,4.67,0,0,1,.44-.56l1.33-1.55c1.17-1.32,2.8-3.29,4.83-5.71,4-4.87,9.45-11.74,15.29-19.42s11.05-14.71,14.8-19.8c1.85-2.51,3.37-4.55,4.45-6l1.23-1.63A2.89,2.89,0,0,1,200.16,193.2Z"/><path class="cls-1" d="M228.64,73.25c.15,0-.49,5.38-1.41,12s-1.78,11.91-1.92,11.89.49-5.37,1.41-12S228.5,73.23,228.64,73.25Z"/><path class="cls-1" d="M328.79,66.3a5.48,5.48,0,0,1-.67.58c-.48.4-1.14.93-2,1.6l-7.3,5.79-24.2,18.92L270.36,112l-7.4,5.65-2,1.52a5.82,5.82,0,0,1-.73.5,4.93,4.93,0,0,1,.67-.59l2-1.59,7.29-5.78,24.21-18.94L318.64,74l7.4-5.66,2-1.51A6.9,6.9,0,0,1,328.79,66.3Z"/><path class="cls-1" d="M377.18,132.14c0,.14-24.49,2.18-54.72,4.54s-54.77,4.17-54.78,4,24.49-2.18,54.73-4.55S377.17,132,377.18,132.14Z"/><path class="cls-1" d="M309.48,192.34c-.06.13-10.45-5.05-23.21-11.55s-23-11.89-23-12,10.46,5,23.21,11.55S309.55,192.21,309.48,192.34Z"/><path class="cls-1" d="M185.53,109.14a4.29,4.29,0,0,1-.52-.62l-1.38-1.82c-1.2-1.59-2.91-3.92-5-6.8-4.19-5.76-9.89-13.78-16-22.75S151,60,147.17,54c-1.93-3-3.47-5.43-4.52-7.12l-1.2-2a4.15,4.15,0,0,1-.39-.7,4.6,4.6,0,0,1,.47.64l1.29,1.9c1.13,1.71,2.71,4.1,4.66,7,3.94,5.94,9.4,14.12,15.54,23.09s11.79,17,15.9,22.83l4.87,6.89,1.31,1.88A6.93,6.93,0,0,1,185.53,109.14Z"/><path class="cls-1" d="M172.33,128.05c-.06.13-6.87-3-15.2-6.87s-15-7.22-15-7.35,6.87,3,15.21,6.88S172.39,127.92,172.33,128.05Z"/><path class="cls-1" d="M168.45,146.61c0,.14-23-1.8-51.27-4.34s-51.25-4.71-51.24-4.85,23,1.8,51.28,4.33S168.47,146.47,168.45,146.61Z"/><path class="cls-1" d="M176.65,174c.06.13-13.57,6.07-30.44,13.25s-30.59,12.91-30.65,12.78S129.13,194,146,186.81,176.6,173.91,176.65,174Z"/><circle class="cls-1" cx="218.42" cy="146.61" r="49.97"/><g class="cls-2"><circle class="cls-3" cx="218.42" cy="146.61" r="49.97"/></g><path class="cls-1" d="M235.23,133.88a19.85,19.85,0,1,0-21.69,25.57l1.49,4.78,16.61-5.18s-.74-2.71-1.45-5.12A19.84,19.84,0,0,0,235.23,133.88Z"/><path class="cls-4" d="M225.61,160.85l-.06-.24c0-.17-.07-.41-.13-.71-.11-.62-.28-1.54-.47-2.73s-.4-2.65-.53-4.36a29.19,29.19,0,0,1,.08-5.8,18.9,18.9,0,0,1,.67-3.33,3.56,3.56,0,0,1,.94-1.56,2,2,0,0,1,1.81-.5,1.36,1.36,0,0,1,1.06,1.56,2.79,2.79,0,0,1-1.07,1.71,5.45,5.45,0,0,1-7.69-1.38,4.16,4.16,0,0,1-.79-2.15,1.78,1.78,0,0,1,1.31-1.85,1.27,1.27,0,0,1,1.17.37,1.8,1.8,0,0,1,.52,1.12,3.88,3.88,0,0,1-.75,2.3,5.91,5.91,0,0,1-4,2.65,5.15,5.15,0,0,1-4.52-1.59,3,3,0,0,1-.84-2.25,1.45,1.45,0,0,1,1.77-1.36,2,2,0,0,1,1.06.59,3.19,3.19,0,0,1,.63,1,5.62,5.62,0,0,1,.38,2.25,5.86,5.86,0,0,1-1.68,4,6,6,0,0,1-3.75,1.76,3.13,3.13,0,0,1-2-.37,1.54,1.54,0,0,1-.67-1.79,1.27,1.27,0,0,1,.72-.68,1.86,1.86,0,0,1,1-.11,2.85,2.85,0,0,1,1.56.94c.8.88,1.49,1.76,2.18,2.59,2.7,3.35,4.76,6.16,6.16,8.12.7,1,1.23,1.74,1.58,2.27l.41.59.13.21a1.5,1.5,0,0,1-.15-.19l-.43-.59-1.62-2.24c-1.42-1.94-3.5-4.73-6.22-8.06-.68-.82-1.39-1.71-2.17-2.57a2.74,2.74,0,0,0-1.46-.88,1.36,1.36,0,0,0-1.47.68,1.34,1.34,0,0,0,.6,1.54,3,3,0,0,0,1.86.33,5.82,5.82,0,0,0,3.61-1.7,5.66,5.66,0,0,0,1.61-3.86,5.53,5.53,0,0,0-.37-2.16A2.16,2.16,0,0,0,214,141a1.25,1.25,0,0,0-1,.21,1.28,1.28,0,0,0-.47.93,2.75,2.75,0,0,0,.78,2.07,4.92,4.92,0,0,0,4.3,1.51,5.65,5.65,0,0,0,3.85-2.55,3.64,3.64,0,0,0,.71-2.14,1.56,1.56,0,0,0-.44-1,1,1,0,0,0-1-.31,1.43,1.43,0,0,0-.85.6,1.72,1.72,0,0,0-.27,1,4,4,0,0,0,.74,2,5.25,5.25,0,0,0,7.37,1.35,2.64,2.64,0,0,0,1-1.58,1.18,1.18,0,0,0-.89-1.34,1.87,1.87,0,0,0-1.64.45,3.5,3.5,0,0,0-.89,1.49,18.08,18.08,0,0,0-.68,3.28,29.06,29.06,0,0,0-.11,5.77c.12,1.71.31,3.16.48,4.35s.33,2.1.43,2.74c.05.31.08.54.11.71Z"/><path class="cls-4" d="M231.32,162.53,217.06,167a1.14,1.14,0,0,1-1.41-.74h0a1.12,1.12,0,0,1,.74-1.4l14.26-4.44a1.12,1.12,0,0,1,1.41.73h0A1.13,1.13,0,0,1,231.32,162.53Z"/><path class="cls-4" d="M231.61,163.46l-14.26,4.44a1.14,1.14,0,0,0-.74,1.41A1.12,1.12,0,0,0,218,170l1.56-.48,3.31,3.3a1.44,1.44,0,0,0,1.45.36l5.09-1.59a1.43,1.43,0,0,0,1-1.13l.79-4.57,1.07-.33a1.11,1.11,0,0,0,.73-1.4A1.12,1.12,0,0,0,231.61,163.46Z"/><g class="cls-5"><path class="cls-3" d="M200.34,131.5a14.76,14.76,0,0,1,3-3.7A10.6,10.6,0,0,1,206,126c.69-.3,1.12-.35,1.2-.21.19.31-1.09,1.27-2.62,3.17a16.34,16.34,0,0,0-2.34,17.51c1,2.23,2,3.49,1.7,3.75-.11.11-.51,0-1.11-.52a10.89,10.89,0,0,1-2.1-2.4,14.48,14.48,0,0,1-1.93-4.36,15.38,15.38,0,0,1-.38-5.89"/></g><g class="cls-5"><path class="cls-3" d="M212,125.22c-1.2.37-2.36.37-2.68-.23-.16-.3,0-.7.31-1.1a3.67,3.67,0,0,1,1.66-1,3.71,3.71,0,0,1,1.93-.1c.51.14.84.41.88.74"/></g><path class="cls-6" d="M230.26,170.92s-.41,0-1.07,0a8.34,8.34,0,0,0-4.78,1.64c-.52.39-.82.68-.84.65a3.06,3.06,0,0,1,.74-.79,7.28,7.28,0,0,1,2.28-1.29,7.41,7.41,0,0,1,2.6-.39A3.19,3.19,0,0,1,230.26,170.92Z"/><path class="cls-6" d="M231.26,166c0,.07-2.54.92-5.72,1.91s-5.78,1.74-5.8,1.68,2.54-.92,5.72-1.91S231.24,165.91,231.26,166Z"/><path class="cls-6" d="M230.89,167.94a8.17,8.17,0,0,1-1.36.58c-.85.33-2,.75-3.36,1.19s-2.53.79-3.41,1a8.34,8.34,0,0,1-1.44.33,10.73,10.73,0,0,1,1.39-.5l3.38-1.1,3.38-1.11A10.79,10.79,0,0,1,230.89,167.94Z"/><path class="cls-1" d="M151.73,24.75a1.69,1.69,0,0,1,0-.39c0-.29-.05-.68-.08-1.17l-.06-.85c0-.32-.1-.66-.16-1a17.29,17.29,0,0,0-.52-2.53,23.6,23.6,0,0,0-2.73-6.49A24.35,24.35,0,0,0,118.88,1.91a25.29,25.29,0,0,0-3.17,1.4,24.33,24.33,0,0,0-3,1.92A26.2,26.2,0,0,0,110,7.57a26.87,26.87,0,0,0-2.38,2.82,23.66,23.66,0,0,0-3.48,6.69,25.88,25.88,0,0,0-1.25,7.67,25.88,25.88,0,0,0,1.25,7.67,23.56,23.56,0,0,0,3.47,6.7A28.23,28.23,0,0,0,110,41.94a27.65,27.65,0,0,0,2.75,2.34,24.33,24.33,0,0,0,3,1.92,25.29,25.29,0,0,0,3.17,1.4,24.49,24.49,0,0,0,12.78,1.07,24.48,24.48,0,0,0,16.47-11.45,23.6,23.6,0,0,0,2.73-6.49,17.56,17.56,0,0,0,.52-2.53c.06-.37.13-.71.16-1l.06-.85c0-.5.06-.88.08-1.17a1.87,1.87,0,0,1,0-.4,2,2,0,0,1,0,.4c0,.29,0,.68,0,1.17q0,.39,0,.87c0,.31-.09.66-.14,1a17.18,17.18,0,0,1-.47,2.56,23.11,23.11,0,0,1-2.68,6.59,24.72,24.72,0,0,1-16.64,11.72,24.76,24.76,0,0,1-13-1,26.33,26.33,0,0,1-3.24-1.42,25.24,25.24,0,0,1-3-2,26.42,26.42,0,0,1-2.82-2.39,27,27,0,0,1-2.44-2.87,23.91,23.91,0,0,1-3.55-6.84,26.31,26.31,0,0,1-1.28-7.83,26.31,26.31,0,0,1,1.28-7.83,23.86,23.86,0,0,1,3.55-6.83,29.44,29.44,0,0,1,2.44-2.88,27.53,27.53,0,0,1,2.82-2.38,25.24,25.24,0,0,1,3-1.95,26.33,26.33,0,0,1,3.24-1.42,24.64,24.64,0,0,1,23.42,3.63,24.5,24.5,0,0,1,6.24,7.05,23.11,23.11,0,0,1,2.68,6.59,17.18,17.18,0,0,1,.47,2.56c.05.37.11.72.14,1s0,.61,0,.87c0,.49,0,.88,0,1.17A1.91,1.91,0,0,1,151.73,24.75Z"/><path class="cls-4" d="M132.47,22.19a12.13,12.13,0,0,0-.29-1.87,7.43,7.43,0,0,0-.86-2,7.69,7.69,0,0,0-1.94-2.15,7.57,7.57,0,0,0-7.18-1.07,7.29,7.29,0,0,0-1.92,1,9.77,9.77,0,0,0-.86.73,9.06,9.06,0,0,0-.74.88,7.55,7.55,0,0,0,0,9,9.06,9.06,0,0,0,.74.88,8.51,8.51,0,0,0,.86.73,7,7,0,0,0,1.92,1,7.57,7.57,0,0,0,7.18-1.07,7.54,7.54,0,0,0,1.94-2.15,7.43,7.43,0,0,0,.86-2,12.31,12.31,0,0,0,.29-1.86v.49a3.42,3.42,0,0,1-.05.59,4.43,4.43,0,0,1-.15.8,7.44,7.44,0,0,1-.83,2.07,7.77,7.77,0,0,1-5.22,3.69,7.75,7.75,0,0,1-4.1-.32,7.24,7.24,0,0,1-2-1.06,9.05,9.05,0,0,1-.89-.75,8.22,8.22,0,0,1-.76-.9,7.73,7.73,0,0,1,0-9.23,8.22,8.22,0,0,1,.76-.9,9.05,9.05,0,0,1,.89-.75,7.24,7.24,0,0,1,2-1.06,7.85,7.85,0,0,1,4.1-.32,7.77,7.77,0,0,1,5.22,3.69,7.44,7.44,0,0,1,.83,2.07,4.6,4.6,0,0,1,.15.8,3.42,3.42,0,0,1,.05.59v.5Z"/><path class="cls-4" d="M130,27.79c.05-.05,1.73,1.55,3.75,3.57s3.62,3.7,3.57,3.74-1.72-1.55-3.74-3.57S130,27.83,130,27.79Z"/><circle class="cls-3" cx="33.1" cy="133.46" r="32.84"/><path class="cls-1" d="M65.94,133.46s0-.18,0-.53-.06-.89-.1-1.56c0-.34-.05-.73-.07-1.15s-.14-.87-.21-1.37a23.9,23.9,0,0,0-.69-3.38,31.43,31.43,0,0,0-3.64-8.71,32.84,32.84,0,0,0-22.06-15.35,29.34,29.34,0,0,0-4.12-.47c-.7,0-1.41-.1-2.13-.08l-2.16.11c-.36,0-.72,0-1.09.07l-1.08.17c-.73.12-1.47.2-2.2.35A35.82,35.82,0,0,0,22,102.84a33.25,33.25,0,0,0-4.25,1.87c-.69.37-1.35.81-2,1.21a16.43,16.43,0,0,0-2,1.36,36.37,36.37,0,0,0-3.7,3.14,37.68,37.68,0,0,0-3.19,3.78,31.62,31.62,0,0,0-4.66,9,32.32,32.32,0,0,0,0,20.57,31.55,31.55,0,0,0,4.66,9,36.21,36.21,0,0,0,3.19,3.78,36.57,36.57,0,0,0,3.7,3.14,16.43,16.43,0,0,0,2,1.36c.68.4,1.34.84,2,1.21A33.25,33.25,0,0,0,22,164.08a36.36,36.36,0,0,0,4.34,1.28c.73.15,1.47.23,2.2.35l1.09.17c.36.05.72.05,1.09.07l2.15.11c.72,0,1.43-.05,2.13-.08a29.48,29.48,0,0,0,4.13-.47,32.81,32.81,0,0,0,22-15.36,31.26,31.26,0,0,0,3.64-8.7,24.18,24.18,0,0,0,.69-3.38c.07-.5.16-.95.21-1.37s0-.81.07-1.15c0-.67.08-1.19.1-1.56s0-.53,0-.53,0,.18,0,.53,0,.89,0,1.57c0,.34,0,.73,0,1.15s-.11.88-.18,1.38A23.78,23.78,0,0,1,65,141.5a31.37,31.37,0,0,1-3.59,8.8A33,33,0,0,1,39.2,165.93a31.47,31.47,0,0,1-4.17.5c-.72,0-1.44.09-2.16.09l-2.19-.11c-.36,0-.74,0-1.1-.07l-1.11-.17c-.73-.12-1.48-.2-2.22-.35a35.8,35.8,0,0,1-4.42-1.29,34.1,34.1,0,0,1-4.32-1.89c-.7-.38-1.37-.82-2.06-1.23a17.71,17.71,0,0,1-2-1.37,37.35,37.35,0,0,1-3.76-3.19A37.44,37.44,0,0,1,6.45,153a31.65,31.65,0,0,1-4.74-9.12,32.76,32.76,0,0,1,0-20.89,32,32,0,0,1,4.74-9.11,36.41,36.41,0,0,1,3.25-3.84,37.34,37.34,0,0,1,3.75-3.18,16.48,16.48,0,0,1,2-1.37c.69-.41,1.37-.85,2.06-1.23a34.1,34.1,0,0,1,4.32-1.89,35.8,35.8,0,0,1,4.42-1.29c.74-.15,1.49-.23,2.22-.35l1.11-.17c.36,0,.73,0,1.1-.07l2.19-.11c.72,0,1.44.07,2.15.09a29.85,29.85,0,0,1,4.18.5,33.08,33.08,0,0,1,22.23,15.62A31.18,31.18,0,0,1,65,125.42a22.6,22.6,0,0,1,.65,3.41c.07.5.15,1,.18,1.38s0,.81,0,1.15c0,.67,0,1.19,0,1.57S65.94,133.46,65.94,133.46Z"/><circle class="cls-7" cx="33.2" cy="134.27" r="17.51" transform="translate(-50.09 23.85) rotate(-23.14)"/><path class="cls-4" d="M50.71,134.27s0-.38-.08-1.12a8.35,8.35,0,0,0-.14-1.34,12.67,12.67,0,0,0-.37-1.81,16.59,16.59,0,0,0-1.93-4.64,17.54,17.54,0,0,0-11.78-8.21,17.53,17.53,0,0,0-9.14.76,16.54,16.54,0,0,0-4.41,2.37,19.55,19.55,0,0,0-2,1.68,19.52,19.52,0,0,0-1.7,2,17.31,17.31,0,0,0,0,20.58,19.52,19.52,0,0,0,1.7,2,20.94,20.94,0,0,0,2,1.68,16.54,16.54,0,0,0,4.41,2.37,17.56,17.56,0,0,0,9.15.76,17.55,17.55,0,0,0,11.77-8.21,16.52,16.52,0,0,0,1.93-4.65,12.29,12.29,0,0,0,.37-1.8,8.35,8.35,0,0,0,.14-1.35c0-.73.08-1.11.08-1.11s0,.38,0,1.12a9.6,9.6,0,0,1-.13,1.35,12.38,12.38,0,0,1-.35,1.81,16.41,16.41,0,0,1-1.91,4.69,17.61,17.61,0,0,1-11.84,8.32,17.74,17.74,0,0,1-9.25-.75,16.76,16.76,0,0,1-4.46-2.39,20,20,0,0,1-2-1.7,20,20,0,0,1-1.73-2,17.51,17.51,0,0,1,0-20.82,19,19,0,0,1,1.73-2,20,20,0,0,1,2-1.7,16.76,16.76,0,0,1,4.46-2.39,17.73,17.73,0,0,1,9.25-.75,17.61,17.61,0,0,1,11.84,8.32A16.48,16.48,0,0,1,50.2,130a12.49,12.49,0,0,1,.35,1.82,9.47,9.47,0,0,1,.13,1.35C50.71,133.89,50.71,134.27,50.71,134.27Z"/><path class="cls-8" d="M33.2,122.83a11.44,11.44,0,1,0,11.44,11.44A11.45,11.45,0,0,0,33.2,122.83Z"/><path class="cls-1" d="M33.2,122.83a8.85,8.85,0,0,1,2.82.26,11.39,11.39,0,0,1,6.41,4.15,11.55,11.55,0,0,1,2.22,4.88,11.71,11.71,0,0,1-.48,6.13,11,11,0,0,1-1.59,3,10.92,10.92,0,0,1-2.47,2.47,11.57,11.57,0,0,1-13.82,0,10.77,10.77,0,0,1-2.48-2.47,11.29,11.29,0,0,1-1.58-3,11.71,11.71,0,0,1-.48-6.13A11.54,11.54,0,0,1,24,127.24a11.41,11.41,0,0,1,6.42-4.15,8.85,8.85,0,0,1,2.82-.26,23,23,0,0,0-2.77.46,11.34,11.34,0,0,0-6.17,4.17,11.16,11.16,0,0,0-1.58,10.62,11.21,11.21,0,0,0,3.91,5.19,11.11,11.11,0,0,0,13.22,0,10.21,10.21,0,0,0,2.37-2.36,10.56,10.56,0,0,0,1.54-2.83A11.33,11.33,0,0,0,36,123.29,23.39,23.39,0,0,0,33.2,122.83Z"/><path class="cls-8" d="M33.2,130.64a3.63,3.63,0,1,0,3.63,3.63A3.64,3.64,0,0,0,33.2,130.64Z"/><path class="cls-1" d="M33.2,130.64a1.74,1.74,0,0,1,.91,0A3.69,3.69,0,0,1,36.23,132a3.79,3.79,0,0,1,.6,3.63,3.86,3.86,0,0,1-7.27,0,3.79,3.79,0,0,1,.61-3.63,3.63,3.63,0,0,1,2.12-1.31,1.76,1.76,0,0,1,.91,0c0,.05-.32.05-.86.21a3.67,3.67,0,0,0-1.88,1.33,3.41,3.41,0,1,0,5.48,0,3.68,3.68,0,0,0-1.88-1.34C33.52,130.69,33.2,130.69,33.2,130.64Z"/><path class="cls-7" d="M14.54,146.89c6.05-4.22,12.61-8.4,18.66-12.62"/><path class="cls-4" d="M33.2,134.27s-4.12,2.91-9.27,6.4-9.36,6.27-9.39,6.22,4.12-2.91,9.27-6.4S33.16,134.22,33.2,134.27Z"/><path class="cls-4" d="M16.59,145.67a11.11,11.11,0,0,1-2.16,0,11.32,11.32,0,0,1-2.16-.19,10.77,10.77,0,0,1,2.17,0A10.84,10.84,0,0,1,16.59,145.67Z"/><path class="cls-4" d="M15.86,148.51a5.38,5.38,0,0,1,.21-1.48,5.07,5.07,0,0,1,.42-1.44,5.61,5.61,0,0,1-.22,1.48A5.72,5.72,0,0,1,15.86,148.51Z"/><path class="cls-4" d="M16.92,148.18a5.77,5.77,0,0,1,.17-1.55,5.64,5.64,0,0,1,.38-1.51,6.6,6.6,0,0,1-.18,1.55A6.4,6.4,0,0,1,16.92,148.18Z"/><path class="cls-4" d="M14.43,144.42a6.13,6.13,0,0,1,1.5.25,5.88,5.88,0,0,1,1.46.45,5.16,5.16,0,0,1-1.5-.25A5.42,5.42,0,0,1,14.43,144.42Z"/><circle class="cls-3" cx="127.87" cy="101.32" r="19.04" transform="translate(-28.83 55.9) rotate(-22.23)"/><path class="cls-1" d="M146.91,101.32a1.4,1.4,0,0,1,0-.3c0-.24,0-.53-.07-.91a9.16,9.16,0,0,0-.18-1.45,13.39,13.39,0,0,0-.4-2,18.43,18.43,0,0,0-2.13-5,19,19,0,0,0-12.74-8.85,19,19,0,0,0-9.88.84,17.39,17.39,0,0,0-4.75,2.56A19.23,19.23,0,0,0,114.59,88a20.2,20.2,0,0,0-1.84,2.18,18.68,18.68,0,0,0,0,22.2,21.61,21.61,0,0,0,1.84,2.18,22.77,22.77,0,0,0,2.13,1.82,17.87,17.87,0,0,0,4.76,2.56,18.88,18.88,0,0,0,9.88.83A18.93,18.93,0,0,0,144.09,111a18.43,18.43,0,0,0,2.13-5,13.66,13.66,0,0,0,.4-2,9.13,9.13,0,0,0,.18-1.46c0-.37,0-.67.07-.9a1.61,1.61,0,0,1,0-.31,1.5,1.5,0,0,1,0,.31c0,.24,0,.53,0,.91a8.47,8.47,0,0,1-.12,1.47,13.81,13.81,0,0,1-.37,2,17.88,17.88,0,0,1-2.07,5.12,19.23,19.23,0,0,1-12.91,9.12,19.4,19.4,0,0,1-10.13-.81,18.15,18.15,0,0,1-4.88-2.61,21.33,21.33,0,0,1-2.19-1.86,22.57,22.57,0,0,1-1.9-2.23,19.18,19.18,0,0,1,0-22.81,21.66,21.66,0,0,1,1.9-2.23,21.33,21.33,0,0,1,2.19-1.86,18.15,18.15,0,0,1,4.88-2.61A19.13,19.13,0,0,1,139.5,86a19.06,19.06,0,0,1,4.84,5.49,17.77,17.77,0,0,1,2.07,5.12,13.57,13.57,0,0,1,.37,2,8.39,8.39,0,0,1,.12,1.47c0,.37,0,.67,0,.9A1.43,1.43,0,0,1,146.91,101.32Z"/><path class="cls-7" d="M129.44,101.61a4.43,4.43,0,0,0,2.65-4.12,4.18,4.18,0,1,0-8.34,0,4.44,4.44,0,0,0,2.66,4.16c-6.42,1-6.13,7.94-6.13,7.94l15.18.07S135.81,102.57,129.44,101.61Z"/><path class="cls-4" d="M129.44,101.61a7.33,7.33,0,0,1,2.81,1,6.55,6.55,0,0,1,2.3,2.58,9.88,9.88,0,0,1,1,4.46v.07h-.08l-15.18,0h-.1v-.1a9.84,9.84,0,0,1,.95-4.3,6.52,6.52,0,0,1,2.2-2.59,7.79,7.79,0,0,1,3.06-1.16l0,.19a4.54,4.54,0,0,1-2.71-4,4.69,4.69,0,0,1,1.91-4,4,4,0,0,1,4-.4,4.36,4.36,0,0,1,2.34,2.56,4.79,4.79,0,0,1,.11,2.86,4.59,4.59,0,0,1-1,1.88,4.43,4.43,0,0,1-1.07.83,4.19,4.19,0,0,1-.43.19,4.49,4.49,0,0,0,1.44-1.07,4.42,4.42,0,0,0,1-1.86,4.62,4.62,0,0,0-.13-2.78,4.32,4.32,0,0,0-2.28-2.47,3.89,3.89,0,0,0-3.79.4,4.5,4.5,0,0,0-1.83,3.88,4.34,4.34,0,0,0,2.6,3.8l.32.13-.35.07a7.86,7.86,0,0,0-3,1.13,6.31,6.31,0,0,0-2.13,2.52,9.63,9.63,0,0,0-.93,4.19l-.1-.1,15.18.09-.08.08a9.87,9.87,0,0,0-.94-4.39,6.56,6.56,0,0,0-2.24-2.57,5.93,5.93,0,0,0-1.12-.57,5,5,0,0,0-.9-.3Z"/><circle class="cls-3" cx="84.66" cy="212.14" r="33.17" transform="matrix(0.15, -0.99, 0.99, 0.15, -137.97, 263.22)"/><path class="cls-1" d="M117.83,212.14s0-.18,0-.53-.06-.9-.11-1.58c0-.34,0-.73-.07-1.16s-.13-.88-.21-1.38a24.63,24.63,0,0,0-.69-3.42,31.74,31.74,0,0,0-3.68-8.79,33.1,33.1,0,0,0-8.4-9.36,32.74,32.74,0,0,0-13.88-6.15,31.51,31.51,0,0,0-4.16-.48c-.71,0-1.43-.09-2.15-.08l-2.18.11c-.37,0-.74,0-1.1.07l-1.1.17c-.73.13-1.48.21-2.22.36a35.37,35.37,0,0,0-4.39,1.29,36.82,36.82,0,0,0-4.29,1.89c-.7.38-1.36.82-2.05,1.23a16.38,16.38,0,0,0-2,1.37,35.94,35.94,0,0,0-3.73,3.17,38.33,38.33,0,0,0-3.23,3.82,31.65,31.65,0,0,0-4.7,9.07,32.57,32.57,0,0,0,0,20.77,31.78,31.78,0,0,0,4.7,9.07,38.33,38.33,0,0,0,3.23,3.82,37.21,37.21,0,0,0,3.73,3.17,16.74,16.74,0,0,0,2,1.37c.69.41,1.35.85,2.05,1.23a35.13,35.13,0,0,0,4.29,1.88,33.73,33.73,0,0,0,4.39,1.29c.74.16,1.49.24,2.22.37l1.1.16c.37.05.73.05,1.1.08l2.18.11c.72,0,1.44-.06,2.15-.08a31.66,31.66,0,0,0,4.17-.48A33.21,33.21,0,0,0,113,229a31.87,31.87,0,0,0,3.68-8.79,24.63,24.63,0,0,0,.69-3.42c.08-.5.17-1,.21-1.39s.05-.81.07-1.16c0-.67.09-1.19.11-1.57s0-.54,0-.54,0,.19,0,.54,0,.9,0,1.58c0,.35,0,.74,0,1.17s-.12.89-.18,1.39a23.41,23.41,0,0,1-.66,3.45,31,31,0,0,1-3.62,8.89,33.3,33.3,0,0,1-22.45,15.78,30.42,30.42,0,0,1-4.22.5c-.72,0-1.44.1-2.17.09l-2.21-.11c-.37,0-.75,0-1.12-.07L80,245.18c-.75-.12-1.5-.2-2.25-.36a34.24,34.24,0,0,1-4.46-1.29,35.59,35.59,0,0,1-4.36-1.91c-.71-.38-1.39-.83-2.09-1.24a18.12,18.12,0,0,1-2-1.39,30.76,30.76,0,0,1-7.07-7.09A32.53,32.53,0,0,1,53,222.69a33.12,33.12,0,0,1,0-21.1,32.39,32.39,0,0,1,4.78-9.21,30.24,30.24,0,0,1,7.08-7.08,17.13,17.13,0,0,1,2-1.39c.7-.41,1.38-.86,2.09-1.24a36.41,36.41,0,0,1,8.82-3.21c.75-.15,1.5-.23,2.25-.36l1.11-.16c.37-.05.75-.05,1.12-.07l2.21-.11c.73,0,1.45.06,2.17.09a30.6,30.6,0,0,1,4.22.5,33.36,33.36,0,0,1,22.45,15.78,31.61,31.61,0,0,1,3.62,8.89,23,23,0,0,1,.65,3.45c.07.5.16,1,.19,1.39s0,.82,0,1.17c0,.67,0,1.2,0,1.58S117.83,212.14,117.83,212.14Z"/><circle class="cls-7" cx="84.58" cy="211.97" r="17.63" transform="translate(-119.77 110.36) rotate(-41.81)"/><path class="cls-4" d="M67,210.82a.94.94,0,0,1,0,.29v1.45c0,.23,0,.47.07.74a12.72,12.72,0,0,0,.25,1.84A17.08,17.08,0,0,0,69,219.91a17.56,17.56,0,0,0,4.13,5.24,17.26,17.26,0,0,0,7.13,3.72,17.53,17.53,0,0,0,9.19-.16,19.22,19.22,0,0,0,2.33-.85A18.68,18.68,0,0,0,94,226.62a19,19,0,0,0,2.09-1.54,20.7,20.7,0,0,0,1.83-1.91,16.69,16.69,0,0,0,2.8-4.63,17.19,17.19,0,0,0,.72-11,16.8,16.8,0,0,0-2.17-4.95,19.49,19.49,0,0,0-1.57-2.13,19.8,19.8,0,0,0-1.86-1.81,19.52,19.52,0,0,0-2-1.51A17.85,17.85,0,0,0,91.58,196a17.53,17.53,0,0,0-21.42,6,16.82,16.82,0,0,0-2.26,4.52,12.47,12.47,0,0,0-.49,1.78c-.06.26-.12.5-.16.73s-.06.42-.09.61l-.11.83a1.18,1.18,0,0,1-.06.28s0-.1,0-.29,0-.48.08-.83l.06-.62c0-.23.1-.47.15-.73a12.34,12.34,0,0,1,.46-1.81,16.48,16.48,0,0,1,2.22-4.6,17.77,17.77,0,0,1,12.48-7.63,17.85,17.85,0,0,1,9.29,1.36A19.26,19.26,0,0,1,94,196.84a17.29,17.29,0,0,1,2.09,1.54A18.41,18.41,0,0,1,98,200.22a19.16,19.16,0,0,1,1.61,2.18,17,17,0,0,1,2.23,5.07,19.18,19.18,0,0,1,.55,5.68,19,19,0,0,1-1.29,5.55,17.2,17.2,0,0,1-2.87,4.73,19.28,19.28,0,0,1-1.88,1.95A21.31,21.31,0,0,1,94.21,227a19.5,19.5,0,0,1-2.28,1.25,17.5,17.5,0,0,1-2.39.86,17.65,17.65,0,0,1-16.61-3.7A17.44,17.44,0,0,1,68.79,220a16.53,16.53,0,0,1-1.61-4.85,12.73,12.73,0,0,1-.22-1.86c0-.27,0-.52,0-.75s0-.43,0-.62l0-.84C67,210.92,67,210.82,67,210.82Z"/><path class="cls-4" d="M92.59,212.52a3.91,3.91,0,0,1-.63,0l-1.71,0c-1.45,0-3.48,0-5.76,0h-.12v-1.26c0-2.55,0-4.86,0-6.53,0-.81,0-1.48,0-2a3.22,3.22,0,0,1,0-.72,5.25,5.25,0,0,1,0,.72c0,.51,0,1.18,0,2,0,1.67,0,4,0,6.53v1.15l-.11-.12,5.76,0,1.71,0A2.83,2.83,0,0,1,92.59,212.52Z"/><path class="cls-4" d="M84.54,197.24a10,10,0,0,1,0,3,10,10,0,0,1,0-3Z"/><path class="cls-4" d="M92.57,199.62a9.43,9.43,0,0,1-2.06,2.06,4.7,4.7,0,0,1,.95-1.11A5,5,0,0,1,92.57,199.62Z"/><path class="cls-4" d="M97.27,204.75a6.08,6.08,0,0,1-1.22.81,6,6,0,0,1-1.28.71,4.06,4.06,0,0,1,1.16-.9A4,4,0,0,1,97.27,204.75Z"/><path class="cls-4" d="M100,212.36a8.34,8.34,0,0,1-2,.12,8.41,8.41,0,0,1-2-.12,9.47,9.47,0,0,1,2-.11A9.39,9.39,0,0,1,100,212.36Z"/><path class="cls-4" d="M72,212.09a7.46,7.46,0,0,1-1.91.12,7.42,7.42,0,0,1-1.9-.12,8.35,8.35,0,0,1,1.9-.11A8.4,8.4,0,0,1,72,212.09Z"/><path class="cls-4" d="M74,217.76a7.89,7.89,0,0,1-1.44,1.31A8.57,8.57,0,0,1,71,220.2a8.65,8.65,0,0,1,1.45-1.31A8.92,8.92,0,0,1,74,217.76Z"/><path class="cls-4" d="M78.89,222.15a13.56,13.56,0,0,1-1,1.7,12,12,0,0,1-1,1.66,6.84,6.84,0,0,1,.85-1.78A6.08,6.08,0,0,1,78.89,222.15Z"/><path class="cls-4" d="M84.54,227.8a18.6,18.6,0,0,1,0-4,18.6,18.6,0,0,1,0,4Z"/><path class="cls-4" d="M93.24,225.11A5.86,5.86,0,0,1,91.58,224a6.1,6.1,0,0,1-1.36-1.49,15.09,15.09,0,0,1,1.51,1.32A17.3,17.3,0,0,1,93.24,225.11Z"/><path class="cls-4" d="M97.33,220.71A6.65,6.65,0,0,1,96,219.53a6.9,6.9,0,0,1-1.17-1.33,6.9,6.9,0,0,1,1.33,1.17A7.42,7.42,0,0,1,97.33,220.71Z"/><path class="cls-4" d="M73.81,206.67a6.09,6.09,0,0,1-1.18-1,5.45,5.45,0,0,1-1-1.18,5.34,5.34,0,0,1,1.18,1A5,5,0,0,1,73.81,206.67Z"/><path class="cls-4" d="M78.86,201.35a4.79,4.79,0,0,1-1.16-1,5,5,0,0,1-1-1.15,5.24,5.24,0,0,1,1.16,1A5.67,5.67,0,0,1,78.86,201.35Z"/><path class="cls-1" d="M164,260.85a27.3,27.3,0,0,0-.57-3.62,14.35,14.35,0,0,0-1.67-3.94A14.76,14.76,0,0,0,144,247a13.46,13.46,0,0,0-3.72,2,13.74,13.74,0,0,0-3.11,3.12,14.63,14.63,0,0,0,0,17.38,13.79,13.79,0,0,0,3.11,3.13,14,14,0,0,0,3.72,2,14.89,14.89,0,0,0,7.73.65,14.56,14.56,0,0,0,6.22-2.74,14.85,14.85,0,0,0,3.78-4.17,14.48,14.48,0,0,0,1.67-3.94,27,27,0,0,0,.57-3.63.93.93,0,0,1,0,.25c0,.19,0,.42,0,.71a7.69,7.69,0,0,1-.09,1.16,11.06,11.06,0,0,1-.28,1.56,14.12,14.12,0,0,1-1.62,4,15.1,15.1,0,0,1-10.17,7.2,15.3,15.3,0,0,1-8-.63,14.49,14.49,0,0,1-3.85-2.06,14.3,14.3,0,0,1-3.22-3.23,15.09,15.09,0,0,1,0-18,15.22,15.22,0,0,1,7.07-5.28,15.2,15.2,0,0,1,8-.63A15.13,15.13,0,0,1,162,253.14a14.16,14.16,0,0,1,1.62,4,10.58,10.58,0,0,1,.28,1.56,7.51,7.51,0,0,1,.09,1.16c0,.28,0,.52,0,.71A.87.87,0,0,1,164,260.85Z"/><path class="cls-7" d="M151.93,264.3a2.37,2.37,0,0,0-2,1.14c-.54-.42-1.21-.9-2-1.41l-1.17-.78a2.44,2.44,0,0,0,.74-1.74,2.38,2.38,0,0,0-.42-1.36c.46-.31,1-.68,1.49-1.09s.91-.72,1.29-1.05a2.43,2.43,0,1,0-.42-1.36,2.26,2.26,0,0,0,.16.82c-.44.31-.92.66-1.43,1.06s-1.05.83-1.47,1.19a2.43,2.43,0,1,0-1.63,4.22,2.35,2.35,0,0,0,1.15-.3c.41.3.86.61,1.34.94.77.53,1.49,1,2.08,1.34a2.86,2.86,0,0,0-.19,1,2.44,2.44,0,1,0,2.43-2.65Z"/><path class="cls-4" d="M151.93,264.3a1.73,1.73,0,0,1,.91.16,2.64,2.64,0,0,1,1.54,2,2.93,2.93,0,0,1-.32,1.86,2.51,2.51,0,0,1-1.8,1.27,2.4,2.4,0,0,1-2.28-1,2.93,2.93,0,0,1-.37-2.75l0,.1c-1.09-.69-2.26-1.42-3.43-2.27h.1a2.51,2.51,0,0,1-2.49,0,2.55,2.55,0,0,1-1.24-2.28,2.53,2.53,0,0,1,4.23-1.77h-.14l1.43-1.16,1.48-1.09,0,.12a2.46,2.46,0,0,1,.13-2,2.5,2.5,0,0,1,1.55-1.26,2.52,2.52,0,0,1,1.94.23,2.6,2.6,0,0,1,1.18,1.49,2.52,2.52,0,0,1-4.51,2.13l.13,0c-1,.8-1.91,1.5-2.79,2.14l0-.11a2.51,2.51,0,0,1-.35,3.19v-.1c1.32.84,2.32,1.63,3.13,2.2h-.06a2.45,2.45,0,0,1,1.41-1.05,1.58,1.58,0,0,1,.61-.06,2.71,2.71,0,0,0-.6.1,2.49,2.49,0,0,0-1.35,1.06l0,0,0,0c-.81-.56-1.83-1.33-3.15-2.16l-.07-.05.06-.05a2.36,2.36,0,0,0,.31-3l0-.06.06-.05c.88-.64,1.81-1.34,2.77-2.14l.07-.07.06.08a2.33,2.33,0,1,0,1.29-3.55,2.32,2.32,0,0,0-1.54,3l0,.08-.07.05-1.46,1.08-1.42,1.16-.08.06-.06-.06a2.33,2.33,0,1,0-.45,3.76l.05,0,.05,0c1.16.86,2.33,1.59,3.41,2.28l.06,0,0,.07a2.8,2.8,0,0,0,.33,2.6,2.28,2.28,0,0,0,2.14.94A2.34,2.34,0,0,0,154,268.3a2.76,2.76,0,0,0,.33-1.78,2.57,2.57,0,0,0-1.46-2A2.47,2.47,0,0,0,151.93,264.3Z"/><path class="cls-1" d="M374,209.82s0-.19-.05-.56-.07-.93-.11-1.63l-.08-1.21c0-.44-.14-.92-.22-1.44a24,24,0,0,0-.72-3.55,32.47,32.47,0,0,0-3.82-9.14,34.44,34.44,0,0,0-23.15-16.11,29.12,29.12,0,0,0-4.33-.5c-.73,0-1.48-.1-2.23-.09l-2.26.12c-.38,0-.77,0-1.15.07l-1.14.18c-.76.12-1.54.21-2.3.37a36.53,36.53,0,0,0-4.57,1.34,34.41,34.41,0,0,0-4.46,2c-.72.39-1.42.84-2.13,1.27a16.87,16.87,0,0,0-2.07,1.42,40.08,40.08,0,0,0-3.88,3.3,37.78,37.78,0,0,0-3.35,4,33.08,33.08,0,0,0-4.89,9.42,34,34,0,0,0,0,21.59A32.89,32.89,0,0,0,312,230a31.19,31.19,0,0,0,7.23,7.27,18.07,18.07,0,0,0,2.07,1.42c.71.42,1.41.88,2.13,1.27a35.82,35.82,0,0,0,4.46,2,36.53,36.53,0,0,0,4.57,1.34c.76.16,1.54.24,2.3.37l1.14.18c.38,0,.77,0,1.15.07l2.26.12c.75,0,1.5-.06,2.24-.09a30.85,30.85,0,0,0,4.33-.5A34.35,34.35,0,0,0,369,227.34a32.43,32.43,0,0,0,3.82-9.13,24.28,24.28,0,0,0,.72-3.55c.08-.52.18-1,.22-1.44s.05-.85.08-1.21c0-.7.08-1.24.11-1.63s.05-.56.05-.56,0,.19,0,.56,0,.93-.06,1.64c0,.36,0,.77-.05,1.21s-.12.92-.19,1.45a24,24,0,0,1-.68,3.58,32.54,32.54,0,0,1-3.77,9.23,34.65,34.65,0,0,1-23.31,16.4,31.71,31.71,0,0,1-4.39.52c-.75,0-1.5.1-2.26.09l-2.3-.11c-.38,0-.77,0-1.16-.07l-1.15-.18c-.78-.13-1.56-.21-2.34-.37a39.27,39.27,0,0,1-4.63-1.35,35.42,35.42,0,0,1-4.53-2c-.73-.39-1.44-.85-2.17-1.28a18.47,18.47,0,0,1-2.09-1.44,40,40,0,0,1-3.95-3.35,38.8,38.8,0,0,1-3.4-4,33.5,33.5,0,0,1-5-9.57,34.24,34.24,0,0,1,0-21.91,33.5,33.5,0,0,1,5-9.57,31.83,31.83,0,0,1,7.35-7.36,17.36,17.36,0,0,1,2.1-1.44c.72-.43,1.43-.89,2.16-1.29a36.8,36.8,0,0,1,4.53-2,39.27,39.27,0,0,1,4.63-1.35c.78-.16,1.56-.25,2.34-.37l1.15-.18c.39,0,.78,0,1.16-.07l2.3-.11c.76,0,1.51.06,2.26.09a31.39,31.39,0,0,1,4.38.52,34.67,34.67,0,0,1,23.32,16.39,32.7,32.7,0,0,1,3.77,9.24,24,24,0,0,1,.68,3.58c.07.52.15,1,.19,1.45s0,.85.05,1.21c0,.71,0,1.25.06,1.64S374,209.82,374,209.82Z"/><path class="cls-4" d="M360.68,227.43a3.44,3.44,0,0,1-.76,0l-2.18.05-8,.08-26.47.07H321.1v-.25c0-9.89.06-18.75.08-25.21,0-3.17.06-5.74.07-7.58,0-.85,0-1.54.05-2a4.08,4.08,0,0,1,.05-.72,4.08,4.08,0,0,1,0,.72c0,.51,0,1.2,0,2,0,1.84.05,4.41.08,7.58,0,6.46.05,15.32.08,25.21l-.25-.25h1.89l26.47.08,8,.08,2.18,0A6.42,6.42,0,0,1,360.68,227.43Z"/><path class="cls-4" d="M356.31,200.5a9.75,9.75,0,0,1-1.17,1.12l-3.32,2.92c-2.82,2.44-6.74,5.79-11.08,9.47l-.66.56-.17.14-.16-.15L334.82,210h.31l-7.23,6-2.1,1.68a4.93,4.93,0,0,1-.79.56,5.39,5.39,0,0,1,.69-.68l2-1.78,7.12-6.11.16-.13.15.14,4.95,4.55h-.33l.66-.56c4.34-3.68,8.29-7,11.17-9.36l3.42-2.8A10.1,10.1,0,0,1,356.31,200.5Z"/><path class="cls-4" d="M356.31,208.74a11.73,11.73,0,0,1-.17-2.45c-.05-1.52-.07-3.63-.08-6l.25.25h-.42c-2.45,0-4.66,0-6.27-.08a13.17,13.17,0,0,1-2.59-.17,13.56,13.56,0,0,1,2.59-.18c1.61,0,3.82-.07,6.27-.07h.67v.25c0,2.35,0,4.46-.08,6A11.73,11.73,0,0,1,356.31,208.74Z"/><path class="cls-1" d="M429.28,131.36a2,2,0,0,1,0-.42q0-.45-.09-1.23c0-.27,0-.58-.06-.91s-.1-.69-.16-1.08a19.58,19.58,0,0,0-.55-2.67,24.65,24.65,0,0,0-2.89-6.87,25.75,25.75,0,0,0-30.93-11,23.56,23.56,0,0,0-6.51,3.5,29.58,29.58,0,0,0-2.91,2.48,28.76,28.76,0,0,0-2.52,3,25,25,0,0,0-3.68,7.09,27.49,27.49,0,0,0-1.32,8.11,27.16,27.16,0,0,0,1.32,8.11,25,25,0,0,0,3.68,7.09,30,30,0,0,0,2.51,3A30.9,30.9,0,0,0,388,152a27.18,27.18,0,0,0,3.15,2,28.3,28.3,0,0,0,3.36,1.47,25.81,25.81,0,0,0,30.93-11,24.35,24.35,0,0,0,2.89-6.87,19.58,19.58,0,0,0,.55-2.67c.06-.39.13-.75.16-1.08s.05-.64.06-.91q.06-.78.09-1.23a2,2,0,0,1,0-.42,2.21,2.21,0,0,1,0,.42c0,.3,0,.71,0,1.24l0,.91c0,.34-.09.7-.14,1.09a19.17,19.17,0,0,1-.5,2.7,24.47,24.47,0,0,1-2.84,7,26,26,0,0,1-17.58,12.39A26.21,26.21,0,0,1,394.39,156a27.16,27.16,0,0,1-3.43-1.49,28.15,28.15,0,0,1-3.21-2.06,27.32,27.32,0,0,1-3-2.53,30.09,30.09,0,0,1-2.58-3,25.61,25.61,0,0,1-3.75-7.23,26,26,0,0,1,0-16.55,25.32,25.32,0,0,1,3.76-7.22,28.93,28.93,0,0,1,2.57-3,29,29,0,0,1,6.19-4.59,27.16,27.16,0,0,1,3.43-1.49,26,26,0,0,1,24.74,3.82,25.72,25.72,0,0,1,6.6,7.46,24.12,24.12,0,0,1,2.83,7,18,18,0,0,1,.51,2.7c.05.39.12.76.14,1.09s0,.64,0,.91c0,.53,0,.94,0,1.24A2.21,2.21,0,0,1,429.28,131.36Z"/><path class="cls-9" d="M404.12,117.48l3.48,7a.89.89,0,0,0,.68.49l7.76,1.13a.9.9,0,0,1,.5,1.54l-5.62,5.48a.9.9,0,0,0-.26.8l1.33,7.73a.9.9,0,0,1-1.31.95L403.73,139a.89.89,0,0,0-.84,0L396,142.64a.9.9,0,0,1-1.31-.95L396,134a.9.9,0,0,0-.26-.8l-5.62-5.48a.9.9,0,0,1,.5-1.54l7.76-1.13a.89.89,0,0,0,.68-.49l3.48-7A.9.9,0,0,1,404.12,117.48Z"/><path class="cls-4" d="M404.12,117.48s0-.07-.14-.18a.94.94,0,0,0-.61-.28.86.86,0,0,0-.85.56c-.2.41-.42.88-.67,1.41-.52,1.06-1.15,2.35-1.87,3.85-.18.38-.37.76-.57,1.16l-.3.62a1,1,0,0,1-.6.48c-1,.17-1.94.3-3,.46l-3.26.48-1.72.27a.74.74,0,0,0-.41,1.19l5.64,5.48a1.14,1.14,0,0,1,.34,1.11l-.18,1c-.11.7-.24,1.41-.36,2.12-.24,1.44-.49,2.9-.74,4.39a.71.71,0,0,0,.31.8.73.73,0,0,0,.43.11,1.07,1.07,0,0,0,.46-.18l2.06-1.08,4.2-2.21.54-.28a1.09,1.09,0,0,1,.71-.09,2.24,2.24,0,0,1,.58.27l.53.27,2.09,1.1,4.07,2.14a.71.71,0,0,0,.82-.18.66.66,0,0,0,.17-.4,1.88,1.88,0,0,0-.05-.5c-.13-.74-.25-1.46-.37-2.18q-.37-2.15-.72-4.2c-.06-.35-.11-.69-.17-1a1.1,1.1,0,0,1,.39-1.07l1.43-1.39,2.75-2.67,1.31-1.26a.76.76,0,0,0-.1-1.25,2.43,2.43,0,0,0-.77-.17l-.83-.13-1.59-.23-3-.45-1.36-.2a5.94,5.94,0,0,1-.67-.12,1,1,0,0,1-.54-.43l-1.88-3.86c-.5-1.05-.89-1.86-1.16-2.44-.13-.27-.22-.48-.3-.64l-.09-.23a1.12,1.12,0,0,1,.13.21l.33.62,1.23,2.41,1.92,3.82a.76.76,0,0,0,.43.33,5.21,5.21,0,0,0,.63.1l1.37.19,3,.42,1.59.23.83.11a2.71,2.71,0,0,1,.87.2,1,1,0,0,1,.54.81,1.06,1.06,0,0,1-.37.91l-1.3,1.28-2.73,2.68c-.47.46-.95.92-1.43,1.4a.74.74,0,0,0-.29.76l.18,1c.23,1.37.48,2.77.72,4.2.13.72.25,1.44.38,2.17a2.74,2.74,0,0,1,.06.61,1,1,0,0,1-.27.6,1.07,1.07,0,0,1-1.24.28l-4.1-2.15-2.09-1.09-.52-.28a2.61,2.61,0,0,0-.49-.23.76.76,0,0,0-.47.06l-.52.27-4.2,2.21-2.06,1.08a1.47,1.47,0,0,1-.61.22,1,1,0,0,1-.66-.17,1.09,1.09,0,0,1-.48-1.17c.26-1.49.51-3,.76-4.39l.36-2.12.18-1.05a.76.76,0,0,0-.23-.8l-5.65-5.53a1.07,1.07,0,0,1-.17-1,1,1,0,0,1,.76-.67l1.75-.26,3.26-.46,2.95-.42a.79.79,0,0,0,.47-.37l.3-.6.58-1.15,1.92-3.83.71-1.39a1,1,0,0,1,1-.59.94.94,0,0,1,.63.33A.5.5,0,0,1,404.12,117.48Z"/><path class="cls-1" d="M359.93,51.6a1.44,1.44,0,0,1,0-.31c0-.23-.05-.52-.08-.9a8,8,0,0,0-.17-1.45,12.31,12.31,0,0,0-.41-2,18.11,18.11,0,0,0-2.12-5,18.82,18.82,0,0,0-22.62-8,17.59,17.59,0,0,0-4.76,2.56,21.25,21.25,0,0,0-2.13,1.81,22.78,22.78,0,0,0-1.84,2.18,18.7,18.7,0,0,0,0,22.2,21.61,21.61,0,0,0,1.84,2.18,22.77,22.77,0,0,0,2.13,1.82,17.87,17.87,0,0,0,4.76,2.56,18.88,18.88,0,0,0,22.62-8,18.06,18.06,0,0,0,2.12-5,12.78,12.78,0,0,0,.41-2,8,8,0,0,0,.17-1.46c0-.37.06-.67.08-.9a1.61,1.61,0,0,1,0-.31,1.5,1.5,0,0,1,0,.31c0,.23,0,.53,0,.91a9.59,9.59,0,0,1-.12,1.47,13.46,13.46,0,0,1-.37,2,17.92,17.92,0,0,1-2.07,5.13,19.22,19.22,0,0,1-12.92,9.12,19.37,19.37,0,0,1-10.12-.81,17.91,17.91,0,0,1-4.88-2.62,19.14,19.14,0,0,1-2.19-1.85,21.6,21.6,0,0,1-1.9-2.24,19.16,19.16,0,0,1,0-22.8,20.48,20.48,0,0,1,1.9-2.23,21.33,21.33,0,0,1,2.19-1.86,18.15,18.15,0,0,1,4.88-2.61,19.27,19.27,0,0,1,10.12-.81,19.14,19.14,0,0,1,12.92,9.12,17.77,17.77,0,0,1,2.07,5.12,13.46,13.46,0,0,1,.37,2,9.71,9.71,0,0,1,.12,1.48c0,.37,0,.67,0,.9A1.43,1.43,0,0,1,359.93,51.6Z"/><path class="cls-7" d="M349.34,49.31a8.68,8.68,0,1,0-16.16,4.38h0l0,0c.33.56.75,1,1.17,1.55l5,6.68a1.57,1.57,0,0,0,2.5,0l5-6.57a17.28,17.28,0,0,0,1.26-1.67l0,0h0A8.65,8.65,0,0,0,349.34,49.31Zm-8.68,3.78a3.82,3.82,0,1,1,3.82-3.82A3.82,3.82,0,0,1,340.66,53.09Z"/><path class="cls-8" d="M349.34,49.31a8.68,8.68,0,1,0-16.16,4.38h0l0,0c.33.56.75,1,1.17,1.55l5,6.68a1.57,1.57,0,0,0,2.5,0l5-6.57a17.28,17.28,0,0,0,1.26-1.67l0,0h0A8.65,8.65,0,0,0,349.34,49.31Zm-8.68,3.78a3.82,3.82,0,1,1,3.82-3.82A3.82,3.82,0,0,1,340.66,53.09Z"/><path class="cls-4" d="M340.66,53.09s.34,0,.92-.16a3.81,3.81,0,0,0,2.06-1.4,3.73,3.73,0,1,0-6,0,3.84,3.84,0,0,0,2.06,1.4c.58.15.92.13.92.16a2.91,2.91,0,0,1-.94-.08,3.75,3.75,0,0,1-2.15-1.39,3.88,3.88,0,0,1-.59-3.69,3.91,3.91,0,0,1,7.36,0,3.88,3.88,0,0,1-.58,3.69A3.8,3.8,0,0,1,341.6,53,2.91,2.91,0,0,1,340.66,53.09Z"/><path class="cls-4" d="M349.34,49.31a6.39,6.39,0,0,1,0,1.2,8.55,8.55,0,0,1-1.1,3.21l0-.08h.11l-.07.09v0h0l-5.95,7.93a2,2,0,0,1-1.23,1,1.69,1.69,0,0,1-1.54-.48c-.68-.86-1.33-1.74-2-2.65l-4.33-5.73h0l0,0-.13-.17h.22l-.09.16a9,9,0,0,1-.77-1.69,8.76,8.76,0,0,1,8.73-11.51,8.92,8.92,0,0,1,4.24,1.33A8.68,8.68,0,0,1,349.05,47a6.31,6.31,0,0,1,.21,1,3.57,3.57,0,0,1,.07.74c0,.4,0,.61,0,.61A10.78,10.78,0,0,0,349,47a8.66,8.66,0,0,0-3.77-5A8.8,8.8,0,0,0,341,40.72,8.59,8.59,0,0,0,332.52,52a9.11,9.11,0,0,0,.75,1.64l.09.16h-.19l.09-.17,0,0h0l4.3,5.72,2,2.64a1.47,1.47,0,0,0,1.37.42,1.78,1.78,0,0,0,1.12-.88c2.41-3.16,4.45-5.86,6-7.88h0l0,0,0,.09h-.1l.05-.08a8.88,8.88,0,0,0,1.13-3.17,8,8,0,0,0,.09-.89C349.33,49.41,349.34,49.31,349.34,49.31Z"/><path class="cls-1" d="M267.44,40s0-.18-.05-.54-.06-.91-.11-1.6c0-.35,0-.74-.07-1.17s-.14-.9-.21-1.41a25.4,25.4,0,0,0-.71-3.46,32.06,32.06,0,0,0-3.72-8.91A33.66,33.66,0,0,0,240,7.22a32.43,32.43,0,0,0-4.22-.49c-.72,0-1.45-.09-2.18-.08l-2.21.12c-.37,0-.74,0-1.11.07L229.15,7c-.74.12-1.5.21-2.24.37a35.79,35.79,0,0,0-4.45,1.3,34.2,34.2,0,0,0-4.36,1.92c-.7.38-1.38.82-2.07,1.24a16.87,16.87,0,0,0-2,1.39,38,38,0,0,0-3.78,3.21A39.32,39.32,0,0,0,207,20.31a32.25,32.25,0,0,0-4.77,9.19A35.67,35.67,0,0,0,200.47,40a35.6,35.6,0,0,0,1.72,10.52,32.3,32.3,0,0,0,4.77,9.2,38,38,0,0,0,3.27,3.87A38,38,0,0,0,214,66.83a15.41,15.41,0,0,0,2,1.39c.69.42,1.37.86,2.07,1.24a34.2,34.2,0,0,0,4.36,1.92,35.79,35.79,0,0,0,4.45,1.3c.74.16,1.5.25,2.24.37l1.12.17c.37,0,.74,0,1.11.07l2.21.12c.73,0,1.46-.06,2.18-.08a32.23,32.23,0,0,0,4.22-.49,33.6,33.6,0,0,0,22.58-15.72,32.06,32.06,0,0,0,3.72-8.91,25.71,25.71,0,0,0,.71-3.46c.07-.51.16-1,.21-1.41s.05-.82.07-1.17c.05-.69.08-1.22.11-1.6s.05-.54.05-.54,0,.18,0,.54,0,.92-.05,1.61c0,.35,0,.74-.05,1.18s-.12.9-.19,1.41a25.26,25.26,0,0,1-.66,3.49,31.87,31.87,0,0,1-3.67,9,33.76,33.76,0,0,1-22.75,16,30,30,0,0,1-4.28.51c-.72,0-1.46.1-2.2.09l-2.24-.11c-.38,0-.76,0-1.13-.07l-1.13-.17c-.75-.12-1.52-.21-2.28-.37a36.14,36.14,0,0,1-4.52-1.31,35.1,35.1,0,0,1-4.42-1.94c-.71-.38-1.4-.83-2.11-1.25a16.47,16.47,0,0,1-2-1.41A36.9,36.9,0,0,1,209.87,64a38,38,0,0,1-3.32-3.92,32.86,32.86,0,0,1-4.85-9.33A36.11,36.11,0,0,1,200,40a36,36,0,0,1,1.75-10.68A32.86,32.86,0,0,1,206.55,20a36.94,36.94,0,0,1,3.32-3.92,36.9,36.9,0,0,1,3.85-3.26,16.47,16.47,0,0,1,2-1.41c.71-.42,1.4-.87,2.11-1.26a36.53,36.53,0,0,1,4.42-1.93,35.65,35.65,0,0,1,4.52-1.31c.76-.16,1.52-.25,2.28-.37l1.13-.17c.37,0,.75,0,1.13-.07l2.24-.11c.74,0,1.47.06,2.2.09a30,30,0,0,1,4.28.51,33.76,33.76,0,0,1,22.75,16,31.87,31.87,0,0,1,3.67,9,25.26,25.26,0,0,1,.66,3.49c.07.51.15,1,.19,1.41s0,.83.05,1.18c0,.69,0,1.22.05,1.61S267.44,40,267.44,40Z"/><path class="cls-8" d="M235,24.51a15.27,15.27,0,0,1,4,1l2.92-2.45,5,3.82-1.58,3.47A15.65,15.65,0,0,1,247.42,34l3.8.33.84,6.25-3.57,1.34a15.2,15.2,0,0,1-1.05,4l2.45,2.93-3.82,5L242.6,52.2a14.94,14.94,0,0,1-3.55,2.07l-.33,3.8-6.25.85-1.34-3.57a15.3,15.3,0,0,1-4-1.05l-2.93,2.45-5-3.82,1.58-3.47a15.34,15.34,0,0,1-2.07-3.55l-3.8-.34-.85-6.25L217.65,38a15.37,15.37,0,0,1,1-4l-2.45-2.92,3.82-5,3.47,1.58a16.09,16.09,0,0,1,3.55-2.07l.34-3.79,6.25-.85L235,24.51Zm-2.56,8.67a6.77,6.77,0,1,0,7.61,5.8A6.78,6.78,0,0,0,232.45,33.18Z"/><path class="cls-4" d="M232.45,33.18a2.11,2.11,0,0,1,.42-.09,5.42,5.42,0,0,1,1.25,0,6.66,6.66,0,0,1,4.15,1.9,7,7,0,0,1,1.94,6.4,6.85,6.85,0,0,1-2,3.57A7,7,0,0,1,230,46.06a6.79,6.79,0,0,1-2.85-2.92,6.94,6.94,0,0,1,.16-6.68,6.74,6.74,0,0,1,3.49-2.94,5.2,5.2,0,0,1,1.21-.31,2.4,2.4,0,0,1,.44,0c0,.06-.6.12-1.57.54a6.67,6.67,0,0,0-3.23,2.93,6.57,6.57,0,0,0-.06,6.26,6.56,6.56,0,0,0,6.64,3.41A6.54,6.54,0,0,0,238,35.25a6.76,6.76,0,0,0-3.9-2C233.05,33.14,232.45,33.24,232.45,33.18Z"/><path class="cls-4" d="M235,24.51a2,2,0,0,1-.1-.22l-.27-.66c-.25-.63-.59-1.52-1-2.66l.09.05-6.24.9.12-.12c-.1,1.15-.2,2.43-.32,3.8v.09l-.09,0a15.69,15.69,0,0,0-3.51,2.06l-.08.07-.1,0L220,26.25l.24-.06-3.81,5V31l2.46,2.92.08.1-.05.13a15.12,15.12,0,0,0-1,3.92l0,.14-.14.05-3.56,1.34.15-.26c.27,2,.56,4.08.86,6.25l-.23-.22,3.8.33h.16l.06.15a14.9,14.9,0,0,0,2,3.49l.09.12-.06.15c-.5,1.08-1,2.27-1.58,3.47l-.08-.33,5,3.82h-.34L227,54.09l.13-.11.15.07a15.32,15.32,0,0,0,3.9,1h0l.22.17h0v.05l0,0,0,.11.09.23.16.45.34.89.66,1.78-.29-.17,6.25-.85-.23.25.33-3.8,0-.16L239,54a15.35,15.35,0,0,0,3.49-2l.13-.09.14.06,3.47,1.59-.31.08c1.3-1.72,2.58-3.39,3.82-5v.32L247.26,46l-.1-.11.06-.14a15.41,15.41,0,0,0,1-3.91l0-.14.13-.05L252,40.32l-.14.24c-.29-2.2-.57-4.27-.83-6.25l.19.18-3.8-.35h-.12l0-.11a15.46,15.46,0,0,0-2-3.51l-.07-.09,0-.1c.58-1.25,1.11-2.39,1.6-3.46l.05.2-5-3.85H242c-1.17,1-2.14,1.76-3,2.42l0,0-.05,0a16.18,16.18,0,0,0-2.94-.93l-.75-.15-.25,0a.76.76,0,0,1,.26,0c.17,0,.42,0,.76.1a14.93,14.93,0,0,1,3,.86h-.09l2.9-2.48.08-.06L242,23,247,26.8l.1.08,0,.12c-.49,1.07-1,2.21-1.57,3.47l0-.18a15.58,15.58,0,0,1,2.11,3.58l-.16-.12,3.79.33h.17l0,.17c.28,2,.56,4.05.87,6.24l0,.18-.17.07-3.56,1.34.15-.19a16,16,0,0,1-1.06,4l0-.25,2.45,2.91.13.16-.12.16-3.81,5-.13.17L246,54l-3.47-1.58.28,0a15.53,15.53,0,0,1-3.62,2.11l.17-.22c-.11,1.25-.22,2.52-.33,3.79l0,.22-.22,0-6.25.85-.21,0-.08-.21-.66-1.78-.34-.89-.17-.45-.08-.22,0-.12,0,0v0h0l.22.18h0a15.87,15.87,0,0,1-4-1.07l.28,0L224.41,57l-.17.13-.17-.13-5-3.82-.17-.13.09-.19c.55-1.2,1.09-2.39,1.59-3.47l0,.27a15.68,15.68,0,0,1-2.1-3.61l.21.15-3.79-.34h-.2l0-.2c-.29-2.17-.58-4.29-.84-6.26l0-.19.18-.07,3.57-1.32-.15.19a15.47,15.47,0,0,1,1.07-4l0,.23-2.44-2.93L216,31.1l.1-.14,3.84-5,.09-.12.14.06,3.47,1.6-.19,0a16,16,0,0,1,3.6-2.08l-.1.14c.13-1.37.25-2.65.36-3.8v-.11h.11l6.26-.8h.07l0,.07,1,2.66.23.69A1,1,0,0,1,235,24.51Z"/></g><g id="Character"><path class="cls-1" d="M192.85,289.22l-1.39.47c-6.25,2.1-24.82,8.24-30.43,10.54,0,0,9.94,87.91,11.1,96.08s1.46,40.86,1.46,40.86H279.33s-.28-88.11,0-101.77c.39-17.68,2.58-35.17,2.58-35.17L263.47,293l-21.59-11.38Z"/><g class="cls-10"><path d="M216.37,308.24Q203.43,356.33,189.09,404c-1.12,3.75-2.24,7.86-.72,11.47a10.29,10.29,0,0,0,8.16,5.8,16.48,16.48,0,0,0,10-2.26c7.15-4,11.79-11.5,14.07-19.37s2.49-16.15,2.67-24.33l1.5-65.47Z"/></g><path class="cls-1" d="M161,300.23s-15.51,6.87-14.3,34.43a337.81,337.81,0,0,0,3.67,35.91L194,358l-11.08-47.86Z"/><path class="cls-1" d="M264.45,344.59l-2.33,31.8L306,362.2s-9.4-56.15-24.29-62l-16.05,27.43Z"/><path class="cls-4" d="M269.44,335.4a3.33,3.33,0,0,1,.08.65c0,.48.08,1.09.13,1.86.09,1.68.22,4,.38,6.84.28,5.79.59,13.78.88,22.61s.54,16.77.72,22.62c.09,2.84.16,5.17.21,6.85,0,.77,0,1.39,0,1.87a4.72,4.72,0,0,1,0,.65,2.8,2.8,0,0,1-.09-.65c0-.48-.07-1.09-.13-1.86-.09-1.68-.22-4-.37-6.85-.29-5.78-.6-13.78-.88-22.61s-.54-16.77-.73-22.61c-.09-2.85-.16-5.17-.21-6.85,0-.77,0-1.39,0-1.87A2.69,2.69,0,0,1,269.44,335.4Z"/><path class="cls-4" d="M182.72,322a5.86,5.86,0,0,1-.57-1l-1.41-2.82a46.86,46.86,0,0,0-5.46-8.78,21.32,21.32,0,0,0-8.12-6.19,25.79,25.79,0,0,0-4.12-1.16,4,4,0,0,1,1.17.05,13.1,13.1,0,0,1,3.08.77,20.41,20.41,0,0,1,8.39,6.19,41.32,41.32,0,0,1,5.39,9c.56,1.21,1,2.2,1.27,2.89A4.2,4.2,0,0,1,182.72,322Z"/><path class="cls-4" d="M274.56,298.9a62.74,62.74,0,0,0-2.76,7.35,65.75,65.75,0,0,0-1.3,7.76,8,8,0,0,1-.08-2.33,26.48,26.48,0,0,1,.88-5.56,26,26,0,0,1,2-5.25A8,8,0,0,1,274.56,298.9Z"/><path class="cls-9" d="M177.05,312.59s-.15,0-.43.05a1.66,1.66,0,0,0-1,.7,4,4,0,0,0-.67,1.81,8.11,8.11,0,0,1-.32,1.24,2.44,2.44,0,0,1-.89,1.2,3,3,0,0,1-3.24-.35,11.43,11.43,0,0,1-2.32-2.95,5.41,5.41,0,0,0-1.3-1.4,2.91,2.91,0,0,0-1.77-.6,1.88,1.88,0,0,0-1.53,1,4.93,4.93,0,0,0-.46,2c0,.74-.06,1.49-.15,2.23a4.65,4.65,0,0,1-.71,2.15,2,2,0,0,1-.38.44,1.75,1.75,0,0,1-.46.35,2.58,2.58,0,0,1-1.07.34,3.9,3.9,0,0,1-2.07-.39,8.59,8.59,0,0,1-2.77-2.56,9.77,9.77,0,0,0-2.2-2.24A3.28,3.28,0,0,0,151,315a2.51,2.51,0,0,0-1.54,1,1.74,1.74,0,0,0-.33,1.14c0,.28.09.42.06.43a.92.92,0,0,1-.17-.42,1.81,1.81,0,0,1,.27-1.26,2.68,2.68,0,0,1,1.65-1.22,3.63,3.63,0,0,1,2.65.61,10.06,10.06,0,0,1,2.34,2.28,8.2,8.2,0,0,0,2.63,2.4,3.53,3.53,0,0,0,1.81.33,2.08,2.08,0,0,0,1.55-.93c.74-1.09.65-2.63.76-4.13a5.3,5.3,0,0,1,.53-2.25,2.4,2.4,0,0,1,1.95-1.25,4.32,4.32,0,0,1,3.5,2.24,11.86,11.86,0,0,0,2.17,2.87,2.59,2.59,0,0,0,2.79.39,3.3,3.3,0,0,0,1.12-2.19,4.12,4.12,0,0,1,.8-1.88,1.69,1.69,0,0,1,1.1-.67A.79.79,0,0,1,177.05,312.59Z"/><path class="cls-9" d="M185.92,327.34a2,2,0,0,1,0,.58,3.48,3.48,0,0,1-.55,1.55,4.5,4.5,0,0,1-2,1.72,3.86,3.86,0,0,1-3.44-.05c-1.17-.57-2.14-1.68-3.5-2.06s-2.87.54-3.74,1.87-1.28,3.1-2.2,4.74a5.56,5.56,0,0,1-2,2.07,3.18,3.18,0,0,1-3,.24,5.23,5.23,0,0,1-2.08-2.12c-.5-.82-.91-1.65-1.41-2.37a3.5,3.5,0,0,0-1.9-1.54,2.68,2.68,0,0,0-2.24.43,8.43,8.43,0,0,0-2.69,3.68,30.52,30.52,0,0,1-1.89,3.71,6.36,6.36,0,0,1-4.92,3.24,3.52,3.52,0,0,1-1.62-.29,1.59,1.59,0,0,1-.38-.2c-.08-.05-.12-.08-.11-.09a4.31,4.31,0,0,0,2.1.38,6.24,6.24,0,0,0,4.62-3.24,31,31,0,0,0,1.8-3.69,8.8,8.8,0,0,1,2.82-3.89,3.14,3.14,0,0,1,2.64-.52,4,4,0,0,1,2.19,1.72c.53.78.95,1.61,1.43,2.4a4.67,4.67,0,0,0,1.85,1.91,2.68,2.68,0,0,0,2.5-.21,5,5,0,0,0,1.81-1.88c.88-1.53,1.26-3.3,2.24-4.75a5.37,5.37,0,0,1,1.86-1.72,3.19,3.19,0,0,1,2.39-.3,6,6,0,0,1,2,1.06,13.07,13.07,0,0,0,1.61,1.09,3.51,3.51,0,0,0,3.15.11,4.22,4.22,0,0,0,2.61-3.58Z"/><path class="cls-9" d="M180.83,348.7s-.13,0-.37-.06a1.47,1.47,0,0,0-1,.31,3,3,0,0,0-.92,1.37,5,5,0,0,0-.09,2.24,5.74,5.74,0,0,1-.22,2.89,3.07,3.07,0,0,1-2.91,1.67,4.6,4.6,0,0,1-3.43-1.6,13.52,13.52,0,0,1-2.18-3.49l.18.13a2.94,2.94,0,0,0-2.72,1.35,7,7,0,0,0-1.15,3.3,22.8,22.8,0,0,1-.48,2.7,5.74,5.74,0,0,1-1.31,2.41,3.23,3.23,0,0,1-2.43,1.12,3.81,3.81,0,0,1-2.35-1c-1.28-1.09-1.91-2.54-2.78-3.6a4.21,4.21,0,0,0-3.17-1.81,4,4,0,0,0-2.88,1,4.17,4.17,0,0,0-1.22,2,5.42,5.42,0,0,0-.09,2.05s0,0-.06-.13-.06-.22-.1-.4a4.06,4.06,0,0,1,0-1.57,4.3,4.3,0,0,1,6.21-2.77,5.39,5.39,0,0,1,1.59,1.39c.93,1.12,1.57,2.53,2.76,3.51a3.32,3.32,0,0,0,2.05.87,2.75,2.75,0,0,0,2-1,5.45,5.45,0,0,0,1.18-2.2,24,24,0,0,0,.47-2.65,7.47,7.47,0,0,1,1.25-3.53,3.43,3.43,0,0,1,3.22-1.53l.12,0,.06.12a14,14,0,0,0,2.07,3.39,4.18,4.18,0,0,0,3.1,1.49,2.68,2.68,0,0,0,2.56-1.4,5.5,5.5,0,0,0,.24-2.71,5,5,0,0,1,.18-2.35,3,3,0,0,1,1.06-1.42,1.39,1.39,0,0,1,1.07-.25A.87.87,0,0,1,180.83,348.7Z"/><path class="cls-9" d="M302.22,344.47s-.18,0-.5.14a2.37,2.37,0,0,0-1.13.91,6.22,6.22,0,0,0-.89,2.16,12.64,12.64,0,0,1-.85,3.1,3.16,3.16,0,0,1-1.27,1.46,2.33,2.33,0,0,1-2.12.06,4.3,4.3,0,0,1-1.61-1.56,14.12,14.12,0,0,1-1.05-2.05,6.51,6.51,0,0,0-1.3-1.89,2.21,2.21,0,0,0-2-.77,1.92,1.92,0,0,0-1.37,1.68,14.61,14.61,0,0,0-.13,2.6,7.24,7.24,0,0,1-1.82,5,4.38,4.38,0,0,1-4.75,1.13c-1.53-.69-2.44-1.95-3.46-2.83a3.58,3.58,0,0,0-3.31-1.15,4.21,4.21,0,0,0-2.39,1.8,7.6,7.6,0,0,0-.93,2.16c-.34,1.26-.46,2-.51,2a2.94,2.94,0,0,1,0-.53c.05-.35.12-.86.27-1.51a7.56,7.56,0,0,1,.89-2.26,4.46,4.46,0,0,1,2.53-2,3.31,3.31,0,0,1,1.94.08,5.67,5.67,0,0,1,1.75,1.1c1.06.91,2,2.13,3.36,2.72a3.88,3.88,0,0,0,4.2-1.05,6.79,6.79,0,0,0,1.67-4.65,14.53,14.53,0,0,1,.15-2.7,3.1,3.1,0,0,1,.55-1.3,2.15,2.15,0,0,1,1.2-.77,2.72,2.72,0,0,1,2.46.92,6.81,6.81,0,0,1,1.38,2,14,14,0,0,0,1,2,3.81,3.81,0,0,0,1.41,1.41,1.9,1.9,0,0,0,1.74,0,2.78,2.78,0,0,0,1.13-1.27,12.53,12.53,0,0,0,.9-3,6.06,6.06,0,0,1,1-2.21,2.37,2.37,0,0,1,1.26-.89A1.14,1.14,0,0,1,302.22,344.47Z"/><path class="cls-9" d="M297,321s0,.14-.18.37-.35.56-.64,1a9.65,9.65,0,0,1-1.19,1.44,5.16,5.16,0,0,1-2.13,1.31,3.68,3.68,0,0,1-3-.27c-1-.61-1.48-1.78-2.38-2.41a1.56,1.56,0,0,0-1.52-.16,2.65,2.65,0,0,0-1.16,1.26,4.91,4.91,0,0,0-.48,1.81c0,.66,0,1.35,0,2.05a5.82,5.82,0,0,1-.39,2.09,3,3,0,0,1-1.46,1.55,4.71,4.71,0,0,1-3.85-.22,17.75,17.75,0,0,1-2.88-1.9,8.57,8.57,0,0,0-2.53-1.38,3.38,3.38,0,0,0-2.28.11,3,3,0,0,0-1.39,1.07,2.25,2.25,0,0,0-.34,1.45,1,1,0,0,1-.11-.4,1.92,1.92,0,0,1,.28-1.16,3.18,3.18,0,0,1,1.44-1.22,3.67,3.67,0,0,1,2.5-.21,8.7,8.7,0,0,1,2.68,1.39,17.64,17.64,0,0,0,2.82,1.81,4.26,4.26,0,0,0,3.44.2,2.48,2.48,0,0,0,1.2-1.29,5.4,5.4,0,0,0,.35-1.91c0-.68,0-1.36,0-2.05a5.4,5.4,0,0,1,.54-2,3.11,3.11,0,0,1,1.42-1.49,2,2,0,0,1,2,.21c1.06.79,1.49,1.93,2.35,2.45a3.33,3.33,0,0,0,2.69.28,5,5,0,0,0,2-1.17A10.91,10.91,0,0,0,296,322.2,14.71,14.71,0,0,1,297,321Z"/><path class="cls-9" d="M271.46,378.51a1.44,1.44,0,0,1-.51.59,2.84,2.84,0,0,1-2.2.36,5.59,5.59,0,0,1-1.55-.53,16.91,16.91,0,0,1-1.61-1.05,9.69,9.69,0,0,0-1.87-1.07,3.14,3.14,0,0,0-2.28-.06,4.08,4.08,0,0,0-1.87,1.73,21.73,21.73,0,0,0-1.3,2.6,14.32,14.32,0,0,1-1.52,2.81,4.43,4.43,0,0,1-1.29,1.14,2.39,2.39,0,0,1-.84.32l-.45.09h-.46a3.15,3.15,0,0,1-1.73-.61,6.18,6.18,0,0,1-1.33-1.27c-.77-1-1.4-2-2.15-3a5.55,5.55,0,0,0-2.81-2.17,4.49,4.49,0,0,0-3.52.73,8.29,8.29,0,0,0-2.58,2.72c-.68,1.07-1.24,2.2-1.88,3.29a11.31,11.31,0,0,1-2.29,2.93,6.09,6.09,0,0,1-3.25,1.55,4.57,4.57,0,0,1-3.29-1,11,11,0,0,1-2.12-2.4c-1.16-1.67-2.18-3.3-3.61-4.2a4.07,4.07,0,0,0-2.23-.68,5.46,5.46,0,0,0-2.06.47,5.83,5.83,0,0,0-2.55,2.24,4.54,4.54,0,0,0-.66,2.06,5.7,5.7,0,0,1,0,.77s0-.06,0-.19a4.73,4.73,0,0,1-.06-.58,4.65,4.65,0,0,1,.6-2.16,5.84,5.84,0,0,1,2.6-2.4,5.56,5.56,0,0,1,2.18-.54,4.51,4.51,0,0,1,2.43.7c1.54.95,2.6,2.63,3.76,4.26a11.06,11.06,0,0,0,2,2.28,4,4,0,0,0,3,.87,5.54,5.54,0,0,0,3-1.45,10.53,10.53,0,0,0,2.18-2.81c.62-1.06,1.18-2.21,1.88-3.31a8.68,8.68,0,0,1,2.75-2.88,5,5,0,0,1,3.92-.8,6.18,6.18,0,0,1,3.09,2.36c.77,1,1.39,2.06,2.13,3a3.82,3.82,0,0,0,2.69,1.72,3.14,3.14,0,0,0,2.66-1.35,14.06,14.06,0,0,0,1.49-2.71,20.5,20.5,0,0,1,1.36-2.64,4.38,4.38,0,0,1,2.07-1.86,3.54,3.54,0,0,1,2.53.1,9.1,9.1,0,0,1,1.92,1.14,15.1,15.1,0,0,0,1.56,1.07,5.33,5.33,0,0,0,1.47.55,2.76,2.76,0,0,0,2.1-.25A3.78,3.78,0,0,0,271.46,378.51Z"/><path class="cls-9" d="M269.56,345.24s0,.05-.08.16a1.06,1.06,0,0,1-.41.34,2.3,2.3,0,0,1-2-.18c-.82-.38-1.47-1.32-2.57-1.76a1.63,1.63,0,0,0-1.69.29,4.2,4.2,0,0,0-.92,1.88,12.71,12.71,0,0,1-.81,2.33,3.25,3.25,0,0,1-.87,1.06,2.7,2.7,0,0,1-1.34.52c-2,.2-3.86-1.12-5.14-2.69a16.2,16.2,0,0,0-2.21-2.17,4.48,4.48,0,0,0-2.9-.93,8,8,0,0,0-5.59,3.29c-1.43,1.84-2.38,4-3.64,5.84a9.77,9.77,0,0,1-5,4.14,5.69,5.69,0,0,1-3.08.19,5.2,5.2,0,0,1-2.49-1.51c-1.29-1.33-2.14-2.87-3.42-3.66a3.35,3.35,0,0,0-2-.51,3.53,3.53,0,0,0-1.75.65,7.85,7.85,0,0,0-2.07,2.29c-.91,1.46-1.24,2.38-1.29,2.35a2.57,2.57,0,0,1,.23-.66,14,14,0,0,1,.88-1.8,8.11,8.11,0,0,1,2.08-2.42,3.75,3.75,0,0,1,1.89-.74,3.68,3.68,0,0,1,2.22.53c1.41.85,2.28,2.41,3.54,3.67a4.66,4.66,0,0,0,2.29,1.36,5.07,5.07,0,0,0,2.82-.2,9.27,9.27,0,0,0,4.7-4c1.23-1.83,2.18-4,3.66-5.88a8.42,8.42,0,0,1,6-3.48,5.07,5.07,0,0,1,3.22,1,16,16,0,0,1,2.26,2.25,8.56,8.56,0,0,0,2.18,1.93,4.47,4.47,0,0,0,2.56.66,2.36,2.36,0,0,0,1.9-1.35,12.19,12.19,0,0,0,.82-2.25,4.46,4.46,0,0,1,1.05-2,1.93,1.93,0,0,1,2-.31c1.2.52,1.81,1.49,2.57,1.85a2.22,2.22,0,0,0,1.85.27C269.44,345.47,269.53,345.21,269.56,345.24Z"/><path class="cls-9" d="M270.07,310.73a5.08,5.08,0,0,0-.51-.35,2.37,2.37,0,0,0-1.69-.12,3.29,3.29,0,0,0-2.06,1.68,18.68,18.68,0,0,0-1.25,3.51,7.7,7.7,0,0,1-.95,2,3.81,3.81,0,0,1-2,1.48,4.63,4.63,0,0,1-2.63-.08,9.54,9.54,0,0,1-2.48-1.18c-1.54-1-3-2.34-4.94-2.68a4.53,4.53,0,0,0-2.81.46,8.24,8.24,0,0,0-2.38,1.89c-1.42,1.52-2.37,3.4-3.72,4.94a9.77,9.77,0,0,1-2.23,2,5.41,5.41,0,0,1-2.78.89,7.79,7.79,0,0,1-4.88-2c-1.29-1-2.36-2.11-3.51-2.88a6.13,6.13,0,0,0-3.38-1.23,4.36,4.36,0,0,0-2.59.83,2.88,2.88,0,0,0-1,1.36c-.14.38-.13.6-.17.6a1.6,1.6,0,0,1,.07-.63,2.86,2.86,0,0,1,1-1.49,4.49,4.49,0,0,1,2.7-1,6.3,6.3,0,0,1,3.6,1.22c1.19.77,2.3,1.84,3.57,2.84a7.34,7.34,0,0,0,4.59,1.88A6.64,6.64,0,0,0,242.3,322c1.28-1.49,2.24-3.37,3.72-5a8.92,8.92,0,0,1,2.53-2,5.13,5.13,0,0,1,3.12-.5c2.11.4,3.62,1.81,5.12,2.79s3.22,1.66,4.73,1.24a3.39,3.39,0,0,0,1.76-1.29,7.53,7.53,0,0,0,.94-1.91,16.67,16.67,0,0,1,1.34-3.53,3.81,3.81,0,0,1,1.05-1.19,3.33,3.33,0,0,1,1.21-.55,2.38,2.38,0,0,1,1.79.23A1.26,1.26,0,0,1,270.07,310.73Z"/><path class="cls-9" d="M264.94,294.5a1.16,1.16,0,0,1-.06.37,5.85,5.85,0,0,1-.36,1,3.46,3.46,0,0,1-1.06,1.39,1.84,1.84,0,0,1-2.28-.15,11.13,11.13,0,0,1-1.54-2.3,3.19,3.19,0,0,0-.95-1,2.79,2.79,0,0,0-1.4-.44,4.07,4.07,0,0,0-3,1.11,9.9,9.9,0,0,0-2.07,2.94,7.42,7.42,0,0,1-1.05,1.65,2.2,2.2,0,0,1-1.81.81,2.47,2.47,0,0,1-1.66-1,4.83,4.83,0,0,1-.82-1.57,6.25,6.25,0,0,0-1.29-2.7,2,2,0,0,0-1.12-.59,1.31,1.31,0,0,0-1.06.33,4.34,4.34,0,0,0-1,1.86,4.38,4.38,0,0,1-.86,1.51,1.69,1.69,0,0,1-1,.55c-.26,0-.39,0-.38,0a1.8,1.8,0,0,0,1.18-.66,4.29,4.29,0,0,0,.74-1.47,4.55,4.55,0,0,1,1.08-2.05,1.73,1.73,0,0,1,1.35-.45,2.47,2.47,0,0,1,1.37.67,6.63,6.63,0,0,1,1.44,2.86,4.35,4.35,0,0,0,.75,1.41,2,2,0,0,0,1.32.77,1.69,1.69,0,0,0,1.39-.65,7.13,7.13,0,0,0,1-1.53,10,10,0,0,1,2.19-3.09,4.52,4.52,0,0,1,3.35-1.21,3.29,3.29,0,0,1,1.63.54,3.75,3.75,0,0,1,1.06,1.2,11.16,11.16,0,0,0,1.42,2.26,1.51,1.51,0,0,0,1.87.18,3.45,3.45,0,0,0,1-1.24C264.76,295,264.89,294.48,264.94,294.5Z"/><path class="cls-9" d="M199.73,294.58a1.56,1.56,0,0,1,.1.47,13.58,13.58,0,0,1,.12,1.38,6.24,6.24,0,0,1-.26,2.19,3.64,3.64,0,0,1-1.9,2.24,2.61,2.61,0,0,1-1.76.22,2.78,2.78,0,0,1-1.56-1.12c-.39-.52-.68-1.11-1-1.66A3,3,0,0,0,192,297a2.94,2.94,0,0,0-3.43,1.52,5.33,5.33,0,0,0-.63,2.14,15.8,15.8,0,0,0,.05,2.37,7.68,7.68,0,0,1-.18,2.48,3.5,3.5,0,0,1-1.41,2,2.76,2.76,0,0,1-2.4.2,5.34,5.34,0,0,1-1.88-1.25c-1-1.06-1.65-2.26-2.53-3.11a3.89,3.89,0,0,0-3-1.22,3.75,3.75,0,0,0-2.48,1.07,3.84,3.84,0,0,0-1,1.81,5.19,5.19,0,0,0-.1,1.82,1.41,1.41,0,0,1-.14-.47,3.7,3.7,0,0,1,0-1.39,4,4,0,0,1,3.69-3.2,4.19,4.19,0,0,1,3.31,1.27c.95.89,1.61,2.11,2.56,3.08a4.92,4.92,0,0,0,1.72,1.12,2.25,2.25,0,0,0,2-.16,3,3,0,0,0,1.18-1.75,7.06,7.06,0,0,0,.16-2.31,8.2,8.2,0,0,1,.65-4.79,3.12,3.12,0,0,1,5.66-.25c.36.58.64,1.17,1,1.65a2.36,2.36,0,0,0,1.31,1,2.24,2.24,0,0,0,1.51-.16,3.37,3.37,0,0,0,1.77-2,6.67,6.67,0,0,0,.34-2.1C199.75,295.24,199.68,294.58,199.73,294.58Z"/><path class="cls-4" d="M253.3,179.43c-6.77-1.46-13.15,5-20,4.28-4.18-.46-7.56-3.48-11.39-5.21-5.73-2.6-13.51-2.44-18.86.87s-8.69,6.65-8.93,12.93c-5.33-2.48-13.27,4.64-15.64,11.06s-1.1,12.75,1.1,19.23A90.33,90.33,0,0,0,197.1,253c.69.78,1.76,1.62,2.66,1.1a2.26,2.26,0,0,0,.82-1.91c.46-6.13-.83-12.25-1.87-18.31s-1.83-12.34-.39-18.33,5.54-11.67,11.45-13.37c4.37-1.26,9.11-.2,13.25,1.68s7.86,4.56,11.83,6.76,8.38,4,12.92,3.79,9.21-2.73,10.8-7-1.08-9.9-5.59-10.47a8.93,8.93,0,0,0,.32-17.53Z"/><path class="cls-11" d="M241.93,287.3l-1.75-13.05s17-4.77,15.12-22.1c-.9-8.37-4.16-25.45-7.28-40.88a32.48,32.48,0,0,0-35.71-25.8l-1.67.2c-17.88,3.21-25.14,20.19-21.43,38l10.08,69.6a21.53,21.53,0,0,0,24.25,18.24h0A21.53,21.53,0,0,0,241.93,287.3Z"/><path class="cls-12" d="M240.2,274.24a40.53,40.53,0,0,1-23.33-3.71s6.82,11.82,23.91,8.19Z"/><path class="cls-4" d="M242.7,221.78a2.53,2.53,0,0,1-2.07,2.87,2.42,2.42,0,0,1-2.83-2,2.54,2.54,0,0,1,2.06-2.88A2.44,2.44,0,0,1,242.7,221.78Z"/><path class="cls-4" d="M245.31,221.33c-.26.36-2.3-.81-5-.48s-4.45,1.89-4.78,1.6c-.16-.13.09-.75.86-1.47a6.93,6.93,0,0,1,3.78-1.68,6.63,6.63,0,0,1,4,.78C245.1,220.61,245.45,221.16,245.31,221.33Z"/><path class="cls-4" d="M217.38,223.91a2.56,2.56,0,0,1-2.06,2.92,2.44,2.44,0,0,1-2.84-2.06,2.56,2.56,0,0,1,2.06-2.93A2.45,2.45,0,0,1,217.38,223.91Z"/><path class="cls-4" d="M219.78,223.4c-.26.36-2.31-.8-5-.47s-4.45,1.89-4.78,1.59c-.16-.12.08-.74.86-1.46a6.79,6.79,0,0,1,3.78-1.68,6.56,6.56,0,0,1,4,.78C219.57,222.69,219.92,223.24,219.78,223.4Z"/><path class="cls-4" d="M231.25,242.37c0-.15,1.59-.63,4.23-1.29.67-.16,1.29-.37,1.35-.84a3.51,3.51,0,0,0-.69-2l-2.63-4.93c-3.68-7-6.42-12.84-6.14-13s3.5,5.43,7.17,12.46l2.55,5a4,4,0,0,1,.67,2.63,1.71,1.71,0,0,1-1,1.12,4.44,4.44,0,0,1-1.13.3C233,242.31,231.28,242.52,231.25,242.37Z"/><path class="cls-4" d="M223.64,245.15c.43-.07.79,2.81,3.5,4.57s5.75,1.06,5.83,1.46c.06.18-.62.64-1.92.84a7.28,7.28,0,0,1-4.84-1.06,6.32,6.32,0,0,1-2.75-3.85C223.21,245.91,223.44,245.16,223.64,245.15Z"/><path class="cls-4" d="M218.44,211.24c-.17.75-2.87.73-5.94,1.48s-5.5,1.9-6,1.3c-.22-.29.13-1,1.07-1.84a10.64,10.64,0,0,1,9.09-2.12C217.87,210.38,218.52,210.88,218.44,211.24Z"/><path class="cls-4" d="M243.41,212.59c-.39.66-2.3.26-4.51.49s-4,.9-4.52.32c-.23-.29,0-.93.74-1.6a6.55,6.55,0,0,1,7.28-.64C243.25,211.68,243.58,212.28,243.41,212.59Z"/><path class="cls-11" d="M192.16,236.29c-.31-.09-12.31-2.09-10.51,9.7s13.26,7.55,13.23,7.21S192.16,236.29,192.16,236.29Z"/><path class="cls-12" d="M190.59,249.28c-.05,0-.18.17-.5.39a2.1,2.1,0,0,1-1.53.26c-1.32-.26-2.67-2.08-3.05-4.2a6.9,6.9,0,0,1,.13-3,2.42,2.42,0,0,1,1.3-1.82,1.06,1.06,0,0,1,1.3.38c.21.31.17.55.23.56s.23-.23.06-.7a1.34,1.34,0,0,0-.58-.67,1.57,1.57,0,0,0-1.18-.13,2.92,2.92,0,0,0-1.87,2.16,7.2,7.2,0,0,0-.21,3.39c.44,2.36,2,4.4,3.78,4.63a2.21,2.21,0,0,0,1.83-.6C190.62,249.57,190.64,249.29,190.59,249.28Z"/><path class="cls-4" d="M251.24,207.2a25.18,25.18,0,0,1-22.8-2.34c-4.64-3.06-8.5-7.8-14-8.79a14.13,14.13,0,0,0-10.57,2.76,27.4,27.4,0,0,0-7.25,8.47c4.4,8.39,3.33,18.48,2.15,27.88a4.73,4.73,0,0,1-1,2.9c-1.27,1.24-3.46.65-4.84-.48-2.2-1.81-3.3-4.6-4.13-7.33a48.88,48.88,0,0,1-2.19-19.2,33.34,33.34,0,0,1,7.09-17.82,31.66,31.66,0,0,1,21-11A38.89,38.89,0,0,1,238,187.59a22.88,22.88,0,0,1,8.27,7.5"/><path class="cls-6" d="M258.77,183a2.58,2.58,0,0,1,0,1,4.8,4.8,0,0,1-1.36,2.63,7.54,7.54,0,0,1-4.24,2,12.87,12.87,0,0,1-3,.17,6.33,6.33,0,0,1-3.18-1,4.2,4.2,0,0,1-1.88-3.17,3.71,3.71,0,0,1,2.15-3.32,4.67,4.67,0,0,1,2.1-.53,4,4,0,0,1,2.14.67,5.47,5.47,0,0,1,2.26,3.93,6.25,6.25,0,0,1-1.35,4.56,9.58,9.58,0,0,1-4,2.95,15.64,15.64,0,0,1-10.25.11,44.64,44.64,0,0,1-9.38-4.21,56.4,56.4,0,0,0-8.54-4.12,17.7,17.7,0,0,0-8.37-1,16.86,16.86,0,0,0-6.86,2.67,21.05,21.05,0,0,0-7,8.07,28,28,0,0,0-1.21,2.7,10,10,0,0,1-.38,1,.64.64,0,0,1,0-.26c.05-.17.11-.42.22-.74a22.06,22.06,0,0,1,1.11-2.76,20.85,20.85,0,0,1,7-8.32,17.14,17.14,0,0,1,7-2.8,18,18,0,0,1,8.61,1,55.69,55.69,0,0,1,8.65,4.12,45.23,45.23,0,0,0,9.27,4.16,15.12,15.12,0,0,0,9.86-.09,9,9,0,0,0,3.76-2.75,5.68,5.68,0,0,0,1.25-4.16,4.88,4.88,0,0,0-2-3.56,3.6,3.6,0,0,0-3.73-.13,3.22,3.22,0,0,0-1.91,2.87,3.75,3.75,0,0,0,1.66,2.83,5.94,5.94,0,0,0,3,1,12.34,12.34,0,0,0,2.88-.13,7.38,7.38,0,0,0,4.13-1.84,4.9,4.9,0,0,0,1.41-2.49C258.8,183.37,258.73,183,258.77,183Z"/><path class="cls-6" d="M177.55,213.8a19.81,19.81,0,0,0,3.73.51,10.22,10.22,0,0,0,3.92-.89,17.58,17.58,0,0,0,4.18-2.67,14,14,0,0,0,4.42-7.68,29.74,29.74,0,0,0,.35-3.76,3.1,3.1,0,0,1,.18,1,11.4,11.4,0,0,1-.12,2.81,13.54,13.54,0,0,1-4.45,8.06,16.77,16.77,0,0,1-4.35,2.72,10,10,0,0,1-4.13.8,9.35,9.35,0,0,1-2.78-.49A3.12,3.12,0,0,1,177.55,213.8Z"/><path class="cls-6" d="M179.1,222.3c0-.11,1.42,0,3.64-.36a16.36,16.36,0,0,0,12.71-10.78c.75-2.13.84-3.55,1-3.53a3,3,0,0,1,0,1,14.17,14.17,0,0,1-.54,2.67,15.8,15.8,0,0,1-13,11.06,13.42,13.42,0,0,1-2.71.11A2.85,2.85,0,0,1,179.1,222.3Z"/><path class="cls-12" d="M211.75,236.18a.32.32,0,0,1-.38-.22.3.3,0,0,1,.18-.4.31.31,0,0,1,.38.22A.3.3,0,0,1,211.75,236.18Z"/><path class="cls-12" d="M216.69,234.42a.34.34,0,0,1-.39-.27.33.33,0,0,1,.16-.44.34.34,0,0,1,.4.26A.35.35,0,0,1,216.69,234.42Z"/><path class="cls-12" d="M220.11,233.92c-.16,0-.34-.14-.41-.4s0-.5.17-.54.34.14.4.4S220.26,233.88,220.11,233.92Z"/><path class="cls-12" d="M214.63,239.07c-.16,0-.3,0-.31-.16s.1-.2.27-.22.3.05.31.15S214.79,239.05,214.63,239.07Z"/><path class="cls-12" d="M219.16,237.43a.33.33,0,0,1-.36-.27.33.33,0,0,1,.23-.39.32.32,0,0,1,.35.27A.32.32,0,0,1,219.16,237.43Z"/><path class="cls-12" d="M243.07,231.62a.33.33,0,0,1-.21-.63.29.29,0,0,1,.38.22A.31.31,0,0,1,243.07,231.62Z"/><path class="cls-12" d="M246.49,230.89a.35.35,0,0,1-.37-.3.35.35,0,0,1,.21-.43.34.34,0,0,1,.37.3A.35.35,0,0,1,246.49,230.89Z"/><path class="cls-12" d="M240,232.07a.28.28,0,0,1-.36-.15.27.27,0,0,1,.2-.34.26.26,0,1,1,.16.49Z"/><path class="cls-12" d="M243,235.23a.35.35,0,1,1,.08-.45A.33.33,0,0,1,243,235.23Z"/><path class="cls-12" d="M245.89,234.28a.28.28,0,0,1-.26-.29.28.28,0,0,1,.33-.2.28.28,0,0,1,.26.29A.28.28,0,0,1,245.89,234.28Z"/><path class="cls-4" d="M181,242.53c0,.06-.65.05-1.18-.72a2.07,2.07,0,0,1-.31-1.54,2.59,2.59,0,0,1,1.07-1.59,2.71,2.71,0,0,1,1.86-.46,3,3,0,0,1,1.44.55c.72.53.84,1.12.79,1.12s-.31-.43-1-.81a2.65,2.65,0,0,0-2.8,0,2.32,2.32,0,0,0-.9,1.27,1.78,1.78,0,0,0,.16,1.25C180.5,242.31,181.05,242.45,181,242.53Z"/><path class="cls-11" d="M270.52,371.71l.89,25.82s-74.86,14.83-84.49,19.79-13.56,5.73-13,20l119.63-.21s14.75-5.52,14.45-21.57-4.3-54.62-4.3-54.62Z"/><path class="cls-11" d="M186.33,437.74l9.94-.9,9.48-22.68c-1.53-.26-33.55-5-35.44-4.47L162.64,437S185.64,437.74,186.33,437.74Z"/><path class="cls-11" d="M164.43,437.4a1.4,1.4,0,0,0,.54.12c2.64.29,14.85-.46,14.85-.46.56-1.57-.5-6.31-2-6.59s-14.51.6-14.51.6-2,.27-2.56,3.71C160.42,436.9,164.43,437.4,164.43,437.4Z"/><path class="cls-11" d="M160.31,430.46a1.26,1.26,0,0,0,.53.12c2.64.29,14.19.16,14.69-1.24.55-1.58-.33-5.53-1.85-5.81s-14.52.6-14.52.6-2,.27-2.55,3.71C156.29,430,160.31,430.46,160.31,430.46Z"/><path class="cls-11" d="M158.26,423.68a1.26,1.26,0,0,0,.53.12c2.65.29,14.19.16,14.69-1.25.56-1.57-.33-5.52-1.85-5.8s-14.51.6-14.51.6-2.05.27-2.56,3.71C154.24,423.18,158.26,423.68,158.26,423.68Z"/><path class="cls-11" d="M156.34,416.93c0,.05.21.09.53.12,2.65.29,14.19.17,14.69-1.24.56-1.58-.33-5.53-1.85-5.8s-14.52.6-14.52.6-2,.27-2.55,3.7C152.32,416.44,156.34,416.93,156.34,416.93Z"/><path class="cls-12" d="M174.43,430.41c0,.2-2.54.43-5.62.52s-5.58,0-5.56-.2,2.53-.43,5.62-.52S174.44,430.21,174.43,430.41Z"/><path class="cls-12" d="M174.49,423.6c0,.2-3.57.48-8,.62s-8,.09-8-.11,3.57-.48,8-.62S174.48,423.4,174.49,423.6Z"/><g class="cls-13"><path class="cls-12" d="M173.94,416.69c0,.2-3.57.47-8,.61s-8,.09-8-.11,3.57-.47,8-.61S173.94,416.48,173.94,416.69Z"/></g><path class="cls-11" d="M192.47,412.41s-21.79-9.69-23.15-8.29-3.46,5.9-3.46,5.9Z"/><path class="cls-12" d="M288.14,420.06c-.09,0-.53-1.56-1.57-4a42.75,42.75,0,0,0-2.06-4.15,39.61,39.61,0,0,0-7-8.92,40.94,40.94,0,0,0-3.53-3c-2.1-1.6-3.53-2.41-3.48-2.5a5.34,5.34,0,0,1,1,.51,28.14,28.14,0,0,1,2.66,1.69,35.46,35.46,0,0,1,3.64,3,41.72,41.72,0,0,1,3.88,4.24,39.07,39.07,0,0,1,3.16,4.8,34.31,34.31,0,0,1,2,4.24,25.43,25.43,0,0,1,1,3A4.54,4.54,0,0,1,288.14,420.06Z"/><path class="cls-11" d="M200.5,298.48,178,362.64l-25.34,7.3s9.19,38.88,18.57,45.87c3.19,2.37,8.4,4.94,13.74,4.57,10.13-.71,21.49-7.85,25.83-17.82,3.84-8.87,14.12-100.5,14.12-100.5Z"/><path class="cls-11" d="M224.58,304.79l1.31-15.63-3.63-12.54-1.4-4.8,2.74,2.8,5-5.33s-1.62-9.47-3-9.47a25.16,25.16,0,0,0-5.07,1.49c-1,.37-1.79.67-1.79.67l-4.23,2.17,4.23-6.49s4.36,3.62,6.59.47c1.71-2.41-4.65-7.81-7-9.72a2.39,2.39,0,0,0-1.95-.46l-2.47.49a3.59,3.59,0,0,0-3.61-3.29,5.56,5.56,0,0,0-4.73,2.84l-2.61.47a4.33,4.33,0,0,0-4.07,2.84l-5.72,15.55,7.34,31.63"/><path class="cls-12" d="M200.5,298.48s-.06-.19-.16-.56-.23-.95-.41-1.65l-1.53-6.35-5.44-23v-.06l0-.06c1.13-3.08,2.32-6.35,3.57-9.78l1.93-5.26a5.07,5.07,0,0,1,1.6-2.5,4.67,4.67,0,0,1,2.88-1h0l2.6-.47-.17.12a6.31,6.31,0,0,1,1.9-2.05,5.3,5.3,0,0,1,2.73-.91,4,4,0,0,1,2.8.89,3.41,3.41,0,0,1,1.39,2.66l-.31-.27,1.87-.37a6.88,6.88,0,0,1,1-.17,2.65,2.65,0,0,1,1.05.15,3,3,0,0,1,.9.55l.75.61c.5.42,1,.85,1.49,1.29a33.87,33.87,0,0,1,2.81,2.81,9.4,9.4,0,0,1,2.13,3.5,2.29,2.29,0,0,1,0,1.27,3,3,0,0,1-.73,1,3.08,3.08,0,0,1-2.26.83,7.75,7.75,0,0,1-4.2-1.83l.38-.05-4.24,6.49-.33-.37,4.24-2.16h0c1.43-.54,2.84-1.08,4.26-1.53a19.24,19.24,0,0,1,2.17-.59,2.37,2.37,0,0,1,.63,0,1,1,0,0,1,.56.44,4.68,4.68,0,0,1,.52,1,49.2,49.2,0,0,1,2,8.2l0,.11-.08.09-5,5.32-.16.16-.15-.16L220.71,272l.35-.2c1.93,6.72,3.6,12.55,5,17.36v.05c-.44,4.93-.8,8.83-1,11.52l-.3,3.06c0,.32-.06.58-.08.78a2.23,2.23,0,0,1,0,.26.86.86,0,0,1,0-.26c0-.2,0-.46,0-.79,0-.72.13-1.74.22-3.06.21-2.7.51-6.6.9-11.53v.05c-1.4-4.79-3.11-10.62-5.08-17.33l-.23-.79.58.59,2.75,2.8h-.32l5-5.34-.06.2a50.7,50.7,0,0,0-2-8.1,4.85,4.85,0,0,0-.46-.91.64.64,0,0,0-.27-.25,2.24,2.24,0,0,0-.45.05,18.75,18.75,0,0,0-2.1.57c-1.4.45-2.81,1-4.23,1.53h0l-4.24,2.17-.85.43.52-.8,4.23-6.5.16-.23.23.18a7.43,7.43,0,0,0,3.89,1.7,2.53,2.53,0,0,0,1.89-.69,2.62,2.62,0,0,0,.59-.81,1.81,1.81,0,0,0,0-1,8.94,8.94,0,0,0-2-3.28,32.91,32.91,0,0,0-2.77-2.77c-.48-.43-1-.86-1.47-1.27a6.22,6.22,0,0,0-1.5-1.07,2.91,2.91,0,0,0-1.75,0l-1.87.38-.31.06v-.33a3,3,0,0,0-1.2-2.24,3.54,3.54,0,0,0-2.46-.77,5.23,5.23,0,0,0-4.22,2.68l-.06.11-.11,0-2.61.47h0a4.09,4.09,0,0,0-2.57.91,4.54,4.54,0,0,0-1.47,2.29q-1,2.68-1.94,5.26-1.91,5.13-3.61,9.76v-.11c2.2,9.63,4,17.53,5.27,23.06.61,2.74,1.08,4.88,1.42,6.37.15.71.27,1.27.35,1.67A5.71,5.71,0,0,1,200.5,298.48Z"/><path class="cls-12" d="M218.56,269.79a28.21,28.21,0,0,1,4.38-2.36l1.63-.79-1.35,1.21a4.28,4.28,0,0,0-1.4,3.46,4.39,4.39,0,0,0,.59,1.87,11.85,11.85,0,0,0,1.19,1.44c0,.05-.77-.23-1.5-1.24a4.45,4.45,0,0,1-.76-2,4.58,4.58,0,0,1,.52-2.61,4.5,4.5,0,0,1,1-1.28l.27.41A27.59,27.59,0,0,1,218.56,269.79Z"/><path class="cls-12" d="M206.58,261.34A13.39,13.39,0,0,1,207.8,259c.82-1.42,2-3.37,3.27-5.5.66-1.07,1.27-2.08,1.87-3a6.3,6.3,0,0,1,2.07-2.1,3.36,3.36,0,0,1,2-.43c.48.06.7.22.69.25s-.26,0-.7,0a3.33,3.33,0,0,0-1.75.54c-1.38.81-2.34,3-3.68,5.05s-2.51,4.05-3.4,5.42A14.92,14.92,0,0,1,206.58,261.34Z"/><path class="cls-12" d="M198.83,261.28a9.36,9.36,0,0,1,.74-2.12c.53-1.29,1.31-3,2.25-4.94s1.86-3.58,2.56-4.77a9.63,9.63,0,0,1,1.25-1.88,10.34,10.34,0,0,1-.92,2.05c-.71,1.42-1.53,3-2.42,4.84s-1.68,3.42-2.38,4.85A10.38,10.38,0,0,1,198.83,261.28Z"/><path class="cls-12" d="M180.72,356.37a5.7,5.7,0,0,1-.37,1.16l-1.15,3.11c-1,2.61-2.34,6.23-3.77,10.24s-2.66,7.68-3.54,10.33c-.42,1.25-.78,2.3-1.06,3.14a6,6,0,0,1-.45,1.13,5.36,5.36,0,0,1,.25-1.19c.2-.76.51-1.85.91-3.19.79-2.68,2-6.36,3.4-10.39s2.84-7.63,3.91-10.21c.54-1.29,1-2.33,1.32-3A5.48,5.48,0,0,1,180.72,356.37Z"/><path class="cls-12" d="M214.15,386a2.08,2.08,0,0,1,0,.29c0,.23-.06.51-.11.87q-.18,1.18-.48,3.3c-.22,1.43-.48,3.19-.89,5.21a40.89,40.89,0,0,1-1.88,6.76,22.31,22.31,0,0,1-4.41,7.27,33.19,33.19,0,0,1-7.6,6.13,41.11,41.11,0,0,1-10,4.15,21.89,21.89,0,0,1-5.69.79,17,17,0,0,1-5.82-1,21.54,21.54,0,0,1-9.29-6.86,36.83,36.83,0,0,1-5.37-9.35c-1.31-3.2-2.09-6.38-3-9.29s-1.74-5.62-2.5-8.1c-1.55-5-2.73-9-3.47-11.78-.37-1.4-.64-2.5-.81-3.24-.07-.35-.14-.63-.18-.85a1.28,1.28,0,0,1,0-.29,1.08,1.08,0,0,1,.1.28l.24.83c.21.77.51,1.85.9,3.21.79,2.79,2,6.8,3.62,11.73.78,2.48,1.64,5.18,2.56,8.09s1.72,6.07,3,9.23a36.63,36.63,0,0,0,5.33,9.21,21.06,21.06,0,0,0,9.06,6.69,16.49,16.49,0,0,0,5.65,1,21.5,21.5,0,0,0,5.56-.77,40.69,40.69,0,0,0,9.85-4.06,33.28,33.28,0,0,0,7.52-6,22.2,22.2,0,0,0,4.39-7.11,42.37,42.37,0,0,0,1.94-6.69c.43-2,.72-3.75,1-5.18s.44-2.5.57-3.29l.17-.85A.94.94,0,0,1,214.15,386Z"/></g></g></svg>